<?xml version="1.0" encoding="UTF-8" standalone="no"?>
<!DOCTYPE svg PUBLIC "-//W3C//DTD SVG 1.1//EN"
 "http://www.w3.org/Graphics/SVG/1.1/DTD/svg11.dtd">
<!-- Generated by graphviz version 12.2.1 (0)
 -->
<!-- Title: pastafarianism Pages: 1 -->
<svg width="592pt" height="339pt"
 viewBox="0.00 0.00 592.25 338.75" xmlns="http://www.w3.org/2000/svg" xmlns:xlink="http://www.w3.org/1999/xlink">
<g id="graph0" class="graph" transform="scale(1 1) rotate(0) translate(4 334.75)">
<title>pastafarianism</title>
<polygon fill="white" stroke="none" points="-4,4 -4,-334.75 588.25,-334.75 588.25,4 -4,4"/>
<!-- RoboCup Controller -->
<g id="node1" class="node">
<title>RoboCup Controller</title>
<polygon fill="gold" stroke="black" points="424.63,-330.75 222.6,-330.75 170.62,-269.75 372.65,-269.75 424.63,-330.75"/>
<text text-anchor="middle" x="297.62" y="-302.95" font-family="Times,serif" font-size="9.00">⚡ RoboCup Controller</text>
<text text-anchor="middle" x="297.62" y="-291.7" font-family="Times,serif" font-size="9.00">SuccessOnAll</text>
</g>
<!-- Camera -->
<g id="node2" class="node">
<title>Camera</title>
<ellipse fill="gray" stroke="black" cx="253.62" cy="-215.75" rx="30.32" ry="18"/>
<text text-anchor="middle" x="253.62" y="-212.82" font-family="Times,serif" font-size="9.00">Camera</text>
</g>
<!-- RoboCup Controller&#45;&gt;Camera -->
<g id="edge1" class="edge">
<title>RoboCup Controller&#45;&gt;Camera</title>
<path fill="none" stroke="black" d="M281.74,-269.47C277.17,-260.9 272.22,-251.61 267.76,-243.26"/>
<polygon fill="black" stroke="black" points="270.96,-241.81 263.16,-234.63 264.78,-245.1 270.96,-241.81"/>
</g>
<!-- Movement -->
<g id="node3" class="node">
<title>Movement</title>
<polygon fill="cyan" stroke="black" points="383.61,-208.29 383.61,-223.21 359.6,-233.75 325.65,-233.75 301.64,-223.21 301.64,-208.29 325.65,-197.75 359.6,-197.75 383.61,-208.29"/>
<text text-anchor="middle" x="342.62" y="-212.82" font-family="Times,serif" font-size="9.00">Movement</text>
</g>
<!-- RoboCup Controller&#45;&gt;Movement -->
<g id="edge2" class="edge">
<title>RoboCup Controller&#45;&gt;Movement</title>
<path fill="none" stroke="black" d="M313.87,-269.47C318.35,-261.25 323.19,-252.38 327.6,-244.29"/>
<polygon fill="black" stroke="black" points="330.64,-246.03 332.36,-235.57 324.5,-242.68 330.64,-246.03"/>
</g>
<!-- /goal/bb -->
<g id="node11" class="node">
<title>/goal/bb</title>
<polygon fill="white" stroke="blue" points="57.25,-17.75 0,-17.75 0,0 57.25,0 57.25,-17.75"/>
<text text-anchor="middle" x="28.62" y="-6.15" font-family="Times,serif" font-size="8.00" fill="blue">/goal/bb: &#45;</text>
</g>
<!-- Camera&#45;&gt;/goal/bb -->
<g id="edge11" class="edge">
<title>Camera&#45;&gt;/goal/bb</title>
<path fill="none" stroke="blue" d="M223.45,-212.94C186.62,-209.18 124.56,-197.56 86.62,-161.75 48.38,-125.65 35.08,-61.64 30.68,-29.48"/>
<polygon fill="blue" stroke="blue" points="34.17,-29.17 29.5,-19.65 27.22,-30 34.17,-29.17"/>
</g>
<!-- /ball/centre -->
<g id="node12" class="node">
<title>/ball/centre</title>
<polygon fill="white" stroke="blue" points="496.62,-17.75 426.62,-17.75 426.62,0 496.62,0 496.62,-17.75"/>
<text text-anchor="middle" x="461.62" y="-6.15" font-family="Times,serif" font-size="8.00" fill="blue">/ball/centre: &#45;</text>
</g>
<!-- Camera&#45;&gt;/ball/centre -->
<g id="edge13" class="edge">
<title>Camera&#45;&gt;/ball/centre</title>
<path fill="none" stroke="blue" d="M223.01,-214.34C186.08,-211.99 125.4,-201.83 96.62,-161.75 87.29,-148.75 90.07,-140.35 96.62,-125.75 116.36,-81.81 134.05,-74.26 177.62,-53.75 255.33,-17.17 356.94,-9.95 415.18,-9.14"/>
<polygon fill="blue" stroke="blue" points="415.09,-12.64 425.06,-9.07 415.04,-5.64 415.09,-12.64"/>
</g>
<!-- /ball/radius -->
<g id="node14" class="node">
<title>/ball/radius</title>
<polygon fill="white" stroke="blue" points="584.25,-17.75 515,-17.75 515,0 584.25,0 584.25,-17.75"/>
<text text-anchor="middle" x="549.62" y="-6.15" font-family="Times,serif" font-size="8.00" fill="blue">/ball/radius: &#45;</text>
</g>
<!-- Camera&#45;&gt;/ball/radius -->
<g id="edge16" class="edge">
<title>Camera&#45;&gt;/ball/radius</title>
<path fill="none" stroke="blue" d="M223.92,-211.32C194.35,-206.14 150.45,-193.31 129.62,-161.75 120.81,-148.4 122.62,-140.13 129.62,-125.75 141,-102.41 197.66,-63.74 221.62,-53.75 335.73,-6.17 377.48,-35.21 503.36,-17.94"/>
<polygon fill="blue" stroke="blue" points="503.7,-21.43 513.09,-16.53 502.69,-14.5 503.7,-21.43"/>
</g>
<!-- Stop/Go -->
<g id="node4" class="node">
<title>Stop/Go</title>
<ellipse fill="gray" stroke="black" cx="169.62" cy="-143.75" rx="31.21" ry="18"/>
<text text-anchor="middle" x="169.62" y="-140.82" font-family="Times,serif" font-size="9.00">Stop/Go</text>
</g>
<!-- Movement&#45;&gt;Stop/Go -->
<g id="edge3" class="edge">
<title>Movement&#45;&gt;Stop/Go</title>
<path fill="none" stroke="black" d="M312.97,-202.95C286.19,-192.27 245.72,-176.07 210.62,-161.75 208.73,-160.98 206.78,-160.18 204.82,-159.37"/>
<polygon fill="black" stroke="black" points="206.3,-156.2 195.72,-155.62 203.63,-162.67 206.3,-156.2"/>
</g>
<!-- Avoid Out of Bounds -->
<g id="node5" class="node">
<title>Avoid Out of Bounds</title>
<ellipse fill="gray" stroke="black" cx="284.62" cy="-143.75" rx="65.38" ry="18"/>
<text text-anchor="middle" x="284.62" y="-140.82" font-family="Times,serif" font-size="9.00">Avoid Out of Bounds</text>
</g>
<!-- Movement&#45;&gt;Avoid Out of Bounds -->
<g id="edge4" class="edge">
<title>Movement&#45;&gt;Avoid Out of Bounds</title>
<path fill="none" stroke="black" d="M328.29,-197.45C321.44,-189.19 313.12,-179.14 305.59,-170.05"/>
<polygon fill="black" stroke="black" points="308.44,-168 299.36,-162.54 303.05,-172.47 308.44,-168"/>
</g>
<!-- Score Goal -->
<g id="node6" class="node">
<title>Score Goal</title>
<polygon fill="orange" stroke="black" points="434.75,-161.75 368.5,-161.75 368.5,-125.75 434.75,-125.75 434.75,-161.75"/>
<text text-anchor="middle" x="401.62" y="-140.82" font-family="Times,serif" font-size="9.00">Score Goal</text>
</g>
<!-- Movement&#45;&gt;Score Goal -->
<g id="edge5" class="edge">
<title>Movement&#45;&gt;Score Goal</title>
<path fill="none" stroke="black" d="M357.21,-197.45C364.07,-189.31 372.39,-179.44 379.96,-170.45"/>
<polygon fill="black" stroke="black" points="382.46,-172.91 386.23,-163.01 377.11,-168.4 382.46,-172.91"/>
</g>
<!-- Ball Chase -->
<g id="node10" class="node">
<title>Ball Chase</title>
<ellipse fill="gray" stroke="black" cx="490.62" cy="-143.75" rx="38.31" ry="18"/>
<text text-anchor="middle" x="490.62" y="-140.82" font-family="Times,serif" font-size="9.00">Ball Chase</text>
</g>
<!-- Movement&#45;&gt;Ball Chase -->
<g id="edge9" class="edge">
<title>Movement&#45;&gt;Ball Chase</title>
<path fill="none" stroke="black" d="M369.77,-201.91C393.39,-190.74 427.82,-174.45 453.9,-162.12"/>
<polygon fill="black" stroke="black" points="455.24,-165.36 462.78,-157.92 452.24,-159.03 455.24,-165.36"/>
</g>
<!-- Has Posession? -->
<g id="node7" class="node">
<title>Has Posession?</title>
<ellipse fill="gray" stroke="black" cx="280.62" cy="-71.75" rx="50.29" ry="18"/>
<text text-anchor="middle" x="280.62" y="-68.83" font-family="Times,serif" font-size="9.00">Has Posession?</text>
</g>
<!-- Score Goal&#45;&gt;Has Posession? -->
<g id="edge6" class="edge">
<title>Score Goal&#45;&gt;Has Posession?</title>
<path fill="none" stroke="black" d="M371.4,-125.27C354.67,-115.59 333.77,-103.49 316.24,-93.36"/>
<polygon fill="black" stroke="black" points="318.09,-90.38 307.68,-88.4 314.58,-96.44 318.09,-90.38"/>
</g>
<!-- Get Goal Target -->
<g id="node8" class="node">
<title>Get Goal Target</title>
<ellipse fill="gray" stroke="black" cx="401.62" cy="-71.75" rx="52.96" ry="18"/>
<text text-anchor="middle" x="401.62" y="-68.83" font-family="Times,serif" font-size="9.00">Get Goal Target</text>
</g>
<!-- Score Goal&#45;&gt;Get Goal Target -->
<g id="edge7" class="edge">
<title>Score Goal&#45;&gt;Get Goal Target</title>
<path fill="none" stroke="black" d="M401.62,-125.45C401.62,-118.16 401.62,-109.48 401.62,-101.29"/>
<polygon fill="black" stroke="black" points="405.13,-101.37 401.63,-91.37 398.13,-101.37 405.13,-101.37"/>
</g>
<!-- Goal Chase -->
<g id="node9" class="node">
<title>Goal Chase</title>
<ellipse fill="gray" stroke="black" cx="512.62" cy="-71.75" rx="40.09" ry="18"/>
<text text-anchor="middle" x="512.62" y="-68.83" font-family="Times,serif" font-size="9.00">Goal Chase</text>
</g>
<!-- Score Goal&#45;&gt;Goal Chase -->
<g id="edge8" class="edge">
<title>Score Goal&#45;&gt;Goal Chase</title>
<path fill="none" stroke="black" d="M429.35,-125.27C444.88,-115.47 464.31,-103.22 480.5,-93.01"/>
<polygon fill="black" stroke="black" points="482.23,-96.06 488.82,-87.76 478.49,-90.14 482.23,-96.06"/>
</g>
<!-- /goal/target -->
<g id="node13" class="node">
<title>/goal/target</title>
<polygon fill="white" stroke="blue" points="291,-17.75 220.25,-17.75 220.25,0 291,0 291,-17.75"/>
<text text-anchor="middle" x="255.62" y="-6.15" font-family="Times,serif" font-size="8.00" fill="blue">/goal/target: &#45;</text>
</g>
<!-- Get Goal Target&#45;&gt;/goal/target -->
<g id="edge15" class="edge">
<title>Get Goal Target&#45;&gt;/goal/target</title>
<path fill="none" stroke="blue" d="M369.22,-57.24C344.31,-46.85 310.14,-32.61 285.8,-22.46"/>
<polygon fill="blue" stroke="blue" points="287.35,-19.31 276.77,-18.69 284.66,-25.77 287.35,-19.31"/>
</g>
<!-- /goal/bb&#45;&gt;Get Goal Target -->
<g id="edge10" class="edge">
<title>/goal/bb&#45;&gt;Get Goal Target</title>
<path fill="none" stroke="green" d="M57.56,-12.71C112.78,-18.4 236.83,-32.5 339.62,-53.75 343.46,-54.54 347.4,-55.44 351.36,-56.39"/>
<polygon fill="green" stroke="green" points="350.43,-59.76 360.98,-58.83 352.15,-52.98 350.43,-59.76"/>
</g>
<!-- /ball/centre&#45;&gt;Ball Chase -->
<g id="edge12" class="edge">
<title>/ball/centre&#45;&gt;Ball Chase</title>
<path fill="none" stroke="green" d="M489.27,-18.24C515.88,-26.91 553.28,-40.97 561.62,-53.75 570.38,-67.15 568.8,-75.45 561.62,-89.75 554.19,-104.58 540.42,-116.32 526.98,-124.94"/>
<polygon fill="green" stroke="green" points="525.45,-121.78 518.64,-129.89 529.02,-127.79 525.45,-121.78"/>
</g>
<!-- /goal/target&#45;&gt;Goal Chase -->
<g id="edge14" class="edge">
<title>/goal/target&#45;&gt;Goal Chase</title>
<path fill="none" stroke="green" d="M291.28,-15.98C332.98,-23.45 403.88,-37.16 463.62,-53.75 466.19,-54.46 468.81,-55.24 471.45,-56.05"/>
<polygon fill="green" stroke="green" points="470.2,-59.32 480.79,-59.07 472.36,-52.66 470.2,-59.32"/>
</g>
</g>
</svg>
