%TF.GenerationSoftware,KiCad,Pcbnew,9.0.2*%
%TF.CreationDate,2025-07-04T23:02:28+10:00*%
%TF.ProjectId,motor-controller-pcb,6d6f746f-722d-4636-9f6e-74726f6c6c65,rev?*%
%TF.SameCoordinates,Original*%
%TF.FileFunction,Legend,Top*%
%TF.FilePolarity,Positive*%
%FSLAX46Y46*%
G04 Gerber Fmt 4.6, Leading zero omitted, Abs format (unit mm)*
G04 Created by KiCad (PCBNEW 9.0.2) date 2025-07-04 23:02:28*
%MOMM*%
%LPD*%
G01*
G04 APERTURE LIST*
%ADD10C,0.250000*%
%ADD11C,0.150000*%
%ADD12C,0.120000*%
G04 APERTURE END LIST*
D10*
X193477649Y-69283520D02*
X194430030Y-68616853D01*
X193477649Y-68140663D02*
X195477649Y-68140663D01*
X195477649Y-68140663D02*
X195477649Y-68902568D01*
X195477649Y-68902568D02*
X195382411Y-69093044D01*
X195382411Y-69093044D02*
X195287173Y-69188282D01*
X195287173Y-69188282D02*
X195096697Y-69283520D01*
X195096697Y-69283520D02*
X194810983Y-69283520D01*
X194810983Y-69283520D02*
X194620507Y-69188282D01*
X194620507Y-69188282D02*
X194525268Y-69093044D01*
X194525268Y-69093044D02*
X194430030Y-68902568D01*
X194430030Y-68902568D02*
X194430030Y-68140663D01*
X193477649Y-70426377D02*
X193572888Y-70235901D01*
X193572888Y-70235901D02*
X193668126Y-70140663D01*
X193668126Y-70140663D02*
X193858602Y-70045425D01*
X193858602Y-70045425D02*
X194430030Y-70045425D01*
X194430030Y-70045425D02*
X194620507Y-70140663D01*
X194620507Y-70140663D02*
X194715745Y-70235901D01*
X194715745Y-70235901D02*
X194810983Y-70426377D01*
X194810983Y-70426377D02*
X194810983Y-70712092D01*
X194810983Y-70712092D02*
X194715745Y-70902568D01*
X194715745Y-70902568D02*
X194620507Y-70997806D01*
X194620507Y-70997806D02*
X194430030Y-71093044D01*
X194430030Y-71093044D02*
X193858602Y-71093044D01*
X193858602Y-71093044D02*
X193668126Y-70997806D01*
X193668126Y-70997806D02*
X193572888Y-70902568D01*
X193572888Y-70902568D02*
X193477649Y-70712092D01*
X193477649Y-70712092D02*
X193477649Y-70426377D01*
X193477649Y-71950187D02*
X195477649Y-71950187D01*
X194715745Y-71950187D02*
X194810983Y-72140663D01*
X194810983Y-72140663D02*
X194810983Y-72521616D01*
X194810983Y-72521616D02*
X194715745Y-72712092D01*
X194715745Y-72712092D02*
X194620507Y-72807330D01*
X194620507Y-72807330D02*
X194430030Y-72902568D01*
X194430030Y-72902568D02*
X193858602Y-72902568D01*
X193858602Y-72902568D02*
X193668126Y-72807330D01*
X193668126Y-72807330D02*
X193572888Y-72712092D01*
X193572888Y-72712092D02*
X193477649Y-72521616D01*
X193477649Y-72521616D02*
X193477649Y-72140663D01*
X193477649Y-72140663D02*
X193572888Y-71950187D01*
X193477649Y-74045425D02*
X193572888Y-73854949D01*
X193572888Y-73854949D02*
X193668126Y-73759711D01*
X193668126Y-73759711D02*
X193858602Y-73664473D01*
X193858602Y-73664473D02*
X194430030Y-73664473D01*
X194430030Y-73664473D02*
X194620507Y-73759711D01*
X194620507Y-73759711D02*
X194715745Y-73854949D01*
X194715745Y-73854949D02*
X194810983Y-74045425D01*
X194810983Y-74045425D02*
X194810983Y-74331140D01*
X194810983Y-74331140D02*
X194715745Y-74521616D01*
X194715745Y-74521616D02*
X194620507Y-74616854D01*
X194620507Y-74616854D02*
X194430030Y-74712092D01*
X194430030Y-74712092D02*
X193858602Y-74712092D01*
X193858602Y-74712092D02*
X193668126Y-74616854D01*
X193668126Y-74616854D02*
X193572888Y-74521616D01*
X193572888Y-74521616D02*
X193477649Y-74331140D01*
X193477649Y-74331140D02*
X193477649Y-74045425D01*
X193572888Y-76426378D02*
X193477649Y-76235902D01*
X193477649Y-76235902D02*
X193477649Y-75854949D01*
X193477649Y-75854949D02*
X193572888Y-75664473D01*
X193572888Y-75664473D02*
X193668126Y-75569235D01*
X193668126Y-75569235D02*
X193858602Y-75473997D01*
X193858602Y-75473997D02*
X194430030Y-75473997D01*
X194430030Y-75473997D02*
X194620507Y-75569235D01*
X194620507Y-75569235D02*
X194715745Y-75664473D01*
X194715745Y-75664473D02*
X194810983Y-75854949D01*
X194810983Y-75854949D02*
X194810983Y-76235902D01*
X194810983Y-76235902D02*
X194715745Y-76426378D01*
X194810983Y-78140664D02*
X193477649Y-78140664D01*
X194810983Y-77283521D02*
X193763364Y-77283521D01*
X193763364Y-77283521D02*
X193572888Y-77378759D01*
X193572888Y-77378759D02*
X193477649Y-77569235D01*
X193477649Y-77569235D02*
X193477649Y-77854950D01*
X193477649Y-77854950D02*
X193572888Y-78045426D01*
X193572888Y-78045426D02*
X193668126Y-78140664D01*
X194810983Y-79093045D02*
X192810983Y-79093045D01*
X194715745Y-79093045D02*
X194810983Y-79283521D01*
X194810983Y-79283521D02*
X194810983Y-79664474D01*
X194810983Y-79664474D02*
X194715745Y-79854950D01*
X194715745Y-79854950D02*
X194620507Y-79950188D01*
X194620507Y-79950188D02*
X194430030Y-80045426D01*
X194430030Y-80045426D02*
X193858602Y-80045426D01*
X193858602Y-80045426D02*
X193668126Y-79950188D01*
X193668126Y-79950188D02*
X193572888Y-79854950D01*
X193572888Y-79854950D02*
X193477649Y-79664474D01*
X193477649Y-79664474D02*
X193477649Y-79283521D01*
X193477649Y-79283521D02*
X193572888Y-79093045D01*
X195287173Y-82331141D02*
X195382411Y-82426379D01*
X195382411Y-82426379D02*
X195477649Y-82616855D01*
X195477649Y-82616855D02*
X195477649Y-83093046D01*
X195477649Y-83093046D02*
X195382411Y-83283522D01*
X195382411Y-83283522D02*
X195287173Y-83378760D01*
X195287173Y-83378760D02*
X195096697Y-83473998D01*
X195096697Y-83473998D02*
X194906221Y-83473998D01*
X194906221Y-83473998D02*
X194620507Y-83378760D01*
X194620507Y-83378760D02*
X193477649Y-82235903D01*
X193477649Y-82235903D02*
X193477649Y-83473998D01*
X195477649Y-84712093D02*
X195477649Y-84902570D01*
X195477649Y-84902570D02*
X195382411Y-85093046D01*
X195382411Y-85093046D02*
X195287173Y-85188284D01*
X195287173Y-85188284D02*
X195096697Y-85283522D01*
X195096697Y-85283522D02*
X194715745Y-85378760D01*
X194715745Y-85378760D02*
X194239554Y-85378760D01*
X194239554Y-85378760D02*
X193858602Y-85283522D01*
X193858602Y-85283522D02*
X193668126Y-85188284D01*
X193668126Y-85188284D02*
X193572888Y-85093046D01*
X193572888Y-85093046D02*
X193477649Y-84902570D01*
X193477649Y-84902570D02*
X193477649Y-84712093D01*
X193477649Y-84712093D02*
X193572888Y-84521617D01*
X193572888Y-84521617D02*
X193668126Y-84426379D01*
X193668126Y-84426379D02*
X193858602Y-84331141D01*
X193858602Y-84331141D02*
X194239554Y-84235903D01*
X194239554Y-84235903D02*
X194715745Y-84235903D01*
X194715745Y-84235903D02*
X195096697Y-84331141D01*
X195096697Y-84331141D02*
X195287173Y-84426379D01*
X195287173Y-84426379D02*
X195382411Y-84521617D01*
X195382411Y-84521617D02*
X195477649Y-84712093D01*
X195287173Y-86140665D02*
X195382411Y-86235903D01*
X195382411Y-86235903D02*
X195477649Y-86426379D01*
X195477649Y-86426379D02*
X195477649Y-86902570D01*
X195477649Y-86902570D02*
X195382411Y-87093046D01*
X195382411Y-87093046D02*
X195287173Y-87188284D01*
X195287173Y-87188284D02*
X195096697Y-87283522D01*
X195096697Y-87283522D02*
X194906221Y-87283522D01*
X194906221Y-87283522D02*
X194620507Y-87188284D01*
X194620507Y-87188284D02*
X193477649Y-86045427D01*
X193477649Y-86045427D02*
X193477649Y-87283522D01*
X195477649Y-89093046D02*
X195477649Y-88140665D01*
X195477649Y-88140665D02*
X194525268Y-88045427D01*
X194525268Y-88045427D02*
X194620507Y-88140665D01*
X194620507Y-88140665D02*
X194715745Y-88331141D01*
X194715745Y-88331141D02*
X194715745Y-88807332D01*
X194715745Y-88807332D02*
X194620507Y-88997808D01*
X194620507Y-88997808D02*
X194525268Y-89093046D01*
X194525268Y-89093046D02*
X194334792Y-89188284D01*
X194334792Y-89188284D02*
X193858602Y-89188284D01*
X193858602Y-89188284D02*
X193668126Y-89093046D01*
X193668126Y-89093046D02*
X193572888Y-88997808D01*
X193572888Y-88997808D02*
X193477649Y-88807332D01*
X193477649Y-88807332D02*
X193477649Y-88331141D01*
X193477649Y-88331141D02*
X193572888Y-88140665D01*
X193572888Y-88140665D02*
X193668126Y-88045427D01*
X193572888Y-91473999D02*
X193477649Y-91759713D01*
X193477649Y-91759713D02*
X193477649Y-92235904D01*
X193477649Y-92235904D02*
X193572888Y-92426380D01*
X193572888Y-92426380D02*
X193668126Y-92521618D01*
X193668126Y-92521618D02*
X193858602Y-92616856D01*
X193858602Y-92616856D02*
X194049078Y-92616856D01*
X194049078Y-92616856D02*
X194239554Y-92521618D01*
X194239554Y-92521618D02*
X194334792Y-92426380D01*
X194334792Y-92426380D02*
X194430030Y-92235904D01*
X194430030Y-92235904D02*
X194525268Y-91854951D01*
X194525268Y-91854951D02*
X194620507Y-91664475D01*
X194620507Y-91664475D02*
X194715745Y-91569237D01*
X194715745Y-91569237D02*
X194906221Y-91473999D01*
X194906221Y-91473999D02*
X195096697Y-91473999D01*
X195096697Y-91473999D02*
X195287173Y-91569237D01*
X195287173Y-91569237D02*
X195382411Y-91664475D01*
X195382411Y-91664475D02*
X195477649Y-91854951D01*
X195477649Y-91854951D02*
X195477649Y-92331142D01*
X195477649Y-92331142D02*
X195382411Y-92616856D01*
X194525268Y-94140666D02*
X194430030Y-94426380D01*
X194430030Y-94426380D02*
X194334792Y-94521618D01*
X194334792Y-94521618D02*
X194144316Y-94616856D01*
X194144316Y-94616856D02*
X193858602Y-94616856D01*
X193858602Y-94616856D02*
X193668126Y-94521618D01*
X193668126Y-94521618D02*
X193572888Y-94426380D01*
X193572888Y-94426380D02*
X193477649Y-94235904D01*
X193477649Y-94235904D02*
X193477649Y-93473999D01*
X193477649Y-93473999D02*
X195477649Y-93473999D01*
X195477649Y-93473999D02*
X195477649Y-94140666D01*
X195477649Y-94140666D02*
X195382411Y-94331142D01*
X195382411Y-94331142D02*
X195287173Y-94426380D01*
X195287173Y-94426380D02*
X195096697Y-94521618D01*
X195096697Y-94521618D02*
X194906221Y-94521618D01*
X194906221Y-94521618D02*
X194715745Y-94426380D01*
X194715745Y-94426380D02*
X194620507Y-94331142D01*
X194620507Y-94331142D02*
X194525268Y-94140666D01*
X194525268Y-94140666D02*
X194525268Y-93473999D01*
X193477649Y-95473999D02*
X195477649Y-95473999D01*
X194525268Y-95473999D02*
X194525268Y-96616856D01*
X193477649Y-96616856D02*
X195477649Y-96616856D01*
X193572888Y-97473999D02*
X193477649Y-97759713D01*
X193477649Y-97759713D02*
X193477649Y-98235904D01*
X193477649Y-98235904D02*
X193572888Y-98426380D01*
X193572888Y-98426380D02*
X193668126Y-98521618D01*
X193668126Y-98521618D02*
X193858602Y-98616856D01*
X193858602Y-98616856D02*
X194049078Y-98616856D01*
X194049078Y-98616856D02*
X194239554Y-98521618D01*
X194239554Y-98521618D02*
X194334792Y-98426380D01*
X194334792Y-98426380D02*
X194430030Y-98235904D01*
X194430030Y-98235904D02*
X194525268Y-97854951D01*
X194525268Y-97854951D02*
X194620507Y-97664475D01*
X194620507Y-97664475D02*
X194715745Y-97569237D01*
X194715745Y-97569237D02*
X194906221Y-97473999D01*
X194906221Y-97473999D02*
X195096697Y-97473999D01*
X195096697Y-97473999D02*
X195287173Y-97569237D01*
X195287173Y-97569237D02*
X195382411Y-97664475D01*
X195382411Y-97664475D02*
X195477649Y-97854951D01*
X195477649Y-97854951D02*
X195477649Y-98331142D01*
X195477649Y-98331142D02*
X195382411Y-98616856D01*
X190257761Y-68140663D02*
X192257761Y-68140663D01*
X192257761Y-68140663D02*
X192257761Y-68902568D01*
X192257761Y-68902568D02*
X192162523Y-69093044D01*
X192162523Y-69093044D02*
X192067285Y-69188282D01*
X192067285Y-69188282D02*
X191876809Y-69283520D01*
X191876809Y-69283520D02*
X191591095Y-69283520D01*
X191591095Y-69283520D02*
X191400619Y-69188282D01*
X191400619Y-69188282D02*
X191305380Y-69093044D01*
X191305380Y-69093044D02*
X191210142Y-68902568D01*
X191210142Y-68902568D02*
X191210142Y-68140663D01*
X190448238Y-71283520D02*
X190353000Y-71188282D01*
X190353000Y-71188282D02*
X190257761Y-70902568D01*
X190257761Y-70902568D02*
X190257761Y-70712092D01*
X190257761Y-70712092D02*
X190353000Y-70426377D01*
X190353000Y-70426377D02*
X190543476Y-70235901D01*
X190543476Y-70235901D02*
X190733952Y-70140663D01*
X190733952Y-70140663D02*
X191114904Y-70045425D01*
X191114904Y-70045425D02*
X191400619Y-70045425D01*
X191400619Y-70045425D02*
X191781571Y-70140663D01*
X191781571Y-70140663D02*
X191972047Y-70235901D01*
X191972047Y-70235901D02*
X192162523Y-70426377D01*
X192162523Y-70426377D02*
X192257761Y-70712092D01*
X192257761Y-70712092D02*
X192257761Y-70902568D01*
X192257761Y-70902568D02*
X192162523Y-71188282D01*
X192162523Y-71188282D02*
X192067285Y-71283520D01*
X191305380Y-72807330D02*
X191210142Y-73093044D01*
X191210142Y-73093044D02*
X191114904Y-73188282D01*
X191114904Y-73188282D02*
X190924428Y-73283520D01*
X190924428Y-73283520D02*
X190638714Y-73283520D01*
X190638714Y-73283520D02*
X190448238Y-73188282D01*
X190448238Y-73188282D02*
X190353000Y-73093044D01*
X190353000Y-73093044D02*
X190257761Y-72902568D01*
X190257761Y-72902568D02*
X190257761Y-72140663D01*
X190257761Y-72140663D02*
X192257761Y-72140663D01*
X192257761Y-72140663D02*
X192257761Y-72807330D01*
X192257761Y-72807330D02*
X192162523Y-72997806D01*
X192162523Y-72997806D02*
X192067285Y-73093044D01*
X192067285Y-73093044D02*
X191876809Y-73188282D01*
X191876809Y-73188282D02*
X191686333Y-73188282D01*
X191686333Y-73188282D02*
X191495857Y-73093044D01*
X191495857Y-73093044D02*
X191400619Y-72997806D01*
X191400619Y-72997806D02*
X191305380Y-72807330D01*
X191305380Y-72807330D02*
X191305380Y-72140663D01*
X190257761Y-75664473D02*
X192257761Y-75664473D01*
X191495857Y-75664473D02*
X191591095Y-75854949D01*
X191591095Y-75854949D02*
X191591095Y-76235902D01*
X191591095Y-76235902D02*
X191495857Y-76426378D01*
X191495857Y-76426378D02*
X191400619Y-76521616D01*
X191400619Y-76521616D02*
X191210142Y-76616854D01*
X191210142Y-76616854D02*
X190638714Y-76616854D01*
X190638714Y-76616854D02*
X190448238Y-76521616D01*
X190448238Y-76521616D02*
X190353000Y-76426378D01*
X190353000Y-76426378D02*
X190257761Y-76235902D01*
X190257761Y-76235902D02*
X190257761Y-75854949D01*
X190257761Y-75854949D02*
X190353000Y-75664473D01*
X191591095Y-77283521D02*
X190257761Y-77759711D01*
X191591095Y-78235902D02*
X190257761Y-77759711D01*
X190257761Y-77759711D02*
X189781571Y-77569235D01*
X189781571Y-77569235D02*
X189686333Y-77473997D01*
X189686333Y-77473997D02*
X189591095Y-77283521D01*
X190257761Y-80521617D02*
X192257761Y-80521617D01*
X191305380Y-80521617D02*
X191305380Y-81664474D01*
X190257761Y-81664474D02*
X192257761Y-81664474D01*
X190257761Y-83473998D02*
X191305380Y-83473998D01*
X191305380Y-83473998D02*
X191495857Y-83378760D01*
X191495857Y-83378760D02*
X191591095Y-83188284D01*
X191591095Y-83188284D02*
X191591095Y-82807331D01*
X191591095Y-82807331D02*
X191495857Y-82616855D01*
X190353000Y-83473998D02*
X190257761Y-83283522D01*
X190257761Y-83283522D02*
X190257761Y-82807331D01*
X190257761Y-82807331D02*
X190353000Y-82616855D01*
X190353000Y-82616855D02*
X190543476Y-82521617D01*
X190543476Y-82521617D02*
X190733952Y-82521617D01*
X190733952Y-82521617D02*
X190924428Y-82616855D01*
X190924428Y-82616855D02*
X191019666Y-82807331D01*
X191019666Y-82807331D02*
X191019666Y-83283522D01*
X191019666Y-83283522D02*
X191114904Y-83473998D01*
X190257761Y-84426379D02*
X191591095Y-84426379D01*
X191400619Y-84426379D02*
X191495857Y-84521617D01*
X191495857Y-84521617D02*
X191591095Y-84712093D01*
X191591095Y-84712093D02*
X191591095Y-84997808D01*
X191591095Y-84997808D02*
X191495857Y-85188284D01*
X191495857Y-85188284D02*
X191305380Y-85283522D01*
X191305380Y-85283522D02*
X190257761Y-85283522D01*
X191305380Y-85283522D02*
X191495857Y-85378760D01*
X191495857Y-85378760D02*
X191591095Y-85569236D01*
X191591095Y-85569236D02*
X191591095Y-85854950D01*
X191591095Y-85854950D02*
X191495857Y-86045427D01*
X191495857Y-86045427D02*
X191305380Y-86140665D01*
X191305380Y-86140665D02*
X190257761Y-86140665D01*
X191591095Y-86902570D02*
X191591095Y-87950189D01*
X191591095Y-87950189D02*
X190257761Y-86902570D01*
X190257761Y-86902570D02*
X190257761Y-87950189D01*
X190257761Y-89569237D02*
X191305380Y-89569237D01*
X191305380Y-89569237D02*
X191495857Y-89473999D01*
X191495857Y-89473999D02*
X191591095Y-89283523D01*
X191591095Y-89283523D02*
X191591095Y-88902570D01*
X191591095Y-88902570D02*
X191495857Y-88712094D01*
X190353000Y-89569237D02*
X190257761Y-89378761D01*
X190257761Y-89378761D02*
X190257761Y-88902570D01*
X190257761Y-88902570D02*
X190353000Y-88712094D01*
X190353000Y-88712094D02*
X190543476Y-88616856D01*
X190543476Y-88616856D02*
X190733952Y-88616856D01*
X190733952Y-88616856D02*
X190924428Y-88712094D01*
X190924428Y-88712094D02*
X191019666Y-88902570D01*
X191019666Y-88902570D02*
X191019666Y-89378761D01*
X191019666Y-89378761D02*
X191114904Y-89569237D01*
X190257761Y-90521618D02*
X192257761Y-90521618D01*
X190257761Y-91378761D02*
X191305380Y-91378761D01*
X191305380Y-91378761D02*
X191495857Y-91283523D01*
X191495857Y-91283523D02*
X191591095Y-91093047D01*
X191591095Y-91093047D02*
X191591095Y-90807332D01*
X191591095Y-90807332D02*
X191495857Y-90616856D01*
X191495857Y-90616856D02*
X191400619Y-90521618D01*
X190829190Y-93759714D02*
X190829190Y-94712095D01*
X190257761Y-93569238D02*
X192257761Y-94235904D01*
X192257761Y-94235904D02*
X190257761Y-94902571D01*
X190257761Y-95569238D02*
X192257761Y-95569238D01*
X190257761Y-96426381D02*
X191305380Y-96426381D01*
X191305380Y-96426381D02*
X191495857Y-96331143D01*
X191495857Y-96331143D02*
X191591095Y-96140667D01*
X191591095Y-96140667D02*
X191591095Y-95854952D01*
X191591095Y-95854952D02*
X191495857Y-95664476D01*
X191495857Y-95664476D02*
X191400619Y-95569238D01*
X190257761Y-97378762D02*
X191591095Y-97378762D01*
X191400619Y-97378762D02*
X191495857Y-97474000D01*
X191495857Y-97474000D02*
X191591095Y-97664476D01*
X191591095Y-97664476D02*
X191591095Y-97950191D01*
X191591095Y-97950191D02*
X191495857Y-98140667D01*
X191495857Y-98140667D02*
X191305380Y-98235905D01*
X191305380Y-98235905D02*
X190257761Y-98235905D01*
X191305380Y-98235905D02*
X191495857Y-98331143D01*
X191495857Y-98331143D02*
X191591095Y-98521619D01*
X191591095Y-98521619D02*
X191591095Y-98807333D01*
X191591095Y-98807333D02*
X191495857Y-98997810D01*
X191495857Y-98997810D02*
X191305380Y-99093048D01*
X191305380Y-99093048D02*
X190257761Y-99093048D01*
X190353000Y-100807334D02*
X190257761Y-100616858D01*
X190257761Y-100616858D02*
X190257761Y-100235905D01*
X190257761Y-100235905D02*
X190353000Y-100045429D01*
X190353000Y-100045429D02*
X190543476Y-99950191D01*
X190543476Y-99950191D02*
X191305380Y-99950191D01*
X191305380Y-99950191D02*
X191495857Y-100045429D01*
X191495857Y-100045429D02*
X191591095Y-100235905D01*
X191591095Y-100235905D02*
X191591095Y-100616858D01*
X191591095Y-100616858D02*
X191495857Y-100807334D01*
X191495857Y-100807334D02*
X191305380Y-100902572D01*
X191305380Y-100902572D02*
X191114904Y-100902572D01*
X191114904Y-100902572D02*
X190924428Y-99950191D01*
X190257761Y-102616858D02*
X192257761Y-102616858D01*
X190353000Y-102616858D02*
X190257761Y-102426382D01*
X190257761Y-102426382D02*
X190257761Y-102045429D01*
X190257761Y-102045429D02*
X190353000Y-101854953D01*
X190353000Y-101854953D02*
X190448238Y-101759715D01*
X190448238Y-101759715D02*
X190638714Y-101664477D01*
X190638714Y-101664477D02*
X191210142Y-101664477D01*
X191210142Y-101664477D02*
X191400619Y-101759715D01*
X191400619Y-101759715D02*
X191495857Y-101854953D01*
X191495857Y-101854953D02*
X191591095Y-102045429D01*
X191591095Y-102045429D02*
X191591095Y-102426382D01*
X191591095Y-102426382D02*
X191495857Y-102616858D01*
D11*
X175111666Y-104574819D02*
X175111666Y-105289104D01*
X175111666Y-105289104D02*
X175064047Y-105431961D01*
X175064047Y-105431961D02*
X174968809Y-105527200D01*
X174968809Y-105527200D02*
X174825952Y-105574819D01*
X174825952Y-105574819D02*
X174730714Y-105574819D01*
X176016428Y-104908152D02*
X176016428Y-105574819D01*
X175778333Y-104527200D02*
X175540238Y-105241485D01*
X175540238Y-105241485D02*
X176159285Y-105241485D01*
X134471666Y-61714819D02*
X134471666Y-62429104D01*
X134471666Y-62429104D02*
X134424047Y-62571961D01*
X134424047Y-62571961D02*
X134328809Y-62667200D01*
X134328809Y-62667200D02*
X134185952Y-62714819D01*
X134185952Y-62714819D02*
X134090714Y-62714819D01*
X135424047Y-61714819D02*
X134947857Y-61714819D01*
X134947857Y-61714819D02*
X134900238Y-62191009D01*
X134900238Y-62191009D02*
X134947857Y-62143390D01*
X134947857Y-62143390D02*
X135043095Y-62095771D01*
X135043095Y-62095771D02*
X135281190Y-62095771D01*
X135281190Y-62095771D02*
X135376428Y-62143390D01*
X135376428Y-62143390D02*
X135424047Y-62191009D01*
X135424047Y-62191009D02*
X135471666Y-62286247D01*
X135471666Y-62286247D02*
X135471666Y-62524342D01*
X135471666Y-62524342D02*
X135424047Y-62619580D01*
X135424047Y-62619580D02*
X135376428Y-62667200D01*
X135376428Y-62667200D02*
X135281190Y-62714819D01*
X135281190Y-62714819D02*
X135043095Y-62714819D01*
X135043095Y-62714819D02*
X134947857Y-62667200D01*
X134947857Y-62667200D02*
X134900238Y-62619580D01*
X174635476Y-108434819D02*
X174635476Y-107434819D01*
X174635476Y-107434819D02*
X174968809Y-108149104D01*
X174968809Y-108149104D02*
X175302142Y-107434819D01*
X175302142Y-107434819D02*
X175302142Y-108434819D01*
X176206904Y-107768152D02*
X176206904Y-108434819D01*
X175968809Y-107387200D02*
X175730714Y-108101485D01*
X175730714Y-108101485D02*
X176349761Y-108101485D01*
X142074819Y-115333333D02*
X142789104Y-115333333D01*
X142789104Y-115333333D02*
X142931961Y-115380952D01*
X142931961Y-115380952D02*
X143027200Y-115476190D01*
X143027200Y-115476190D02*
X143074819Y-115619047D01*
X143074819Y-115619047D02*
X143074819Y-115714285D01*
X142074819Y-114952380D02*
X142074819Y-114285714D01*
X142074819Y-114285714D02*
X143074819Y-114714285D01*
X123835476Y-85254819D02*
X123835476Y-84254819D01*
X123835476Y-84254819D02*
X124168809Y-84969104D01*
X124168809Y-84969104D02*
X124502142Y-84254819D01*
X124502142Y-84254819D02*
X124502142Y-85254819D01*
X125502142Y-85254819D02*
X124930714Y-85254819D01*
X125216428Y-85254819D02*
X125216428Y-84254819D01*
X125216428Y-84254819D02*
X125121190Y-84397676D01*
X125121190Y-84397676D02*
X125025952Y-84492914D01*
X125025952Y-84492914D02*
X124930714Y-84540533D01*
X124311666Y-104574819D02*
X124311666Y-105289104D01*
X124311666Y-105289104D02*
X124264047Y-105431961D01*
X124264047Y-105431961D02*
X124168809Y-105527200D01*
X124168809Y-105527200D02*
X124025952Y-105574819D01*
X124025952Y-105574819D02*
X123930714Y-105574819D01*
X124692619Y-104574819D02*
X125311666Y-104574819D01*
X125311666Y-104574819D02*
X124978333Y-104955771D01*
X124978333Y-104955771D02*
X125121190Y-104955771D01*
X125121190Y-104955771D02*
X125216428Y-105003390D01*
X125216428Y-105003390D02*
X125264047Y-105051009D01*
X125264047Y-105051009D02*
X125311666Y-105146247D01*
X125311666Y-105146247D02*
X125311666Y-105384342D01*
X125311666Y-105384342D02*
X125264047Y-105479580D01*
X125264047Y-105479580D02*
X125216428Y-105527200D01*
X125216428Y-105527200D02*
X125121190Y-105574819D01*
X125121190Y-105574819D02*
X124835476Y-105574819D01*
X124835476Y-105574819D02*
X124740238Y-105527200D01*
X124740238Y-105527200D02*
X124692619Y-105479580D01*
X175111666Y-74094819D02*
X175111666Y-74809104D01*
X175111666Y-74809104D02*
X175064047Y-74951961D01*
X175064047Y-74951961D02*
X174968809Y-75047200D01*
X174968809Y-75047200D02*
X174825952Y-75094819D01*
X174825952Y-75094819D02*
X174730714Y-75094819D01*
X175540238Y-74190057D02*
X175587857Y-74142438D01*
X175587857Y-74142438D02*
X175683095Y-74094819D01*
X175683095Y-74094819D02*
X175921190Y-74094819D01*
X175921190Y-74094819D02*
X176016428Y-74142438D01*
X176016428Y-74142438D02*
X176064047Y-74190057D01*
X176064047Y-74190057D02*
X176111666Y-74285295D01*
X176111666Y-74285295D02*
X176111666Y-74380533D01*
X176111666Y-74380533D02*
X176064047Y-74523390D01*
X176064047Y-74523390D02*
X175492619Y-75094819D01*
X175492619Y-75094819D02*
X176111666Y-75094819D01*
X123835476Y-108434819D02*
X123835476Y-107434819D01*
X123835476Y-107434819D02*
X124168809Y-108149104D01*
X124168809Y-108149104D02*
X124502142Y-107434819D01*
X124502142Y-107434819D02*
X124502142Y-108434819D01*
X124883095Y-107434819D02*
X125502142Y-107434819D01*
X125502142Y-107434819D02*
X125168809Y-107815771D01*
X125168809Y-107815771D02*
X125311666Y-107815771D01*
X125311666Y-107815771D02*
X125406904Y-107863390D01*
X125406904Y-107863390D02*
X125454523Y-107911009D01*
X125454523Y-107911009D02*
X125502142Y-108006247D01*
X125502142Y-108006247D02*
X125502142Y-108244342D01*
X125502142Y-108244342D02*
X125454523Y-108339580D01*
X125454523Y-108339580D02*
X125406904Y-108387200D01*
X125406904Y-108387200D02*
X125311666Y-108434819D01*
X125311666Y-108434819D02*
X125025952Y-108434819D01*
X125025952Y-108434819D02*
X124930714Y-108387200D01*
X124930714Y-108387200D02*
X124883095Y-108339580D01*
X164621660Y-107354104D02*
X165097850Y-107354104D01*
X164526422Y-107639819D02*
X164859755Y-106639819D01*
X164859755Y-106639819D02*
X165193088Y-107639819D01*
X166050231Y-107639819D02*
X165478803Y-107639819D01*
X165764517Y-107639819D02*
X165764517Y-106639819D01*
X165764517Y-106639819D02*
X165669279Y-106782676D01*
X165669279Y-106782676D02*
X165574041Y-106877914D01*
X165574041Y-106877914D02*
X165478803Y-106925533D01*
X174635476Y-77954819D02*
X174635476Y-76954819D01*
X174635476Y-76954819D02*
X174968809Y-77669104D01*
X174968809Y-77669104D02*
X175302142Y-76954819D01*
X175302142Y-76954819D02*
X175302142Y-77954819D01*
X175730714Y-77050057D02*
X175778333Y-77002438D01*
X175778333Y-77002438D02*
X175873571Y-76954819D01*
X175873571Y-76954819D02*
X176111666Y-76954819D01*
X176111666Y-76954819D02*
X176206904Y-77002438D01*
X176206904Y-77002438D02*
X176254523Y-77050057D01*
X176254523Y-77050057D02*
X176302142Y-77145295D01*
X176302142Y-77145295D02*
X176302142Y-77240533D01*
X176302142Y-77240533D02*
X176254523Y-77383390D01*
X176254523Y-77383390D02*
X175683095Y-77954819D01*
X175683095Y-77954819D02*
X176302142Y-77954819D01*
X124311666Y-74094819D02*
X124311666Y-74809104D01*
X124311666Y-74809104D02*
X124264047Y-74951961D01*
X124264047Y-74951961D02*
X124168809Y-75047200D01*
X124168809Y-75047200D02*
X124025952Y-75094819D01*
X124025952Y-75094819D02*
X123930714Y-75094819D01*
X125311666Y-75094819D02*
X124740238Y-75094819D01*
X125025952Y-75094819D02*
X125025952Y-74094819D01*
X125025952Y-74094819D02*
X124930714Y-74237676D01*
X124930714Y-74237676D02*
X124835476Y-74332914D01*
X124835476Y-74332914D02*
X124740238Y-74380533D01*
X134471666Y-75684819D02*
X134471666Y-76399104D01*
X134471666Y-76399104D02*
X134424047Y-76541961D01*
X134424047Y-76541961D02*
X134328809Y-76637200D01*
X134328809Y-76637200D02*
X134185952Y-76684819D01*
X134185952Y-76684819D02*
X134090714Y-76684819D01*
X135376428Y-75684819D02*
X135185952Y-75684819D01*
X135185952Y-75684819D02*
X135090714Y-75732438D01*
X135090714Y-75732438D02*
X135043095Y-75780057D01*
X135043095Y-75780057D02*
X134947857Y-75922914D01*
X134947857Y-75922914D02*
X134900238Y-76113390D01*
X134900238Y-76113390D02*
X134900238Y-76494342D01*
X134900238Y-76494342D02*
X134947857Y-76589580D01*
X134947857Y-76589580D02*
X134995476Y-76637200D01*
X134995476Y-76637200D02*
X135090714Y-76684819D01*
X135090714Y-76684819D02*
X135281190Y-76684819D01*
X135281190Y-76684819D02*
X135376428Y-76637200D01*
X135376428Y-76637200D02*
X135424047Y-76589580D01*
X135424047Y-76589580D02*
X135471666Y-76494342D01*
X135471666Y-76494342D02*
X135471666Y-76256247D01*
X135471666Y-76256247D02*
X135424047Y-76161009D01*
X135424047Y-76161009D02*
X135376428Y-76113390D01*
X135376428Y-76113390D02*
X135281190Y-76065771D01*
X135281190Y-76065771D02*
X135090714Y-76065771D01*
X135090714Y-76065771D02*
X134995476Y-76113390D01*
X134995476Y-76113390D02*
X134947857Y-76161009D01*
X134947857Y-76161009D02*
X134900238Y-76256247D01*
D12*
%TO.C,J4*%
X174065000Y-101470000D02*
X174065000Y-88660000D01*
X176825000Y-88660000D02*
X174065000Y-88660000D01*
X176825000Y-101470000D02*
X174065000Y-101470000D01*
X176825000Y-101470000D02*
X176825000Y-88660000D01*
X176825000Y-102740000D02*
X176825000Y-104120000D01*
X176825000Y-104120000D02*
X175445000Y-104120000D01*
%TO.C,J5*%
X133425000Y-63260000D02*
X134805000Y-63260000D01*
X133425000Y-64640000D02*
X133425000Y-63260000D01*
X133425000Y-65910000D02*
X133425000Y-73640000D01*
X133425000Y-65910000D02*
X136185000Y-65910000D01*
X133425000Y-73640000D02*
X136185000Y-73640000D01*
X136185000Y-65910000D02*
X136185000Y-73640000D01*
%TO.C,M4*%
X174065000Y-108980000D02*
X175445000Y-108980000D01*
X174065000Y-110360000D02*
X174065000Y-108980000D01*
X174065000Y-111630000D02*
X174065000Y-114280000D01*
X174065000Y-111630000D02*
X176825000Y-111630000D01*
X174065000Y-114280000D02*
X176825000Y-114280000D01*
X176825000Y-111630000D02*
X176825000Y-114280000D01*
%TO.C,J7*%
X143620000Y-116380000D02*
X143620000Y-115000000D01*
X145000000Y-116380000D02*
X143620000Y-116380000D01*
X146270000Y-113620000D02*
X164160000Y-113620000D01*
X146270000Y-116380000D02*
X146270000Y-113620000D01*
X146270000Y-116380000D02*
X164160000Y-116380000D01*
X164160000Y-116380000D02*
X164160000Y-113620000D01*
%TO.C,M1*%
X123265000Y-81150000D02*
X123265000Y-78500000D01*
X126025000Y-78500000D02*
X123265000Y-78500000D01*
X126025000Y-81150000D02*
X123265000Y-81150000D01*
X126025000Y-81150000D02*
X126025000Y-78500000D01*
X126025000Y-82420000D02*
X126025000Y-83800000D01*
X126025000Y-83800000D02*
X124645000Y-83800000D01*
%TO.C,J3*%
X123265000Y-101470000D02*
X123265000Y-88660000D01*
X126025000Y-88660000D02*
X123265000Y-88660000D01*
X126025000Y-101470000D02*
X123265000Y-101470000D01*
X126025000Y-101470000D02*
X126025000Y-88660000D01*
X126025000Y-102740000D02*
X126025000Y-104120000D01*
X126025000Y-104120000D02*
X124645000Y-104120000D01*
%TO.C,J2*%
X174065000Y-70990000D02*
X174065000Y-58180000D01*
X176825000Y-58180000D02*
X174065000Y-58180000D01*
X176825000Y-70990000D02*
X174065000Y-70990000D01*
X176825000Y-70990000D02*
X176825000Y-58180000D01*
X176825000Y-72260000D02*
X176825000Y-73640000D01*
X176825000Y-73640000D02*
X175445000Y-73640000D01*
%TO.C,M3*%
X123265000Y-108980000D02*
X124645000Y-108980000D01*
X123265000Y-110360000D02*
X123265000Y-108980000D01*
X123265000Y-111630000D02*
X123265000Y-114280000D01*
X123265000Y-111630000D02*
X126025000Y-111630000D01*
X123265000Y-114280000D02*
X126025000Y-114280000D01*
X126025000Y-111630000D02*
X126025000Y-114280000D01*
%TO.C,A1*%
X141975000Y-59350000D02*
X141495000Y-59350000D01*
X141975000Y-59350000D02*
X141975000Y-59770000D01*
X141975000Y-61890000D02*
X141975000Y-62310000D01*
X141975000Y-64430000D02*
X141975000Y-64850000D01*
X141975000Y-66970000D02*
X141975000Y-67390000D01*
X141975000Y-69510000D02*
X141975000Y-69930000D01*
X141975000Y-72050000D02*
X141975000Y-72470000D01*
X141975000Y-74590000D02*
X141975000Y-75010000D01*
X141975000Y-77130000D02*
X141975000Y-77550000D01*
X141975000Y-79670000D02*
X141975000Y-80090000D01*
X141975000Y-82210000D02*
X141975000Y-82630000D01*
X141975000Y-84750000D02*
X141975000Y-85170000D01*
X141975000Y-87290000D02*
X141975000Y-87710000D01*
X141975000Y-89830000D02*
X141975000Y-90250000D01*
X141975000Y-92370000D02*
X141975000Y-92790000D01*
X141975000Y-94910000D02*
X141975000Y-95330000D01*
X141975000Y-97450000D02*
X141975000Y-97870000D01*
X141975000Y-99990000D02*
X141975000Y-100410000D01*
X141975000Y-102530000D02*
X141975000Y-102950000D01*
X141975000Y-105070000D02*
X141975000Y-105490000D01*
X142005324Y-57230000D02*
X141495000Y-57230000D01*
X142315000Y-57230063D02*
X142315000Y-56873000D01*
X142315000Y-59350000D02*
X142315000Y-59770000D01*
X142315000Y-61890000D02*
X142315000Y-62310000D01*
X142315000Y-64430000D02*
X142315000Y-64850000D01*
X142315000Y-66970000D02*
X142315000Y-67390000D01*
X142315000Y-69510000D02*
X142315000Y-69930000D01*
X142315000Y-72050000D02*
X142315000Y-72470000D01*
X142315000Y-74590000D02*
X142315000Y-75010000D01*
X142315000Y-77130000D02*
X142315000Y-77550000D01*
X142315000Y-79670000D02*
X142315000Y-80090000D01*
X142315000Y-82210000D02*
X142315000Y-82630000D01*
X142315000Y-84750000D02*
X142315000Y-85170000D01*
X142315000Y-87290000D02*
X142315000Y-87710000D01*
X142315000Y-89830000D02*
X142315000Y-90250000D01*
X142315000Y-92370000D02*
X142315000Y-92790000D01*
X142315000Y-94910000D02*
X142315000Y-95330000D01*
X142315000Y-97450000D02*
X142315000Y-97870000D01*
X142315000Y-99990000D02*
X142315000Y-100410000D01*
X142315000Y-102530000D02*
X142315000Y-102950000D01*
X142315000Y-105070000D02*
X142315000Y-105490000D01*
X142315000Y-107609937D02*
X142315000Y-107967000D01*
X142585000Y-56810000D02*
X145075000Y-56810000D01*
X142585000Y-108030000D02*
X146422939Y-108030000D01*
X145075000Y-56810000D02*
X145075000Y-57723520D01*
X145075000Y-56810000D02*
X146422940Y-56810000D01*
X145075000Y-60116480D02*
X145075000Y-104723520D01*
X145075000Y-107116480D02*
X145075000Y-108030000D01*
X147347061Y-56810000D02*
X148350000Y-56810000D01*
X148350000Y-56810000D02*
X156820000Y-56810000D01*
X148685000Y-56810000D02*
X148685000Y-57726000D01*
X148685000Y-60114000D02*
X148685000Y-61330000D01*
X148685000Y-61330000D02*
X148981090Y-61330000D01*
X148985000Y-108030000D02*
X147347061Y-108030000D01*
X151338910Y-61330000D02*
X153831090Y-61330000D01*
X156185000Y-108030000D02*
X148985000Y-108030000D01*
X156188910Y-61330000D02*
X156485000Y-61330000D01*
X156485000Y-56810000D02*
X156485000Y-57726000D01*
X156485000Y-60114000D02*
X156485000Y-61330000D01*
X156820000Y-56810000D02*
X157822939Y-56810000D01*
X157822939Y-108030000D02*
X156185000Y-108030000D01*
X158747061Y-56810000D02*
X160095000Y-56810000D01*
X158747061Y-108030000D02*
X162585000Y-108030000D01*
X160095000Y-56810000D02*
X160095000Y-57723520D01*
X160095000Y-60116480D02*
X160095000Y-104723520D01*
X160095000Y-107116480D02*
X160095000Y-108030000D01*
X162585000Y-56810000D02*
X160095000Y-56810000D01*
X162855000Y-57230063D02*
X162855000Y-56873000D01*
X162855000Y-59350000D02*
X162855000Y-59770000D01*
X162855000Y-61890000D02*
X162855000Y-62310000D01*
X162855000Y-64430000D02*
X162855000Y-64850000D01*
X162855000Y-66970000D02*
X162855000Y-67390000D01*
X162855000Y-69510000D02*
X162855000Y-69930000D01*
X162855000Y-72050000D02*
X162855000Y-72470000D01*
X162855000Y-74590000D02*
X162855000Y-75010000D01*
X162855000Y-77130000D02*
X162855000Y-77550000D01*
X162855000Y-79670000D02*
X162855000Y-80090000D01*
X162855000Y-82210000D02*
X162855000Y-82630000D01*
X162855000Y-84750000D02*
X162855000Y-85170000D01*
X162855000Y-87290000D02*
X162855000Y-87710000D01*
X162855000Y-89830000D02*
X162855000Y-90250000D01*
X162855000Y-92370000D02*
X162855000Y-92790000D01*
X162855000Y-94910000D02*
X162855000Y-95330000D01*
X162855000Y-97450000D02*
X162855000Y-97870000D01*
X162855000Y-99990000D02*
X162855000Y-100410000D01*
X162855000Y-102530000D02*
X162855000Y-102950000D01*
X162855000Y-105070000D02*
X162855000Y-105490000D01*
X162855000Y-107609937D02*
X162855000Y-107967000D01*
X163195000Y-59350000D02*
X163195000Y-59770000D01*
X163195000Y-61890000D02*
X163195000Y-62310000D01*
X163195000Y-64430000D02*
X163195000Y-64850000D01*
X163195000Y-66970000D02*
X163195000Y-67390000D01*
X163195000Y-69510000D02*
X163195000Y-69930000D01*
X163195000Y-72050000D02*
X163195000Y-72470000D01*
X163195000Y-74590000D02*
X163195000Y-75010000D01*
X163195000Y-77130000D02*
X163195000Y-77550000D01*
X163195000Y-79670000D02*
X163195000Y-80090000D01*
X163195000Y-82210000D02*
X163195000Y-82630000D01*
X163195000Y-84750000D02*
X163195000Y-85170000D01*
X163195000Y-87290000D02*
X163195000Y-87710000D01*
X163195000Y-89830000D02*
X163195000Y-90250000D01*
X163195000Y-92370000D02*
X163195000Y-92790000D01*
X163195000Y-94910000D02*
X163195000Y-95330000D01*
X163195000Y-97450000D02*
X163195000Y-97870000D01*
X163195000Y-99990000D02*
X163195000Y-100410000D01*
X163195000Y-102530000D02*
X163195000Y-102950000D01*
X163195000Y-105070000D02*
X163195000Y-105490000D01*
X142005324Y-57230000D02*
G75*
G02*
X142585000Y-56810000I579692J-190051D01*
G01*
X142585000Y-108030000D02*
G75*
G02*
X142005324Y-107609937I1J610002D01*
G01*
X162585000Y-56810000D02*
G75*
G02*
X163164676Y-57230063I0J-610000D01*
G01*
X163164676Y-107609937D02*
G75*
G02*
X162585000Y-108030069I-579676J189837D01*
G01*
%TO.C,M2*%
X174065000Y-78500000D02*
X175445000Y-78500000D01*
X174065000Y-79880000D02*
X174065000Y-78500000D01*
X174065000Y-81150000D02*
X174065000Y-83800000D01*
X174065000Y-81150000D02*
X176825000Y-81150000D01*
X174065000Y-83800000D02*
X176825000Y-83800000D01*
X176825000Y-81150000D02*
X176825000Y-83800000D01*
%TO.C,J1*%
X123265000Y-70990000D02*
X123265000Y-58180000D01*
X126025000Y-58180000D02*
X123265000Y-58180000D01*
X126025000Y-70990000D02*
X123265000Y-70990000D01*
X126025000Y-70990000D02*
X126025000Y-58180000D01*
X126025000Y-72260000D02*
X126025000Y-73640000D01*
X126025000Y-73640000D02*
X124645000Y-73640000D01*
%TO.C,J6*%
X133425000Y-77230000D02*
X134805000Y-77230000D01*
X133425000Y-78610000D02*
X133425000Y-77230000D01*
X133425000Y-79880000D02*
X133425000Y-87610000D01*
X133425000Y-79880000D02*
X136185000Y-79880000D01*
X133425000Y-87610000D02*
X136185000Y-87610000D01*
X136185000Y-79880000D02*
X136185000Y-87610000D01*
%TD*%
M02*
