%TF.GenerationSoftware,KiCad,Pcbnew,9.0.5*%
%TF.CreationDate,2026-03-06T11:47:41+11:00*%
%TF.ProjectId,motor-controller-pcb,6d6f746f-722d-4636-9f6e-74726f6c6c65,rev?*%
%TF.SameCoordinates,Original*%
%TF.FileFunction,Soldermask,Bot*%
%TF.FilePolarity,Negative*%
%FSLAX46Y46*%
G04 Gerber Fmt 4.6, Leading zero omitted, Abs format (unit mm)*
G04 Created by KiCad (PCBNEW 9.0.5) date 2026-03-06 11:47:41*
%MOMM*%
%LPD*%
G01*
G04 APERTURE LIST*
G04 Aperture macros list*
%AMRoundRect*
0 Rectangle with rounded corners*
0 $1 Rounding radius*
0 $2 $3 $4 $5 $6 $7 $8 $9 X,Y pos of 4 corners*
0 Add a 4 corners polygon primitive as box body*
4,1,4,$2,$3,$4,$5,$6,$7,$8,$9,$2,$3,0*
0 Add four circle primitives for the rounded corners*
1,1,$1+$1,$2,$3*
1,1,$1+$1,$4,$5*
1,1,$1+$1,$6,$7*
1,1,$1+$1,$8,$9*
0 Add four rect primitives between the rounded corners*
20,1,$1+$1,$2,$3,$4,$5,0*
20,1,$1+$1,$4,$5,$6,$7,0*
20,1,$1+$1,$6,$7,$8,$9,0*
20,1,$1+$1,$8,$9,$2,$3,0*%
%AMFreePoly0*
4,1,37,0.603843,0.796157,0.639018,0.796157,0.711114,0.766294,0.766294,0.711114,0.796157,0.639018,0.796157,0.603843,0.800000,0.600000,0.800000,-0.600000,0.796157,-0.603843,0.796157,-0.639018,0.766294,-0.711114,0.711114,-0.766294,0.639018,-0.796157,0.603843,-0.796157,0.600000,-0.800000,0.000000,-0.800000,0.000000,-0.796148,-0.078414,-0.796148,-0.232228,-0.765552,-0.377117,-0.705537,
-0.507515,-0.618408,-0.618408,-0.507515,-0.705537,-0.377117,-0.765552,-0.232228,-0.796148,-0.078414,-0.796148,0.078414,-0.765552,0.232228,-0.705537,0.377117,-0.618408,0.507515,-0.507515,0.618408,-0.377117,0.705537,-0.232228,0.765552,-0.078414,0.796148,0.000000,0.796148,0.000000,0.800000,0.600000,0.800000,0.603843,0.796157,0.603843,0.796157,$1*%
%AMFreePoly1*
4,1,37,0.000000,0.796148,0.078414,0.796148,0.232228,0.765552,0.377117,0.705537,0.507515,0.618408,0.618408,0.507515,0.705537,0.377117,0.765552,0.232228,0.796148,0.078414,0.796148,-0.078414,0.765552,-0.232228,0.705537,-0.377117,0.618408,-0.507515,0.507515,-0.618408,0.377117,-0.705537,0.232228,-0.765552,0.078414,-0.796148,0.000000,-0.796148,0.000000,-0.800000,-0.600000,-0.800000,
-0.603843,-0.796157,-0.639018,-0.796157,-0.711114,-0.766294,-0.766294,-0.711114,-0.796157,-0.639018,-0.796157,-0.603843,-0.800000,-0.600000,-0.800000,0.600000,-0.796157,0.603843,-0.796157,0.639018,-0.766294,0.711114,-0.711114,0.766294,-0.639018,0.796157,-0.603843,0.796157,-0.600000,0.800000,0.000000,0.800000,0.000000,0.796148,0.000000,0.796148,$1*%
G04 Aperture macros list end*
%ADD10O,1.750000X1.200000*%
%ADD11RoundRect,0.250000X0.625000X-0.350000X0.625000X0.350000X-0.625000X0.350000X-0.625000X-0.350000X0*%
%ADD12RoundRect,0.250000X-0.625000X0.350000X-0.625000X-0.350000X0.625000X-0.350000X0.625000X0.350000X0*%
%ADD13C,3.200000*%
%ADD14C,2.200000*%
%ADD15C,1.850000*%
%ADD16RoundRect,0.200000X-0.600000X-0.600000X0.600000X-0.600000X0.600000X0.600000X-0.600000X0.600000X0*%
%ADD17C,1.600000*%
%ADD18FreePoly0,0.000000*%
%ADD19FreePoly1,0.000000*%
%ADD20RoundRect,0.250000X0.550000X-0.550000X0.550000X0.550000X-0.550000X0.550000X-0.550000X-0.550000X0*%
%ADD21RoundRect,0.250001X1.149999X1.149999X-1.149999X1.149999X-1.149999X-1.149999X1.149999X-1.149999X0*%
%ADD22C,2.800000*%
%ADD23R,1.700000X1.700000*%
%ADD24C,1.700000*%
%ADD25C,4.400000*%
%ADD26RoundRect,0.250002X1.699998X-1.699998X1.699998X1.699998X-1.699998X1.699998X-1.699998X-1.699998X0*%
%ADD27C,3.900000*%
%ADD28C,2.000000*%
%ADD29RoundRect,0.250000X-0.350000X-0.625000X0.350000X-0.625000X0.350000X0.625000X-0.350000X0.625000X0*%
%ADD30O,1.200000X1.750000*%
%ADD31RoundRect,0.575000X-0.575000X-0.575000X0.575000X-0.575000X0.575000X0.575000X-0.575000X0.575000X0*%
%ADD32C,2.300000*%
G04 APERTURE END LIST*
D10*
%TO.C,J1*%
X116290000Y-83900000D03*
X116290000Y-85900000D03*
X116290000Y-87900000D03*
X116290000Y-89900000D03*
X116290000Y-91900000D03*
D11*
X116290000Y-93900000D03*
%TD*%
D10*
%TO.C,J2*%
X115570000Y-43180000D03*
X115570000Y-45180000D03*
X115570000Y-47180000D03*
X115570000Y-49180000D03*
X115570000Y-51180000D03*
D11*
X115570000Y-53180000D03*
%TD*%
D10*
%TO.C,J3*%
X212090000Y-53340000D03*
X212090000Y-51340000D03*
X212090000Y-49340000D03*
X212090000Y-47340000D03*
X212090000Y-45340000D03*
D12*
X212090000Y-43340000D03*
%TD*%
D10*
%TO.C,J4*%
X213360000Y-92550000D03*
X213360000Y-90550000D03*
X213360000Y-88550000D03*
X213360000Y-86550000D03*
X213360000Y-84550000D03*
D12*
X213360000Y-82550000D03*
%TD*%
D13*
%TO.C,REF\u002A\u002A*%
X110000000Y-150000000D03*
%TD*%
%TO.C,REF\u002A\u002A*%
X110000000Y-35000000D03*
%TD*%
%TO.C,REF\u002A\u002A*%
X215000000Y-35000000D03*
%TD*%
%TO.C,REF\u002A\u002A*%
X215000000Y-150000000D03*
%TD*%
D14*
%TO.C,A1*%
X159835000Y-43687500D03*
D15*
X160135000Y-46717500D03*
X164985000Y-46717500D03*
D14*
X165285000Y-43687500D03*
D16*
X153670000Y-43557500D03*
D17*
X153670000Y-46097500D03*
D18*
X153670000Y-48637500D03*
D17*
X153670000Y-51177500D03*
X153670000Y-53717500D03*
X153670000Y-56257500D03*
X153670000Y-58797500D03*
D18*
X153670000Y-61337500D03*
D17*
X153670000Y-63877500D03*
X153670000Y-66417500D03*
X153670000Y-68957500D03*
X153670000Y-71497500D03*
D18*
X153670000Y-74037500D03*
D17*
X153670000Y-76577500D03*
X153670000Y-79117500D03*
X153670000Y-81657500D03*
X153670000Y-84197500D03*
D18*
X153670000Y-86737500D03*
D17*
X153670000Y-89277500D03*
X153670000Y-91817500D03*
X171450000Y-91817500D03*
X171450000Y-89277500D03*
D19*
X171450000Y-86737500D03*
D17*
X171450000Y-84197500D03*
X171450000Y-81657500D03*
X171450000Y-79117500D03*
X171450000Y-76577500D03*
D19*
X171450000Y-74037500D03*
D17*
X171450000Y-71497500D03*
X171450000Y-68957500D03*
X171450000Y-66417500D03*
X171450000Y-63877500D03*
D19*
X171450000Y-61337500D03*
D17*
X171450000Y-58797500D03*
X171450000Y-56257500D03*
X171450000Y-53717500D03*
X171450000Y-51177500D03*
D19*
X171450000Y-48637500D03*
D17*
X171450000Y-46097500D03*
X171450000Y-43557500D03*
%TD*%
D20*
%TO.C,C1*%
X115570000Y-129540000D03*
D17*
X115570000Y-126040000D03*
%TD*%
D21*
%TO.C,J12*%
X116760000Y-140970000D03*
D22*
X111760000Y-140970000D03*
%TD*%
D23*
%TO.C,J7*%
X182880000Y-67310000D03*
D24*
X182880000Y-69850000D03*
X182880000Y-72390000D03*
X182880000Y-74930000D03*
X182880000Y-77470000D03*
X182880000Y-80010000D03*
X182880000Y-82550000D03*
X182880000Y-85090000D03*
X182880000Y-87630000D03*
X182880000Y-90170000D03*
%TD*%
D25*
%TO.C,J6*%
X148590000Y-124770000D03*
X171990000Y-124770000D03*
X148590000Y-116970000D03*
X171990000Y-116970000D03*
D26*
X125190000Y-124770000D03*
D27*
X125190000Y-116970000D03*
%TD*%
D23*
%TO.C,J11*%
X195380000Y-97790000D03*
D24*
X192840000Y-97790000D03*
X190300000Y-97790000D03*
X187760000Y-97790000D03*
X185220000Y-97790000D03*
%TD*%
D28*
%TO.C,U3*%
X180340000Y-43180000D03*
X180340000Y-45720000D03*
X180340000Y-48260000D03*
X180340000Y-50800000D03*
X180340000Y-53340000D03*
X198120000Y-53340000D03*
X180340000Y-55880000D03*
X198120000Y-43180000D03*
X198120000Y-45720000D03*
X198120000Y-48260000D03*
X198120000Y-50800000D03*
X198120000Y-55880000D03*
%TD*%
D25*
%TO.C,SW1*%
X149352000Y-147701000D03*
X172752000Y-147701000D03*
X149352000Y-139901000D03*
X172752000Y-139901000D03*
D26*
X125952000Y-147701000D03*
D27*
X125952000Y-139901000D03*
%TD*%
D29*
%TO.C,J5*%
X131160000Y-102870000D03*
D30*
X133160000Y-102870000D03*
X135160000Y-102870000D03*
X137160000Y-102870000D03*
X139160000Y-102870000D03*
X141160000Y-102870000D03*
%TD*%
D23*
%TO.C,J10*%
X196650000Y-67310000D03*
D24*
X196650000Y-69850000D03*
X196650000Y-72390000D03*
X196650000Y-74930000D03*
X196650000Y-77470000D03*
X196650000Y-80010000D03*
X196650000Y-82550000D03*
X196650000Y-85090000D03*
X196650000Y-87630000D03*
X196650000Y-90170000D03*
%TD*%
D28*
%TO.C,U1*%
X146050000Y-95250000D03*
X146050000Y-92710000D03*
X146050000Y-90170000D03*
X146050000Y-87630000D03*
X146050000Y-85090000D03*
X128270000Y-85090000D03*
X146050000Y-82550000D03*
X128270000Y-95250000D03*
X128270000Y-92710000D03*
X128270000Y-90170000D03*
X128270000Y-87630000D03*
X128270000Y-82550000D03*
%TD*%
D31*
%TO.C,F1*%
X152400000Y-105410000D03*
X157000000Y-105410000D03*
D32*
X168300000Y-105410000D03*
X172900000Y-105410000D03*
%TD*%
D23*
%TO.C,J9*%
X192060000Y-67310000D03*
D24*
X192060000Y-69850000D03*
X192060000Y-72390000D03*
X192060000Y-74930000D03*
X192060000Y-77470000D03*
X192060000Y-80010000D03*
X192060000Y-82550000D03*
X192060000Y-85090000D03*
X192060000Y-87630000D03*
X192060000Y-90170000D03*
%TD*%
D23*
%TO.C,J8*%
X187470000Y-67310000D03*
D24*
X187470000Y-69850000D03*
X187470000Y-72390000D03*
X187470000Y-74930000D03*
X187470000Y-77470000D03*
X187470000Y-80010000D03*
X187470000Y-82550000D03*
X187470000Y-85090000D03*
X187470000Y-87630000D03*
X187470000Y-90170000D03*
%TD*%
D28*
%TO.C,U2*%
X146050000Y-55880000D03*
X146050000Y-53340000D03*
X146050000Y-50800000D03*
X146050000Y-48260000D03*
X146050000Y-45720000D03*
X128270000Y-45720000D03*
X146050000Y-43180000D03*
X128270000Y-55880000D03*
X128270000Y-53340000D03*
X128270000Y-50800000D03*
X128270000Y-48260000D03*
X128270000Y-43180000D03*
%TD*%
M02*
