%TF.GenerationSoftware,KiCad,Pcbnew,9.0.2*%
%TF.CreationDate,2025-07-04T23:02:28+10:00*%
%TF.ProjectId,motor-controller-pcb,6d6f746f-722d-4636-9f6e-74726f6c6c65,rev?*%
%TF.SameCoordinates,Original*%
%TF.FileFunction,Copper,L2,Bot*%
%TF.FilePolarity,Positive*%
%FSLAX46Y46*%
G04 Gerber Fmt 4.6, Leading zero omitted, Abs format (unit mm)*
G04 Created by KiCad (PCBNEW 9.0.2) date 2025-07-04 23:02:28*
%MOMM*%
%LPD*%
G01*
G04 APERTURE LIST*
G04 Aperture macros list*
%AMRoundRect*
0 Rectangle with rounded corners*
0 $1 Rounding radius*
0 $2 $3 $4 $5 $6 $7 $8 $9 X,Y pos of 4 corners*
0 Add a 4 corners polygon primitive as box body*
4,1,4,$2,$3,$4,$5,$6,$7,$8,$9,$2,$3,0*
0 Add four circle primitives for the rounded corners*
1,1,$1+$1,$2,$3*
1,1,$1+$1,$4,$5*
1,1,$1+$1,$6,$7*
1,1,$1+$1,$8,$9*
0 Add four rect primitives between the rounded corners*
20,1,$1+$1,$2,$3,$4,$5,0*
20,1,$1+$1,$4,$5,$6,$7,0*
20,1,$1+$1,$6,$7,$8,$9,0*
20,1,$1+$1,$8,$9,$2,$3,0*%
%AMFreePoly0*
4,1,37,0.603843,0.796157,0.639018,0.796157,0.711114,0.766294,0.766294,0.711114,0.796157,0.639018,0.796157,0.603843,0.800000,0.600000,0.800000,-0.600000,0.796157,-0.603843,0.796157,-0.639018,0.766294,-0.711114,0.711114,-0.766294,0.639018,-0.796157,0.603843,-0.796157,0.600000,-0.800000,0.000000,-0.800000,0.000000,-0.796148,-0.078414,-0.796148,-0.232228,-0.765552,-0.377117,-0.705537,
-0.507515,-0.618408,-0.618408,-0.507515,-0.705537,-0.377117,-0.765552,-0.232228,-0.796148,-0.078414,-0.796148,0.078414,-0.765552,0.232228,-0.705537,0.377117,-0.618408,0.507515,-0.507515,0.618408,-0.377117,0.705537,-0.232228,0.765552,-0.078414,0.796148,0.000000,0.796148,0.000000,0.800000,0.600000,0.800000,0.603843,0.796157,0.603843,0.796157,$1*%
%AMFreePoly1*
4,1,37,0.000000,0.796148,0.078414,0.796148,0.232228,0.765552,0.377117,0.705537,0.507515,0.618408,0.618408,0.507515,0.705537,0.377117,0.765552,0.232228,0.796148,0.078414,0.796148,-0.078414,0.765552,-0.232228,0.705537,-0.377117,0.618408,-0.507515,0.507515,-0.618408,0.377117,-0.705537,0.232228,-0.765552,0.078414,-0.796148,0.000000,-0.796148,0.000000,-0.800000,-0.600000,-0.800000,
-0.603843,-0.796157,-0.639018,-0.796157,-0.711114,-0.766294,-0.766294,-0.711114,-0.796157,-0.639018,-0.796157,-0.603843,-0.800000,-0.600000,-0.800000,0.600000,-0.796157,0.603843,-0.796157,0.639018,-0.766294,0.711114,-0.711114,0.766294,-0.639018,0.796157,-0.603843,0.796157,-0.600000,0.800000,0.000000,0.800000,0.000000,0.796148,0.000000,0.796148,$1*%
G04 Aperture macros list end*
%TA.AperFunction,ComponentPad*%
%ADD10R,1.700000X1.700000*%
%TD*%
%TA.AperFunction,ComponentPad*%
%ADD11C,1.700000*%
%TD*%
%TA.AperFunction,ComponentPad*%
%ADD12RoundRect,0.200000X-0.600000X-0.600000X0.600000X-0.600000X0.600000X0.600000X-0.600000X0.600000X0*%
%TD*%
%TA.AperFunction,ComponentPad*%
%ADD13C,1.600000*%
%TD*%
%TA.AperFunction,ComponentPad*%
%ADD14FreePoly0,0.000000*%
%TD*%
%TA.AperFunction,ComponentPad*%
%ADD15FreePoly1,0.000000*%
%TD*%
%TA.AperFunction,Conductor*%
%ADD16C,0.200000*%
%TD*%
G04 APERTURE END LIST*
D10*
%TO.P,J4,1,Pin_1*%
%TO.N,Net-(J4-Pin_1)*%
X175445000Y-102740000D03*
D11*
%TO.P,J4,2,Pin_2*%
%TO.N,GND*%
X175445000Y-100200000D03*
%TO.P,J4,3,Pin_3*%
%TO.N,/Encoder 4*%
X175445000Y-97660000D03*
%TO.P,J4,4,Pin_4*%
%TO.N,unconnected-(J4-Pin_4-Pad4)*%
X175445000Y-95120000D03*
%TO.P,J4,5,Pin_5*%
%TO.N,+5V*%
X175445000Y-92580000D03*
%TO.P,J4,6,Pin_6*%
%TO.N,Net-(J4-Pin_6)*%
X175445000Y-90040000D03*
%TD*%
D10*
%TO.P,J5,1,Pin_1*%
%TO.N,Net-(A1-GPIO2)*%
X134805000Y-64640000D03*
D11*
%TO.P,J5,2,Pin_2*%
%TO.N,Net-(A1-GPIO3)*%
X134805000Y-67180000D03*
%TO.P,J5,3,Pin_3*%
%TO.N,Net-(A1-GPIO4)*%
X134805000Y-69720000D03*
%TO.P,J5,4,Pin_4*%
%TO.N,Net-(A1-GPIO5)*%
X134805000Y-72260000D03*
%TD*%
D10*
%TO.P,M4,1,Pin_1*%
%TO.N,Net-(J4-Pin_6)*%
X175445000Y-110360000D03*
D11*
%TO.P,M4,2,Pin_2*%
%TO.N,Net-(J4-Pin_1)*%
X175445000Y-112900000D03*
%TD*%
D10*
%TO.P,J7,1,Pin_1*%
%TO.N,/GP0*%
X145000000Y-115000000D03*
D11*
%TO.P,J7,2,Pin_2*%
%TO.N,/GP1*%
X147540000Y-115000000D03*
%TO.P,J7,3,Pin_3*%
%TO.N,/GP10*%
X150080000Y-115000000D03*
%TO.P,J7,4,Pin_4*%
%TO.N,/GP12*%
X152620000Y-115000000D03*
%TO.P,J7,5,Pin_5*%
%TO.N,/GP14*%
X155160000Y-115000000D03*
%TO.P,J7,6,Pin_6*%
%TO.N,/GP15*%
X157700000Y-115000000D03*
%TO.P,J7,7,Pin_7*%
%TO.N,/GP16*%
X160240000Y-115000000D03*
%TO.P,J7,8,Pin_8*%
%TO.N,/GP17*%
X162780000Y-115000000D03*
%TD*%
D10*
%TO.P,M1,1,Pin_1*%
%TO.N,Net-(J1-Pin_6)*%
X124645000Y-82420000D03*
D11*
%TO.P,M1,2,Pin_2*%
%TO.N,Net-(J1-Pin_1)*%
X124645000Y-79880000D03*
%TD*%
D10*
%TO.P,J3,1,Pin_1*%
%TO.N,Net-(J3-Pin_1)*%
X124645000Y-102740000D03*
D11*
%TO.P,J3,2,Pin_2*%
%TO.N,GND*%
X124645000Y-100200000D03*
%TO.P,J3,3,Pin_3*%
%TO.N,/Encoder 3*%
X124645000Y-97660000D03*
%TO.P,J3,4,Pin_4*%
%TO.N,unconnected-(J3-Pin_4-Pad4)*%
X124645000Y-95120000D03*
%TO.P,J3,5,Pin_5*%
%TO.N,+5V*%
X124645000Y-92580000D03*
%TO.P,J3,6,Pin_6*%
%TO.N,Net-(J3-Pin_6)*%
X124645000Y-90040000D03*
%TD*%
D10*
%TO.P,J2,1,Pin_1*%
%TO.N,Net-(J2-Pin_1)*%
X175445000Y-72260000D03*
D11*
%TO.P,J2,2,Pin_2*%
%TO.N,GND*%
X175445000Y-69720000D03*
%TO.P,J2,3,Pin_3*%
%TO.N,/Encoder 2*%
X175445000Y-67180000D03*
%TO.P,J2,4,Pin_4*%
%TO.N,unconnected-(J2-Pin_4-Pad4)*%
X175445000Y-64640000D03*
%TO.P,J2,5,Pin_5*%
%TO.N,+5V*%
X175445000Y-62100000D03*
%TO.P,J2,6,Pin_6*%
%TO.N,Net-(J2-Pin_6)*%
X175445000Y-59560000D03*
%TD*%
D10*
%TO.P,M3,1,Pin_1*%
%TO.N,Net-(J3-Pin_6)*%
X124645000Y-110360000D03*
D11*
%TO.P,M3,2,Pin_2*%
%TO.N,Net-(J3-Pin_1)*%
X124645000Y-112900000D03*
%TD*%
D12*
%TO.P,A1,1,GPIO0*%
%TO.N,/GP0*%
X143695000Y-58290000D03*
D13*
%TO.P,A1,2,GPIO1*%
%TO.N,/GP1*%
X143695000Y-60830000D03*
D14*
%TO.P,A1,3,GND*%
%TO.N,GND*%
X143695000Y-63370000D03*
D13*
%TO.P,A1,4,GPIO2*%
%TO.N,Net-(A1-GPIO2)*%
X143695000Y-65910000D03*
%TO.P,A1,5,GPIO3*%
%TO.N,Net-(A1-GPIO3)*%
X143695000Y-68450000D03*
%TO.P,A1,6,GPIO4*%
%TO.N,Net-(A1-GPIO4)*%
X143695000Y-70990000D03*
%TO.P,A1,7,GPIO5*%
%TO.N,Net-(A1-GPIO5)*%
X143695000Y-73530000D03*
D14*
%TO.P,A1,8,GND*%
%TO.N,GND*%
X143695000Y-76070000D03*
D13*
%TO.P,A1,9,GPIO6*%
%TO.N,Net-(A1-GPIO6)*%
X143695000Y-78610000D03*
%TO.P,A1,10,GPIO7*%
%TO.N,Net-(A1-GPIO7)*%
X143695000Y-81150000D03*
%TO.P,A1,11,GPIO8*%
%TO.N,Net-(A1-GPIO8)*%
X143695000Y-83690000D03*
%TO.P,A1,12,GPIO9*%
%TO.N,Net-(A1-GPIO9)*%
X143695000Y-86230000D03*
D14*
%TO.P,A1,13,GND*%
%TO.N,GND*%
X143695000Y-88770000D03*
D13*
%TO.P,A1,14,GPIO10*%
%TO.N,/GP10*%
X143695000Y-91310000D03*
%TO.P,A1,15,GPIO11*%
%TO.N,/Encoder 1*%
X143695000Y-93850000D03*
%TO.P,A1,16,GPIO12*%
%TO.N,/GP12*%
X143695000Y-96390000D03*
%TO.P,A1,17,GPIO13*%
%TO.N,/Encoder 3*%
X143695000Y-98930000D03*
D14*
%TO.P,A1,18,GND*%
%TO.N,GND*%
X143695000Y-101470000D03*
D13*
%TO.P,A1,19,GPIO14*%
%TO.N,/GP14*%
X143695000Y-104010000D03*
%TO.P,A1,20,GPIO15*%
%TO.N,/GP15*%
X143695000Y-106550000D03*
%TO.P,A1,21,GPIO16*%
%TO.N,/GP16*%
X161475000Y-106550000D03*
%TO.P,A1,22,GPIO17*%
%TO.N,/GP17*%
X161475000Y-104010000D03*
D15*
%TO.P,A1,23,GND*%
%TO.N,GND*%
X161475000Y-101470000D03*
D13*
%TO.P,A1,24,GPIO18*%
%TO.N,unconnected-(A1-GPIO18-Pad24)*%
X161475000Y-98930000D03*
%TO.P,A1,25,GPIO19*%
%TO.N,/Encoder 2*%
X161475000Y-96390000D03*
%TO.P,A1,26,GPIO20*%
%TO.N,unconnected-(A1-GPIO20-Pad26)_1*%
X161475000Y-93850000D03*
%TO.P,A1,27,GPIO21*%
%TO.N,/Encoder 4*%
X161475000Y-91310000D03*
D15*
%TO.P,A1,28,GND*%
%TO.N,GND*%
X161475000Y-88770000D03*
D13*
%TO.P,A1,29,GPIO22*%
%TO.N,unconnected-(A1-GPIO22-Pad29)_1*%
X161475000Y-86230000D03*
%TO.P,A1,30,RUN*%
%TO.N,unconnected-(A1-RUN-Pad30)*%
X161475000Y-83690000D03*
%TO.P,A1,31,GPIO26_ADC0*%
%TO.N,unconnected-(A1-GPIO26_ADC0-Pad31)_1*%
X161475000Y-81150000D03*
%TO.P,A1,32,GPIO27_ADC1*%
%TO.N,unconnected-(A1-GPIO27_ADC1-Pad32)*%
X161475000Y-78610000D03*
D15*
%TO.P,A1,33,AGND*%
%TO.N,unconnected-(A1-AGND-Pad33)*%
X161475000Y-76070000D03*
D13*
%TO.P,A1,34,GPIO28_ADC2*%
%TO.N,unconnected-(A1-GPIO28_ADC2-Pad34)_1*%
X161475000Y-73530000D03*
%TO.P,A1,35,ADC_VREF*%
%TO.N,unconnected-(A1-ADC_VREF-Pad35)*%
X161475000Y-70990000D03*
%TO.P,A1,36,3V3*%
%TO.N,unconnected-(A1-3V3-Pad36)*%
X161475000Y-68450000D03*
%TO.P,A1,37,3V3_EN*%
%TO.N,unconnected-(A1-3V3_EN-Pad37)*%
X161475000Y-65910000D03*
D15*
%TO.P,A1,38,GND*%
%TO.N,GND*%
X161475000Y-63370000D03*
D13*
%TO.P,A1,39,VSYS*%
%TO.N,unconnected-(A1-VSYS-Pad39)*%
X161475000Y-60830000D03*
%TO.P,A1,40,VBUS*%
%TO.N,+5V*%
X161475000Y-58290000D03*
%TD*%
D10*
%TO.P,M2,1,Pin_1*%
%TO.N,Net-(J2-Pin_6)*%
X175445000Y-79880000D03*
D11*
%TO.P,M2,2,Pin_2*%
%TO.N,Net-(J2-Pin_1)*%
X175445000Y-82420000D03*
%TD*%
D10*
%TO.P,J1,1,Pin_1*%
%TO.N,Net-(J1-Pin_1)*%
X124645000Y-72260000D03*
D11*
%TO.P,J1,2,Pin_2*%
%TO.N,GND*%
X124645000Y-69720000D03*
%TO.P,J1,3,Pin_3*%
%TO.N,/Encoder 1*%
X124645000Y-67180000D03*
%TO.P,J1,4,Pin_4*%
%TO.N,unconnected-(J1-Pin_4-Pad4)*%
X124645000Y-64640000D03*
%TO.P,J1,5,Pin_5*%
%TO.N,+5V*%
X124645000Y-62100000D03*
%TO.P,J1,6,Pin_6*%
%TO.N,Net-(J1-Pin_6)*%
X124645000Y-59560000D03*
%TD*%
D10*
%TO.P,J6,1,Pin_1*%
%TO.N,Net-(A1-GPIO6)*%
X134805000Y-78610000D03*
D11*
%TO.P,J6,2,Pin_2*%
%TO.N,Net-(A1-GPIO7)*%
X134805000Y-81150000D03*
%TO.P,J6,3,Pin_3*%
%TO.N,Net-(A1-GPIO8)*%
X134805000Y-83690000D03*
%TO.P,J6,4,Pin_4*%
%TO.N,Net-(A1-GPIO9)*%
X134805000Y-86230000D03*
%TD*%
D16*
%TO.N,/GP0*%
X151231000Y-115476760D02*
X151231000Y-114523240D01*
X150556760Y-116151000D02*
X151231000Y-115476760D01*
X145202000Y-108494240D02*
X145202000Y-59797000D01*
X145000000Y-115000000D02*
X146151000Y-116151000D01*
X146151000Y-116151000D02*
X150556760Y-116151000D01*
X145202000Y-59797000D02*
X143695000Y-58290000D01*
X151231000Y-114523240D02*
X145202000Y-108494240D01*
%TO.N,/Encoder 2*%
X175445000Y-67180000D02*
X168910000Y-73715000D01*
X168910000Y-73715000D02*
X168910000Y-91440000D01*
X163960000Y-96390000D02*
X161475000Y-96390000D01*
X168910000Y-91440000D02*
X163960000Y-96390000D01*
%TO.N,+5V*%
X175445000Y-92580000D02*
X179070000Y-88955000D01*
X179070000Y-64770000D02*
X178115000Y-64770000D01*
X122235000Y-90170000D02*
X124645000Y-92580000D01*
X120650000Y-66095000D02*
X120650000Y-90170000D01*
X124645000Y-62100000D02*
X120650000Y-66095000D01*
X178115000Y-64770000D02*
X175445000Y-62100000D01*
X120650000Y-90170000D02*
X122235000Y-90170000D01*
X179070000Y-88955000D02*
X179070000Y-64770000D01*
%TO.N,/GP10*%
X144801000Y-109721000D02*
X144801000Y-92416000D01*
X144801000Y-92416000D02*
X143695000Y-91310000D01*
X150080000Y-115000000D02*
X144801000Y-109721000D01*
X150080000Y-115000000D02*
X150000000Y-115000000D01*
%TO.N,/Encoder 1*%
X132080000Y-74615000D02*
X132080000Y-90170000D01*
X124645000Y-67180000D02*
X132080000Y-74615000D01*
X132080000Y-90170000D02*
X135890000Y-93980000D01*
X138430000Y-93980000D02*
X138560000Y-93850000D01*
X135890000Y-93980000D02*
X138430000Y-93980000D01*
X138560000Y-93850000D02*
X143695000Y-93850000D01*
%TO.N,/GP1*%
X147540000Y-115000000D02*
X131679000Y-99139000D01*
X124168240Y-66029000D02*
X135901000Y-66029000D01*
X131679000Y-99139000D02*
X131679000Y-74888240D01*
X123494000Y-66703240D02*
X124168240Y-66029000D01*
X141100000Y-60830000D02*
X143695000Y-60830000D01*
X135901000Y-66029000D02*
X141100000Y-60830000D01*
X123494000Y-67656760D02*
X123494000Y-66703240D01*
X124168240Y-68331000D02*
X123494000Y-67656760D01*
X125121760Y-68331000D02*
X124168240Y-68331000D01*
X131679000Y-74888240D02*
X125121760Y-68331000D01*
%TD*%
%TA.AperFunction,Conductor*%
%TO.N,GND*%
G36*
X132484703Y-91424384D02*
G01*
X132491180Y-91430415D01*
X135521284Y-94460520D01*
X135521286Y-94460521D01*
X135521290Y-94460524D01*
X135658209Y-94539573D01*
X135658212Y-94539575D01*
X135658216Y-94539577D01*
X135810943Y-94580501D01*
X135810945Y-94580501D01*
X135976654Y-94580501D01*
X135976670Y-94580500D01*
X138343331Y-94580500D01*
X138343347Y-94580501D01*
X138350943Y-94580501D01*
X138509054Y-94580501D01*
X138509057Y-94580501D01*
X138661785Y-94539577D01*
X138751496Y-94487782D01*
X138787302Y-94467109D01*
X138787348Y-94467098D01*
X138849297Y-94450500D01*
X142465398Y-94450500D01*
X142532437Y-94470185D01*
X142575883Y-94518205D01*
X142582715Y-94531614D01*
X142703028Y-94697213D01*
X142847786Y-94841971D01*
X143002749Y-94954556D01*
X143013390Y-94962287D01*
X143104840Y-95008883D01*
X143106080Y-95009515D01*
X143156876Y-95057490D01*
X143173671Y-95125311D01*
X143151134Y-95191446D01*
X143106080Y-95230485D01*
X143013386Y-95277715D01*
X142847786Y-95398028D01*
X142703028Y-95542786D01*
X142582715Y-95708386D01*
X142489781Y-95890776D01*
X142426522Y-96085465D01*
X142394500Y-96287648D01*
X142394500Y-96492351D01*
X142426522Y-96694534D01*
X142489781Y-96889223D01*
X142582715Y-97071613D01*
X142703028Y-97237213D01*
X142847786Y-97381971D01*
X143002749Y-97494556D01*
X143013390Y-97502287D01*
X143104840Y-97548883D01*
X143106080Y-97549515D01*
X143156876Y-97597490D01*
X143173671Y-97665311D01*
X143151134Y-97731446D01*
X143106080Y-97770485D01*
X143013386Y-97817715D01*
X142847786Y-97938028D01*
X142703028Y-98082786D01*
X142582715Y-98248386D01*
X142489781Y-98430776D01*
X142426522Y-98625465D01*
X142396495Y-98815051D01*
X142394500Y-98827648D01*
X142394500Y-99032352D01*
X142397664Y-99052330D01*
X142426522Y-99234534D01*
X142489781Y-99429223D01*
X142582715Y-99611613D01*
X142703028Y-99777213D01*
X142847786Y-99921971D01*
X143013388Y-100042286D01*
X143013390Y-100042287D01*
X143099294Y-100086057D01*
X143150090Y-100134031D01*
X143166886Y-100201852D01*
X143144349Y-100267987D01*
X143101455Y-100305899D01*
X143035497Y-100341155D01*
X142966086Y-100387534D01*
X142966085Y-100387534D01*
X143565588Y-100987037D01*
X143502007Y-101004075D01*
X143387993Y-101069901D01*
X143294901Y-101162993D01*
X143229075Y-101277007D01*
X143212037Y-101340588D01*
X142612534Y-100741085D01*
X142612534Y-100741086D01*
X142566158Y-100810493D01*
X142519490Y-100897801D01*
X142459185Y-101043387D01*
X142430444Y-101138135D01*
X142399701Y-101292697D01*
X142399701Y-101292700D01*
X142390000Y-101391210D01*
X142390000Y-101548789D01*
X142399701Y-101647299D01*
X142399701Y-101647302D01*
X142430444Y-101801864D01*
X142459185Y-101896612D01*
X142519490Y-102042198D01*
X142566155Y-102129501D01*
X142566161Y-102129511D01*
X142612534Y-102198912D01*
X143212037Y-101599410D01*
X143229075Y-101662993D01*
X143294901Y-101777007D01*
X143387993Y-101870099D01*
X143502007Y-101935925D01*
X143565588Y-101952961D01*
X142966085Y-102552465D01*
X143035488Y-102598838D01*
X143035498Y-102598844D01*
X143101454Y-102634099D01*
X143151298Y-102683062D01*
X143166758Y-102751200D01*
X143142926Y-102816879D01*
X143099295Y-102853942D01*
X143013386Y-102897715D01*
X142847786Y-103018028D01*
X142703028Y-103162786D01*
X142582715Y-103328386D01*
X142489781Y-103510776D01*
X142426522Y-103705465D01*
X142394500Y-103907648D01*
X142394500Y-104112351D01*
X142426522Y-104314534D01*
X142489781Y-104509223D01*
X142582715Y-104691613D01*
X142703028Y-104857213D01*
X142847786Y-105001971D01*
X143002749Y-105114556D01*
X143013390Y-105122287D01*
X143104840Y-105168883D01*
X143106080Y-105169515D01*
X143156876Y-105217490D01*
X143173671Y-105285311D01*
X143151134Y-105351446D01*
X143106080Y-105390485D01*
X143013386Y-105437715D01*
X142847786Y-105558028D01*
X142703028Y-105702786D01*
X142582715Y-105868386D01*
X142489781Y-106050776D01*
X142426522Y-106245465D01*
X142394500Y-106447648D01*
X142394500Y-106652351D01*
X142426522Y-106854534D01*
X142489781Y-107049223D01*
X142582715Y-107231613D01*
X142703028Y-107397213D01*
X142847786Y-107541971D01*
X143002749Y-107654556D01*
X143013390Y-107662287D01*
X143129607Y-107721503D01*
X143195776Y-107755218D01*
X143195778Y-107755218D01*
X143195781Y-107755220D01*
X143300137Y-107789127D01*
X143390465Y-107818477D01*
X143491557Y-107834488D01*
X143592648Y-107850500D01*
X143592649Y-107850500D01*
X143797351Y-107850500D01*
X143797352Y-107850500D01*
X143999534Y-107818477D01*
X143999537Y-107818476D01*
X143999538Y-107818476D01*
X144038182Y-107805920D01*
X144108023Y-107803925D01*
X144167856Y-107840005D01*
X144198684Y-107902706D01*
X144200500Y-107923851D01*
X144200500Y-109634330D01*
X144200499Y-109634348D01*
X144200499Y-109800054D01*
X144200498Y-109800054D01*
X144241423Y-109952785D01*
X144270358Y-110002900D01*
X144270359Y-110002904D01*
X144270360Y-110002904D01*
X144320479Y-110089714D01*
X144320481Y-110089717D01*
X144439349Y-110208585D01*
X144439355Y-110208590D01*
X147668584Y-113437819D01*
X147702069Y-113499142D01*
X147697085Y-113568834D01*
X147655213Y-113624767D01*
X147589749Y-113649184D01*
X147580903Y-113649500D01*
X147433713Y-113649500D01*
X147405006Y-113654046D01*
X147223757Y-113682753D01*
X147181473Y-113696492D01*
X147111632Y-113698486D01*
X147055476Y-113666241D01*
X132315819Y-98926584D01*
X132282334Y-98865261D01*
X132279500Y-98838903D01*
X132279500Y-91518097D01*
X132299185Y-91451058D01*
X132351989Y-91405303D01*
X132421147Y-91395359D01*
X132484703Y-91424384D01*
G37*
%TD.AperFunction*%
%TA.AperFunction,Conductor*%
G36*
X142480000Y-61434787D02*
G01*
X142495206Y-61434136D01*
X142512843Y-61444431D01*
X142532437Y-61450185D01*
X142543335Y-61462230D01*
X142555547Y-61469359D01*
X142575883Y-61498205D01*
X142582715Y-61511614D01*
X142703028Y-61677213D01*
X142847786Y-61821971D01*
X143013388Y-61942286D01*
X143013390Y-61942287D01*
X143099294Y-61986057D01*
X143150090Y-62034031D01*
X143166886Y-62101852D01*
X143144349Y-62167987D01*
X143101455Y-62205899D01*
X143035497Y-62241155D01*
X142966086Y-62287534D01*
X142966085Y-62287534D01*
X143565588Y-62887037D01*
X143502007Y-62904075D01*
X143387993Y-62969901D01*
X143294901Y-63062993D01*
X143229075Y-63177007D01*
X143212037Y-63240588D01*
X142612534Y-62641085D01*
X142612534Y-62641086D01*
X142566158Y-62710493D01*
X142519490Y-62797801D01*
X142459185Y-62943387D01*
X142430444Y-63038135D01*
X142399701Y-63192697D01*
X142399701Y-63192700D01*
X142390000Y-63291210D01*
X142390000Y-63448789D01*
X142399701Y-63547299D01*
X142399701Y-63547302D01*
X142430444Y-63701864D01*
X142459185Y-63796612D01*
X142519490Y-63942198D01*
X142566155Y-64029501D01*
X142566161Y-64029511D01*
X142612534Y-64098912D01*
X143212037Y-63499410D01*
X143229075Y-63562993D01*
X143294901Y-63677007D01*
X143387993Y-63770099D01*
X143502007Y-63835925D01*
X143565588Y-63852961D01*
X142966085Y-64452465D01*
X143035488Y-64498838D01*
X143035498Y-64498844D01*
X143101454Y-64534099D01*
X143151298Y-64583062D01*
X143166758Y-64651200D01*
X143142926Y-64716879D01*
X143099295Y-64753942D01*
X143013386Y-64797715D01*
X142847786Y-64918028D01*
X142703028Y-65062786D01*
X142582715Y-65228386D01*
X142489781Y-65410776D01*
X142426522Y-65605465D01*
X142394500Y-65807648D01*
X142394500Y-66012351D01*
X142426522Y-66214534D01*
X142489781Y-66409223D01*
X142521862Y-66472184D01*
X142566424Y-66559642D01*
X142582715Y-66591613D01*
X142703028Y-66757213D01*
X142847786Y-66901971D01*
X143002749Y-67014556D01*
X143013390Y-67022287D01*
X143104840Y-67068883D01*
X143106080Y-67069515D01*
X143156876Y-67117490D01*
X143173671Y-67185311D01*
X143151134Y-67251446D01*
X143106080Y-67290485D01*
X143013386Y-67337715D01*
X142847786Y-67458028D01*
X142703028Y-67602786D01*
X142582715Y-67768386D01*
X142489781Y-67950776D01*
X142426522Y-68145465D01*
X142394500Y-68347648D01*
X142394500Y-68552351D01*
X142426522Y-68754534D01*
X142489781Y-68949223D01*
X142582715Y-69131613D01*
X142703028Y-69297213D01*
X142847786Y-69441971D01*
X142987150Y-69543223D01*
X143013390Y-69562287D01*
X143069574Y-69590914D01*
X143106080Y-69609515D01*
X143156876Y-69657490D01*
X143173671Y-69725311D01*
X143151134Y-69791446D01*
X143106080Y-69830485D01*
X143013386Y-69877715D01*
X142847786Y-69998028D01*
X142703028Y-70142786D01*
X142582715Y-70308386D01*
X142489781Y-70490776D01*
X142426522Y-70685465D01*
X142394500Y-70887648D01*
X142394500Y-71092351D01*
X142426522Y-71294534D01*
X142489781Y-71489223D01*
X142582715Y-71671613D01*
X142703028Y-71837213D01*
X142847786Y-71981971D01*
X143002749Y-72094556D01*
X143013390Y-72102287D01*
X143104840Y-72148883D01*
X143106080Y-72149515D01*
X143156876Y-72197490D01*
X143173671Y-72265311D01*
X143151134Y-72331446D01*
X143106080Y-72370485D01*
X143013386Y-72417715D01*
X142847786Y-72538028D01*
X142703028Y-72682786D01*
X142582715Y-72848386D01*
X142489781Y-73030776D01*
X142426522Y-73225465D01*
X142394500Y-73427648D01*
X142394500Y-73632351D01*
X142426522Y-73834534D01*
X142489781Y-74029223D01*
X142582715Y-74211613D01*
X142703028Y-74377213D01*
X142847786Y-74521971D01*
X143013388Y-74642286D01*
X143013390Y-74642287D01*
X143099294Y-74686057D01*
X143150090Y-74734031D01*
X143166886Y-74801852D01*
X143144349Y-74867987D01*
X143101455Y-74905899D01*
X143035497Y-74941155D01*
X142966086Y-74987534D01*
X142966085Y-74987534D01*
X143565588Y-75587037D01*
X143502007Y-75604075D01*
X143387993Y-75669901D01*
X143294901Y-75762993D01*
X143229075Y-75877007D01*
X143212037Y-75940588D01*
X142612534Y-75341085D01*
X142612534Y-75341086D01*
X142566158Y-75410493D01*
X142519490Y-75497801D01*
X142459185Y-75643387D01*
X142430444Y-75738135D01*
X142399701Y-75892697D01*
X142399701Y-75892700D01*
X142390000Y-75991210D01*
X142390000Y-76148789D01*
X142399701Y-76247299D01*
X142399701Y-76247302D01*
X142430444Y-76401864D01*
X142459185Y-76496612D01*
X142519490Y-76642198D01*
X142566155Y-76729501D01*
X142566161Y-76729511D01*
X142612534Y-76798912D01*
X143212037Y-76199410D01*
X143229075Y-76262993D01*
X143294901Y-76377007D01*
X143387993Y-76470099D01*
X143502007Y-76535925D01*
X143565588Y-76552961D01*
X142966085Y-77152465D01*
X143035488Y-77198838D01*
X143035498Y-77198844D01*
X143101454Y-77234099D01*
X143151298Y-77283062D01*
X143166758Y-77351200D01*
X143142926Y-77416879D01*
X143099295Y-77453942D01*
X143013386Y-77497715D01*
X142847786Y-77618028D01*
X142703028Y-77762786D01*
X142582715Y-77928386D01*
X142489781Y-78110776D01*
X142426522Y-78305465D01*
X142394500Y-78507648D01*
X142394500Y-78712351D01*
X142426522Y-78914534D01*
X142489781Y-79109223D01*
X142582715Y-79291613D01*
X142703028Y-79457213D01*
X142847786Y-79601971D01*
X142985928Y-79702335D01*
X143013390Y-79722287D01*
X143104840Y-79768883D01*
X143106080Y-79769515D01*
X143156876Y-79817490D01*
X143173671Y-79885311D01*
X143151134Y-79951446D01*
X143106080Y-79990485D01*
X143013386Y-80037715D01*
X142847786Y-80158028D01*
X142703028Y-80302786D01*
X142582715Y-80468386D01*
X142489781Y-80650776D01*
X142426522Y-80845465D01*
X142394500Y-81047648D01*
X142394500Y-81252351D01*
X142426522Y-81454534D01*
X142489781Y-81649223D01*
X142582715Y-81831613D01*
X142703028Y-81997213D01*
X142847786Y-82141971D01*
X143002749Y-82254556D01*
X143013390Y-82262287D01*
X143097313Y-82305048D01*
X143106080Y-82309515D01*
X143156876Y-82357490D01*
X143173671Y-82425311D01*
X143151134Y-82491446D01*
X143106080Y-82530485D01*
X143013386Y-82577715D01*
X142847786Y-82698028D01*
X142703028Y-82842786D01*
X142582715Y-83008386D01*
X142489781Y-83190776D01*
X142426522Y-83385465D01*
X142394500Y-83587648D01*
X142394500Y-83792351D01*
X142426522Y-83994534D01*
X142489781Y-84189223D01*
X142582715Y-84371613D01*
X142703028Y-84537213D01*
X142847786Y-84681971D01*
X143002749Y-84794556D01*
X143013390Y-84802287D01*
X143097313Y-84845048D01*
X143106080Y-84849515D01*
X143156876Y-84897490D01*
X143173671Y-84965311D01*
X143151134Y-85031446D01*
X143106080Y-85070485D01*
X143013386Y-85117715D01*
X142847786Y-85238028D01*
X142703028Y-85382786D01*
X142582715Y-85548386D01*
X142489781Y-85730776D01*
X142426522Y-85925465D01*
X142394500Y-86127648D01*
X142394500Y-86332351D01*
X142426522Y-86534534D01*
X142489781Y-86729223D01*
X142582715Y-86911613D01*
X142703028Y-87077213D01*
X142847786Y-87221971D01*
X143013388Y-87342286D01*
X143013390Y-87342287D01*
X143099294Y-87386057D01*
X143150090Y-87434031D01*
X143166886Y-87501852D01*
X143144349Y-87567987D01*
X143101455Y-87605899D01*
X143035497Y-87641155D01*
X142966086Y-87687534D01*
X142966085Y-87687534D01*
X143565588Y-88287037D01*
X143502007Y-88304075D01*
X143387993Y-88369901D01*
X143294901Y-88462993D01*
X143229075Y-88577007D01*
X143212037Y-88640588D01*
X142612534Y-88041085D01*
X142612534Y-88041086D01*
X142566158Y-88110493D01*
X142519490Y-88197801D01*
X142459185Y-88343387D01*
X142430444Y-88438135D01*
X142399701Y-88592697D01*
X142399701Y-88592700D01*
X142390000Y-88691210D01*
X142390000Y-88848789D01*
X142399701Y-88947299D01*
X142399701Y-88947302D01*
X142430444Y-89101864D01*
X142459185Y-89196612D01*
X142519490Y-89342198D01*
X142566155Y-89429501D01*
X142566161Y-89429511D01*
X142612534Y-89498912D01*
X143212037Y-88899410D01*
X143229075Y-88962993D01*
X143294901Y-89077007D01*
X143387993Y-89170099D01*
X143502007Y-89235925D01*
X143565588Y-89252961D01*
X142966085Y-89852465D01*
X143035488Y-89898838D01*
X143035498Y-89898844D01*
X143101454Y-89934099D01*
X143151298Y-89983062D01*
X143166758Y-90051200D01*
X143142926Y-90116879D01*
X143099295Y-90153942D01*
X143013386Y-90197715D01*
X142847786Y-90318028D01*
X142703028Y-90462786D01*
X142582715Y-90628386D01*
X142489781Y-90810776D01*
X142426522Y-91005465D01*
X142394500Y-91207648D01*
X142394500Y-91412351D01*
X142426522Y-91614534D01*
X142489781Y-91809223D01*
X142582715Y-91991613D01*
X142703028Y-92157213D01*
X142847786Y-92301971D01*
X143002749Y-92414556D01*
X143013390Y-92422287D01*
X143104840Y-92468883D01*
X143106080Y-92469515D01*
X143156876Y-92517490D01*
X143173671Y-92585311D01*
X143151134Y-92651446D01*
X143106080Y-92690485D01*
X143013386Y-92737715D01*
X142847786Y-92858028D01*
X142703028Y-93002786D01*
X142582715Y-93168385D01*
X142575883Y-93181795D01*
X142527909Y-93232591D01*
X142465398Y-93249500D01*
X138646670Y-93249500D01*
X138646654Y-93249499D01*
X138639058Y-93249499D01*
X138480943Y-93249499D01*
X138404579Y-93269961D01*
X138328214Y-93290423D01*
X138328209Y-93290426D01*
X138202702Y-93362887D01*
X138140703Y-93379500D01*
X136190098Y-93379500D01*
X136123059Y-93359815D01*
X136102417Y-93343181D01*
X132716819Y-89957583D01*
X132683334Y-89896260D01*
X132680500Y-89869902D01*
X132680500Y-77712135D01*
X133454500Y-77712135D01*
X133454500Y-79507870D01*
X133454501Y-79507876D01*
X133460908Y-79567483D01*
X133511202Y-79702328D01*
X133511206Y-79702335D01*
X133597452Y-79817544D01*
X133597455Y-79817547D01*
X133712664Y-79903793D01*
X133712671Y-79903797D01*
X133844082Y-79952810D01*
X133900016Y-79994681D01*
X133924433Y-80060145D01*
X133909582Y-80128418D01*
X133888431Y-80156673D01*
X133774889Y-80270215D01*
X133649951Y-80442179D01*
X133553444Y-80631585D01*
X133487753Y-80833760D01*
X133471774Y-80934649D01*
X133454500Y-81043713D01*
X133454500Y-81256287D01*
X133455872Y-81264949D01*
X133487163Y-81462517D01*
X133487754Y-81466243D01*
X133511788Y-81540213D01*
X133553444Y-81668414D01*
X133649951Y-81857820D01*
X133774890Y-82029786D01*
X133925213Y-82180109D01*
X134097182Y-82305050D01*
X134105946Y-82309516D01*
X134156742Y-82357491D01*
X134173536Y-82425312D01*
X134150998Y-82491447D01*
X134105946Y-82530484D01*
X134097182Y-82534949D01*
X133925213Y-82659890D01*
X133774890Y-82810213D01*
X133649951Y-82982179D01*
X133553444Y-83171585D01*
X133487753Y-83373760D01*
X133454500Y-83583713D01*
X133454500Y-83796286D01*
X133487753Y-84006239D01*
X133553444Y-84208414D01*
X133649951Y-84397820D01*
X133774890Y-84569786D01*
X133925213Y-84720109D01*
X134097182Y-84845050D01*
X134105946Y-84849516D01*
X134156742Y-84897491D01*
X134173536Y-84965312D01*
X134150998Y-85031447D01*
X134105946Y-85070484D01*
X134097182Y-85074949D01*
X133925213Y-85199890D01*
X133774890Y-85350213D01*
X133649951Y-85522179D01*
X133553444Y-85711585D01*
X133487753Y-85913760D01*
X133454500Y-86123713D01*
X133454500Y-86336286D01*
X133487753Y-86546239D01*
X133553444Y-86748414D01*
X133649951Y-86937820D01*
X133774890Y-87109786D01*
X133925213Y-87260109D01*
X134097179Y-87385048D01*
X134097181Y-87385049D01*
X134097184Y-87385051D01*
X134286588Y-87481557D01*
X134488757Y-87547246D01*
X134698713Y-87580500D01*
X134698714Y-87580500D01*
X134911286Y-87580500D01*
X134911287Y-87580500D01*
X135121243Y-87547246D01*
X135323412Y-87481557D01*
X135512816Y-87385051D01*
X135571676Y-87342287D01*
X135684786Y-87260109D01*
X135684788Y-87260106D01*
X135684792Y-87260104D01*
X135835104Y-87109792D01*
X135835106Y-87109788D01*
X135835109Y-87109786D01*
X135960048Y-86937820D01*
X135960047Y-86937820D01*
X135960051Y-86937816D01*
X136056557Y-86748412D01*
X136122246Y-86546243D01*
X136155500Y-86336287D01*
X136155500Y-86123713D01*
X136122246Y-85913757D01*
X136056557Y-85711588D01*
X135960051Y-85522184D01*
X135960049Y-85522181D01*
X135960048Y-85522179D01*
X135835109Y-85350213D01*
X135684786Y-85199890D01*
X135512820Y-85074951D01*
X135512115Y-85074591D01*
X135504054Y-85070485D01*
X135453259Y-85022512D01*
X135436463Y-84954692D01*
X135458999Y-84888556D01*
X135504054Y-84849515D01*
X135512816Y-84845051D01*
X135571680Y-84802284D01*
X135684786Y-84720109D01*
X135684788Y-84720106D01*
X135684792Y-84720104D01*
X135835104Y-84569792D01*
X135835106Y-84569788D01*
X135835109Y-84569786D01*
X135960048Y-84397820D01*
X135960047Y-84397820D01*
X135960051Y-84397816D01*
X136056557Y-84208412D01*
X136122246Y-84006243D01*
X136155500Y-83796287D01*
X136155500Y-83583713D01*
X136122246Y-83373757D01*
X136056557Y-83171588D01*
X135960051Y-82982184D01*
X135960049Y-82982181D01*
X135960048Y-82982179D01*
X135835109Y-82810213D01*
X135684786Y-82659890D01*
X135512820Y-82534951D01*
X135512115Y-82534591D01*
X135504054Y-82530485D01*
X135453259Y-82482512D01*
X135436463Y-82414692D01*
X135458999Y-82348556D01*
X135504054Y-82309515D01*
X135512816Y-82305051D01*
X135571680Y-82262284D01*
X135684786Y-82180109D01*
X135684788Y-82180106D01*
X135684792Y-82180104D01*
X135835104Y-82029792D01*
X135835106Y-82029788D01*
X135835109Y-82029786D01*
X135960048Y-81857820D01*
X135960047Y-81857820D01*
X135960051Y-81857816D01*
X136056557Y-81668412D01*
X136122246Y-81466243D01*
X136155500Y-81256287D01*
X136155500Y-81043713D01*
X136122246Y-80833757D01*
X136056557Y-80631588D01*
X135960051Y-80442184D01*
X135960049Y-80442181D01*
X135960048Y-80442179D01*
X135835109Y-80270213D01*
X135721569Y-80156673D01*
X135688084Y-80095350D01*
X135693068Y-80025658D01*
X135734940Y-79969725D01*
X135765915Y-79952810D01*
X135897331Y-79903796D01*
X136012546Y-79817546D01*
X136098796Y-79702331D01*
X136149091Y-79567483D01*
X136155500Y-79507873D01*
X136155499Y-77712128D01*
X136149091Y-77652517D01*
X136136227Y-77618028D01*
X136098797Y-77517671D01*
X136098793Y-77517664D01*
X136012547Y-77402455D01*
X136012544Y-77402452D01*
X135897335Y-77316206D01*
X135897328Y-77316202D01*
X135762482Y-77265908D01*
X135762483Y-77265908D01*
X135702883Y-77259501D01*
X135702881Y-77259500D01*
X135702873Y-77259500D01*
X135702864Y-77259500D01*
X133907129Y-77259500D01*
X133907123Y-77259501D01*
X133847516Y-77265908D01*
X133712671Y-77316202D01*
X133712664Y-77316206D01*
X133597455Y-77402452D01*
X133597452Y-77402455D01*
X133511206Y-77517664D01*
X133511202Y-77517671D01*
X133460908Y-77652517D01*
X133454501Y-77712116D01*
X133454501Y-77712123D01*
X133454500Y-77712135D01*
X132680500Y-77712135D01*
X132680500Y-74704059D01*
X132680501Y-74704046D01*
X132680501Y-74535945D01*
X132680501Y-74535943D01*
X132639577Y-74383215D01*
X132584454Y-74287740D01*
X132560520Y-74246284D01*
X132448716Y-74134480D01*
X132448713Y-74134478D01*
X125978757Y-67664522D01*
X125945272Y-67603199D01*
X125948507Y-67538523D01*
X125962246Y-67496243D01*
X125995500Y-67286287D01*
X125995500Y-67073713D01*
X125962246Y-66863757D01*
X125938870Y-66791816D01*
X125936876Y-66721977D01*
X125972956Y-66662144D01*
X126035657Y-66631316D01*
X126056802Y-66629500D01*
X133393198Y-66629500D01*
X133460237Y-66649185D01*
X133505992Y-66701989D01*
X133515936Y-66771147D01*
X133511130Y-66791812D01*
X133494601Y-66842685D01*
X133487753Y-66863760D01*
X133454500Y-67073713D01*
X133454500Y-67286286D01*
X133487753Y-67496239D01*
X133487753Y-67496241D01*
X133487754Y-67496243D01*
X133542431Y-67664522D01*
X133553444Y-67698414D01*
X133649951Y-67887820D01*
X133774890Y-68059786D01*
X133925213Y-68210109D01*
X134097182Y-68335050D01*
X134105946Y-68339516D01*
X134156742Y-68387491D01*
X134173536Y-68455312D01*
X134150998Y-68521447D01*
X134105946Y-68560484D01*
X134097182Y-68564949D01*
X133925213Y-68689890D01*
X133774890Y-68840213D01*
X133649951Y-69012179D01*
X133553444Y-69201585D01*
X133487753Y-69403760D01*
X133454500Y-69613713D01*
X133454500Y-69826286D01*
X133487735Y-70036127D01*
X133487754Y-70036243D01*
X133522370Y-70142781D01*
X133553444Y-70238414D01*
X133649951Y-70427820D01*
X133774890Y-70599786D01*
X133925213Y-70750109D01*
X134097182Y-70875050D01*
X134105946Y-70879516D01*
X134156742Y-70927491D01*
X134173536Y-70995312D01*
X134150998Y-71061447D01*
X134105946Y-71100484D01*
X134097182Y-71104949D01*
X133925213Y-71229890D01*
X133774890Y-71380213D01*
X133649951Y-71552179D01*
X133553444Y-71741585D01*
X133487753Y-71943760D01*
X133462645Y-72102287D01*
X133454500Y-72153713D01*
X133454500Y-72366287D01*
X133487754Y-72576243D01*
X133522370Y-72682781D01*
X133553444Y-72778414D01*
X133649951Y-72967820D01*
X133774890Y-73139786D01*
X133925213Y-73290109D01*
X134097179Y-73415048D01*
X134097181Y-73415049D01*
X134097184Y-73415051D01*
X134286588Y-73511557D01*
X134488757Y-73577246D01*
X134698713Y-73610500D01*
X134698714Y-73610500D01*
X134911286Y-73610500D01*
X134911287Y-73610500D01*
X135121243Y-73577246D01*
X135323412Y-73511557D01*
X135512816Y-73415051D01*
X135599138Y-73352335D01*
X135684786Y-73290109D01*
X135684788Y-73290106D01*
X135684792Y-73290104D01*
X135835104Y-73139792D01*
X135835106Y-73139788D01*
X135835109Y-73139786D01*
X135960048Y-72967820D01*
X135960047Y-72967820D01*
X135960051Y-72967816D01*
X136056557Y-72778412D01*
X136122246Y-72576243D01*
X136155500Y-72366287D01*
X136155500Y-72153713D01*
X136122246Y-71943757D01*
X136056557Y-71741588D01*
X135960051Y-71552184D01*
X135960049Y-71552181D01*
X135960048Y-71552179D01*
X135835109Y-71380213D01*
X135684786Y-71229890D01*
X135512820Y-71104951D01*
X135512115Y-71104591D01*
X135504054Y-71100485D01*
X135453259Y-71052512D01*
X135436463Y-70984692D01*
X135458999Y-70918556D01*
X135504054Y-70879515D01*
X135512816Y-70875051D01*
X135534789Y-70859086D01*
X135684786Y-70750109D01*
X135684788Y-70750106D01*
X135684792Y-70750104D01*
X135835104Y-70599792D01*
X135835106Y-70599788D01*
X135835109Y-70599786D01*
X135960048Y-70427820D01*
X135960047Y-70427820D01*
X135960051Y-70427816D01*
X136056557Y-70238412D01*
X136122246Y-70036243D01*
X136155500Y-69826287D01*
X136155500Y-69613713D01*
X136122246Y-69403757D01*
X136056557Y-69201588D01*
X135960051Y-69012184D01*
X135960049Y-69012181D01*
X135960048Y-69012179D01*
X135835109Y-68840213D01*
X135684786Y-68689890D01*
X135512820Y-68564951D01*
X135504600Y-68560763D01*
X135504054Y-68560485D01*
X135453259Y-68512512D01*
X135436463Y-68444692D01*
X135458999Y-68378556D01*
X135504054Y-68339515D01*
X135512816Y-68335051D01*
X135534789Y-68319086D01*
X135684786Y-68210109D01*
X135684788Y-68210106D01*
X135684792Y-68210104D01*
X135835104Y-68059792D01*
X135835106Y-68059788D01*
X135835109Y-68059786D01*
X135960048Y-67887820D01*
X135960047Y-67887820D01*
X135960051Y-67887816D01*
X136056557Y-67698412D01*
X136122246Y-67496243D01*
X136155500Y-67286287D01*
X136155500Y-67073713D01*
X136122246Y-66863757D01*
X136079650Y-66732663D01*
X136078766Y-66701712D01*
X136075822Y-66670885D01*
X136077777Y-66667091D01*
X136077656Y-66662827D01*
X136093645Y-66636311D01*
X136107837Y-66608782D01*
X136112418Y-66605178D01*
X136113736Y-66602994D01*
X136135579Y-66586964D01*
X136182899Y-66559642D01*
X136182904Y-66559639D01*
X136269716Y-66509520D01*
X136381520Y-66397716D01*
X136381520Y-66397714D01*
X136391728Y-66387507D01*
X136391729Y-66387504D01*
X141312416Y-61466819D01*
X141373739Y-61433334D01*
X141400097Y-61430500D01*
X142465398Y-61430500D01*
X142480000Y-61434787D01*
G37*
%TD.AperFunction*%
%TA.AperFunction,Conductor*%
G36*
X196842539Y-54660185D02*
G01*
X196888294Y-54712989D01*
X196899500Y-54764500D01*
X196899500Y-118515500D01*
X196879815Y-118582539D01*
X196827011Y-118628294D01*
X196775500Y-118639500D01*
X108024500Y-118639500D01*
X107957461Y-118619815D01*
X107911706Y-118567011D01*
X107900500Y-118515500D01*
X107900500Y-109878711D01*
X113149500Y-109878711D01*
X113149500Y-110121288D01*
X113181161Y-110361785D01*
X113243947Y-110596104D01*
X113336773Y-110820205D01*
X113336776Y-110820212D01*
X113458064Y-111030289D01*
X113458066Y-111030292D01*
X113458067Y-111030293D01*
X113605733Y-111222736D01*
X113605739Y-111222743D01*
X113777256Y-111394260D01*
X113777262Y-111394265D01*
X113969711Y-111541936D01*
X114179788Y-111663224D01*
X114403900Y-111756054D01*
X114638211Y-111818838D01*
X114818586Y-111842584D01*
X114878711Y-111850500D01*
X114878712Y-111850500D01*
X115121289Y-111850500D01*
X115169388Y-111844167D01*
X115361789Y-111818838D01*
X115596100Y-111756054D01*
X115820212Y-111663224D01*
X116030289Y-111541936D01*
X116222738Y-111394265D01*
X116394265Y-111222738D01*
X116541936Y-111030289D01*
X116663224Y-110820212D01*
X116756054Y-110596100D01*
X116818838Y-110361789D01*
X116850500Y-110121288D01*
X116850500Y-109878712D01*
X116818838Y-109638211D01*
X116771658Y-109462135D01*
X123294500Y-109462135D01*
X123294500Y-111257870D01*
X123294501Y-111257876D01*
X123300908Y-111317483D01*
X123351202Y-111452328D01*
X123351206Y-111452335D01*
X123437452Y-111567544D01*
X123437455Y-111567547D01*
X123552664Y-111653793D01*
X123552671Y-111653797D01*
X123684082Y-111702810D01*
X123740016Y-111744681D01*
X123764433Y-111810145D01*
X123749582Y-111878418D01*
X123728431Y-111906673D01*
X123614889Y-112020215D01*
X123489951Y-112192179D01*
X123393444Y-112381585D01*
X123327753Y-112583760D01*
X123294500Y-112793713D01*
X123294500Y-113006286D01*
X123327753Y-113216239D01*
X123393444Y-113418414D01*
X123489951Y-113607820D01*
X123614890Y-113779786D01*
X123765213Y-113930109D01*
X123937179Y-114055048D01*
X123937181Y-114055049D01*
X123937184Y-114055051D01*
X124126588Y-114151557D01*
X124328757Y-114217246D01*
X124538713Y-114250500D01*
X124538714Y-114250500D01*
X124751286Y-114250500D01*
X124751287Y-114250500D01*
X124961243Y-114217246D01*
X125163412Y-114151557D01*
X125352816Y-114055051D01*
X125374789Y-114039086D01*
X125524786Y-113930109D01*
X125524788Y-113930106D01*
X125524792Y-113930104D01*
X125675104Y-113779792D01*
X125675106Y-113779788D01*
X125675109Y-113779786D01*
X125800048Y-113607820D01*
X125800047Y-113607820D01*
X125800051Y-113607816D01*
X125896557Y-113418412D01*
X125962246Y-113216243D01*
X125995500Y-113006287D01*
X125995500Y-112793713D01*
X125962246Y-112583757D01*
X125896557Y-112381588D01*
X125800051Y-112192184D01*
X125800049Y-112192181D01*
X125800048Y-112192179D01*
X125675109Y-112020213D01*
X125561569Y-111906673D01*
X125528084Y-111845350D01*
X125533068Y-111775658D01*
X125574940Y-111719725D01*
X125605915Y-111702810D01*
X125737331Y-111653796D01*
X125852546Y-111567546D01*
X125938796Y-111452331D01*
X125989091Y-111317483D01*
X125995500Y-111257873D01*
X125995499Y-109462128D01*
X125989091Y-109402517D01*
X125938796Y-109267669D01*
X125938795Y-109267668D01*
X125938793Y-109267664D01*
X125852547Y-109152455D01*
X125852544Y-109152452D01*
X125737335Y-109066206D01*
X125737328Y-109066202D01*
X125602482Y-109015908D01*
X125602483Y-109015908D01*
X125542883Y-109009501D01*
X125542881Y-109009500D01*
X125542873Y-109009500D01*
X125542864Y-109009500D01*
X123747129Y-109009500D01*
X123747123Y-109009501D01*
X123687516Y-109015908D01*
X123552671Y-109066202D01*
X123552664Y-109066206D01*
X123437455Y-109152452D01*
X123437452Y-109152455D01*
X123351206Y-109267664D01*
X123351202Y-109267671D01*
X123300908Y-109402517D01*
X123294501Y-109462116D01*
X123294501Y-109462123D01*
X123294500Y-109462135D01*
X116771658Y-109462135D01*
X116756054Y-109403900D01*
X116663224Y-109179788D01*
X116541936Y-108969711D01*
X116394265Y-108777262D01*
X116394260Y-108777256D01*
X116222743Y-108605739D01*
X116222736Y-108605733D01*
X116030293Y-108458067D01*
X116030292Y-108458066D01*
X116030289Y-108458064D01*
X115820212Y-108336776D01*
X115820205Y-108336773D01*
X115596104Y-108243947D01*
X115478944Y-108212554D01*
X115361789Y-108181162D01*
X115361788Y-108181161D01*
X115361785Y-108181161D01*
X115121289Y-108149500D01*
X115121288Y-108149500D01*
X114878712Y-108149500D01*
X114878711Y-108149500D01*
X114638214Y-108181161D01*
X114403895Y-108243947D01*
X114179794Y-108336773D01*
X114179785Y-108336777D01*
X113969706Y-108458067D01*
X113777263Y-108605733D01*
X113777256Y-108605739D01*
X113605739Y-108777256D01*
X113605733Y-108777263D01*
X113458067Y-108969706D01*
X113336777Y-109179785D01*
X113336773Y-109179794D01*
X113243947Y-109403895D01*
X113181161Y-109638214D01*
X113149500Y-109878711D01*
X107900500Y-109878711D01*
X107900500Y-66015943D01*
X120049499Y-66015943D01*
X120049499Y-66174057D01*
X120049500Y-66174060D01*
X120049500Y-90090943D01*
X120049500Y-90249057D01*
X120078221Y-90356243D01*
X120090423Y-90401783D01*
X120090426Y-90401790D01*
X120169475Y-90538709D01*
X120169479Y-90538714D01*
X120169480Y-90538716D01*
X120281284Y-90650520D01*
X120281286Y-90650521D01*
X120281290Y-90650524D01*
X120418209Y-90729573D01*
X120418216Y-90729577D01*
X120570943Y-90770500D01*
X121934903Y-90770500D01*
X122001942Y-90790185D01*
X122022584Y-90806819D01*
X123311241Y-92095476D01*
X123344726Y-92156799D01*
X123341492Y-92221473D01*
X123327753Y-92263757D01*
X123302645Y-92422287D01*
X123294500Y-92473713D01*
X123294500Y-92686287D01*
X123327754Y-92896243D01*
X123362370Y-93002781D01*
X123393444Y-93098414D01*
X123489951Y-93287820D01*
X123614890Y-93459786D01*
X123765213Y-93610109D01*
X123937182Y-93735050D01*
X123945946Y-93739516D01*
X123996742Y-93787491D01*
X124013536Y-93855312D01*
X123990998Y-93921447D01*
X123945946Y-93960484D01*
X123937182Y-93964949D01*
X123765213Y-94089890D01*
X123614890Y-94240213D01*
X123489951Y-94412179D01*
X123393444Y-94601585D01*
X123327753Y-94803760D01*
X123302645Y-94962287D01*
X123294500Y-95013713D01*
X123294500Y-95226287D01*
X123327754Y-95436243D01*
X123362370Y-95542781D01*
X123393444Y-95638414D01*
X123489951Y-95827820D01*
X123614890Y-95999786D01*
X123765213Y-96150109D01*
X123937182Y-96275050D01*
X123945946Y-96279516D01*
X123996742Y-96327491D01*
X124013536Y-96395312D01*
X123990998Y-96461447D01*
X123945946Y-96500484D01*
X123937182Y-96504949D01*
X123765213Y-96629890D01*
X123614890Y-96780213D01*
X123489951Y-96952179D01*
X123393444Y-97141585D01*
X123327753Y-97343760D01*
X123302645Y-97502287D01*
X123294500Y-97553713D01*
X123294500Y-97766287D01*
X123327754Y-97976243D01*
X123362370Y-98082781D01*
X123393444Y-98178414D01*
X123489951Y-98367820D01*
X123614890Y-98539786D01*
X123765213Y-98690109D01*
X123937179Y-98815048D01*
X123937181Y-98815049D01*
X123937184Y-98815051D01*
X123946493Y-98819794D01*
X123997290Y-98867766D01*
X124014087Y-98935587D01*
X123991552Y-99001722D01*
X123946505Y-99040760D01*
X123937446Y-99045376D01*
X123937440Y-99045380D01*
X123883282Y-99084727D01*
X123883282Y-99084728D01*
X124515591Y-99717037D01*
X124452007Y-99734075D01*
X124337993Y-99799901D01*
X124244901Y-99892993D01*
X124179075Y-100007007D01*
X124162037Y-100070591D01*
X123529728Y-99438282D01*
X123529727Y-99438282D01*
X123490380Y-99492439D01*
X123393904Y-99681782D01*
X123328242Y-99883869D01*
X123328242Y-99883872D01*
X123295000Y-100093753D01*
X123295000Y-100306246D01*
X123328242Y-100516127D01*
X123328242Y-100516130D01*
X123393904Y-100718217D01*
X123490375Y-100907550D01*
X123529728Y-100961716D01*
X124162037Y-100329408D01*
X124179075Y-100392993D01*
X124244901Y-100507007D01*
X124337993Y-100600099D01*
X124452007Y-100665925D01*
X124515590Y-100682962D01*
X123845370Y-101353181D01*
X123784047Y-101386666D01*
X123757698Y-101389500D01*
X123747134Y-101389500D01*
X123747123Y-101389501D01*
X123687516Y-101395908D01*
X123552671Y-101446202D01*
X123552664Y-101446206D01*
X123437455Y-101532452D01*
X123437452Y-101532455D01*
X123351206Y-101647664D01*
X123351202Y-101647671D01*
X123300908Y-101782517D01*
X123296497Y-101823552D01*
X123294501Y-101842123D01*
X123294500Y-101842135D01*
X123294500Y-103637870D01*
X123294501Y-103637876D01*
X123300908Y-103697483D01*
X123351202Y-103832328D01*
X123351206Y-103832335D01*
X123437452Y-103947544D01*
X123437455Y-103947547D01*
X123552664Y-104033793D01*
X123552671Y-104033797D01*
X123687517Y-104084091D01*
X123687516Y-104084091D01*
X123694444Y-104084835D01*
X123747127Y-104090500D01*
X125542872Y-104090499D01*
X125602483Y-104084091D01*
X125737331Y-104033796D01*
X125852546Y-103947546D01*
X125938796Y-103832331D01*
X125989091Y-103697483D01*
X125995500Y-103637873D01*
X125995499Y-101842128D01*
X125989091Y-101782517D01*
X125971165Y-101734456D01*
X125938797Y-101647671D01*
X125938793Y-101647664D01*
X125852547Y-101532455D01*
X125852544Y-101532452D01*
X125737335Y-101446206D01*
X125737328Y-101446202D01*
X125602482Y-101395908D01*
X125602483Y-101395908D01*
X125542883Y-101389501D01*
X125542881Y-101389500D01*
X125542873Y-101389500D01*
X125542865Y-101389500D01*
X125532309Y-101389500D01*
X125465270Y-101369815D01*
X125444628Y-101353181D01*
X124774408Y-100682962D01*
X124837993Y-100665925D01*
X124952007Y-100600099D01*
X125045099Y-100507007D01*
X125110925Y-100392993D01*
X125127962Y-100329409D01*
X125760270Y-100961717D01*
X125760270Y-100961716D01*
X125799622Y-100907554D01*
X125896095Y-100718217D01*
X125961757Y-100516130D01*
X125961757Y-100516127D01*
X125995000Y-100306246D01*
X125995000Y-100093753D01*
X125961757Y-99883872D01*
X125961757Y-99883869D01*
X125896095Y-99681782D01*
X125799624Y-99492449D01*
X125760270Y-99438282D01*
X125760269Y-99438282D01*
X125127962Y-100070590D01*
X125110925Y-100007007D01*
X125045099Y-99892993D01*
X124952007Y-99799901D01*
X124837993Y-99734075D01*
X124774409Y-99717037D01*
X125406716Y-99084728D01*
X125352547Y-99045373D01*
X125352547Y-99045372D01*
X125343500Y-99040763D01*
X125292706Y-98992788D01*
X125275912Y-98924966D01*
X125298451Y-98858832D01*
X125343508Y-98819793D01*
X125352816Y-98815051D01*
X125432007Y-98757515D01*
X125524786Y-98690109D01*
X125524788Y-98690106D01*
X125524792Y-98690104D01*
X125675104Y-98539792D01*
X125675106Y-98539788D01*
X125675109Y-98539786D01*
X125800048Y-98367820D01*
X125800047Y-98367820D01*
X125800051Y-98367816D01*
X125896557Y-98178412D01*
X125962246Y-97976243D01*
X125995500Y-97766287D01*
X125995500Y-97553713D01*
X125962246Y-97343757D01*
X125896557Y-97141588D01*
X125800051Y-96952184D01*
X125800049Y-96952181D01*
X125800048Y-96952179D01*
X125675109Y-96780213D01*
X125524786Y-96629890D01*
X125352820Y-96504951D01*
X125352115Y-96504591D01*
X125344054Y-96500485D01*
X125293259Y-96452512D01*
X125276463Y-96384692D01*
X125298999Y-96318556D01*
X125344054Y-96279515D01*
X125352816Y-96275051D01*
X125374789Y-96259086D01*
X125524786Y-96150109D01*
X125524788Y-96150106D01*
X125524792Y-96150104D01*
X125675104Y-95999792D01*
X125675106Y-95999788D01*
X125675109Y-95999786D01*
X125800048Y-95827820D01*
X125800047Y-95827820D01*
X125800051Y-95827816D01*
X125896557Y-95638412D01*
X125962246Y-95436243D01*
X125995500Y-95226287D01*
X125995500Y-95013713D01*
X125962246Y-94803757D01*
X125896557Y-94601588D01*
X125800051Y-94412184D01*
X125800049Y-94412181D01*
X125800048Y-94412179D01*
X125675109Y-94240213D01*
X125524786Y-94089890D01*
X125352820Y-93964951D01*
X125352115Y-93964591D01*
X125344054Y-93960485D01*
X125293259Y-93912512D01*
X125276463Y-93844692D01*
X125298999Y-93778556D01*
X125344054Y-93739515D01*
X125352816Y-93735051D01*
X125374789Y-93719086D01*
X125524786Y-93610109D01*
X125524788Y-93610106D01*
X125524792Y-93610104D01*
X125675104Y-93459792D01*
X125675106Y-93459788D01*
X125675109Y-93459786D01*
X125800048Y-93287820D01*
X125800047Y-93287820D01*
X125800051Y-93287816D01*
X125896557Y-93098412D01*
X125962246Y-92896243D01*
X125995500Y-92686287D01*
X125995500Y-92473713D01*
X125962246Y-92263757D01*
X125896557Y-92061588D01*
X125800051Y-91872184D01*
X125800049Y-91872181D01*
X125800048Y-91872179D01*
X125675109Y-91700213D01*
X125524786Y-91549890D01*
X125352820Y-91424951D01*
X125351707Y-91424384D01*
X125344054Y-91420485D01*
X125293259Y-91372512D01*
X125276463Y-91304692D01*
X125298999Y-91238556D01*
X125344054Y-91199515D01*
X125352816Y-91195051D01*
X125374789Y-91179086D01*
X125524786Y-91070109D01*
X125524788Y-91070106D01*
X125524792Y-91070104D01*
X125675104Y-90919792D01*
X125675106Y-90919788D01*
X125675109Y-90919786D01*
X125800048Y-90747820D01*
X125800047Y-90747820D01*
X125800051Y-90747816D01*
X125896557Y-90558412D01*
X125962246Y-90356243D01*
X125995500Y-90146287D01*
X125995500Y-89933713D01*
X125962246Y-89723757D01*
X125896557Y-89521588D01*
X125800051Y-89332184D01*
X125800049Y-89332181D01*
X125800048Y-89332179D01*
X125675109Y-89160213D01*
X125524786Y-89009890D01*
X125352820Y-88884951D01*
X125163414Y-88788444D01*
X125163413Y-88788443D01*
X125163412Y-88788443D01*
X124961243Y-88722754D01*
X124961241Y-88722753D01*
X124961240Y-88722753D01*
X124762083Y-88691210D01*
X124751287Y-88689500D01*
X124538713Y-88689500D01*
X124527917Y-88691210D01*
X124328760Y-88722753D01*
X124126585Y-88788444D01*
X123937179Y-88884951D01*
X123765213Y-89009890D01*
X123614890Y-89160213D01*
X123489951Y-89332179D01*
X123393444Y-89521585D01*
X123327753Y-89723760D01*
X123294500Y-89933713D01*
X123294500Y-90080902D01*
X123274815Y-90147941D01*
X123222011Y-90193696D01*
X123152853Y-90203640D01*
X123089297Y-90174615D01*
X123082819Y-90168583D01*
X122722590Y-89808355D01*
X122722588Y-89808352D01*
X122603717Y-89689481D01*
X122603716Y-89689480D01*
X122516904Y-89639360D01*
X122516904Y-89639359D01*
X122516900Y-89639358D01*
X122466785Y-89610423D01*
X122314057Y-89569499D01*
X122155943Y-89569499D01*
X122148347Y-89569499D01*
X122148331Y-89569500D01*
X121374500Y-89569500D01*
X121307461Y-89549815D01*
X121261706Y-89497011D01*
X121250500Y-89445500D01*
X121250500Y-79773713D01*
X123294500Y-79773713D01*
X123294500Y-79986287D01*
X123295872Y-79994949D01*
X123321486Y-80156673D01*
X123327754Y-80196243D01*
X123362370Y-80302781D01*
X123393444Y-80398414D01*
X123489951Y-80587820D01*
X123614890Y-80759786D01*
X123728430Y-80873326D01*
X123761915Y-80934649D01*
X123756931Y-81004341D01*
X123715059Y-81060274D01*
X123684083Y-81077189D01*
X123552669Y-81126203D01*
X123552664Y-81126206D01*
X123437455Y-81212452D01*
X123437452Y-81212455D01*
X123351206Y-81327664D01*
X123351202Y-81327671D01*
X123300908Y-81462517D01*
X123294501Y-81522116D01*
X123294501Y-81522123D01*
X123294500Y-81522135D01*
X123294500Y-83317870D01*
X123294501Y-83317876D01*
X123300908Y-83377483D01*
X123351202Y-83512328D01*
X123351206Y-83512335D01*
X123437452Y-83627544D01*
X123437455Y-83627547D01*
X123552664Y-83713793D01*
X123552671Y-83713797D01*
X123687517Y-83764091D01*
X123687516Y-83764091D01*
X123694444Y-83764835D01*
X123747127Y-83770500D01*
X125542872Y-83770499D01*
X125602483Y-83764091D01*
X125737331Y-83713796D01*
X125852546Y-83627546D01*
X125938796Y-83512331D01*
X125989091Y-83377483D01*
X125995500Y-83317873D01*
X125995499Y-81522128D01*
X125989091Y-81462517D01*
X125939719Y-81330145D01*
X125938797Y-81327671D01*
X125938793Y-81327664D01*
X125852547Y-81212455D01*
X125852544Y-81212452D01*
X125737335Y-81126206D01*
X125737328Y-81126202D01*
X125605917Y-81077189D01*
X125549983Y-81035318D01*
X125525566Y-80969853D01*
X125540418Y-80901580D01*
X125561563Y-80873332D01*
X125675104Y-80759792D01*
X125800051Y-80587816D01*
X125896557Y-80398412D01*
X125962246Y-80196243D01*
X125995500Y-79986287D01*
X125995500Y-79773713D01*
X125962246Y-79563757D01*
X125896557Y-79361588D01*
X125800051Y-79172184D01*
X125800049Y-79172181D01*
X125800048Y-79172179D01*
X125675109Y-79000213D01*
X125524786Y-78849890D01*
X125352820Y-78724951D01*
X125163414Y-78628444D01*
X125163413Y-78628443D01*
X125163412Y-78628443D01*
X124961243Y-78562754D01*
X124961241Y-78562753D01*
X124961240Y-78562753D01*
X124799957Y-78537208D01*
X124751287Y-78529500D01*
X124538713Y-78529500D01*
X124490042Y-78537208D01*
X124328760Y-78562753D01*
X124126585Y-78628444D01*
X123937179Y-78724951D01*
X123765213Y-78849890D01*
X123614890Y-79000213D01*
X123489951Y-79172179D01*
X123393444Y-79361585D01*
X123327753Y-79563760D01*
X123302645Y-79722287D01*
X123294500Y-79773713D01*
X121250500Y-79773713D01*
X121250500Y-66395096D01*
X121270185Y-66328057D01*
X121286814Y-66307420D01*
X123082819Y-64511414D01*
X123144142Y-64477930D01*
X123213834Y-64482914D01*
X123269767Y-64524786D01*
X123294184Y-64590250D01*
X123294500Y-64599096D01*
X123294500Y-64746287D01*
X123302645Y-64797713D01*
X123322847Y-64925265D01*
X123327754Y-64956243D01*
X123387043Y-65138716D01*
X123393444Y-65158414D01*
X123489951Y-65347820D01*
X123614890Y-65519786D01*
X123633873Y-65538769D01*
X123667358Y-65600092D01*
X123662374Y-65669784D01*
X123633873Y-65714131D01*
X123013481Y-66334522D01*
X123013480Y-66334524D01*
X122974026Y-66402861D01*
X122934423Y-66471455D01*
X122893499Y-66624183D01*
X122893499Y-66624185D01*
X122893499Y-66792286D01*
X122893500Y-66792299D01*
X122893500Y-67570090D01*
X122893499Y-67570108D01*
X122893499Y-67735814D01*
X122893498Y-67735814D01*
X122934423Y-67888545D01*
X122963358Y-67938660D01*
X122963359Y-67938664D01*
X122963360Y-67938664D01*
X123013479Y-68025474D01*
X123013481Y-68025477D01*
X123132349Y-68144345D01*
X123132355Y-68144350D01*
X123683379Y-68695374D01*
X123683389Y-68695385D01*
X123687719Y-68699715D01*
X123687720Y-68699716D01*
X123799524Y-68811520D01*
X123799526Y-68811521D01*
X123799530Y-68811524D01*
X123849222Y-68840213D01*
X123936456Y-68890577D01*
X124048259Y-68920534D01*
X124089182Y-68931500D01*
X124089183Y-68931500D01*
X124165287Y-68931500D01*
X124171835Y-68932198D01*
X124198282Y-68943125D01*
X124225731Y-68951185D01*
X124234086Y-68957917D01*
X124236410Y-68958878D01*
X124237854Y-68960954D01*
X124246373Y-68967819D01*
X124515591Y-69237037D01*
X124452007Y-69254075D01*
X124337993Y-69319901D01*
X124244901Y-69412993D01*
X124179075Y-69527007D01*
X124162037Y-69590591D01*
X123529728Y-68958282D01*
X123529727Y-68958282D01*
X123490380Y-69012439D01*
X123393904Y-69201782D01*
X123328242Y-69403869D01*
X123328242Y-69403872D01*
X123295000Y-69613753D01*
X123295000Y-69826246D01*
X123328242Y-70036127D01*
X123328242Y-70036130D01*
X123393904Y-70238217D01*
X123490375Y-70427550D01*
X123529728Y-70481716D01*
X124162037Y-69849408D01*
X124179075Y-69912993D01*
X124244901Y-70027007D01*
X124337993Y-70120099D01*
X124452007Y-70185925D01*
X124515590Y-70202962D01*
X123845370Y-70873181D01*
X123784047Y-70906666D01*
X123757698Y-70909500D01*
X123747134Y-70909500D01*
X123747123Y-70909501D01*
X123687516Y-70915908D01*
X123552671Y-70966202D01*
X123552664Y-70966206D01*
X123437455Y-71052452D01*
X123437452Y-71052455D01*
X123351206Y-71167664D01*
X123351202Y-71167671D01*
X123300908Y-71302517D01*
X123294501Y-71362116D01*
X123294501Y-71362123D01*
X123294500Y-71362135D01*
X123294500Y-73157870D01*
X123294501Y-73157876D01*
X123300908Y-73217483D01*
X123351202Y-73352328D01*
X123351206Y-73352335D01*
X123437452Y-73467544D01*
X123437455Y-73467547D01*
X123552664Y-73553793D01*
X123552671Y-73553797D01*
X123687517Y-73604091D01*
X123687516Y-73604091D01*
X123694444Y-73604835D01*
X123747127Y-73610500D01*
X125542872Y-73610499D01*
X125602483Y-73604091D01*
X125737331Y-73553796D01*
X125852546Y-73467546D01*
X125938796Y-73352331D01*
X125989091Y-73217483D01*
X125995500Y-73157873D01*
X125995499Y-71362128D01*
X125989091Y-71302517D01*
X125938796Y-71167669D01*
X125938795Y-71167668D01*
X125938793Y-71167664D01*
X125852547Y-71052455D01*
X125852544Y-71052452D01*
X125737335Y-70966206D01*
X125737328Y-70966202D01*
X125602482Y-70915908D01*
X125602483Y-70915908D01*
X125542883Y-70909501D01*
X125542881Y-70909500D01*
X125542873Y-70909500D01*
X125542865Y-70909500D01*
X125532309Y-70909500D01*
X125465270Y-70889815D01*
X125444628Y-70873181D01*
X124774408Y-70202962D01*
X124837993Y-70185925D01*
X124952007Y-70120099D01*
X125045099Y-70027007D01*
X125110925Y-69912993D01*
X125127962Y-69849408D01*
X125760270Y-70481717D01*
X125760270Y-70481716D01*
X125799622Y-70427554D01*
X125896093Y-70238220D01*
X125903124Y-70216581D01*
X125942559Y-70158904D01*
X126006917Y-70131703D01*
X126075764Y-70143614D01*
X126108738Y-70167213D01*
X131042181Y-75100656D01*
X131075666Y-75161979D01*
X131078500Y-75188337D01*
X131078500Y-99052330D01*
X131078499Y-99052348D01*
X131078499Y-99218054D01*
X131078498Y-99218054D01*
X131119424Y-99370789D01*
X131119425Y-99370790D01*
X131138549Y-99403913D01*
X131138550Y-99403914D01*
X131198481Y-99507717D01*
X131317349Y-99626585D01*
X131317355Y-99626590D01*
X145128584Y-113437819D01*
X145162069Y-113499142D01*
X145157085Y-113568834D01*
X145115213Y-113624767D01*
X145049749Y-113649184D01*
X145040903Y-113649500D01*
X144102129Y-113649500D01*
X144102123Y-113649501D01*
X144042516Y-113655908D01*
X143907671Y-113706202D01*
X143907664Y-113706206D01*
X143792455Y-113792452D01*
X143792452Y-113792455D01*
X143706206Y-113907664D01*
X143706202Y-113907671D01*
X143655908Y-114042517D01*
X143649501Y-114102116D01*
X143649500Y-114102135D01*
X143649500Y-115897870D01*
X143649501Y-115897876D01*
X143655908Y-115957483D01*
X143706202Y-116092328D01*
X143706206Y-116092335D01*
X143792452Y-116207544D01*
X143792455Y-116207547D01*
X143907664Y-116293793D01*
X143907671Y-116293797D01*
X144042517Y-116344091D01*
X144042516Y-116344091D01*
X144049444Y-116344835D01*
X144102127Y-116350500D01*
X145449902Y-116350499D01*
X145479342Y-116359143D01*
X145509329Y-116365667D01*
X145514344Y-116369421D01*
X145516941Y-116370184D01*
X145537583Y-116386818D01*
X145666139Y-116515374D01*
X145666149Y-116515385D01*
X145670479Y-116519715D01*
X145670480Y-116519716D01*
X145782284Y-116631520D01*
X145869095Y-116681639D01*
X145869097Y-116681641D01*
X145907151Y-116703611D01*
X145919215Y-116710577D01*
X146071943Y-116751501D01*
X146071946Y-116751501D01*
X146237654Y-116751501D01*
X146237670Y-116751500D01*
X150470091Y-116751500D01*
X150470107Y-116751501D01*
X150477703Y-116751501D01*
X150635814Y-116751501D01*
X150635817Y-116751501D01*
X150788545Y-116710577D01*
X150838664Y-116681639D01*
X150925476Y-116631520D01*
X151037280Y-116519716D01*
X151037280Y-116519714D01*
X151047488Y-116509507D01*
X151047490Y-116509504D01*
X151545868Y-116011126D01*
X151607191Y-115977641D01*
X151676883Y-115982625D01*
X151721230Y-116011126D01*
X151740213Y-116030109D01*
X151912179Y-116155048D01*
X151912181Y-116155049D01*
X151912184Y-116155051D01*
X152101588Y-116251557D01*
X152303757Y-116317246D01*
X152513713Y-116350500D01*
X152513714Y-116350500D01*
X152726286Y-116350500D01*
X152726287Y-116350500D01*
X152936243Y-116317246D01*
X153138412Y-116251557D01*
X153327816Y-116155051D01*
X153414138Y-116092335D01*
X153499786Y-116030109D01*
X153499788Y-116030106D01*
X153499792Y-116030104D01*
X153650104Y-115879792D01*
X153650106Y-115879788D01*
X153650109Y-115879786D01*
X153775048Y-115707820D01*
X153775047Y-115707820D01*
X153775051Y-115707816D01*
X153779514Y-115699054D01*
X153827488Y-115648259D01*
X153895308Y-115631463D01*
X153961444Y-115653999D01*
X154000486Y-115699056D01*
X154004951Y-115707820D01*
X154129890Y-115879786D01*
X154280213Y-116030109D01*
X154452179Y-116155048D01*
X154452181Y-116155049D01*
X154452184Y-116155051D01*
X154641588Y-116251557D01*
X154843757Y-116317246D01*
X155053713Y-116350500D01*
X155053714Y-116350500D01*
X155266286Y-116350500D01*
X155266287Y-116350500D01*
X155476243Y-116317246D01*
X155678412Y-116251557D01*
X155867816Y-116155051D01*
X155954138Y-116092335D01*
X156039786Y-116030109D01*
X156039788Y-116030106D01*
X156039792Y-116030104D01*
X156190104Y-115879792D01*
X156190106Y-115879788D01*
X156190109Y-115879786D01*
X156315048Y-115707820D01*
X156315047Y-115707820D01*
X156315051Y-115707816D01*
X156319514Y-115699054D01*
X156367488Y-115648259D01*
X156435308Y-115631463D01*
X156501444Y-115653999D01*
X156540486Y-115699056D01*
X156544951Y-115707820D01*
X156669890Y-115879786D01*
X156820213Y-116030109D01*
X156992179Y-116155048D01*
X156992181Y-116155049D01*
X156992184Y-116155051D01*
X157181588Y-116251557D01*
X157383757Y-116317246D01*
X157593713Y-116350500D01*
X157593714Y-116350500D01*
X157806286Y-116350500D01*
X157806287Y-116350500D01*
X158016243Y-116317246D01*
X158218412Y-116251557D01*
X158407816Y-116155051D01*
X158494138Y-116092335D01*
X158579786Y-116030109D01*
X158579788Y-116030106D01*
X158579792Y-116030104D01*
X158730104Y-115879792D01*
X158730106Y-115879788D01*
X158730109Y-115879786D01*
X158855048Y-115707820D01*
X158855047Y-115707820D01*
X158855051Y-115707816D01*
X158859514Y-115699054D01*
X158907488Y-115648259D01*
X158975308Y-115631463D01*
X159041444Y-115653999D01*
X159080486Y-115699056D01*
X159084951Y-115707820D01*
X159209890Y-115879786D01*
X159360213Y-116030109D01*
X159532179Y-116155048D01*
X159532181Y-116155049D01*
X159532184Y-116155051D01*
X159721588Y-116251557D01*
X159923757Y-116317246D01*
X160133713Y-116350500D01*
X160133714Y-116350500D01*
X160346286Y-116350500D01*
X160346287Y-116350500D01*
X160556243Y-116317246D01*
X160758412Y-116251557D01*
X160947816Y-116155051D01*
X161034138Y-116092335D01*
X161119786Y-116030109D01*
X161119788Y-116030106D01*
X161119792Y-116030104D01*
X161270104Y-115879792D01*
X161270106Y-115879788D01*
X161270109Y-115879786D01*
X161395048Y-115707820D01*
X161395047Y-115707820D01*
X161395051Y-115707816D01*
X161399514Y-115699054D01*
X161447488Y-115648259D01*
X161515308Y-115631463D01*
X161581444Y-115653999D01*
X161620486Y-115699056D01*
X161624951Y-115707820D01*
X161749890Y-115879786D01*
X161900213Y-116030109D01*
X162072179Y-116155048D01*
X162072181Y-116155049D01*
X162072184Y-116155051D01*
X162261588Y-116251557D01*
X162463757Y-116317246D01*
X162673713Y-116350500D01*
X162673714Y-116350500D01*
X162886286Y-116350500D01*
X162886287Y-116350500D01*
X163096243Y-116317246D01*
X163298412Y-116251557D01*
X163487816Y-116155051D01*
X163574138Y-116092335D01*
X163659786Y-116030109D01*
X163659788Y-116030106D01*
X163659792Y-116030104D01*
X163810104Y-115879792D01*
X163810106Y-115879788D01*
X163810109Y-115879786D01*
X163935048Y-115707820D01*
X163935047Y-115707820D01*
X163935051Y-115707816D01*
X164031557Y-115518412D01*
X164097246Y-115316243D01*
X164130500Y-115106287D01*
X164130500Y-114893713D01*
X164097246Y-114683757D01*
X164031557Y-114481588D01*
X163935051Y-114292184D01*
X163935049Y-114292181D01*
X163935048Y-114292179D01*
X163810109Y-114120213D01*
X163659786Y-113969890D01*
X163487820Y-113844951D01*
X163298414Y-113748444D01*
X163298413Y-113748443D01*
X163298412Y-113748443D01*
X163096243Y-113682754D01*
X163096241Y-113682753D01*
X163096240Y-113682753D01*
X162934957Y-113657208D01*
X162886287Y-113649500D01*
X162673713Y-113649500D01*
X162625042Y-113657208D01*
X162463760Y-113682753D01*
X162261585Y-113748444D01*
X162072179Y-113844951D01*
X161900213Y-113969890D01*
X161749890Y-114120213D01*
X161624949Y-114292182D01*
X161620484Y-114300946D01*
X161572509Y-114351742D01*
X161504688Y-114368536D01*
X161438553Y-114345998D01*
X161399516Y-114300946D01*
X161395050Y-114292182D01*
X161270109Y-114120213D01*
X161119786Y-113969890D01*
X160947820Y-113844951D01*
X160758414Y-113748444D01*
X160758413Y-113748443D01*
X160758412Y-113748443D01*
X160556243Y-113682754D01*
X160556241Y-113682753D01*
X160556240Y-113682753D01*
X160394957Y-113657208D01*
X160346287Y-113649500D01*
X160133713Y-113649500D01*
X160085042Y-113657208D01*
X159923760Y-113682753D01*
X159721585Y-113748444D01*
X159532179Y-113844951D01*
X159360213Y-113969890D01*
X159209890Y-114120213D01*
X159084949Y-114292182D01*
X159080484Y-114300946D01*
X159032509Y-114351742D01*
X158964688Y-114368536D01*
X158898553Y-114345998D01*
X158859516Y-114300946D01*
X158855050Y-114292182D01*
X158730109Y-114120213D01*
X158579786Y-113969890D01*
X158407820Y-113844951D01*
X158218414Y-113748444D01*
X158218413Y-113748443D01*
X158218412Y-113748443D01*
X158016243Y-113682754D01*
X158016241Y-113682753D01*
X158016240Y-113682753D01*
X157854957Y-113657208D01*
X157806287Y-113649500D01*
X157593713Y-113649500D01*
X157545042Y-113657208D01*
X157383760Y-113682753D01*
X157181585Y-113748444D01*
X156992179Y-113844951D01*
X156820213Y-113969890D01*
X156669890Y-114120213D01*
X156544949Y-114292182D01*
X156540484Y-114300946D01*
X156492509Y-114351742D01*
X156424688Y-114368536D01*
X156358553Y-114345998D01*
X156319516Y-114300946D01*
X156315050Y-114292182D01*
X156190109Y-114120213D01*
X156039786Y-113969890D01*
X155867820Y-113844951D01*
X155678414Y-113748444D01*
X155678413Y-113748443D01*
X155678412Y-113748443D01*
X155476243Y-113682754D01*
X155476241Y-113682753D01*
X155476240Y-113682753D01*
X155314957Y-113657208D01*
X155266287Y-113649500D01*
X155053713Y-113649500D01*
X155005042Y-113657208D01*
X154843760Y-113682753D01*
X154641585Y-113748444D01*
X154452179Y-113844951D01*
X154280213Y-113969890D01*
X154129890Y-114120213D01*
X154004949Y-114292182D01*
X154000484Y-114300946D01*
X153952509Y-114351742D01*
X153884688Y-114368536D01*
X153818553Y-114345998D01*
X153779516Y-114300946D01*
X153775050Y-114292182D01*
X153650109Y-114120213D01*
X153499786Y-113969890D01*
X153327820Y-113844951D01*
X153138414Y-113748444D01*
X153138413Y-113748443D01*
X153138412Y-113748443D01*
X152936243Y-113682754D01*
X152936241Y-113682753D01*
X152936240Y-113682753D01*
X152774957Y-113657208D01*
X152726287Y-113649500D01*
X152513713Y-113649500D01*
X152465042Y-113657208D01*
X152303760Y-113682753D01*
X152101585Y-113748444D01*
X151912179Y-113844951D01*
X151740211Y-113969892D01*
X151740202Y-113969899D01*
X151721225Y-113988876D01*
X151659901Y-114022358D01*
X151590209Y-114017371D01*
X151545867Y-113988872D01*
X147103483Y-109546487D01*
X147019131Y-109462135D01*
X174094500Y-109462135D01*
X174094500Y-111257870D01*
X174094501Y-111257876D01*
X174100908Y-111317483D01*
X174151202Y-111452328D01*
X174151206Y-111452335D01*
X174237452Y-111567544D01*
X174237455Y-111567547D01*
X174352664Y-111653793D01*
X174352671Y-111653797D01*
X174484082Y-111702810D01*
X174540016Y-111744681D01*
X174564433Y-111810145D01*
X174549582Y-111878418D01*
X174528431Y-111906673D01*
X174414889Y-112020215D01*
X174289951Y-112192179D01*
X174193444Y-112381585D01*
X174127753Y-112583760D01*
X174094500Y-112793713D01*
X174094500Y-113006286D01*
X174127753Y-113216239D01*
X174193444Y-113418414D01*
X174289951Y-113607820D01*
X174414890Y-113779786D01*
X174565213Y-113930109D01*
X174737179Y-114055048D01*
X174737181Y-114055049D01*
X174737184Y-114055051D01*
X174926588Y-114151557D01*
X175128757Y-114217246D01*
X175338713Y-114250500D01*
X175338714Y-114250500D01*
X175551286Y-114250500D01*
X175551287Y-114250500D01*
X175761243Y-114217246D01*
X175963412Y-114151557D01*
X176152816Y-114055051D01*
X176174789Y-114039086D01*
X176324786Y-113930109D01*
X176324788Y-113930106D01*
X176324792Y-113930104D01*
X176475104Y-113779792D01*
X176475106Y-113779788D01*
X176475109Y-113779786D01*
X176600048Y-113607820D01*
X176600047Y-113607820D01*
X176600051Y-113607816D01*
X176696557Y-113418412D01*
X176762246Y-113216243D01*
X176795500Y-113006287D01*
X176795500Y-112793713D01*
X176762246Y-112583757D01*
X176696557Y-112381588D01*
X176600051Y-112192184D01*
X176600049Y-112192181D01*
X176600048Y-112192179D01*
X176475109Y-112020213D01*
X176361569Y-111906673D01*
X176328084Y-111845350D01*
X176333068Y-111775658D01*
X176374940Y-111719725D01*
X176405915Y-111702810D01*
X176537331Y-111653796D01*
X176652546Y-111567546D01*
X176738796Y-111452331D01*
X176789091Y-111317483D01*
X176795500Y-111257873D01*
X176795499Y-109878711D01*
X188149500Y-109878711D01*
X188149500Y-110121288D01*
X188181161Y-110361785D01*
X188243947Y-110596104D01*
X188336773Y-110820205D01*
X188336776Y-110820212D01*
X188458064Y-111030289D01*
X188458066Y-111030292D01*
X188458067Y-111030293D01*
X188605733Y-111222736D01*
X188605739Y-111222743D01*
X188777256Y-111394260D01*
X188777262Y-111394265D01*
X188969711Y-111541936D01*
X189179788Y-111663224D01*
X189403900Y-111756054D01*
X189638211Y-111818838D01*
X189818586Y-111842584D01*
X189878711Y-111850500D01*
X189878712Y-111850500D01*
X190121289Y-111850500D01*
X190169388Y-111844167D01*
X190361789Y-111818838D01*
X190596100Y-111756054D01*
X190820212Y-111663224D01*
X191030289Y-111541936D01*
X191222738Y-111394265D01*
X191394265Y-111222738D01*
X191541936Y-111030289D01*
X191663224Y-110820212D01*
X191756054Y-110596100D01*
X191818838Y-110361789D01*
X191850500Y-110121288D01*
X191850500Y-109878712D01*
X191818838Y-109638211D01*
X191756054Y-109403900D01*
X191663224Y-109179788D01*
X191541936Y-108969711D01*
X191394265Y-108777262D01*
X191394260Y-108777256D01*
X191222743Y-108605739D01*
X191222736Y-108605733D01*
X191030293Y-108458067D01*
X191030292Y-108458066D01*
X191030289Y-108458064D01*
X190820212Y-108336776D01*
X190820205Y-108336773D01*
X190596104Y-108243947D01*
X190478944Y-108212554D01*
X190361789Y-108181162D01*
X190361788Y-108181161D01*
X190361785Y-108181161D01*
X190121289Y-108149500D01*
X190121288Y-108149500D01*
X189878712Y-108149500D01*
X189878711Y-108149500D01*
X189638214Y-108181161D01*
X189403895Y-108243947D01*
X189179794Y-108336773D01*
X189179785Y-108336777D01*
X188969706Y-108458067D01*
X188777263Y-108605733D01*
X188777256Y-108605739D01*
X188605739Y-108777256D01*
X188605733Y-108777263D01*
X188458067Y-108969706D01*
X188336777Y-109179785D01*
X188336773Y-109179794D01*
X188243947Y-109403895D01*
X188181161Y-109638214D01*
X188149500Y-109878711D01*
X176795499Y-109878711D01*
X176795499Y-109462128D01*
X176789091Y-109402517D01*
X176738796Y-109267669D01*
X176738795Y-109267668D01*
X176738793Y-109267664D01*
X176652547Y-109152455D01*
X176652544Y-109152452D01*
X176537335Y-109066206D01*
X176537328Y-109066202D01*
X176402482Y-109015908D01*
X176402483Y-109015908D01*
X176342883Y-109009501D01*
X176342881Y-109009500D01*
X176342873Y-109009500D01*
X176342864Y-109009500D01*
X174547129Y-109009500D01*
X174547123Y-109009501D01*
X174487516Y-109015908D01*
X174352671Y-109066202D01*
X174352664Y-109066206D01*
X174237455Y-109152452D01*
X174237452Y-109152455D01*
X174151206Y-109267664D01*
X174151202Y-109267671D01*
X174100908Y-109402517D01*
X174094501Y-109462116D01*
X174094501Y-109462123D01*
X174094500Y-109462135D01*
X147019131Y-109462135D01*
X145838819Y-108281823D01*
X145805334Y-108220500D01*
X145802500Y-108194142D01*
X145802500Y-104259762D01*
X145822185Y-104192723D01*
X145874989Y-104146968D01*
X145944147Y-104137024D01*
X146002554Y-104161825D01*
X150137057Y-107372663D01*
X150177931Y-107429327D01*
X150185000Y-107470597D01*
X150185000Y-108420000D01*
X154985000Y-108420000D01*
X154985000Y-107470597D01*
X155004685Y-107403558D01*
X155032941Y-107372664D01*
X159685000Y-103759895D01*
X159685000Y-99420000D01*
X145926500Y-99420000D01*
X145859461Y-99400315D01*
X145813706Y-99347511D01*
X145802500Y-99296000D01*
X145802500Y-75430219D01*
X160169500Y-75430219D01*
X160169500Y-76709784D01*
X160172395Y-76763814D01*
X160172396Y-76763818D01*
X160207976Y-76903221D01*
X160207980Y-76903233D01*
X160238419Y-76976719D01*
X160238431Y-76976747D01*
X160261779Y-77025548D01*
X160261781Y-77025551D01*
X160348006Y-77140733D01*
X160348010Y-77140737D01*
X160348015Y-77140743D01*
X160404252Y-77196980D01*
X160404261Y-77196988D01*
X160404267Y-77196994D01*
X160444524Y-77233156D01*
X160444532Y-77233162D01*
X160568263Y-77306573D01*
X160568262Y-77306573D01*
X160575329Y-77309500D01*
X160641774Y-77337022D01*
X160657645Y-77342621D01*
X160670133Y-77347027D01*
X160726805Y-77387894D01*
X160752386Y-77452912D01*
X160738754Y-77521439D01*
X160701765Y-77564281D01*
X160627782Y-77618032D01*
X160483028Y-77762786D01*
X160362715Y-77928386D01*
X160269781Y-78110776D01*
X160206522Y-78305465D01*
X160174500Y-78507648D01*
X160174500Y-78712351D01*
X160206522Y-78914534D01*
X160269781Y-79109223D01*
X160362715Y-79291613D01*
X160483028Y-79457213D01*
X160627786Y-79601971D01*
X160765928Y-79702335D01*
X160793390Y-79722287D01*
X160884840Y-79768883D01*
X160886080Y-79769515D01*
X160936876Y-79817490D01*
X160953671Y-79885311D01*
X160931134Y-79951446D01*
X160886080Y-79990485D01*
X160793386Y-80037715D01*
X160627786Y-80158028D01*
X160483028Y-80302786D01*
X160362715Y-80468386D01*
X160269781Y-80650776D01*
X160206522Y-80845465D01*
X160174500Y-81047648D01*
X160174500Y-81252351D01*
X160206522Y-81454534D01*
X160269781Y-81649223D01*
X160362715Y-81831613D01*
X160483028Y-81997213D01*
X160627786Y-82141971D01*
X160782749Y-82254556D01*
X160793390Y-82262287D01*
X160877313Y-82305048D01*
X160886080Y-82309515D01*
X160936876Y-82357490D01*
X160953671Y-82425311D01*
X160931134Y-82491446D01*
X160886080Y-82530485D01*
X160793386Y-82577715D01*
X160627786Y-82698028D01*
X160483028Y-82842786D01*
X160362715Y-83008386D01*
X160269781Y-83190776D01*
X160206522Y-83385465D01*
X160174500Y-83587648D01*
X160174500Y-83792351D01*
X160206522Y-83994534D01*
X160269781Y-84189223D01*
X160362715Y-84371613D01*
X160483028Y-84537213D01*
X160627786Y-84681971D01*
X160782749Y-84794556D01*
X160793390Y-84802287D01*
X160877313Y-84845048D01*
X160886080Y-84849515D01*
X160936876Y-84897490D01*
X160953671Y-84965311D01*
X160931134Y-85031446D01*
X160886080Y-85070485D01*
X160793386Y-85117715D01*
X160627786Y-85238028D01*
X160483028Y-85382786D01*
X160362715Y-85548386D01*
X160269781Y-85730776D01*
X160206522Y-85925465D01*
X160174500Y-86127648D01*
X160174500Y-86332351D01*
X160206522Y-86534534D01*
X160269781Y-86729223D01*
X160362715Y-86911613D01*
X160483028Y-87077213D01*
X160627782Y-87221967D01*
X160627787Y-87221971D01*
X160704583Y-87277767D01*
X160747249Y-87333097D01*
X160753228Y-87402710D01*
X160720622Y-87464505D01*
X160662365Y-87498233D01*
X160641973Y-87503437D01*
X160641962Y-87503441D01*
X160585415Y-87526863D01*
X161345589Y-88287037D01*
X161282007Y-88304075D01*
X161167993Y-88369901D01*
X161074901Y-88462993D01*
X161009075Y-88577007D01*
X160992037Y-88640589D01*
X160231863Y-87880415D01*
X160231862Y-87880415D01*
X160208446Y-87936947D01*
X160208431Y-87936987D01*
X160190457Y-87987939D01*
X160190455Y-87987946D01*
X160170000Y-88130219D01*
X160170000Y-89409785D01*
X160172893Y-89463762D01*
X160172893Y-89463764D01*
X160208438Y-89603030D01*
X160208442Y-89603043D01*
X160231862Y-89659584D01*
X160992037Y-88899410D01*
X161009075Y-88962993D01*
X161074901Y-89077007D01*
X161167993Y-89170099D01*
X161282007Y-89235925D01*
X161345589Y-89252962D01*
X160585414Y-90013135D01*
X160641960Y-90036557D01*
X160641986Y-90036567D01*
X160670621Y-90046669D01*
X160727294Y-90087534D01*
X160752876Y-90152552D01*
X160739246Y-90221080D01*
X160702256Y-90263924D01*
X160627782Y-90318032D01*
X160483028Y-90462786D01*
X160362715Y-90628386D01*
X160269781Y-90810776D01*
X160206522Y-91005465D01*
X160174500Y-91207648D01*
X160174500Y-91412351D01*
X160206522Y-91614534D01*
X160269781Y-91809223D01*
X160362715Y-91991613D01*
X160483028Y-92157213D01*
X160627786Y-92301971D01*
X160782749Y-92414556D01*
X160793390Y-92422287D01*
X160884840Y-92468883D01*
X160886080Y-92469515D01*
X160936876Y-92517490D01*
X160953671Y-92585311D01*
X160931134Y-92651446D01*
X160886080Y-92690485D01*
X160793386Y-92737715D01*
X160627786Y-92858028D01*
X160483028Y-93002786D01*
X160362715Y-93168386D01*
X160269781Y-93350776D01*
X160206522Y-93545465D01*
X160174500Y-93747648D01*
X160174500Y-93952351D01*
X160206522Y-94154534D01*
X160269781Y-94349223D01*
X160331415Y-94470185D01*
X160340381Y-94487782D01*
X160362715Y-94531613D01*
X160483028Y-94697213D01*
X160627786Y-94841971D01*
X160782749Y-94954556D01*
X160793390Y-94962287D01*
X160884840Y-95008883D01*
X160886080Y-95009515D01*
X160936876Y-95057490D01*
X160953671Y-95125311D01*
X160931134Y-95191446D01*
X160886080Y-95230485D01*
X160793386Y-95277715D01*
X160627786Y-95398028D01*
X160483028Y-95542786D01*
X160362715Y-95708386D01*
X160269781Y-95890776D01*
X160206522Y-96085465D01*
X160174500Y-96287648D01*
X160174500Y-96492351D01*
X160206522Y-96694534D01*
X160269781Y-96889223D01*
X160362715Y-97071613D01*
X160483028Y-97237213D01*
X160627786Y-97381971D01*
X160782749Y-97494556D01*
X160793390Y-97502287D01*
X160884840Y-97548883D01*
X160886080Y-97549515D01*
X160936876Y-97597490D01*
X160953671Y-97665311D01*
X160931134Y-97731446D01*
X160886080Y-97770485D01*
X160793386Y-97817715D01*
X160627786Y-97938028D01*
X160483028Y-98082786D01*
X160362715Y-98248386D01*
X160269781Y-98430776D01*
X160206522Y-98625465D01*
X160176495Y-98815051D01*
X160174500Y-98827648D01*
X160174500Y-99032352D01*
X160177664Y-99052330D01*
X160206522Y-99234534D01*
X160269781Y-99429223D01*
X160362715Y-99611613D01*
X160483028Y-99777213D01*
X160627782Y-99921967D01*
X160627787Y-99921971D01*
X160704583Y-99977767D01*
X160747249Y-100033097D01*
X160753228Y-100102710D01*
X160720622Y-100164505D01*
X160662365Y-100198233D01*
X160641973Y-100203437D01*
X160641962Y-100203441D01*
X160585415Y-100226863D01*
X161345589Y-100987037D01*
X161282007Y-101004075D01*
X161167993Y-101069901D01*
X161074901Y-101162993D01*
X161009075Y-101277007D01*
X160992037Y-101340589D01*
X160231863Y-100580415D01*
X160231862Y-100580415D01*
X160208446Y-100636947D01*
X160208431Y-100636987D01*
X160190457Y-100687939D01*
X160190455Y-100687946D01*
X160170000Y-100830219D01*
X160170000Y-102109785D01*
X160172893Y-102163762D01*
X160172893Y-102163764D01*
X160208438Y-102303030D01*
X160208442Y-102303043D01*
X160231862Y-102359584D01*
X160992037Y-101599410D01*
X161009075Y-101662993D01*
X161074901Y-101777007D01*
X161167993Y-101870099D01*
X161282007Y-101935925D01*
X161345589Y-101952962D01*
X160585414Y-102713135D01*
X160641960Y-102736557D01*
X160641986Y-102736567D01*
X160670621Y-102746669D01*
X160727294Y-102787534D01*
X160752876Y-102852552D01*
X160739246Y-102921080D01*
X160702256Y-102963924D01*
X160627782Y-103018032D01*
X160483028Y-103162786D01*
X160362715Y-103328386D01*
X160269781Y-103510776D01*
X160206522Y-103705465D01*
X160174500Y-103907648D01*
X160174500Y-104112351D01*
X160206522Y-104314534D01*
X160269781Y-104509223D01*
X160362715Y-104691613D01*
X160483028Y-104857213D01*
X160627786Y-105001971D01*
X160782749Y-105114556D01*
X160793390Y-105122287D01*
X160884840Y-105168883D01*
X160886080Y-105169515D01*
X160936876Y-105217490D01*
X160953671Y-105285311D01*
X160931134Y-105351446D01*
X160886080Y-105390485D01*
X160793386Y-105437715D01*
X160627786Y-105558028D01*
X160483028Y-105702786D01*
X160362715Y-105868386D01*
X160269781Y-106050776D01*
X160206522Y-106245465D01*
X160174500Y-106447648D01*
X160174500Y-106652351D01*
X160206522Y-106854534D01*
X160269781Y-107049223D01*
X160362715Y-107231613D01*
X160483028Y-107397213D01*
X160627786Y-107541971D01*
X160782749Y-107654556D01*
X160793390Y-107662287D01*
X160909607Y-107721503D01*
X160975776Y-107755218D01*
X160975778Y-107755218D01*
X160975781Y-107755220D01*
X161080137Y-107789127D01*
X161170465Y-107818477D01*
X161271557Y-107834488D01*
X161372648Y-107850500D01*
X161372649Y-107850500D01*
X161577351Y-107850500D01*
X161577352Y-107850500D01*
X161779534Y-107818477D01*
X161974219Y-107755220D01*
X162156610Y-107662287D01*
X162249590Y-107594732D01*
X162322213Y-107541971D01*
X162322215Y-107541968D01*
X162322219Y-107541966D01*
X162466966Y-107397219D01*
X162466968Y-107397215D01*
X162466971Y-107397213D01*
X162519732Y-107324590D01*
X162587287Y-107231610D01*
X162680220Y-107049219D01*
X162743477Y-106854534D01*
X162775500Y-106652352D01*
X162775500Y-106447648D01*
X162743477Y-106245466D01*
X162680220Y-106050781D01*
X162680218Y-106050778D01*
X162680218Y-106050776D01*
X162646503Y-105984607D01*
X162587287Y-105868390D01*
X162579556Y-105857749D01*
X162466971Y-105702786D01*
X162322213Y-105558028D01*
X162156614Y-105437715D01*
X162150006Y-105434348D01*
X162063917Y-105390483D01*
X162013123Y-105342511D01*
X161996328Y-105274690D01*
X162018865Y-105208555D01*
X162063917Y-105169516D01*
X162156610Y-105122287D01*
X162177770Y-105106913D01*
X162322213Y-105001971D01*
X162322215Y-105001968D01*
X162322219Y-105001966D01*
X162466966Y-104857219D01*
X162466968Y-104857215D01*
X162466971Y-104857213D01*
X162519732Y-104784590D01*
X162587287Y-104691610D01*
X162680220Y-104509219D01*
X162743477Y-104314534D01*
X162775500Y-104112352D01*
X162775500Y-103907648D01*
X162743477Y-103705466D01*
X162680220Y-103510781D01*
X162680218Y-103510778D01*
X162680218Y-103510776D01*
X162646503Y-103444607D01*
X162587287Y-103328390D01*
X162579556Y-103317749D01*
X162466971Y-103162786D01*
X162322213Y-103018028D01*
X162156614Y-102897715D01*
X162148410Y-102893535D01*
X162070703Y-102853941D01*
X162019908Y-102805968D01*
X162003113Y-102738147D01*
X162025650Y-102672012D01*
X162068546Y-102634099D01*
X162134503Y-102598843D01*
X162134515Y-102598837D01*
X162203913Y-102552465D01*
X161604410Y-101952962D01*
X161667993Y-101935925D01*
X161782007Y-101870099D01*
X161875099Y-101777007D01*
X161940925Y-101662993D01*
X161957962Y-101599410D01*
X162557465Y-102198913D01*
X162603837Y-102129515D01*
X162603838Y-102129511D01*
X162650509Y-102042198D01*
X162710814Y-101896612D01*
X162739268Y-101802811D01*
X162739269Y-101802809D01*
X162739552Y-101801875D01*
X162739554Y-101801866D01*
X162770298Y-101647302D01*
X162770298Y-101647299D01*
X162780000Y-101548789D01*
X162780000Y-101391210D01*
X162770298Y-101292700D01*
X162770298Y-101292697D01*
X162739555Y-101138135D01*
X162710814Y-101043387D01*
X162650509Y-100897801D01*
X162603844Y-100810498D01*
X162603838Y-100810488D01*
X162557465Y-100741085D01*
X161957962Y-101340588D01*
X161940925Y-101277007D01*
X161875099Y-101162993D01*
X161782007Y-101069901D01*
X161667993Y-101004075D01*
X161604410Y-100987037D01*
X162203912Y-100387534D01*
X162134511Y-100341161D01*
X162134500Y-100341155D01*
X162068545Y-100305900D01*
X162063834Y-100301272D01*
X162057544Y-100299265D01*
X162039221Y-100277094D01*
X162018701Y-100256937D01*
X162017239Y-100250497D01*
X162013034Y-100245408D01*
X162009605Y-100216850D01*
X162003241Y-100188799D01*
X162005493Y-100182592D01*
X162004706Y-100176036D01*
X162017261Y-100150158D01*
X162027073Y-100123119D01*
X162033036Y-100117646D01*
X162035206Y-100113175D01*
X162051341Y-100100848D01*
X162062411Y-100090691D01*
X162066456Y-100088222D01*
X162156610Y-100042287D01*
X162234591Y-99985630D01*
X162234599Y-99985626D01*
X162322212Y-99921971D01*
X162322210Y-99921971D01*
X162322219Y-99921966D01*
X162466966Y-99777219D01*
X162466968Y-99777215D01*
X162466971Y-99777213D01*
X162576403Y-99626590D01*
X162587287Y-99611610D01*
X162680220Y-99429219D01*
X162743477Y-99234534D01*
X162775500Y-99032352D01*
X162775500Y-98827648D01*
X162743477Y-98625466D01*
X162680220Y-98430781D01*
X162680218Y-98430778D01*
X162680218Y-98430776D01*
X162646503Y-98364607D01*
X162587287Y-98248390D01*
X162536447Y-98178414D01*
X162466971Y-98082786D01*
X162322213Y-97938028D01*
X162156614Y-97817715D01*
X162150006Y-97814348D01*
X162063917Y-97770483D01*
X162013123Y-97722511D01*
X161996328Y-97654690D01*
X162018865Y-97588555D01*
X162063917Y-97549516D01*
X162156610Y-97502287D01*
X162177770Y-97486913D01*
X162322213Y-97381971D01*
X162322215Y-97381968D01*
X162322219Y-97381966D01*
X162466966Y-97237219D01*
X162466968Y-97237215D01*
X162466971Y-97237213D01*
X162587284Y-97071614D01*
X162587285Y-97071613D01*
X162587287Y-97071610D01*
X162594117Y-97058204D01*
X162642091Y-97007409D01*
X162704602Y-96990500D01*
X163873331Y-96990500D01*
X163873347Y-96990501D01*
X163880943Y-96990501D01*
X164039054Y-96990501D01*
X164039057Y-96990501D01*
X164191785Y-96949577D01*
X164241904Y-96920639D01*
X164328716Y-96870520D01*
X164440520Y-96758716D01*
X164440520Y-96758714D01*
X164450728Y-96748507D01*
X164450730Y-96748504D01*
X169268506Y-91930728D01*
X169268511Y-91930724D01*
X169278714Y-91920520D01*
X169278716Y-91920520D01*
X169390520Y-91808716D01*
X169465575Y-91678716D01*
X169469577Y-91671785D01*
X169510500Y-91519057D01*
X169510500Y-91360943D01*
X169510500Y-78982135D01*
X174094500Y-78982135D01*
X174094500Y-80777870D01*
X174094501Y-80777876D01*
X174100908Y-80837483D01*
X174151202Y-80972328D01*
X174151206Y-80972335D01*
X174237452Y-81087544D01*
X174237455Y-81087547D01*
X174352664Y-81173793D01*
X174352671Y-81173797D01*
X174484082Y-81222810D01*
X174540016Y-81264681D01*
X174564433Y-81330145D01*
X174549582Y-81398418D01*
X174528431Y-81426673D01*
X174414889Y-81540215D01*
X174289951Y-81712179D01*
X174193444Y-81901585D01*
X174127753Y-82103760D01*
X174102645Y-82262287D01*
X174094500Y-82313713D01*
X174094500Y-82526287D01*
X174127754Y-82736243D01*
X174162370Y-82842781D01*
X174193444Y-82938414D01*
X174289951Y-83127820D01*
X174414890Y-83299786D01*
X174565213Y-83450109D01*
X174737179Y-83575048D01*
X174737181Y-83575049D01*
X174737184Y-83575051D01*
X174926588Y-83671557D01*
X175128757Y-83737246D01*
X175338713Y-83770500D01*
X175338714Y-83770500D01*
X175551286Y-83770500D01*
X175551287Y-83770500D01*
X175761243Y-83737246D01*
X175963412Y-83671557D01*
X176152816Y-83575051D01*
X176239138Y-83512335D01*
X176324786Y-83450109D01*
X176324788Y-83450106D01*
X176324792Y-83450104D01*
X176475104Y-83299792D01*
X176475106Y-83299788D01*
X176475109Y-83299786D01*
X176600048Y-83127820D01*
X176600047Y-83127820D01*
X176600051Y-83127816D01*
X176696557Y-82938412D01*
X176762246Y-82736243D01*
X176795500Y-82526287D01*
X176795500Y-82313713D01*
X176762246Y-82103757D01*
X176696557Y-81901588D01*
X176600051Y-81712184D01*
X176600049Y-81712181D01*
X176600048Y-81712179D01*
X176475109Y-81540213D01*
X176361569Y-81426673D01*
X176328084Y-81365350D01*
X176333068Y-81295658D01*
X176374940Y-81239725D01*
X176405915Y-81222810D01*
X176537331Y-81173796D01*
X176652546Y-81087546D01*
X176738796Y-80972331D01*
X176789091Y-80837483D01*
X176795500Y-80777873D01*
X176795499Y-78982128D01*
X176789091Y-78922517D01*
X176738796Y-78787669D01*
X176738795Y-78787668D01*
X176738793Y-78787664D01*
X176652547Y-78672455D01*
X176652544Y-78672452D01*
X176537335Y-78586206D01*
X176537328Y-78586202D01*
X176402482Y-78535908D01*
X176402483Y-78535908D01*
X176342883Y-78529501D01*
X176342881Y-78529500D01*
X176342873Y-78529500D01*
X176342864Y-78529500D01*
X174547129Y-78529500D01*
X174547123Y-78529501D01*
X174487516Y-78535908D01*
X174352671Y-78586202D01*
X174352664Y-78586206D01*
X174237455Y-78672452D01*
X174237452Y-78672455D01*
X174151206Y-78787664D01*
X174151202Y-78787671D01*
X174100908Y-78922517D01*
X174094501Y-78982116D01*
X174094501Y-78982123D01*
X174094500Y-78982135D01*
X169510500Y-78982135D01*
X169510500Y-74015096D01*
X169530185Y-73948057D01*
X169546814Y-73927420D01*
X173883321Y-69590912D01*
X173944642Y-69557429D01*
X174014334Y-69562413D01*
X174070267Y-69604285D01*
X174094684Y-69669749D01*
X174095000Y-69678595D01*
X174095000Y-69826246D01*
X174128242Y-70036127D01*
X174128242Y-70036130D01*
X174193904Y-70238217D01*
X174290375Y-70427550D01*
X174329728Y-70481716D01*
X174962037Y-69849408D01*
X174979075Y-69912993D01*
X175044901Y-70027007D01*
X175137993Y-70120099D01*
X175252007Y-70185925D01*
X175315590Y-70202962D01*
X174645370Y-70873181D01*
X174584047Y-70906666D01*
X174557698Y-70909500D01*
X174547134Y-70909500D01*
X174547123Y-70909501D01*
X174487516Y-70915908D01*
X174352671Y-70966202D01*
X174352664Y-70966206D01*
X174237455Y-71052452D01*
X174237452Y-71052455D01*
X174151206Y-71167664D01*
X174151202Y-71167671D01*
X174100908Y-71302517D01*
X174094501Y-71362116D01*
X174094501Y-71362123D01*
X174094500Y-71362135D01*
X174094500Y-73157870D01*
X174094501Y-73157876D01*
X174100908Y-73217483D01*
X174151202Y-73352328D01*
X174151206Y-73352335D01*
X174237452Y-73467544D01*
X174237455Y-73467547D01*
X174352664Y-73553793D01*
X174352671Y-73553797D01*
X174487517Y-73604091D01*
X174487516Y-73604091D01*
X174494444Y-73604835D01*
X174547127Y-73610500D01*
X176342872Y-73610499D01*
X176402483Y-73604091D01*
X176537331Y-73553796D01*
X176652546Y-73467546D01*
X176738796Y-73352331D01*
X176789091Y-73217483D01*
X176795500Y-73157873D01*
X176795499Y-71362128D01*
X176789091Y-71302517D01*
X176738796Y-71167669D01*
X176738795Y-71167668D01*
X176738793Y-71167664D01*
X176652547Y-71052455D01*
X176652544Y-71052452D01*
X176537335Y-70966206D01*
X176537328Y-70966202D01*
X176402482Y-70915908D01*
X176402483Y-70915908D01*
X176342883Y-70909501D01*
X176342881Y-70909500D01*
X176342873Y-70909500D01*
X176342865Y-70909500D01*
X176332309Y-70909500D01*
X176265270Y-70889815D01*
X176244628Y-70873181D01*
X175574408Y-70202962D01*
X175637993Y-70185925D01*
X175752007Y-70120099D01*
X175845099Y-70027007D01*
X175910925Y-69912993D01*
X175927962Y-69849408D01*
X176560270Y-70481717D01*
X176560270Y-70481716D01*
X176599622Y-70427554D01*
X176696095Y-70238217D01*
X176761757Y-70036130D01*
X176761757Y-70036127D01*
X176795000Y-69826246D01*
X176795000Y-69613753D01*
X176761757Y-69403872D01*
X176761757Y-69403869D01*
X176696095Y-69201782D01*
X176599624Y-69012449D01*
X176560270Y-68958282D01*
X176560269Y-68958282D01*
X175927962Y-69590590D01*
X175910925Y-69527007D01*
X175845099Y-69412993D01*
X175752007Y-69319901D01*
X175637993Y-69254075D01*
X175574408Y-69237037D01*
X176206716Y-68604728D01*
X176152547Y-68565373D01*
X176152547Y-68565372D01*
X176143500Y-68560763D01*
X176092706Y-68512788D01*
X176075912Y-68444966D01*
X176098451Y-68378832D01*
X176143508Y-68339793D01*
X176152816Y-68335051D01*
X176232007Y-68277515D01*
X176324786Y-68210109D01*
X176324788Y-68210106D01*
X176324792Y-68210104D01*
X176475104Y-68059792D01*
X176475106Y-68059788D01*
X176475109Y-68059786D01*
X176600048Y-67887820D01*
X176600047Y-67887820D01*
X176600051Y-67887816D01*
X176696557Y-67698412D01*
X176762246Y-67496243D01*
X176795500Y-67286287D01*
X176795500Y-67073713D01*
X176762246Y-66863757D01*
X176696557Y-66661588D01*
X176600051Y-66472184D01*
X176600049Y-66472181D01*
X176600048Y-66472179D01*
X176475109Y-66300213D01*
X176324786Y-66149890D01*
X176152820Y-66024951D01*
X176152115Y-66024591D01*
X176144054Y-66020485D01*
X176093259Y-65972512D01*
X176076463Y-65904692D01*
X176098999Y-65838556D01*
X176144054Y-65799515D01*
X176152816Y-65795051D01*
X176174789Y-65779086D01*
X176324786Y-65670109D01*
X176324788Y-65670106D01*
X176324792Y-65670104D01*
X176475104Y-65519792D01*
X176475106Y-65519788D01*
X176475109Y-65519786D01*
X176600048Y-65347820D01*
X176600047Y-65347820D01*
X176600051Y-65347816D01*
X176696557Y-65158412D01*
X176762246Y-64956243D01*
X176795500Y-64746287D01*
X176795500Y-64599096D01*
X176815185Y-64532058D01*
X176867989Y-64486303D01*
X176937147Y-64476359D01*
X177000703Y-64505384D01*
X177007180Y-64511415D01*
X177634478Y-65138713D01*
X177634480Y-65138716D01*
X177746284Y-65250520D01*
X177793504Y-65277782D01*
X177803647Y-65283638D01*
X177883209Y-65329574D01*
X177883210Y-65329574D01*
X177883215Y-65329577D01*
X178035942Y-65370500D01*
X178035943Y-65370500D01*
X178345500Y-65370500D01*
X178412539Y-65390185D01*
X178458294Y-65442989D01*
X178469500Y-65494500D01*
X178469500Y-88654902D01*
X178449815Y-88721941D01*
X178433181Y-88742583D01*
X177007181Y-90168583D01*
X176945858Y-90202068D01*
X176876166Y-90197084D01*
X176820233Y-90155212D01*
X176795816Y-90089748D01*
X176795500Y-90080902D01*
X176795500Y-89933713D01*
X176775645Y-89808355D01*
X176762246Y-89723757D01*
X176696557Y-89521588D01*
X176600051Y-89332184D01*
X176600049Y-89332181D01*
X176600048Y-89332179D01*
X176475109Y-89160213D01*
X176324786Y-89009890D01*
X176152820Y-88884951D01*
X175963414Y-88788444D01*
X175963413Y-88788443D01*
X175963412Y-88788443D01*
X175761243Y-88722754D01*
X175761241Y-88722753D01*
X175761240Y-88722753D01*
X175562083Y-88691210D01*
X175551287Y-88689500D01*
X175338713Y-88689500D01*
X175327917Y-88691210D01*
X175128760Y-88722753D01*
X174926585Y-88788444D01*
X174737179Y-88884951D01*
X174565213Y-89009890D01*
X174414890Y-89160213D01*
X174289951Y-89332179D01*
X174193444Y-89521585D01*
X174127753Y-89723760D01*
X174104607Y-89869902D01*
X174094500Y-89933713D01*
X174094500Y-90146287D01*
X174127754Y-90356243D01*
X174187043Y-90538716D01*
X174193444Y-90558414D01*
X174289951Y-90747820D01*
X174414890Y-90919786D01*
X174565213Y-91070109D01*
X174737182Y-91195050D01*
X174745946Y-91199516D01*
X174796742Y-91247491D01*
X174813536Y-91315312D01*
X174790998Y-91381447D01*
X174745946Y-91420484D01*
X174737182Y-91424949D01*
X174565213Y-91549890D01*
X174414890Y-91700213D01*
X174289951Y-91872179D01*
X174193444Y-92061585D01*
X174127753Y-92263760D01*
X174102645Y-92422287D01*
X174094500Y-92473713D01*
X174094500Y-92686287D01*
X174127754Y-92896243D01*
X174162370Y-93002781D01*
X174193444Y-93098414D01*
X174289951Y-93287820D01*
X174414890Y-93459786D01*
X174565213Y-93610109D01*
X174737182Y-93735050D01*
X174745946Y-93739516D01*
X174796742Y-93787491D01*
X174813536Y-93855312D01*
X174790998Y-93921447D01*
X174745946Y-93960484D01*
X174737182Y-93964949D01*
X174565213Y-94089890D01*
X174414890Y-94240213D01*
X174289951Y-94412179D01*
X174193444Y-94601585D01*
X174127753Y-94803760D01*
X174102645Y-94962287D01*
X174094500Y-95013713D01*
X174094500Y-95226287D01*
X174127754Y-95436243D01*
X174162370Y-95542781D01*
X174193444Y-95638414D01*
X174289951Y-95827820D01*
X174414890Y-95999786D01*
X174565213Y-96150109D01*
X174737182Y-96275050D01*
X174745946Y-96279516D01*
X174796742Y-96327491D01*
X174813536Y-96395312D01*
X174790998Y-96461447D01*
X174745946Y-96500484D01*
X174737182Y-96504949D01*
X174565213Y-96629890D01*
X174414890Y-96780213D01*
X174289951Y-96952179D01*
X174193444Y-97141585D01*
X174127753Y-97343760D01*
X174102645Y-97502287D01*
X174094500Y-97553713D01*
X174094500Y-97766287D01*
X174127754Y-97976243D01*
X174162370Y-98082781D01*
X174193444Y-98178414D01*
X174289951Y-98367820D01*
X174414890Y-98539786D01*
X174565213Y-98690109D01*
X174737179Y-98815048D01*
X174737181Y-98815049D01*
X174737184Y-98815051D01*
X174746493Y-98819794D01*
X174797290Y-98867766D01*
X174814087Y-98935587D01*
X174791552Y-99001722D01*
X174746505Y-99040760D01*
X174737446Y-99045376D01*
X174737440Y-99045380D01*
X174683282Y-99084727D01*
X174683282Y-99084728D01*
X175315591Y-99717037D01*
X175252007Y-99734075D01*
X175137993Y-99799901D01*
X175044901Y-99892993D01*
X174979075Y-100007007D01*
X174962037Y-100070591D01*
X174329728Y-99438282D01*
X174329727Y-99438282D01*
X174290380Y-99492439D01*
X174193904Y-99681782D01*
X174128242Y-99883869D01*
X174128242Y-99883872D01*
X174095000Y-100093753D01*
X174095000Y-100306246D01*
X174128242Y-100516127D01*
X174128242Y-100516130D01*
X174193904Y-100718217D01*
X174290375Y-100907550D01*
X174329728Y-100961716D01*
X174962037Y-100329408D01*
X174979075Y-100392993D01*
X175044901Y-100507007D01*
X175137993Y-100600099D01*
X175252007Y-100665925D01*
X175315590Y-100682962D01*
X174645370Y-101353181D01*
X174584047Y-101386666D01*
X174557698Y-101389500D01*
X174547134Y-101389500D01*
X174547123Y-101389501D01*
X174487516Y-101395908D01*
X174352671Y-101446202D01*
X174352664Y-101446206D01*
X174237455Y-101532452D01*
X174237452Y-101532455D01*
X174151206Y-101647664D01*
X174151202Y-101647671D01*
X174100908Y-101782517D01*
X174096497Y-101823552D01*
X174094501Y-101842123D01*
X174094500Y-101842135D01*
X174094500Y-103637870D01*
X174094501Y-103637876D01*
X174100908Y-103697483D01*
X174151202Y-103832328D01*
X174151206Y-103832335D01*
X174237452Y-103947544D01*
X174237455Y-103947547D01*
X174352664Y-104033793D01*
X174352671Y-104033797D01*
X174487517Y-104084091D01*
X174487516Y-104084091D01*
X174494444Y-104084835D01*
X174547127Y-104090500D01*
X176342872Y-104090499D01*
X176402483Y-104084091D01*
X176537331Y-104033796D01*
X176652546Y-103947546D01*
X176738796Y-103832331D01*
X176789091Y-103697483D01*
X176795500Y-103637873D01*
X176795499Y-101842128D01*
X176789091Y-101782517D01*
X176771165Y-101734456D01*
X176738797Y-101647671D01*
X176738793Y-101647664D01*
X176652547Y-101532455D01*
X176652544Y-101532452D01*
X176537335Y-101446206D01*
X176537328Y-101446202D01*
X176402482Y-101395908D01*
X176402483Y-101395908D01*
X176342883Y-101389501D01*
X176342881Y-101389500D01*
X176342873Y-101389500D01*
X176342865Y-101389500D01*
X176332309Y-101389500D01*
X176265270Y-101369815D01*
X176244628Y-101353181D01*
X175574408Y-100682962D01*
X175637993Y-100665925D01*
X175752007Y-100600099D01*
X175845099Y-100507007D01*
X175910925Y-100392993D01*
X175927962Y-100329408D01*
X176560270Y-100961717D01*
X176560270Y-100961716D01*
X176599622Y-100907554D01*
X176696095Y-100718217D01*
X176761757Y-100516130D01*
X176761757Y-100516127D01*
X176795000Y-100306246D01*
X176795000Y-100093753D01*
X176761757Y-99883872D01*
X176761757Y-99883869D01*
X176696095Y-99681782D01*
X176599624Y-99492449D01*
X176560270Y-99438282D01*
X176560269Y-99438282D01*
X175927962Y-100070590D01*
X175910925Y-100007007D01*
X175845099Y-99892993D01*
X175752007Y-99799901D01*
X175637993Y-99734075D01*
X175574409Y-99717037D01*
X176206716Y-99084728D01*
X176152547Y-99045373D01*
X176152547Y-99045372D01*
X176143500Y-99040763D01*
X176092706Y-98992788D01*
X176075912Y-98924966D01*
X176098451Y-98858832D01*
X176143508Y-98819793D01*
X176152816Y-98815051D01*
X176232007Y-98757515D01*
X176324786Y-98690109D01*
X176324788Y-98690106D01*
X176324792Y-98690104D01*
X176475104Y-98539792D01*
X176475106Y-98539788D01*
X176475109Y-98539786D01*
X176600048Y-98367820D01*
X176600047Y-98367820D01*
X176600051Y-98367816D01*
X176696557Y-98178412D01*
X176762246Y-97976243D01*
X176795500Y-97766287D01*
X176795500Y-97553713D01*
X176762246Y-97343757D01*
X176696557Y-97141588D01*
X176600051Y-96952184D01*
X176600049Y-96952181D01*
X176600048Y-96952179D01*
X176475109Y-96780213D01*
X176324786Y-96629890D01*
X176152820Y-96504951D01*
X176152115Y-96504591D01*
X176144054Y-96500485D01*
X176093259Y-96452512D01*
X176076463Y-96384692D01*
X176098999Y-96318556D01*
X176144054Y-96279515D01*
X176152816Y-96275051D01*
X176174789Y-96259086D01*
X176324786Y-96150109D01*
X176324788Y-96150106D01*
X176324792Y-96150104D01*
X176475104Y-95999792D01*
X176475106Y-95999788D01*
X176475109Y-95999786D01*
X176600048Y-95827820D01*
X176600047Y-95827820D01*
X176600051Y-95827816D01*
X176696557Y-95638412D01*
X176762246Y-95436243D01*
X176795500Y-95226287D01*
X176795500Y-95013713D01*
X176762246Y-94803757D01*
X176696557Y-94601588D01*
X176600051Y-94412184D01*
X176600049Y-94412181D01*
X176600048Y-94412179D01*
X176475109Y-94240213D01*
X176324786Y-94089890D01*
X176152820Y-93964951D01*
X176152115Y-93964591D01*
X176144054Y-93960485D01*
X176093259Y-93912512D01*
X176076463Y-93844692D01*
X176098999Y-93778556D01*
X176144054Y-93739515D01*
X176152816Y-93735051D01*
X176174789Y-93719086D01*
X176324786Y-93610109D01*
X176324788Y-93610106D01*
X176324792Y-93610104D01*
X176475104Y-93459792D01*
X176475106Y-93459788D01*
X176475109Y-93459786D01*
X176600048Y-93287820D01*
X176600047Y-93287820D01*
X176600051Y-93287816D01*
X176696557Y-93098412D01*
X176762246Y-92896243D01*
X176795500Y-92686287D01*
X176795500Y-92473713D01*
X176762246Y-92263757D01*
X176748506Y-92221473D01*
X176746512Y-92151635D01*
X176778755Y-92095478D01*
X179438713Y-89435521D01*
X179438716Y-89435520D01*
X179550520Y-89323716D01*
X179600639Y-89236904D01*
X179629577Y-89186785D01*
X179670500Y-89034057D01*
X179670500Y-88875943D01*
X179670500Y-64690943D01*
X179629577Y-64538216D01*
X179606842Y-64498837D01*
X179550524Y-64401290D01*
X179550518Y-64401282D01*
X179438717Y-64289481D01*
X179438709Y-64289475D01*
X179301790Y-64210426D01*
X179301786Y-64210424D01*
X179301784Y-64210423D01*
X179149057Y-64169500D01*
X179149056Y-64169500D01*
X178415097Y-64169500D01*
X178348058Y-64149815D01*
X178327416Y-64133181D01*
X176778757Y-62584522D01*
X176745272Y-62523199D01*
X176748507Y-62458523D01*
X176762246Y-62416243D01*
X176795500Y-62206287D01*
X176795500Y-61993713D01*
X176762246Y-61783757D01*
X176696557Y-61581588D01*
X176600051Y-61392184D01*
X176600049Y-61392181D01*
X176600048Y-61392179D01*
X176475109Y-61220213D01*
X176324786Y-61069890D01*
X176152820Y-60944951D01*
X176152115Y-60944591D01*
X176144054Y-60940485D01*
X176093259Y-60892512D01*
X176076463Y-60824692D01*
X176098999Y-60758556D01*
X176144054Y-60719515D01*
X176152816Y-60715051D01*
X176316534Y-60596104D01*
X176324786Y-60590109D01*
X176324788Y-60590106D01*
X176324792Y-60590104D01*
X176475104Y-60439792D01*
X176475106Y-60439788D01*
X176475109Y-60439786D01*
X176600048Y-60267820D01*
X176600047Y-60267820D01*
X176600051Y-60267816D01*
X176696557Y-60078412D01*
X176761444Y-59878711D01*
X188149500Y-59878711D01*
X188149500Y-60121288D01*
X188181161Y-60361785D01*
X188243947Y-60596104D01*
X188336773Y-60820205D01*
X188336777Y-60820214D01*
X188344681Y-60833904D01*
X188458064Y-61030289D01*
X188458066Y-61030292D01*
X188458067Y-61030293D01*
X188605733Y-61222736D01*
X188605739Y-61222743D01*
X188777256Y-61394260D01*
X188777263Y-61394266D01*
X188865836Y-61462230D01*
X188969711Y-61541936D01*
X189179788Y-61663224D01*
X189403900Y-61756054D01*
X189638211Y-61818838D01*
X189818586Y-61842584D01*
X189878711Y-61850500D01*
X189878712Y-61850500D01*
X190121289Y-61850500D01*
X190169388Y-61844167D01*
X190361789Y-61818838D01*
X190596100Y-61756054D01*
X190820212Y-61663224D01*
X191030289Y-61541936D01*
X191222738Y-61394265D01*
X191394265Y-61222738D01*
X191541936Y-61030289D01*
X191663224Y-60820212D01*
X191756054Y-60596100D01*
X191818838Y-60361789D01*
X191850500Y-60121288D01*
X191850500Y-59878712D01*
X191850174Y-59876239D01*
X191829335Y-59717943D01*
X191818838Y-59638211D01*
X191756054Y-59403900D01*
X191663224Y-59179788D01*
X191541936Y-58969711D01*
X191394265Y-58777262D01*
X191394260Y-58777256D01*
X191222743Y-58605739D01*
X191222736Y-58605733D01*
X191030293Y-58458067D01*
X191030292Y-58458066D01*
X191030289Y-58458064D01*
X190820212Y-58336776D01*
X190764533Y-58313713D01*
X190596104Y-58243947D01*
X190361785Y-58181161D01*
X190121289Y-58149500D01*
X190121288Y-58149500D01*
X189878712Y-58149500D01*
X189878711Y-58149500D01*
X189638214Y-58181161D01*
X189403895Y-58243947D01*
X189179794Y-58336773D01*
X189179785Y-58336777D01*
X188969706Y-58458067D01*
X188777263Y-58605733D01*
X188777256Y-58605739D01*
X188605739Y-58777256D01*
X188605733Y-58777263D01*
X188458067Y-58969706D01*
X188336777Y-59179785D01*
X188336773Y-59179794D01*
X188243947Y-59403895D01*
X188181161Y-59638214D01*
X188149500Y-59878711D01*
X176761444Y-59878711D01*
X176762246Y-59876243D01*
X176795500Y-59666287D01*
X176795500Y-59453713D01*
X176794928Y-59450104D01*
X176773764Y-59316478D01*
X176762246Y-59243757D01*
X176696557Y-59041588D01*
X176600051Y-58852184D01*
X176600049Y-58852181D01*
X176600048Y-58852179D01*
X176475109Y-58680213D01*
X176324786Y-58529890D01*
X176152820Y-58404951D01*
X175963414Y-58308444D01*
X175963413Y-58308443D01*
X175963412Y-58308443D01*
X175761243Y-58242754D01*
X175761241Y-58242753D01*
X175761240Y-58242753D01*
X175599957Y-58217208D01*
X175551287Y-58209500D01*
X175338713Y-58209500D01*
X175290042Y-58217208D01*
X175128760Y-58242753D01*
X174926585Y-58308444D01*
X174737179Y-58404951D01*
X174565213Y-58529890D01*
X174414890Y-58680213D01*
X174289951Y-58852179D01*
X174193444Y-59041585D01*
X174127753Y-59243760D01*
X174095071Y-59450109D01*
X174094500Y-59453713D01*
X174094500Y-59666287D01*
X174095335Y-59671557D01*
X174127724Y-59876057D01*
X174127754Y-59876243D01*
X174162370Y-59982781D01*
X174193444Y-60078414D01*
X174289951Y-60267820D01*
X174414890Y-60439786D01*
X174565213Y-60590109D01*
X174737182Y-60715050D01*
X174745946Y-60719516D01*
X174796742Y-60767491D01*
X174813536Y-60835312D01*
X174790998Y-60901447D01*
X174745946Y-60940484D01*
X174737182Y-60944949D01*
X174565213Y-61069890D01*
X174414890Y-61220213D01*
X174289951Y-61392179D01*
X174193444Y-61581585D01*
X174127753Y-61783760D01*
X174094500Y-61993713D01*
X174094500Y-62206286D01*
X174127753Y-62416239D01*
X174127753Y-62416241D01*
X174127754Y-62416243D01*
X174186341Y-62596555D01*
X174193444Y-62618414D01*
X174289951Y-62807820D01*
X174414890Y-62979786D01*
X174565213Y-63130109D01*
X174737182Y-63255050D01*
X174745946Y-63259516D01*
X174796742Y-63307491D01*
X174813536Y-63375312D01*
X174790998Y-63441447D01*
X174745946Y-63480484D01*
X174737182Y-63484949D01*
X174565213Y-63609890D01*
X174414890Y-63760213D01*
X174289951Y-63932179D01*
X174193444Y-64121585D01*
X174127753Y-64323760D01*
X174095914Y-64524786D01*
X174094500Y-64533713D01*
X174094500Y-64746287D01*
X174102645Y-64797713D01*
X174122847Y-64925265D01*
X174127754Y-64956243D01*
X174187043Y-65138716D01*
X174193444Y-65158414D01*
X174289951Y-65347820D01*
X174414890Y-65519786D01*
X174565213Y-65670109D01*
X174737182Y-65795050D01*
X174745946Y-65799516D01*
X174796742Y-65847491D01*
X174813536Y-65915312D01*
X174790998Y-65981447D01*
X174745946Y-66020484D01*
X174737182Y-66024949D01*
X174565213Y-66149890D01*
X174414890Y-66300213D01*
X174289951Y-66472179D01*
X174193444Y-66661585D01*
X174127753Y-66863760D01*
X174102645Y-67022287D01*
X174094500Y-67073713D01*
X174094500Y-67286287D01*
X174111127Y-67391265D01*
X174127754Y-67496244D01*
X174127754Y-67496247D01*
X174141491Y-67538523D01*
X174143486Y-67608364D01*
X174111241Y-67664522D01*
X168541286Y-73234478D01*
X168429481Y-73346282D01*
X168429477Y-73346287D01*
X168389778Y-73415050D01*
X168389778Y-73415051D01*
X168350423Y-73483214D01*
X168350423Y-73483215D01*
X168309499Y-73635943D01*
X168309499Y-73635945D01*
X168309499Y-73804046D01*
X168309500Y-73804059D01*
X168309500Y-91139903D01*
X168289815Y-91206942D01*
X168273181Y-91227584D01*
X163747584Y-95753181D01*
X163686261Y-95786666D01*
X163659903Y-95789500D01*
X162704602Y-95789500D01*
X162637563Y-95769815D01*
X162594117Y-95721795D01*
X162587284Y-95708385D01*
X162466971Y-95542786D01*
X162322213Y-95398028D01*
X162156614Y-95277715D01*
X162150006Y-95274348D01*
X162063917Y-95230483D01*
X162013123Y-95182511D01*
X161996328Y-95114690D01*
X162018865Y-95048555D01*
X162063917Y-95009516D01*
X162156610Y-94962287D01*
X162177770Y-94946913D01*
X162322213Y-94841971D01*
X162322215Y-94841968D01*
X162322219Y-94841966D01*
X162466966Y-94697219D01*
X162466968Y-94697215D01*
X162466971Y-94697213D01*
X162536445Y-94601588D01*
X162587287Y-94531610D01*
X162680220Y-94349219D01*
X162743477Y-94154534D01*
X162775500Y-93952352D01*
X162775500Y-93747648D01*
X162743477Y-93545466D01*
X162680220Y-93350781D01*
X162680218Y-93350778D01*
X162680218Y-93350776D01*
X162646503Y-93284607D01*
X162587287Y-93168390D01*
X162536447Y-93098414D01*
X162466971Y-93002786D01*
X162322213Y-92858028D01*
X162156614Y-92737715D01*
X162150006Y-92734348D01*
X162063917Y-92690483D01*
X162013123Y-92642511D01*
X161996328Y-92574690D01*
X162018865Y-92508555D01*
X162063917Y-92469516D01*
X162156610Y-92422287D01*
X162177770Y-92406913D01*
X162322213Y-92301971D01*
X162322215Y-92301968D01*
X162322219Y-92301966D01*
X162466966Y-92157219D01*
X162466968Y-92157215D01*
X162466971Y-92157213D01*
X162536445Y-92061588D01*
X162587287Y-91991610D01*
X162680220Y-91809219D01*
X162743477Y-91614534D01*
X162775500Y-91412352D01*
X162775500Y-91207648D01*
X162743477Y-91005466D01*
X162680220Y-90810781D01*
X162680218Y-90810778D01*
X162680218Y-90810776D01*
X162638842Y-90729573D01*
X162587287Y-90628390D01*
X162536447Y-90558414D01*
X162466971Y-90462786D01*
X162322213Y-90318028D01*
X162156614Y-90197715D01*
X162148410Y-90193535D01*
X162070703Y-90153941D01*
X162019908Y-90105968D01*
X162003113Y-90038147D01*
X162025650Y-89972012D01*
X162068546Y-89934099D01*
X162134503Y-89898843D01*
X162134515Y-89898837D01*
X162203913Y-89852465D01*
X161604410Y-89252962D01*
X161667993Y-89235925D01*
X161782007Y-89170099D01*
X161875099Y-89077007D01*
X161940925Y-88962993D01*
X161957962Y-88899410D01*
X162557465Y-89498913D01*
X162603837Y-89429515D01*
X162603838Y-89429511D01*
X162650509Y-89342198D01*
X162710814Y-89196612D01*
X162739555Y-89101864D01*
X162770298Y-88947302D01*
X162770298Y-88947299D01*
X162780000Y-88848789D01*
X162780000Y-88691210D01*
X162770298Y-88592700D01*
X162770298Y-88592697D01*
X162739555Y-88438135D01*
X162710814Y-88343387D01*
X162650509Y-88197801D01*
X162603844Y-88110498D01*
X162603838Y-88110488D01*
X162557465Y-88041085D01*
X161957962Y-88640588D01*
X161940925Y-88577007D01*
X161875099Y-88462993D01*
X161782007Y-88369901D01*
X161667993Y-88304075D01*
X161604410Y-88287037D01*
X162203912Y-87687534D01*
X162134511Y-87641161D01*
X162134500Y-87641155D01*
X162068545Y-87605900D01*
X162018701Y-87556937D01*
X162003241Y-87488799D01*
X162027073Y-87423119D01*
X162070702Y-87386059D01*
X162156610Y-87342287D01*
X162245415Y-87277767D01*
X162322213Y-87221971D01*
X162322215Y-87221968D01*
X162322219Y-87221966D01*
X162466966Y-87077219D01*
X162466968Y-87077215D01*
X162466971Y-87077213D01*
X162568247Y-86937816D01*
X162587287Y-86911610D01*
X162680220Y-86729219D01*
X162743477Y-86534534D01*
X162775500Y-86332352D01*
X162775500Y-86127648D01*
X162743477Y-85925466D01*
X162739673Y-85913760D01*
X162680218Y-85730776D01*
X162646503Y-85664607D01*
X162587287Y-85548390D01*
X162579556Y-85537749D01*
X162466971Y-85382786D01*
X162322213Y-85238028D01*
X162156614Y-85117715D01*
X162150006Y-85114348D01*
X162063917Y-85070483D01*
X162013123Y-85022511D01*
X161996328Y-84954690D01*
X162018865Y-84888555D01*
X162063917Y-84849516D01*
X162156610Y-84802287D01*
X162177770Y-84786913D01*
X162322213Y-84681971D01*
X162322215Y-84681968D01*
X162322219Y-84681966D01*
X162466966Y-84537219D01*
X162466968Y-84537215D01*
X162466971Y-84537213D01*
X162568247Y-84397816D01*
X162587287Y-84371610D01*
X162680220Y-84189219D01*
X162743477Y-83994534D01*
X162775500Y-83792352D01*
X162775500Y-83587648D01*
X162743477Y-83385466D01*
X162739673Y-83373760D01*
X162680218Y-83190776D01*
X162646503Y-83124607D01*
X162587287Y-83008390D01*
X162579556Y-82997749D01*
X162466971Y-82842786D01*
X162322213Y-82698028D01*
X162156614Y-82577715D01*
X162150006Y-82574348D01*
X162063917Y-82530483D01*
X162013123Y-82482511D01*
X161996328Y-82414690D01*
X162018865Y-82348555D01*
X162063917Y-82309516D01*
X162156610Y-82262287D01*
X162177770Y-82246913D01*
X162322213Y-82141971D01*
X162322215Y-82141968D01*
X162322219Y-82141966D01*
X162466966Y-81997219D01*
X162466968Y-81997215D01*
X162466971Y-81997213D01*
X162536445Y-81901588D01*
X162587287Y-81831610D01*
X162680220Y-81649219D01*
X162743477Y-81454534D01*
X162775500Y-81252352D01*
X162775500Y-81047648D01*
X162763178Y-80969853D01*
X162743477Y-80845465D01*
X162680218Y-80650776D01*
X162646503Y-80584607D01*
X162587287Y-80468390D01*
X162579556Y-80457749D01*
X162466971Y-80302786D01*
X162322213Y-80158028D01*
X162156614Y-80037715D01*
X162132951Y-80025658D01*
X162063917Y-79990483D01*
X162013123Y-79942511D01*
X161996328Y-79874690D01*
X162018865Y-79808555D01*
X162063917Y-79769516D01*
X162156610Y-79722287D01*
X162184081Y-79702328D01*
X162322213Y-79601971D01*
X162322215Y-79601968D01*
X162322219Y-79601966D01*
X162466966Y-79457219D01*
X162466968Y-79457215D01*
X162466971Y-79457213D01*
X162536445Y-79361588D01*
X162587287Y-79291610D01*
X162680220Y-79109219D01*
X162743477Y-78914534D01*
X162775500Y-78712352D01*
X162775500Y-78507648D01*
X162743477Y-78305466D01*
X162680220Y-78110781D01*
X162680218Y-78110778D01*
X162680218Y-78110776D01*
X162646503Y-78044607D01*
X162587287Y-77928390D01*
X162579556Y-77917749D01*
X162466971Y-77762786D01*
X162322213Y-77618028D01*
X162156613Y-77497715D01*
X162156612Y-77497714D01*
X162156610Y-77497713D01*
X162103947Y-77470880D01*
X162071245Y-77454217D01*
X162020449Y-77406242D01*
X162003654Y-77338421D01*
X162026192Y-77272286D01*
X162069083Y-77234376D01*
X162134783Y-77199259D01*
X162265811Y-77111709D01*
X162342412Y-77048843D01*
X162453843Y-76937412D01*
X162516709Y-76860811D01*
X162604259Y-76729783D01*
X162650972Y-76642389D01*
X162711278Y-76496798D01*
X162740044Y-76401968D01*
X162770787Y-76247410D01*
X162780500Y-76148793D01*
X162780500Y-75991207D01*
X162770787Y-75892590D01*
X162740044Y-75738032D01*
X162711278Y-75643202D01*
X162650972Y-75497611D01*
X162604259Y-75410217D01*
X162604248Y-75410200D01*
X162516721Y-75279206D01*
X162516712Y-75279194D01*
X162516709Y-75279189D01*
X162453843Y-75202588D01*
X162342412Y-75091157D01*
X162265811Y-75028291D01*
X162265804Y-75028286D01*
X162265793Y-75028278D01*
X162134799Y-74940751D01*
X162134788Y-74940744D01*
X162134783Y-74940741D01*
X162112645Y-74928908D01*
X162069086Y-74905625D01*
X162019242Y-74856662D01*
X162003782Y-74788524D01*
X162027614Y-74722845D01*
X162071246Y-74685782D01*
X162156610Y-74642287D01*
X162245935Y-74577389D01*
X162322213Y-74521971D01*
X162322215Y-74521968D01*
X162322219Y-74521966D01*
X162466966Y-74377219D01*
X162466968Y-74377215D01*
X162466971Y-74377213D01*
X162562095Y-74246284D01*
X162587287Y-74211610D01*
X162680220Y-74029219D01*
X162743477Y-73834534D01*
X162775500Y-73632352D01*
X162775500Y-73427648D01*
X162763570Y-73352328D01*
X162743477Y-73225465D01*
X162680218Y-73030776D01*
X162646503Y-72964607D01*
X162587287Y-72848390D01*
X162536447Y-72778414D01*
X162466971Y-72682786D01*
X162322213Y-72538028D01*
X162156614Y-72417715D01*
X162150006Y-72414348D01*
X162063917Y-72370483D01*
X162013123Y-72322511D01*
X161996328Y-72254690D01*
X162018865Y-72188555D01*
X162063917Y-72149516D01*
X162156610Y-72102287D01*
X162177770Y-72086913D01*
X162322213Y-71981971D01*
X162322215Y-71981968D01*
X162322219Y-71981966D01*
X162466966Y-71837219D01*
X162466968Y-71837215D01*
X162466971Y-71837213D01*
X162536445Y-71741588D01*
X162587287Y-71671610D01*
X162680220Y-71489219D01*
X162743477Y-71294534D01*
X162775500Y-71092352D01*
X162775500Y-70887648D01*
X162743477Y-70685466D01*
X162680220Y-70490781D01*
X162680218Y-70490778D01*
X162680218Y-70490776D01*
X162646503Y-70424607D01*
X162587287Y-70308390D01*
X162536447Y-70238414D01*
X162466971Y-70142786D01*
X162322213Y-69998028D01*
X162156614Y-69877715D01*
X162150006Y-69874348D01*
X162063917Y-69830483D01*
X162013123Y-69782511D01*
X161996328Y-69714690D01*
X162018865Y-69648555D01*
X162063917Y-69609516D01*
X162156610Y-69562287D01*
X162205169Y-69527007D01*
X162322213Y-69441971D01*
X162322215Y-69441968D01*
X162322219Y-69441966D01*
X162466966Y-69297219D01*
X162466968Y-69297215D01*
X162466971Y-69297213D01*
X162536445Y-69201588D01*
X162587287Y-69131610D01*
X162680220Y-68949219D01*
X162743477Y-68754534D01*
X162775500Y-68552352D01*
X162775500Y-68347648D01*
X162743477Y-68145466D01*
X162743114Y-68144350D01*
X162680218Y-67950776D01*
X162646503Y-67884607D01*
X162587287Y-67768390D01*
X162563622Y-67735817D01*
X162466971Y-67602786D01*
X162322213Y-67458028D01*
X162156614Y-67337715D01*
X162150006Y-67334348D01*
X162063917Y-67290483D01*
X162013123Y-67242511D01*
X161996328Y-67174690D01*
X162018865Y-67108555D01*
X162063917Y-67069516D01*
X162156610Y-67022287D01*
X162177770Y-67006913D01*
X162322213Y-66901971D01*
X162322215Y-66901968D01*
X162322219Y-66901966D01*
X162466966Y-66757219D01*
X162466968Y-66757215D01*
X162466971Y-66757213D01*
X162536445Y-66661588D01*
X162587287Y-66591610D01*
X162680220Y-66409219D01*
X162743477Y-66214534D01*
X162775500Y-66012352D01*
X162775500Y-65807648D01*
X162773504Y-65795048D01*
X162743477Y-65605465D01*
X162680218Y-65410776D01*
X162615437Y-65283638D01*
X162587287Y-65228390D01*
X162536447Y-65158414D01*
X162466971Y-65062786D01*
X162322213Y-64918028D01*
X162156614Y-64797715D01*
X162148410Y-64793535D01*
X162070703Y-64753941D01*
X162019908Y-64705968D01*
X162003113Y-64638147D01*
X162025650Y-64572012D01*
X162068546Y-64534099D01*
X162134503Y-64498843D01*
X162134515Y-64498837D01*
X162203913Y-64452465D01*
X161604410Y-63852962D01*
X161667993Y-63835925D01*
X161782007Y-63770099D01*
X161875099Y-63677007D01*
X161940925Y-63562993D01*
X161957962Y-63499410D01*
X162557465Y-64098913D01*
X162603837Y-64029515D01*
X162603838Y-64029511D01*
X162650509Y-63942198D01*
X162710814Y-63796612D01*
X162739555Y-63701864D01*
X162770298Y-63547302D01*
X162770298Y-63547299D01*
X162780000Y-63448789D01*
X162780000Y-63291210D01*
X162770298Y-63192700D01*
X162770298Y-63192697D01*
X162739555Y-63038135D01*
X162710814Y-62943387D01*
X162650509Y-62797801D01*
X162603844Y-62710498D01*
X162603838Y-62710488D01*
X162557465Y-62641085D01*
X161957962Y-63240588D01*
X161940925Y-63177007D01*
X161875099Y-63062993D01*
X161782007Y-62969901D01*
X161667993Y-62904075D01*
X161604410Y-62887037D01*
X162203912Y-62287534D01*
X162134511Y-62241161D01*
X162134500Y-62241155D01*
X162068545Y-62205900D01*
X162018701Y-62156937D01*
X162003241Y-62088799D01*
X162027073Y-62023119D01*
X162070702Y-61986059D01*
X162156610Y-61942287D01*
X162245415Y-61877767D01*
X162322213Y-61821971D01*
X162322215Y-61821968D01*
X162322219Y-61821966D01*
X162466966Y-61677219D01*
X162466968Y-61677215D01*
X162466971Y-61677213D01*
X162536445Y-61581588D01*
X162587287Y-61511610D01*
X162680220Y-61329219D01*
X162743477Y-61134534D01*
X162775500Y-60932352D01*
X162775500Y-60727648D01*
X162753715Y-60590104D01*
X162743477Y-60525465D01*
X162690294Y-60361785D01*
X162680220Y-60330781D01*
X162680218Y-60330778D01*
X162680218Y-60330776D01*
X162646503Y-60264607D01*
X162587287Y-60148390D01*
X162579556Y-60137749D01*
X162466971Y-59982786D01*
X162322213Y-59838028D01*
X162156614Y-59717715D01*
X162150006Y-59714348D01*
X162063917Y-59670483D01*
X162013123Y-59622511D01*
X161996328Y-59554690D01*
X162018865Y-59488555D01*
X162063917Y-59449516D01*
X162156610Y-59402287D01*
X162262733Y-59325185D01*
X162322213Y-59281971D01*
X162322215Y-59281968D01*
X162322219Y-59281966D01*
X162466966Y-59137219D01*
X162466968Y-59137215D01*
X162466971Y-59137213D01*
X162536445Y-59041588D01*
X162587287Y-58971610D01*
X162680220Y-58789219D01*
X162743477Y-58594534D01*
X162775500Y-58392352D01*
X162775500Y-58187648D01*
X162743477Y-57985466D01*
X162680220Y-57790781D01*
X162680218Y-57790778D01*
X162680218Y-57790776D01*
X162640170Y-57712179D01*
X162587287Y-57608390D01*
X162579556Y-57597749D01*
X162466971Y-57442786D01*
X162322213Y-57298028D01*
X162156613Y-57177715D01*
X162156612Y-57177714D01*
X162156610Y-57177713D01*
X162071855Y-57134528D01*
X161974223Y-57084781D01*
X161779534Y-57021522D01*
X161604995Y-56993878D01*
X161577352Y-56989500D01*
X161372648Y-56989500D01*
X161348329Y-56993351D01*
X161170465Y-57021522D01*
X160975776Y-57084781D01*
X160793386Y-57177715D01*
X160627786Y-57298028D01*
X160483028Y-57442786D01*
X160362715Y-57608386D01*
X160269781Y-57790776D01*
X160206522Y-57985465D01*
X160174500Y-58187648D01*
X160174500Y-58392351D01*
X160206522Y-58594534D01*
X160269781Y-58789223D01*
X160301862Y-58852184D01*
X160361745Y-58969711D01*
X160362715Y-58971613D01*
X160483028Y-59137213D01*
X160627786Y-59281971D01*
X160782749Y-59394556D01*
X160793390Y-59402287D01*
X160878139Y-59445469D01*
X160886080Y-59449515D01*
X160936876Y-59497490D01*
X160953671Y-59565311D01*
X160931134Y-59631446D01*
X160886080Y-59670485D01*
X160793386Y-59717715D01*
X160627786Y-59838028D01*
X160483028Y-59982786D01*
X160362715Y-60148386D01*
X160269781Y-60330776D01*
X160206522Y-60525465D01*
X160174500Y-60727648D01*
X160174500Y-60932351D01*
X160206522Y-61134534D01*
X160269781Y-61329223D01*
X160362715Y-61511613D01*
X160483028Y-61677213D01*
X160627782Y-61821967D01*
X160627787Y-61821971D01*
X160704583Y-61877767D01*
X160747249Y-61933097D01*
X160753228Y-62002710D01*
X160720622Y-62064505D01*
X160662365Y-62098233D01*
X160641973Y-62103437D01*
X160641962Y-62103441D01*
X160585415Y-62126863D01*
X161345589Y-62887037D01*
X161282007Y-62904075D01*
X161167993Y-62969901D01*
X161074901Y-63062993D01*
X161009075Y-63177007D01*
X160992037Y-63240589D01*
X160231863Y-62480415D01*
X160231862Y-62480415D01*
X160208446Y-62536947D01*
X160208431Y-62536987D01*
X160190457Y-62587939D01*
X160190455Y-62587946D01*
X160170000Y-62730219D01*
X160170000Y-64009785D01*
X160172893Y-64063762D01*
X160172893Y-64063764D01*
X160208438Y-64203030D01*
X160208442Y-64203043D01*
X160231862Y-64259584D01*
X160992037Y-63499410D01*
X161009075Y-63562993D01*
X161074901Y-63677007D01*
X161167993Y-63770099D01*
X161282007Y-63835925D01*
X161345589Y-63852962D01*
X160585414Y-64613135D01*
X160641960Y-64636557D01*
X160641986Y-64636567D01*
X160670621Y-64646669D01*
X160727294Y-64687534D01*
X160752876Y-64752552D01*
X160739246Y-64821080D01*
X160702256Y-64863924D01*
X160627782Y-64918032D01*
X160483028Y-65062786D01*
X160362715Y-65228386D01*
X160269781Y-65410776D01*
X160206522Y-65605465D01*
X160174500Y-65807648D01*
X160174500Y-66012351D01*
X160206522Y-66214534D01*
X160269781Y-66409223D01*
X160301862Y-66472184D01*
X160346424Y-66559642D01*
X160362715Y-66591613D01*
X160483028Y-66757213D01*
X160627786Y-66901971D01*
X160782749Y-67014556D01*
X160793390Y-67022287D01*
X160884840Y-67068883D01*
X160886080Y-67069515D01*
X160936876Y-67117490D01*
X160953671Y-67185311D01*
X160931134Y-67251446D01*
X160886080Y-67290485D01*
X160793386Y-67337715D01*
X160627786Y-67458028D01*
X160483028Y-67602786D01*
X160362715Y-67768386D01*
X160269781Y-67950776D01*
X160206522Y-68145465D01*
X160174500Y-68347648D01*
X160174500Y-68552351D01*
X160206522Y-68754534D01*
X160269781Y-68949223D01*
X160362715Y-69131613D01*
X160483028Y-69297213D01*
X160627786Y-69441971D01*
X160767150Y-69543223D01*
X160793390Y-69562287D01*
X160849574Y-69590914D01*
X160886080Y-69609515D01*
X160936876Y-69657490D01*
X160953671Y-69725311D01*
X160931134Y-69791446D01*
X160886080Y-69830485D01*
X160793386Y-69877715D01*
X160627786Y-69998028D01*
X160483028Y-70142786D01*
X160362715Y-70308386D01*
X160269781Y-70490776D01*
X160206522Y-70685465D01*
X160174500Y-70887648D01*
X160174500Y-71092351D01*
X160206522Y-71294534D01*
X160269781Y-71489223D01*
X160362715Y-71671613D01*
X160483028Y-71837213D01*
X160627786Y-71981971D01*
X160782749Y-72094556D01*
X160793390Y-72102287D01*
X160884840Y-72148883D01*
X160886080Y-72149515D01*
X160936876Y-72197490D01*
X160953671Y-72265311D01*
X160931134Y-72331446D01*
X160886080Y-72370485D01*
X160793386Y-72417715D01*
X160627786Y-72538028D01*
X160483028Y-72682786D01*
X160362715Y-72848386D01*
X160269781Y-73030776D01*
X160206522Y-73225465D01*
X160174500Y-73427648D01*
X160174500Y-73632351D01*
X160206522Y-73834534D01*
X160269781Y-74029223D01*
X160362715Y-74211613D01*
X160483028Y-74377213D01*
X160627782Y-74521967D01*
X160627787Y-74521971D01*
X160704063Y-74577389D01*
X160746729Y-74632719D01*
X160752708Y-74702332D01*
X160720102Y-74764127D01*
X160661845Y-74797855D01*
X160641776Y-74802977D01*
X160641766Y-74802980D01*
X160568280Y-74833419D01*
X160568252Y-74833431D01*
X160519451Y-74856779D01*
X160519446Y-74856782D01*
X160404268Y-74943005D01*
X160404256Y-74943015D01*
X160348019Y-74999252D01*
X160311843Y-75039524D01*
X160311837Y-75039532D01*
X160238426Y-75163263D01*
X160207978Y-75236774D01*
X160207970Y-75236795D01*
X160189976Y-75287800D01*
X160169500Y-75430219D01*
X145802500Y-75430219D01*
X145802500Y-61357486D01*
X148984500Y-61357486D01*
X148984500Y-61542513D01*
X149013445Y-61725265D01*
X149070619Y-61901232D01*
X149070620Y-61901235D01*
X149113840Y-61986057D01*
X149154622Y-62066096D01*
X149263379Y-62215787D01*
X149394213Y-62346621D01*
X149543904Y-62455378D01*
X149593042Y-62480415D01*
X149708764Y-62539379D01*
X149708767Y-62539380D01*
X149796750Y-62567967D01*
X149884736Y-62596555D01*
X150067486Y-62625500D01*
X150067487Y-62625500D01*
X150252513Y-62625500D01*
X150252514Y-62625500D01*
X150435264Y-62596555D01*
X150611235Y-62539379D01*
X150776096Y-62455378D01*
X150925787Y-62346621D01*
X151056621Y-62215787D01*
X151165378Y-62066096D01*
X151249379Y-61901235D01*
X151306555Y-61725264D01*
X151335500Y-61542514D01*
X151335500Y-61357486D01*
X153834500Y-61357486D01*
X153834500Y-61542513D01*
X153863445Y-61725265D01*
X153920619Y-61901232D01*
X153920620Y-61901235D01*
X153963840Y-61986057D01*
X154004622Y-62066096D01*
X154113379Y-62215787D01*
X154244213Y-62346621D01*
X154393904Y-62455378D01*
X154443042Y-62480415D01*
X154558764Y-62539379D01*
X154558767Y-62539380D01*
X154646750Y-62567967D01*
X154734736Y-62596555D01*
X154917486Y-62625500D01*
X154917487Y-62625500D01*
X155102513Y-62625500D01*
X155102514Y-62625500D01*
X155175660Y-62613914D01*
X155242578Y-62603316D01*
X155248847Y-62602322D01*
X155285264Y-62596555D01*
X155461235Y-62539379D01*
X155626096Y-62455378D01*
X155775787Y-62346621D01*
X155906621Y-62215787D01*
X156015378Y-62066096D01*
X156099379Y-61901235D01*
X156156555Y-61725264D01*
X156185500Y-61542514D01*
X156185500Y-61357486D01*
X156156555Y-61174736D01*
X156099379Y-60998765D01*
X156099379Y-60998764D01*
X156015377Y-60833903D01*
X155906621Y-60684213D01*
X155775787Y-60553379D01*
X155626096Y-60444622D01*
X155616605Y-60439786D01*
X155461235Y-60360620D01*
X155461232Y-60360619D01*
X155285265Y-60303445D01*
X155193889Y-60288972D01*
X155102514Y-60274500D01*
X154917486Y-60274500D01*
X154856569Y-60284148D01*
X154734734Y-60303445D01*
X154558767Y-60360619D01*
X154558764Y-60360620D01*
X154393903Y-60444622D01*
X154308499Y-60506672D01*
X154244213Y-60553379D01*
X154244211Y-60553381D01*
X154244210Y-60553381D01*
X154113381Y-60684210D01*
X154113381Y-60684211D01*
X154113379Y-60684213D01*
X154087730Y-60719516D01*
X154004622Y-60833903D01*
X153920620Y-60998764D01*
X153920619Y-60998767D01*
X153863445Y-61174734D01*
X153834500Y-61357486D01*
X151335500Y-61357486D01*
X151306555Y-61174736D01*
X151249379Y-60998765D01*
X151249379Y-60998764D01*
X151165377Y-60833903D01*
X151056621Y-60684213D01*
X150925787Y-60553379D01*
X150776096Y-60444622D01*
X150766605Y-60439786D01*
X150611235Y-60360620D01*
X150611232Y-60360619D01*
X150435265Y-60303445D01*
X150343889Y-60288972D01*
X150252514Y-60274500D01*
X150067486Y-60274500D01*
X150006569Y-60284148D01*
X149884734Y-60303445D01*
X149708767Y-60360619D01*
X149708764Y-60360620D01*
X149543903Y-60444622D01*
X149458499Y-60506672D01*
X149394213Y-60553379D01*
X149394211Y-60553381D01*
X149394210Y-60553381D01*
X149263381Y-60684210D01*
X149263381Y-60684211D01*
X149263379Y-60684213D01*
X149237730Y-60719516D01*
X149154622Y-60833903D01*
X149070620Y-60998764D01*
X149070619Y-60998767D01*
X149013445Y-61174734D01*
X148984500Y-61357486D01*
X145802500Y-61357486D01*
X145802500Y-59886059D01*
X145802501Y-59886046D01*
X145802501Y-59717945D01*
X145802501Y-59717943D01*
X145761577Y-59565215D01*
X145697201Y-59453713D01*
X145682520Y-59428284D01*
X145570716Y-59316480D01*
X145570713Y-59316478D01*
X145031819Y-58777584D01*
X144998334Y-58716261D01*
X144995500Y-58689903D01*
X144995500Y-58313713D01*
X148509500Y-58313713D01*
X148509500Y-58526286D01*
X148533879Y-58680213D01*
X148542754Y-58736243D01*
X148559968Y-58789223D01*
X148608444Y-58938414D01*
X148704951Y-59127820D01*
X148829890Y-59299786D01*
X148980213Y-59450109D01*
X149152179Y-59575048D01*
X149152181Y-59575049D01*
X149152184Y-59575051D01*
X149341588Y-59671557D01*
X149543757Y-59737246D01*
X149753713Y-59770500D01*
X149753714Y-59770500D01*
X149966286Y-59770500D01*
X149966287Y-59770500D01*
X150176243Y-59737246D01*
X150378412Y-59671557D01*
X150567816Y-59575051D01*
X150625038Y-59533477D01*
X150739786Y-59450109D01*
X150739788Y-59450106D01*
X150739792Y-59450104D01*
X150890104Y-59299792D01*
X150890106Y-59299788D01*
X150890109Y-59299786D01*
X151015048Y-59127820D01*
X151015047Y-59127820D01*
X151015051Y-59127816D01*
X151111557Y-58938412D01*
X151177246Y-58736243D01*
X151210500Y-58526287D01*
X151210500Y-58313713D01*
X153959500Y-58313713D01*
X153959500Y-58526286D01*
X153983879Y-58680213D01*
X153992754Y-58736243D01*
X154009968Y-58789223D01*
X154058444Y-58938414D01*
X154154951Y-59127820D01*
X154279890Y-59299786D01*
X154430213Y-59450109D01*
X154602179Y-59575048D01*
X154602181Y-59575049D01*
X154602184Y-59575051D01*
X154791588Y-59671557D01*
X154993757Y-59737246D01*
X155203713Y-59770500D01*
X155203714Y-59770500D01*
X155416286Y-59770500D01*
X155416287Y-59770500D01*
X155626243Y-59737246D01*
X155828412Y-59671557D01*
X156017816Y-59575051D01*
X156075038Y-59533477D01*
X156189786Y-59450109D01*
X156189788Y-59450106D01*
X156189792Y-59450104D01*
X156340104Y-59299792D01*
X156340106Y-59299788D01*
X156340109Y-59299786D01*
X156465048Y-59127820D01*
X156465047Y-59127820D01*
X156465051Y-59127816D01*
X156561557Y-58938412D01*
X156627246Y-58736243D01*
X156660500Y-58526287D01*
X156660500Y-58313713D01*
X156627246Y-58103757D01*
X156561557Y-57901588D01*
X156465051Y-57712184D01*
X156465049Y-57712181D01*
X156465048Y-57712179D01*
X156340109Y-57540213D01*
X156189786Y-57389890D01*
X156017820Y-57264951D01*
X155828414Y-57168444D01*
X155828413Y-57168443D01*
X155828412Y-57168443D01*
X155626243Y-57102754D01*
X155626241Y-57102753D01*
X155626240Y-57102753D01*
X155464957Y-57077208D01*
X155416287Y-57069500D01*
X155203713Y-57069500D01*
X155155042Y-57077208D01*
X154993760Y-57102753D01*
X154791585Y-57168444D01*
X154602179Y-57264951D01*
X154430213Y-57389890D01*
X154279890Y-57540213D01*
X154154951Y-57712179D01*
X154058444Y-57901585D01*
X153992753Y-58103760D01*
X153959500Y-58313713D01*
X151210500Y-58313713D01*
X151177246Y-58103757D01*
X151111557Y-57901588D01*
X151015051Y-57712184D01*
X151015049Y-57712181D01*
X151015048Y-57712179D01*
X150890109Y-57540213D01*
X150739786Y-57389890D01*
X150567820Y-57264951D01*
X150378414Y-57168444D01*
X150378413Y-57168443D01*
X150378412Y-57168443D01*
X150176243Y-57102754D01*
X150176241Y-57102753D01*
X150176240Y-57102753D01*
X150014957Y-57077208D01*
X149966287Y-57069500D01*
X149753713Y-57069500D01*
X149705042Y-57077208D01*
X149543760Y-57102753D01*
X149341585Y-57168444D01*
X149152179Y-57264951D01*
X148980213Y-57389890D01*
X148829890Y-57540213D01*
X148704951Y-57712179D01*
X148608444Y-57901585D01*
X148542753Y-58103760D01*
X148509500Y-58313713D01*
X144995500Y-58313713D01*
X144995500Y-57633386D01*
X144995500Y-57633384D01*
X144989086Y-57562804D01*
X144938478Y-57400394D01*
X144850472Y-57254815D01*
X144850470Y-57254813D01*
X144850469Y-57254811D01*
X144730188Y-57134530D01*
X144677624Y-57102754D01*
X144584606Y-57046522D01*
X144422196Y-56995914D01*
X144422194Y-56995913D01*
X144422192Y-56995913D01*
X144372778Y-56991423D01*
X144351616Y-56989500D01*
X143038384Y-56989500D01*
X143019145Y-56991248D01*
X142967807Y-56995913D01*
X142805393Y-57046522D01*
X142659811Y-57134530D01*
X142539530Y-57254811D01*
X142451522Y-57400393D01*
X142400913Y-57562807D01*
X142394500Y-57633386D01*
X142394500Y-58946613D01*
X142400913Y-59017192D01*
X142400913Y-59017194D01*
X142400914Y-59017196D01*
X142451522Y-59179606D01*
X142534264Y-59316478D01*
X142539530Y-59325188D01*
X142659811Y-59445469D01*
X142659813Y-59445470D01*
X142659815Y-59445472D01*
X142805394Y-59533478D01*
X142892566Y-59560641D01*
X142950712Y-59599378D01*
X142978686Y-59663403D01*
X142967605Y-59732388D01*
X142928560Y-59779344D01*
X142847782Y-59838032D01*
X142703028Y-59982786D01*
X142582715Y-60148385D01*
X142575883Y-60161795D01*
X142527909Y-60212591D01*
X142465398Y-60229500D01*
X141179057Y-60229500D01*
X141020942Y-60229500D01*
X140868215Y-60270423D01*
X140868214Y-60270423D01*
X140868212Y-60270424D01*
X140868209Y-60270425D01*
X140818096Y-60299359D01*
X140818095Y-60299360D01*
X140811020Y-60303445D01*
X140731285Y-60349479D01*
X140731282Y-60349481D01*
X136367180Y-64713584D01*
X136305857Y-64747069D01*
X136236165Y-64742085D01*
X136180232Y-64700213D01*
X136155815Y-64634749D01*
X136155499Y-64625903D01*
X136155499Y-63742129D01*
X136155498Y-63742123D01*
X136155497Y-63742116D01*
X136149091Y-63682517D01*
X136131165Y-63634456D01*
X136098797Y-63547671D01*
X136098793Y-63547664D01*
X136012547Y-63432455D01*
X136012544Y-63432452D01*
X135897335Y-63346206D01*
X135897328Y-63346202D01*
X135762482Y-63295908D01*
X135762483Y-63295908D01*
X135702883Y-63289501D01*
X135702881Y-63289500D01*
X135702873Y-63289500D01*
X135702864Y-63289500D01*
X133907129Y-63289500D01*
X133907123Y-63289501D01*
X133847516Y-63295908D01*
X133712671Y-63346202D01*
X133712664Y-63346206D01*
X133597455Y-63432452D01*
X133597452Y-63432455D01*
X133511206Y-63547664D01*
X133511202Y-63547671D01*
X133460908Y-63682517D01*
X133456497Y-63723552D01*
X133454500Y-63742127D01*
X133454500Y-64583062D01*
X133454501Y-65304500D01*
X133434816Y-65371539D01*
X133382013Y-65417294D01*
X133330501Y-65428500D01*
X125961290Y-65428500D01*
X125894251Y-65408815D01*
X125848496Y-65356011D01*
X125838552Y-65286853D01*
X125850805Y-65248205D01*
X125860901Y-65228390D01*
X125896557Y-65158412D01*
X125962246Y-64956243D01*
X125995500Y-64746287D01*
X125995500Y-64533713D01*
X125962246Y-64323757D01*
X125896557Y-64121588D01*
X125800051Y-63932184D01*
X125800049Y-63932181D01*
X125800048Y-63932179D01*
X125675109Y-63760213D01*
X125524786Y-63609890D01*
X125352820Y-63484951D01*
X125352115Y-63484591D01*
X125344054Y-63480485D01*
X125293259Y-63432512D01*
X125276463Y-63364692D01*
X125298999Y-63298556D01*
X125344054Y-63259515D01*
X125352816Y-63255051D01*
X125378270Y-63236558D01*
X125524786Y-63130109D01*
X125524788Y-63130106D01*
X125524792Y-63130104D01*
X125675104Y-62979792D01*
X125675106Y-62979788D01*
X125675109Y-62979786D01*
X125800048Y-62807820D01*
X125800047Y-62807820D01*
X125800051Y-62807816D01*
X125896557Y-62618412D01*
X125962246Y-62416243D01*
X125995500Y-62206287D01*
X125995500Y-61993713D01*
X125962246Y-61783757D01*
X125896557Y-61581588D01*
X125800051Y-61392184D01*
X125800049Y-61392181D01*
X125800048Y-61392179D01*
X125675109Y-61220213D01*
X125524786Y-61069890D01*
X125352820Y-60944951D01*
X125352115Y-60944591D01*
X125344054Y-60940485D01*
X125293259Y-60892512D01*
X125276463Y-60824692D01*
X125298999Y-60758556D01*
X125344054Y-60719515D01*
X125352816Y-60715051D01*
X125516534Y-60596104D01*
X125524786Y-60590109D01*
X125524788Y-60590106D01*
X125524792Y-60590104D01*
X125675104Y-60439792D01*
X125675106Y-60439788D01*
X125675109Y-60439786D01*
X125800048Y-60267820D01*
X125800047Y-60267820D01*
X125800051Y-60267816D01*
X125896557Y-60078412D01*
X125962246Y-59876243D01*
X125995500Y-59666287D01*
X125995500Y-59453713D01*
X125994928Y-59450104D01*
X125973764Y-59316478D01*
X125962246Y-59243757D01*
X125896557Y-59041588D01*
X125800051Y-58852184D01*
X125800049Y-58852181D01*
X125800048Y-58852179D01*
X125675109Y-58680213D01*
X125524786Y-58529890D01*
X125352820Y-58404951D01*
X125163414Y-58308444D01*
X125163413Y-58308443D01*
X125163412Y-58308443D01*
X124961243Y-58242754D01*
X124961241Y-58242753D01*
X124961240Y-58242753D01*
X124799957Y-58217208D01*
X124751287Y-58209500D01*
X124538713Y-58209500D01*
X124490042Y-58217208D01*
X124328760Y-58242753D01*
X124126585Y-58308444D01*
X123937179Y-58404951D01*
X123765213Y-58529890D01*
X123614890Y-58680213D01*
X123489951Y-58852179D01*
X123393444Y-59041585D01*
X123327753Y-59243760D01*
X123295071Y-59450109D01*
X123294500Y-59453713D01*
X123294500Y-59666287D01*
X123295335Y-59671557D01*
X123327724Y-59876057D01*
X123327754Y-59876243D01*
X123362370Y-59982781D01*
X123393444Y-60078414D01*
X123489951Y-60267820D01*
X123614890Y-60439786D01*
X123765213Y-60590109D01*
X123937182Y-60715050D01*
X123945946Y-60719516D01*
X123996742Y-60767491D01*
X124013536Y-60835312D01*
X123990998Y-60901447D01*
X123945946Y-60940484D01*
X123937182Y-60944949D01*
X123765213Y-61069890D01*
X123614890Y-61220213D01*
X123489951Y-61392179D01*
X123393444Y-61581585D01*
X123327753Y-61783760D01*
X123294500Y-61993713D01*
X123294500Y-62206286D01*
X123327754Y-62416244D01*
X123327754Y-62416247D01*
X123341491Y-62458523D01*
X123343486Y-62528364D01*
X123311241Y-62584522D01*
X120281286Y-65614478D01*
X120169481Y-65726282D01*
X120169477Y-65726287D01*
X120128528Y-65797215D01*
X120128528Y-65797216D01*
X120090423Y-65863214D01*
X120090423Y-65863215D01*
X120049499Y-66015943D01*
X107900500Y-66015943D01*
X107900500Y-59878711D01*
X113149500Y-59878711D01*
X113149500Y-60121288D01*
X113181161Y-60361785D01*
X113243947Y-60596104D01*
X113336773Y-60820205D01*
X113336777Y-60820214D01*
X113344681Y-60833904D01*
X113458064Y-61030289D01*
X113458066Y-61030292D01*
X113458067Y-61030293D01*
X113605733Y-61222736D01*
X113605739Y-61222743D01*
X113777256Y-61394260D01*
X113777263Y-61394266D01*
X113865836Y-61462230D01*
X113969711Y-61541936D01*
X114179788Y-61663224D01*
X114403900Y-61756054D01*
X114638211Y-61818838D01*
X114818586Y-61842584D01*
X114878711Y-61850500D01*
X114878712Y-61850500D01*
X115121289Y-61850500D01*
X115169388Y-61844167D01*
X115361789Y-61818838D01*
X115596100Y-61756054D01*
X115820212Y-61663224D01*
X116030289Y-61541936D01*
X116222738Y-61394265D01*
X116394265Y-61222738D01*
X116541936Y-61030289D01*
X116663224Y-60820212D01*
X116756054Y-60596100D01*
X116818838Y-60361789D01*
X116850500Y-60121288D01*
X116850500Y-59878712D01*
X116850174Y-59876239D01*
X116829335Y-59717943D01*
X116818838Y-59638211D01*
X116756054Y-59403900D01*
X116663224Y-59179788D01*
X116541936Y-58969711D01*
X116394265Y-58777262D01*
X116394260Y-58777256D01*
X116222743Y-58605739D01*
X116222736Y-58605733D01*
X116030293Y-58458067D01*
X116030292Y-58458066D01*
X116030289Y-58458064D01*
X115820212Y-58336776D01*
X115764533Y-58313713D01*
X115596104Y-58243947D01*
X115361785Y-58181161D01*
X115121289Y-58149500D01*
X115121288Y-58149500D01*
X114878712Y-58149500D01*
X114878711Y-58149500D01*
X114638214Y-58181161D01*
X114403895Y-58243947D01*
X114179794Y-58336773D01*
X114179785Y-58336777D01*
X113969706Y-58458067D01*
X113777263Y-58605733D01*
X113777256Y-58605739D01*
X113605739Y-58777256D01*
X113605733Y-58777263D01*
X113458067Y-58969706D01*
X113336777Y-59179785D01*
X113336773Y-59179794D01*
X113243947Y-59403895D01*
X113181161Y-59638214D01*
X113149500Y-59878711D01*
X107900500Y-59878711D01*
X107900500Y-54764500D01*
X107920185Y-54697461D01*
X107972989Y-54651706D01*
X108024500Y-54640500D01*
X196775500Y-54640500D01*
X196842539Y-54660185D01*
G37*
%TD.AperFunction*%
%TD*%
M02*
