%TF.GenerationSoftware,KiCad,Pcbnew,9.0.2*%
%TF.CreationDate,2025-07-04T23:02:28+10:00*%
%TF.ProjectId,motor-controller-pcb,6d6f746f-722d-4636-9f6e-74726f6c6c65,rev?*%
%TF.SameCoordinates,Original*%
%TF.FileFunction,Copper,L1,Top*%
%TF.FilePolarity,Positive*%
%FSLAX46Y46*%
G04 Gerber Fmt 4.6, Leading zero omitted, Abs format (unit mm)*
G04 Created by KiCad (PCBNEW 9.0.2) date 2025-07-04 23:02:28*
%MOMM*%
%LPD*%
G01*
G04 APERTURE LIST*
G04 Aperture macros list*
%AMRoundRect*
0 Rectangle with rounded corners*
0 $1 Rounding radius*
0 $2 $3 $4 $5 $6 $7 $8 $9 X,Y pos of 4 corners*
0 Add a 4 corners polygon primitive as box body*
4,1,4,$2,$3,$4,$5,$6,$7,$8,$9,$2,$3,0*
0 Add four circle primitives for the rounded corners*
1,1,$1+$1,$2,$3*
1,1,$1+$1,$4,$5*
1,1,$1+$1,$6,$7*
1,1,$1+$1,$8,$9*
0 Add four rect primitives between the rounded corners*
20,1,$1+$1,$2,$3,$4,$5,0*
20,1,$1+$1,$4,$5,$6,$7,0*
20,1,$1+$1,$6,$7,$8,$9,0*
20,1,$1+$1,$8,$9,$2,$3,0*%
%AMFreePoly0*
4,1,37,0.800000,0.796148,0.878414,0.796148,1.032228,0.765552,1.177117,0.705537,1.307515,0.618408,1.418408,0.507515,1.505537,0.377117,1.565552,0.232228,1.596148,0.078414,1.596148,-0.078414,1.565552,-0.232228,1.505537,-0.377117,1.418408,-0.507515,1.307515,-0.618408,1.177117,-0.705537,1.032228,-0.765552,0.878414,-0.796148,0.800000,-0.796148,0.800000,-0.800000,-1.400000,-0.800000,
-1.403843,-0.796157,-1.439018,-0.796157,-1.511114,-0.766294,-1.566294,-0.711114,-1.596157,-0.639018,-1.596157,-0.603843,-1.600000,-0.600000,-1.600000,0.600000,-1.596157,0.603843,-1.596157,0.639018,-1.566294,0.711114,-1.511114,0.766294,-1.439018,0.796157,-1.403843,0.796157,-1.400000,0.800000,0.800000,0.800000,0.800000,0.796148,0.800000,0.796148,$1*%
%AMFreePoly1*
4,1,37,1.403843,0.796157,1.439018,0.796157,1.511114,0.766294,1.566294,0.711114,1.596157,0.639018,1.596157,0.603843,1.600000,0.600000,1.600000,-0.600000,1.596157,-0.603843,1.596157,-0.639018,1.566294,-0.711114,1.511114,-0.766294,1.439018,-0.796157,1.403843,-0.796157,1.400000,-0.800000,-0.800000,-0.800000,-0.800000,-0.796148,-0.878414,-0.796148,-1.032228,-0.765552,-1.177117,-0.705537,
-1.307515,-0.618408,-1.418408,-0.507515,-1.505537,-0.377117,-1.565552,-0.232228,-1.596148,-0.078414,-1.596148,0.078414,-1.565552,0.232228,-1.505537,0.377117,-1.418408,0.507515,-1.307515,0.618408,-1.177117,0.705537,-1.032228,0.765552,-0.878414,0.796148,-0.800000,0.796148,-0.800000,0.800000,1.400000,0.800000,1.403843,0.796157,1.403843,0.796157,$1*%
%AMFreePoly2*
4,1,37,0.603843,0.796157,0.639018,0.796157,0.711114,0.766294,0.766294,0.711114,0.796157,0.639018,0.796157,0.603843,0.800000,0.600000,0.800000,-0.600000,0.796157,-0.603843,0.796157,-0.639018,0.766294,-0.711114,0.711114,-0.766294,0.639018,-0.796157,0.603843,-0.796157,0.600000,-0.800000,0.000000,-0.800000,0.000000,-0.796148,-0.078414,-0.796148,-0.232228,-0.765552,-0.377117,-0.705537,
-0.507515,-0.618408,-0.618408,-0.507515,-0.705537,-0.377117,-0.765552,-0.232228,-0.796148,-0.078414,-0.796148,0.078414,-0.765552,0.232228,-0.705537,0.377117,-0.618408,0.507515,-0.507515,0.618408,-0.377117,0.705537,-0.232228,0.765552,-0.078414,0.796148,0.000000,0.796148,0.000000,0.800000,0.600000,0.800000,0.603843,0.796157,0.603843,0.796157,$1*%
%AMFreePoly3*
4,1,37,0.000000,0.796148,0.078414,0.796148,0.232228,0.765552,0.377117,0.705537,0.507515,0.618408,0.618408,0.507515,0.705537,0.377117,0.765552,0.232228,0.796148,0.078414,0.796148,-0.078414,0.765552,-0.232228,0.705537,-0.377117,0.618408,-0.507515,0.507515,-0.618408,0.377117,-0.705537,0.232228,-0.765552,0.078414,-0.796148,0.000000,-0.796148,0.000000,-0.800000,-0.600000,-0.800000,
-0.603843,-0.796157,-0.639018,-0.796157,-0.711114,-0.766294,-0.766294,-0.711114,-0.796157,-0.639018,-0.796157,-0.603843,-0.800000,-0.600000,-0.800000,0.600000,-0.796157,0.603843,-0.796157,0.639018,-0.766294,0.711114,-0.711114,0.766294,-0.639018,0.796157,-0.603843,0.796157,-0.600000,0.800000,0.000000,0.800000,0.000000,0.796148,0.000000,0.796148,$1*%
G04 Aperture macros list end*
%TA.AperFunction,ComponentPad*%
%ADD10R,1.700000X1.700000*%
%TD*%
%TA.AperFunction,ComponentPad*%
%ADD11C,1.700000*%
%TD*%
%TA.AperFunction,SMDPad,CuDef*%
%ADD12FreePoly0,0.000000*%
%TD*%
%TA.AperFunction,ComponentPad*%
%ADD13RoundRect,0.200000X-0.600000X-0.600000X0.600000X-0.600000X0.600000X0.600000X-0.600000X0.600000X0*%
%TD*%
%TA.AperFunction,SMDPad,CuDef*%
%ADD14RoundRect,0.800000X-0.800000X-0.000010X0.800000X-0.000010X0.800000X0.000010X-0.800000X0.000010X0*%
%TD*%
%TA.AperFunction,ComponentPad*%
%ADD15C,1.600000*%
%TD*%
%TA.AperFunction,SMDPad,CuDef*%
%ADD16FreePoly1,0.000000*%
%TD*%
%TA.AperFunction,ComponentPad*%
%ADD17FreePoly2,0.000000*%
%TD*%
%TA.AperFunction,ComponentPad*%
%ADD18FreePoly3,0.000000*%
%TD*%
%TA.AperFunction,Conductor*%
%ADD19C,0.200000*%
%TD*%
G04 APERTURE END LIST*
D10*
%TO.P,J4,1,Pin_1*%
%TO.N,Net-(J4-Pin_1)*%
X175445000Y-102740000D03*
D11*
%TO.P,J4,2,Pin_2*%
%TO.N,GND*%
X175445000Y-100200000D03*
%TO.P,J4,3,Pin_3*%
%TO.N,/Encoder 4*%
X175445000Y-97660000D03*
%TO.P,J4,4,Pin_4*%
%TO.N,unconnected-(J4-Pin_4-Pad4)*%
X175445000Y-95120000D03*
%TO.P,J4,5,Pin_5*%
%TO.N,+5V*%
X175445000Y-92580000D03*
%TO.P,J4,6,Pin_6*%
%TO.N,Net-(J4-Pin_6)*%
X175445000Y-90040000D03*
%TD*%
D10*
%TO.P,J5,1,Pin_1*%
%TO.N,Net-(A1-GPIO2)*%
X134805000Y-64640000D03*
D11*
%TO.P,J5,2,Pin_2*%
%TO.N,Net-(A1-GPIO3)*%
X134805000Y-67180000D03*
%TO.P,J5,3,Pin_3*%
%TO.N,Net-(A1-GPIO4)*%
X134805000Y-69720000D03*
%TO.P,J5,4,Pin_4*%
%TO.N,Net-(A1-GPIO5)*%
X134805000Y-72260000D03*
%TD*%
D10*
%TO.P,M4,1,Pin_1*%
%TO.N,Net-(J4-Pin_6)*%
X175445000Y-110360000D03*
D11*
%TO.P,M4,2,Pin_2*%
%TO.N,Net-(J4-Pin_1)*%
X175445000Y-112900000D03*
%TD*%
D10*
%TO.P,J7,1,Pin_1*%
%TO.N,/GP0*%
X145000000Y-115000000D03*
D11*
%TO.P,J7,2,Pin_2*%
%TO.N,/GP1*%
X147540000Y-115000000D03*
%TO.P,J7,3,Pin_3*%
%TO.N,/GP10*%
X150080000Y-115000000D03*
%TO.P,J7,4,Pin_4*%
%TO.N,/GP12*%
X152620000Y-115000000D03*
%TO.P,J7,5,Pin_5*%
%TO.N,/GP14*%
X155160000Y-115000000D03*
%TO.P,J7,6,Pin_6*%
%TO.N,/GP15*%
X157700000Y-115000000D03*
%TO.P,J7,7,Pin_7*%
%TO.N,/GP16*%
X160240000Y-115000000D03*
%TO.P,J7,8,Pin_8*%
%TO.N,/GP17*%
X162780000Y-115000000D03*
%TD*%
D10*
%TO.P,M1,1,Pin_1*%
%TO.N,Net-(J1-Pin_6)*%
X124645000Y-82420000D03*
D11*
%TO.P,M1,2,Pin_2*%
%TO.N,Net-(J1-Pin_1)*%
X124645000Y-79880000D03*
%TD*%
D10*
%TO.P,J3,1,Pin_1*%
%TO.N,Net-(J3-Pin_1)*%
X124645000Y-102740000D03*
D11*
%TO.P,J3,2,Pin_2*%
%TO.N,GND*%
X124645000Y-100200000D03*
%TO.P,J3,3,Pin_3*%
%TO.N,/Encoder 3*%
X124645000Y-97660000D03*
%TO.P,J3,4,Pin_4*%
%TO.N,unconnected-(J3-Pin_4-Pad4)*%
X124645000Y-95120000D03*
%TO.P,J3,5,Pin_5*%
%TO.N,+5V*%
X124645000Y-92580000D03*
%TO.P,J3,6,Pin_6*%
%TO.N,Net-(J3-Pin_6)*%
X124645000Y-90040000D03*
%TD*%
D10*
%TO.P,J2,1,Pin_1*%
%TO.N,Net-(J2-Pin_1)*%
X175445000Y-72260000D03*
D11*
%TO.P,J2,2,Pin_2*%
%TO.N,GND*%
X175445000Y-69720000D03*
%TO.P,J2,3,Pin_3*%
%TO.N,/Encoder 2*%
X175445000Y-67180000D03*
%TO.P,J2,4,Pin_4*%
%TO.N,unconnected-(J2-Pin_4-Pad4)*%
X175445000Y-64640000D03*
%TO.P,J2,5,Pin_5*%
%TO.N,+5V*%
X175445000Y-62100000D03*
%TO.P,J2,6,Pin_6*%
%TO.N,Net-(J2-Pin_6)*%
X175445000Y-59560000D03*
%TD*%
D10*
%TO.P,M3,1,Pin_1*%
%TO.N,Net-(J3-Pin_6)*%
X124645000Y-110360000D03*
D11*
%TO.P,M3,2,Pin_2*%
%TO.N,Net-(J3-Pin_1)*%
X124645000Y-112900000D03*
%TD*%
D12*
%TO.P,A1,1,GPIO0*%
%TO.N,/GP0*%
X142895000Y-58290000D03*
D13*
X143695000Y-58290000D03*
D14*
%TO.P,A1,2,GPIO1*%
%TO.N,/GP1*%
X142895000Y-60830000D03*
D15*
X143695000Y-60830000D03*
D16*
%TO.P,A1,3,GND*%
%TO.N,GND*%
X142895000Y-63370000D03*
D17*
X143695000Y-63370000D03*
D14*
%TO.P,A1,4,GPIO2*%
%TO.N,Net-(A1-GPIO2)*%
X142895000Y-65910000D03*
D15*
X143695000Y-65910000D03*
D14*
%TO.P,A1,5,GPIO3*%
%TO.N,Net-(A1-GPIO3)*%
X142895000Y-68450000D03*
D15*
X143695000Y-68450000D03*
D14*
%TO.P,A1,6,GPIO4*%
%TO.N,Net-(A1-GPIO4)*%
X142895000Y-70990000D03*
D15*
X143695000Y-70990000D03*
D14*
%TO.P,A1,7,GPIO5*%
%TO.N,Net-(A1-GPIO5)*%
X142895000Y-73530000D03*
D15*
X143695000Y-73530000D03*
D16*
%TO.P,A1,8,GND*%
%TO.N,GND*%
X142895000Y-76070000D03*
D17*
X143695000Y-76070000D03*
D14*
%TO.P,A1,9,GPIO6*%
%TO.N,Net-(A1-GPIO6)*%
X142895000Y-78610000D03*
D15*
X143695000Y-78610000D03*
D14*
%TO.P,A1,10,GPIO7*%
%TO.N,Net-(A1-GPIO7)*%
X142895000Y-81150000D03*
D15*
X143695000Y-81150000D03*
D14*
%TO.P,A1,11,GPIO8*%
%TO.N,Net-(A1-GPIO8)*%
X142895000Y-83690000D03*
D15*
X143695000Y-83690000D03*
D14*
%TO.P,A1,12,GPIO9*%
%TO.N,Net-(A1-GPIO9)*%
X142895000Y-86230000D03*
D15*
X143695000Y-86230000D03*
D16*
%TO.P,A1,13,GND*%
%TO.N,GND*%
X142895000Y-88770000D03*
D17*
X143695000Y-88770000D03*
D14*
%TO.P,A1,14,GPIO10*%
%TO.N,/GP10*%
X142895000Y-91310000D03*
D15*
X143695000Y-91310000D03*
D14*
%TO.P,A1,15,GPIO11*%
%TO.N,/Encoder 1*%
X142895000Y-93850000D03*
D15*
X143695000Y-93850000D03*
D14*
%TO.P,A1,16,GPIO12*%
%TO.N,/GP12*%
X142895000Y-96390000D03*
D15*
X143695000Y-96390000D03*
D14*
%TO.P,A1,17,GPIO13*%
%TO.N,/Encoder 3*%
X142895000Y-98930000D03*
D15*
X143695000Y-98930000D03*
D16*
%TO.P,A1,18,GND*%
%TO.N,GND*%
X142895000Y-101470000D03*
D17*
X143695000Y-101470000D03*
D14*
%TO.P,A1,19,GPIO14*%
%TO.N,/GP14*%
X142895000Y-104010000D03*
D15*
X143695000Y-104010000D03*
D14*
%TO.P,A1,20,GPIO15*%
%TO.N,/GP15*%
X142895000Y-106550000D03*
D15*
X143695000Y-106550000D03*
%TO.P,A1,21,GPIO16*%
%TO.N,/GP16*%
X161475000Y-106550000D03*
D14*
X162275000Y-106550000D03*
D15*
%TO.P,A1,22,GPIO17*%
%TO.N,/GP17*%
X161475000Y-104010000D03*
D14*
X162275000Y-104010000D03*
D18*
%TO.P,A1,23,GND*%
%TO.N,GND*%
X161475000Y-101470000D03*
D12*
X162275000Y-101470000D03*
D15*
%TO.P,A1,24,GPIO18*%
%TO.N,unconnected-(A1-GPIO18-Pad24)*%
X161475000Y-98930000D03*
D14*
%TO.N,unconnected-(A1-GPIO18-Pad24)_1*%
X162275000Y-98930000D03*
D15*
%TO.P,A1,25,GPIO19*%
%TO.N,/Encoder 2*%
X161475000Y-96390000D03*
D14*
X162275000Y-96390000D03*
D15*
%TO.P,A1,26,GPIO20*%
%TO.N,unconnected-(A1-GPIO20-Pad26)_1*%
X161475000Y-93850000D03*
D14*
%TO.N,unconnected-(A1-GPIO20-Pad26)*%
X162275000Y-93850000D03*
D15*
%TO.P,A1,27,GPIO21*%
%TO.N,/Encoder 4*%
X161475000Y-91310000D03*
D14*
X162275000Y-91310000D03*
D18*
%TO.P,A1,28,GND*%
%TO.N,GND*%
X161475000Y-88770000D03*
D12*
X162275000Y-88770000D03*
D15*
%TO.P,A1,29,GPIO22*%
%TO.N,unconnected-(A1-GPIO22-Pad29)_1*%
X161475000Y-86230000D03*
D14*
%TO.N,unconnected-(A1-GPIO22-Pad29)*%
X162275000Y-86230000D03*
D15*
%TO.P,A1,30,RUN*%
%TO.N,unconnected-(A1-RUN-Pad30)*%
X161475000Y-83690000D03*
D14*
%TO.N,unconnected-(A1-RUN-Pad30)_1*%
X162275000Y-83690000D03*
D15*
%TO.P,A1,31,GPIO26_ADC0*%
%TO.N,unconnected-(A1-GPIO26_ADC0-Pad31)_1*%
X161475000Y-81150000D03*
D14*
%TO.N,unconnected-(A1-GPIO26_ADC0-Pad31)*%
X162275000Y-81150000D03*
D15*
%TO.P,A1,32,GPIO27_ADC1*%
%TO.N,unconnected-(A1-GPIO27_ADC1-Pad32)*%
X161475000Y-78610000D03*
D14*
%TO.N,unconnected-(A1-GPIO27_ADC1-Pad32)_1*%
X162275000Y-78610000D03*
D18*
%TO.P,A1,33,AGND*%
%TO.N,unconnected-(A1-AGND-Pad33)*%
X161475000Y-76070000D03*
D12*
%TO.N,unconnected-(A1-AGND-Pad33)_1*%
X162275000Y-76070000D03*
D15*
%TO.P,A1,34,GPIO28_ADC2*%
%TO.N,unconnected-(A1-GPIO28_ADC2-Pad34)_1*%
X161475000Y-73530000D03*
D14*
%TO.N,unconnected-(A1-GPIO28_ADC2-Pad34)*%
X162275000Y-73530000D03*
D15*
%TO.P,A1,35,ADC_VREF*%
%TO.N,unconnected-(A1-ADC_VREF-Pad35)*%
X161475000Y-70990000D03*
D14*
%TO.N,unconnected-(A1-ADC_VREF-Pad35)_1*%
X162275000Y-70990000D03*
D15*
%TO.P,A1,36,3V3*%
%TO.N,unconnected-(A1-3V3-Pad36)*%
X161475000Y-68450000D03*
D14*
%TO.N,unconnected-(A1-3V3-Pad36)_1*%
X162275000Y-68450000D03*
D15*
%TO.P,A1,37,3V3_EN*%
%TO.N,unconnected-(A1-3V3_EN-Pad37)*%
X161475000Y-65910000D03*
D14*
%TO.N,unconnected-(A1-3V3_EN-Pad37)_1*%
X162275000Y-65910000D03*
D18*
%TO.P,A1,38,GND*%
%TO.N,GND*%
X161475000Y-63370000D03*
D12*
X162275000Y-63370000D03*
D15*
%TO.P,A1,39,VSYS*%
%TO.N,unconnected-(A1-VSYS-Pad39)*%
X161475000Y-60830000D03*
D14*
%TO.N,unconnected-(A1-VSYS-Pad39)_1*%
X162275000Y-60830000D03*
D15*
%TO.P,A1,40,VBUS*%
%TO.N,+5V*%
X161475000Y-58290000D03*
D14*
X162275000Y-58290000D03*
%TD*%
D10*
%TO.P,M2,1,Pin_1*%
%TO.N,Net-(J2-Pin_6)*%
X175445000Y-79880000D03*
D11*
%TO.P,M2,2,Pin_2*%
%TO.N,Net-(J2-Pin_1)*%
X175445000Y-82420000D03*
%TD*%
D10*
%TO.P,J1,1,Pin_1*%
%TO.N,Net-(J1-Pin_1)*%
X124645000Y-72260000D03*
D11*
%TO.P,J1,2,Pin_2*%
%TO.N,GND*%
X124645000Y-69720000D03*
%TO.P,J1,3,Pin_3*%
%TO.N,/Encoder 1*%
X124645000Y-67180000D03*
%TO.P,J1,4,Pin_4*%
%TO.N,unconnected-(J1-Pin_4-Pad4)*%
X124645000Y-64640000D03*
%TO.P,J1,5,Pin_5*%
%TO.N,+5V*%
X124645000Y-62100000D03*
%TO.P,J1,6,Pin_6*%
%TO.N,Net-(J1-Pin_6)*%
X124645000Y-59560000D03*
%TD*%
D10*
%TO.P,J6,1,Pin_1*%
%TO.N,Net-(A1-GPIO6)*%
X134805000Y-78610000D03*
D11*
%TO.P,J6,2,Pin_2*%
%TO.N,Net-(A1-GPIO7)*%
X134805000Y-81150000D03*
%TO.P,J6,3,Pin_3*%
%TO.N,Net-(A1-GPIO8)*%
X134805000Y-83690000D03*
%TO.P,J6,4,Pin_4*%
%TO.N,Net-(A1-GPIO9)*%
X134805000Y-86230000D03*
%TD*%
D19*
%TO.N,Net-(A1-GPIO8)*%
X134805000Y-83690000D02*
X142895000Y-83690000D01*
%TO.N,GND*%
X130995000Y-76070000D02*
X143695000Y-76070000D01*
X169095000Y-63370000D02*
X175445000Y-69720000D01*
X125915000Y-101470000D02*
X142895000Y-101470000D01*
X124645000Y-100200000D02*
X125915000Y-101470000D01*
X162275000Y-63370000D02*
X169095000Y-63370000D01*
X175445000Y-100200000D02*
X174175000Y-101470000D01*
X124645000Y-69720000D02*
X130995000Y-76070000D01*
X174175000Y-101470000D02*
X162275000Y-101470000D01*
%TO.N,Net-(A1-GPIO2)*%
X134805000Y-64640000D02*
X142425000Y-64640000D01*
X142425000Y-64640000D02*
X143695000Y-65910000D01*
%TO.N,/GP15*%
X157700000Y-115000000D02*
X154009000Y-111309000D01*
X147654000Y-111309000D02*
X142895000Y-106550000D01*
X154009000Y-111309000D02*
X147654000Y-111309000D01*
%TO.N,/GP14*%
X140994000Y-107006050D02*
X140994000Y-105911000D01*
X154009000Y-113849000D02*
X147836950Y-113849000D01*
X140994000Y-105911000D02*
X142895000Y-104010000D01*
X155160000Y-115000000D02*
X154009000Y-113849000D01*
X147836950Y-113849000D02*
X140994000Y-107006050D01*
%TO.N,+5V*%
X124645000Y-62100000D02*
X149005463Y-62100000D01*
X171635000Y-58290000D02*
X175445000Y-62100000D01*
X149005463Y-62100000D02*
X149631463Y-62726000D01*
X149631463Y-62726000D02*
X157039000Y-62726000D01*
X161475000Y-58290000D02*
X171635000Y-58290000D01*
X157039000Y-62726000D02*
X161475000Y-58290000D01*
%TO.N,Net-(A1-GPIO5)*%
X136075000Y-73530000D02*
X142895000Y-73530000D01*
X134805000Y-72260000D02*
X136075000Y-73530000D01*
%TO.N,Net-(A1-GPIO4)*%
X134805000Y-69720000D02*
X136075000Y-70990000D01*
X136075000Y-70990000D02*
X142895000Y-70990000D01*
%TO.N,/GP16*%
X160240000Y-115000000D02*
X162275000Y-112965000D01*
X162275000Y-112965000D02*
X162275000Y-106550000D01*
%TO.N,Net-(A1-GPIO3)*%
X134805000Y-67180000D02*
X136075000Y-68450000D01*
X136075000Y-68450000D02*
X142895000Y-68450000D01*
%TO.N,Net-(A1-GPIO9)*%
X134805000Y-86230000D02*
X143695000Y-86230000D01*
%TO.N,/Encoder 3*%
X125915000Y-98930000D02*
X143695000Y-98930000D01*
X124645000Y-97660000D02*
X125915000Y-98930000D01*
%TO.N,/GP17*%
X165000000Y-106735000D02*
X162275000Y-104010000D01*
X165000000Y-112780000D02*
X165000000Y-106735000D01*
X162780000Y-115000000D02*
X165000000Y-112780000D01*
%TO.N,/GP12*%
X145384000Y-98079000D02*
X143695000Y-96390000D01*
X158851000Y-115476760D02*
X158851000Y-112294319D01*
X153771000Y-116151000D02*
X158176760Y-116151000D01*
X155577681Y-109021000D02*
X149592354Y-109021000D01*
X158851000Y-112294319D02*
X155577681Y-109021000D01*
X158176760Y-116151000D02*
X158851000Y-115476760D01*
X152620000Y-115000000D02*
X153771000Y-116151000D01*
X149592354Y-109021000D02*
X145384000Y-104812646D01*
X145384000Y-104812646D02*
X145384000Y-98079000D01*
%TO.N,Net-(A1-GPIO7)*%
X134805000Y-81150000D02*
X142895000Y-81150000D01*
%TO.N,/Encoder 4*%
X169095000Y-91310000D02*
X162275000Y-91310000D01*
X175445000Y-97660000D02*
X169095000Y-91310000D01*
%TO.N,Net-(A1-GPIO6)*%
X134805000Y-78610000D02*
X143695000Y-78610000D01*
%TO.N,Net-(J1-Pin_6)*%
X121920000Y-62285000D02*
X121920000Y-81280000D01*
X124645000Y-59560000D02*
X121920000Y-62285000D01*
X123505000Y-81280000D02*
X124645000Y-82420000D01*
X121920000Y-81280000D02*
X123505000Y-81280000D01*
%TO.N,Net-(J1-Pin_1)*%
X124645000Y-72260000D02*
X124645000Y-79880000D01*
%TO.N,Net-(J2-Pin_6)*%
X175445000Y-59560000D02*
X176596000Y-60711000D01*
X176596000Y-60711000D02*
X176596000Y-78729000D01*
X176596000Y-78729000D02*
X175445000Y-79880000D01*
%TO.N,Net-(J2-Pin_1)*%
X174305000Y-81280000D02*
X175445000Y-82420000D01*
X174120000Y-72260000D02*
X172720000Y-73660000D01*
X172720000Y-73660000D02*
X172720000Y-81280000D01*
X172720000Y-81280000D02*
X174305000Y-81280000D01*
X175445000Y-72260000D02*
X174120000Y-72260000D01*
%TO.N,Net-(J3-Pin_1)*%
X124645000Y-112900000D02*
X128270000Y-109275000D01*
X128270000Y-106680000D02*
X124645000Y-103055000D01*
X128270000Y-109275000D02*
X128270000Y-106680000D01*
X124645000Y-103055000D02*
X124645000Y-102740000D01*
%TO.N,Net-(J3-Pin_6)*%
X120650000Y-106365000D02*
X120650000Y-93980000D01*
X120650000Y-93980000D02*
X120705000Y-93980000D01*
X120705000Y-93980000D02*
X124645000Y-90040000D01*
X124645000Y-110360000D02*
X120650000Y-106365000D01*
%TO.N,Net-(J4-Pin_6)*%
X180340000Y-105465000D02*
X180340000Y-94935000D01*
X180340000Y-94935000D02*
X175445000Y-90040000D01*
X175445000Y-110360000D02*
X180340000Y-105465000D01*
%TO.N,Net-(J4-Pin_1)*%
X174120000Y-102740000D02*
X175445000Y-102740000D01*
X172720000Y-104140000D02*
X174120000Y-102740000D01*
X172720000Y-110175000D02*
X172720000Y-104140000D01*
X175445000Y-112900000D02*
X172720000Y-110175000D01*
%TD*%
M02*
