M48
; DRILL file {KiCad 9.0.2} date 2025-07-04T23:02:32+1000
; FORMAT={-:-/ absolute / metric / decimal}
; #@! TF.CreationDate,2025-07-04T23:02:32+10:00
; #@! TF.GenerationSoftware,Kicad,Pcbnew,9.0.2
; #@! TF.FileFunction,Plated,1,2,PTH
FMAT,2
METRIC
; #@! TA.AperFunction,Plated,PTH,ComponentDrill
T1C1.000
%
G90
G05
T1
X124.645Y-59.56
X124.645Y-62.1
X124.645Y-64.64
X124.645Y-67.18
X124.645Y-69.72
X124.645Y-72.26
X124.645Y-79.88
X124.645Y-82.42
X124.645Y-90.04
X124.645Y-92.58
X124.645Y-95.12
X124.645Y-97.66
X124.645Y-100.2
X124.645Y-102.74
X124.645Y-110.36
X124.645Y-112.9
X134.805Y-64.64
X134.805Y-67.18
X134.805Y-69.72
X134.805Y-72.26
X134.805Y-78.61
X134.805Y-81.15
X134.805Y-83.69
X134.805Y-86.23
X143.695Y-58.29
X143.695Y-60.83
X143.695Y-63.37
X143.695Y-65.91
X143.695Y-68.45
X143.695Y-70.99
X143.695Y-73.53
X143.695Y-76.07
X143.695Y-78.61
X143.695Y-81.15
X143.695Y-83.69
X143.695Y-86.23
X143.695Y-88.77
X143.695Y-91.31
X143.695Y-93.85
X143.695Y-96.39
X143.695Y-98.93
X143.695Y-101.47
X143.695Y-104.01
X143.695Y-106.55
X145.0Y-115.0
X147.54Y-115.0
X150.08Y-115.0
X152.62Y-115.0
X155.16Y-115.0
X157.7Y-115.0
X160.24Y-115.0
X161.475Y-58.29
X161.475Y-60.83
X161.475Y-63.37
X161.475Y-65.91
X161.475Y-68.45
X161.475Y-70.99
X161.475Y-73.53
X161.475Y-76.07
X161.475Y-78.61
X161.475Y-81.15
X161.475Y-83.69
X161.475Y-86.23
X161.475Y-88.77
X161.475Y-91.31
X161.475Y-93.85
X161.475Y-96.39
X161.475Y-98.93
X161.475Y-101.47
X161.475Y-104.01
X161.475Y-106.55
X162.78Y-115.0
X175.445Y-59.56
X175.445Y-62.1
X175.445Y-64.64
X175.445Y-67.18
X175.445Y-69.72
X175.445Y-72.26
X175.445Y-79.88
X175.445Y-82.42
X175.445Y-90.04
X175.445Y-92.58
X175.445Y-95.12
X175.445Y-97.66
X175.445Y-100.2
X175.445Y-102.74
X175.445Y-110.36
X175.445Y-112.9
M30
