%TF.GenerationSoftware,KiCad,Pcbnew,9.0.5*%
%TF.CreationDate,2026-03-06T11:47:41+11:00*%
%TF.ProjectId,motor-controller-pcb,6d6f746f-722d-4636-9f6e-74726f6c6c65,rev?*%
%TF.SameCoordinates,Original*%
%TF.FileFunction,Legend,Top*%
%TF.FilePolarity,Positive*%
%FSLAX46Y46*%
G04 Gerber Fmt 4.6, Leading zero omitted, Abs format (unit mm)*
G04 Created by KiCad (PCBNEW 9.0.5) date 2026-03-06 11:47:41*
%MOMM*%
%LPD*%
G01*
G04 APERTURE LIST*
%ADD10C,0.400000*%
%ADD11C,0.250000*%
%ADD12C,0.100000*%
%ADD13C,0.150000*%
%ADD14C,0.120000*%
G04 APERTURE END LIST*
D10*
X183619347Y-138164438D02*
X183619347Y-136164438D01*
X183619347Y-136164438D02*
X184286014Y-137593009D01*
X184286014Y-137593009D02*
X184952680Y-136164438D01*
X184952680Y-136164438D02*
X184952680Y-138164438D01*
X186190775Y-138164438D02*
X186000299Y-138069200D01*
X186000299Y-138069200D02*
X185905061Y-137973961D01*
X185905061Y-137973961D02*
X185809823Y-137783485D01*
X185809823Y-137783485D02*
X185809823Y-137212057D01*
X185809823Y-137212057D02*
X185905061Y-137021580D01*
X185905061Y-137021580D02*
X186000299Y-136926342D01*
X186000299Y-136926342D02*
X186190775Y-136831104D01*
X186190775Y-136831104D02*
X186476490Y-136831104D01*
X186476490Y-136831104D02*
X186666966Y-136926342D01*
X186666966Y-136926342D02*
X186762204Y-137021580D01*
X186762204Y-137021580D02*
X186857442Y-137212057D01*
X186857442Y-137212057D02*
X186857442Y-137783485D01*
X186857442Y-137783485D02*
X186762204Y-137973961D01*
X186762204Y-137973961D02*
X186666966Y-138069200D01*
X186666966Y-138069200D02*
X186476490Y-138164438D01*
X186476490Y-138164438D02*
X186190775Y-138164438D01*
X187428871Y-136831104D02*
X188190775Y-136831104D01*
X187714585Y-136164438D02*
X187714585Y-137878723D01*
X187714585Y-137878723D02*
X187809823Y-138069200D01*
X187809823Y-138069200D02*
X188000299Y-138164438D01*
X188000299Y-138164438D02*
X188190775Y-138164438D01*
X189143156Y-138164438D02*
X188952680Y-138069200D01*
X188952680Y-138069200D02*
X188857442Y-137973961D01*
X188857442Y-137973961D02*
X188762204Y-137783485D01*
X188762204Y-137783485D02*
X188762204Y-137212057D01*
X188762204Y-137212057D02*
X188857442Y-137021580D01*
X188857442Y-137021580D02*
X188952680Y-136926342D01*
X188952680Y-136926342D02*
X189143156Y-136831104D01*
X189143156Y-136831104D02*
X189428871Y-136831104D01*
X189428871Y-136831104D02*
X189619347Y-136926342D01*
X189619347Y-136926342D02*
X189714585Y-137021580D01*
X189714585Y-137021580D02*
X189809823Y-137212057D01*
X189809823Y-137212057D02*
X189809823Y-137783485D01*
X189809823Y-137783485D02*
X189714585Y-137973961D01*
X189714585Y-137973961D02*
X189619347Y-138069200D01*
X189619347Y-138069200D02*
X189428871Y-138164438D01*
X189428871Y-138164438D02*
X189143156Y-138164438D01*
X190666966Y-138164438D02*
X190666966Y-136831104D01*
X190666966Y-137212057D02*
X190762204Y-137021580D01*
X190762204Y-137021580D02*
X190857442Y-136926342D01*
X190857442Y-136926342D02*
X191047918Y-136831104D01*
X191047918Y-136831104D02*
X191238395Y-136831104D01*
X194571728Y-137973961D02*
X194476490Y-138069200D01*
X194476490Y-138069200D02*
X194190776Y-138164438D01*
X194190776Y-138164438D02*
X194000300Y-138164438D01*
X194000300Y-138164438D02*
X193714585Y-138069200D01*
X193714585Y-138069200D02*
X193524109Y-137878723D01*
X193524109Y-137878723D02*
X193428871Y-137688247D01*
X193428871Y-137688247D02*
X193333633Y-137307295D01*
X193333633Y-137307295D02*
X193333633Y-137021580D01*
X193333633Y-137021580D02*
X193428871Y-136640628D01*
X193428871Y-136640628D02*
X193524109Y-136450152D01*
X193524109Y-136450152D02*
X193714585Y-136259676D01*
X193714585Y-136259676D02*
X194000300Y-136164438D01*
X194000300Y-136164438D02*
X194190776Y-136164438D01*
X194190776Y-136164438D02*
X194476490Y-136259676D01*
X194476490Y-136259676D02*
X194571728Y-136354914D01*
X195714585Y-138164438D02*
X195524109Y-138069200D01*
X195524109Y-138069200D02*
X195428871Y-137973961D01*
X195428871Y-137973961D02*
X195333633Y-137783485D01*
X195333633Y-137783485D02*
X195333633Y-137212057D01*
X195333633Y-137212057D02*
X195428871Y-137021580D01*
X195428871Y-137021580D02*
X195524109Y-136926342D01*
X195524109Y-136926342D02*
X195714585Y-136831104D01*
X195714585Y-136831104D02*
X196000300Y-136831104D01*
X196000300Y-136831104D02*
X196190776Y-136926342D01*
X196190776Y-136926342D02*
X196286014Y-137021580D01*
X196286014Y-137021580D02*
X196381252Y-137212057D01*
X196381252Y-137212057D02*
X196381252Y-137783485D01*
X196381252Y-137783485D02*
X196286014Y-137973961D01*
X196286014Y-137973961D02*
X196190776Y-138069200D01*
X196190776Y-138069200D02*
X196000300Y-138164438D01*
X196000300Y-138164438D02*
X195714585Y-138164438D01*
X197238395Y-136831104D02*
X197238395Y-138164438D01*
X197238395Y-137021580D02*
X197333633Y-136926342D01*
X197333633Y-136926342D02*
X197524109Y-136831104D01*
X197524109Y-136831104D02*
X197809824Y-136831104D01*
X197809824Y-136831104D02*
X198000300Y-136926342D01*
X198000300Y-136926342D02*
X198095538Y-137116819D01*
X198095538Y-137116819D02*
X198095538Y-138164438D01*
X198762205Y-136831104D02*
X199524109Y-136831104D01*
X199047919Y-136164438D02*
X199047919Y-137878723D01*
X199047919Y-137878723D02*
X199143157Y-138069200D01*
X199143157Y-138069200D02*
X199333633Y-138164438D01*
X199333633Y-138164438D02*
X199524109Y-138164438D01*
X200190776Y-138164438D02*
X200190776Y-136831104D01*
X200190776Y-137212057D02*
X200286014Y-137021580D01*
X200286014Y-137021580D02*
X200381252Y-136926342D01*
X200381252Y-136926342D02*
X200571728Y-136831104D01*
X200571728Y-136831104D02*
X200762205Y-136831104D01*
X201714585Y-138164438D02*
X201524109Y-138069200D01*
X201524109Y-138069200D02*
X201428871Y-137973961D01*
X201428871Y-137973961D02*
X201333633Y-137783485D01*
X201333633Y-137783485D02*
X201333633Y-137212057D01*
X201333633Y-137212057D02*
X201428871Y-137021580D01*
X201428871Y-137021580D02*
X201524109Y-136926342D01*
X201524109Y-136926342D02*
X201714585Y-136831104D01*
X201714585Y-136831104D02*
X202000300Y-136831104D01*
X202000300Y-136831104D02*
X202190776Y-136926342D01*
X202190776Y-136926342D02*
X202286014Y-137021580D01*
X202286014Y-137021580D02*
X202381252Y-137212057D01*
X202381252Y-137212057D02*
X202381252Y-137783485D01*
X202381252Y-137783485D02*
X202286014Y-137973961D01*
X202286014Y-137973961D02*
X202190776Y-138069200D01*
X202190776Y-138069200D02*
X202000300Y-138164438D01*
X202000300Y-138164438D02*
X201714585Y-138164438D01*
X203524109Y-138164438D02*
X203333633Y-138069200D01*
X203333633Y-138069200D02*
X203238395Y-137878723D01*
X203238395Y-137878723D02*
X203238395Y-136164438D01*
X204571728Y-138164438D02*
X204381252Y-138069200D01*
X204381252Y-138069200D02*
X204286014Y-137878723D01*
X204286014Y-137878723D02*
X204286014Y-136164438D01*
X206095538Y-138069200D02*
X205905062Y-138164438D01*
X205905062Y-138164438D02*
X205524109Y-138164438D01*
X205524109Y-138164438D02*
X205333633Y-138069200D01*
X205333633Y-138069200D02*
X205238395Y-137878723D01*
X205238395Y-137878723D02*
X205238395Y-137116819D01*
X205238395Y-137116819D02*
X205333633Y-136926342D01*
X205333633Y-136926342D02*
X205524109Y-136831104D01*
X205524109Y-136831104D02*
X205905062Y-136831104D01*
X205905062Y-136831104D02*
X206095538Y-136926342D01*
X206095538Y-136926342D02*
X206190776Y-137116819D01*
X206190776Y-137116819D02*
X206190776Y-137307295D01*
X206190776Y-137307295D02*
X205238395Y-137497771D01*
X207047919Y-138164438D02*
X207047919Y-136831104D01*
X207047919Y-137212057D02*
X207143157Y-137021580D01*
X207143157Y-137021580D02*
X207238395Y-136926342D01*
X207238395Y-136926342D02*
X207428871Y-136831104D01*
X207428871Y-136831104D02*
X207619348Y-136831104D01*
X210952681Y-138164438D02*
X210286014Y-137212057D01*
X209809824Y-138164438D02*
X209809824Y-136164438D01*
X209809824Y-136164438D02*
X210571729Y-136164438D01*
X210571729Y-136164438D02*
X210762205Y-136259676D01*
X210762205Y-136259676D02*
X210857443Y-136354914D01*
X210857443Y-136354914D02*
X210952681Y-136545390D01*
X210952681Y-136545390D02*
X210952681Y-136831104D01*
X210952681Y-136831104D02*
X210857443Y-137021580D01*
X210857443Y-137021580D02*
X210762205Y-137116819D01*
X210762205Y-137116819D02*
X210571729Y-137212057D01*
X210571729Y-137212057D02*
X209809824Y-137212057D01*
X212571729Y-138069200D02*
X212381253Y-138164438D01*
X212381253Y-138164438D02*
X212000300Y-138164438D01*
X212000300Y-138164438D02*
X211809824Y-138069200D01*
X211809824Y-138069200D02*
X211714586Y-137878723D01*
X211714586Y-137878723D02*
X211714586Y-137116819D01*
X211714586Y-137116819D02*
X211809824Y-136926342D01*
X211809824Y-136926342D02*
X212000300Y-136831104D01*
X212000300Y-136831104D02*
X212381253Y-136831104D01*
X212381253Y-136831104D02*
X212571729Y-136926342D01*
X212571729Y-136926342D02*
X212666967Y-137116819D01*
X212666967Y-137116819D02*
X212666967Y-137307295D01*
X212666967Y-137307295D02*
X211714586Y-137497771D01*
X213333634Y-136831104D02*
X213809824Y-138164438D01*
X213809824Y-138164438D02*
X214286015Y-136831104D01*
X214952682Y-136354914D02*
X215047920Y-136259676D01*
X215047920Y-136259676D02*
X215238396Y-136164438D01*
X215238396Y-136164438D02*
X215714587Y-136164438D01*
X215714587Y-136164438D02*
X215905063Y-136259676D01*
X215905063Y-136259676D02*
X216000301Y-136354914D01*
X216000301Y-136354914D02*
X216095539Y-136545390D01*
X216095539Y-136545390D02*
X216095539Y-136735866D01*
X216095539Y-136735866D02*
X216000301Y-137021580D01*
X216000301Y-137021580D02*
X214857444Y-138164438D01*
X214857444Y-138164438D02*
X216095539Y-138164438D01*
D11*
X183520663Y-141982238D02*
X183520663Y-139982238D01*
X183520663Y-140934619D02*
X184663520Y-140934619D01*
X184663520Y-141982238D02*
X184663520Y-139982238D01*
X185615901Y-141982238D02*
X185615901Y-140648904D01*
X185615901Y-139982238D02*
X185520663Y-140077476D01*
X185520663Y-140077476D02*
X185615901Y-140172714D01*
X185615901Y-140172714D02*
X185711139Y-140077476D01*
X185711139Y-140077476D02*
X185615901Y-139982238D01*
X185615901Y-139982238D02*
X185615901Y-140172714D01*
X187425425Y-140648904D02*
X187425425Y-142267952D01*
X187425425Y-142267952D02*
X187330187Y-142458428D01*
X187330187Y-142458428D02*
X187234949Y-142553666D01*
X187234949Y-142553666D02*
X187044472Y-142648904D01*
X187044472Y-142648904D02*
X186758758Y-142648904D01*
X186758758Y-142648904D02*
X186568282Y-142553666D01*
X187425425Y-141887000D02*
X187234949Y-141982238D01*
X187234949Y-141982238D02*
X186853996Y-141982238D01*
X186853996Y-141982238D02*
X186663520Y-141887000D01*
X186663520Y-141887000D02*
X186568282Y-141791761D01*
X186568282Y-141791761D02*
X186473044Y-141601285D01*
X186473044Y-141601285D02*
X186473044Y-141029857D01*
X186473044Y-141029857D02*
X186568282Y-140839380D01*
X186568282Y-140839380D02*
X186663520Y-140744142D01*
X186663520Y-140744142D02*
X186853996Y-140648904D01*
X186853996Y-140648904D02*
X187234949Y-140648904D01*
X187234949Y-140648904D02*
X187425425Y-140744142D01*
X188377806Y-141982238D02*
X188377806Y-139982238D01*
X189234949Y-141982238D02*
X189234949Y-140934619D01*
X189234949Y-140934619D02*
X189139711Y-140744142D01*
X189139711Y-140744142D02*
X188949235Y-140648904D01*
X188949235Y-140648904D02*
X188663520Y-140648904D01*
X188663520Y-140648904D02*
X188473044Y-140744142D01*
X188473044Y-140744142D02*
X188377806Y-140839380D01*
X191615902Y-141887000D02*
X191901616Y-141982238D01*
X191901616Y-141982238D02*
X192377807Y-141982238D01*
X192377807Y-141982238D02*
X192568283Y-141887000D01*
X192568283Y-141887000D02*
X192663521Y-141791761D01*
X192663521Y-141791761D02*
X192758759Y-141601285D01*
X192758759Y-141601285D02*
X192758759Y-141410809D01*
X192758759Y-141410809D02*
X192663521Y-141220333D01*
X192663521Y-141220333D02*
X192568283Y-141125095D01*
X192568283Y-141125095D02*
X192377807Y-141029857D01*
X192377807Y-141029857D02*
X191996854Y-140934619D01*
X191996854Y-140934619D02*
X191806378Y-140839380D01*
X191806378Y-140839380D02*
X191711140Y-140744142D01*
X191711140Y-140744142D02*
X191615902Y-140553666D01*
X191615902Y-140553666D02*
X191615902Y-140363190D01*
X191615902Y-140363190D02*
X191711140Y-140172714D01*
X191711140Y-140172714D02*
X191806378Y-140077476D01*
X191806378Y-140077476D02*
X191996854Y-139982238D01*
X191996854Y-139982238D02*
X192473045Y-139982238D01*
X192473045Y-139982238D02*
X192758759Y-140077476D01*
X194473045Y-141887000D02*
X194282569Y-141982238D01*
X194282569Y-141982238D02*
X193901616Y-141982238D01*
X193901616Y-141982238D02*
X193711140Y-141887000D01*
X193711140Y-141887000D02*
X193615902Y-141791761D01*
X193615902Y-141791761D02*
X193520664Y-141601285D01*
X193520664Y-141601285D02*
X193520664Y-141029857D01*
X193520664Y-141029857D02*
X193615902Y-140839380D01*
X193615902Y-140839380D02*
X193711140Y-140744142D01*
X193711140Y-140744142D02*
X193901616Y-140648904D01*
X193901616Y-140648904D02*
X194282569Y-140648904D01*
X194282569Y-140648904D02*
X194473045Y-140744142D01*
X195615902Y-141982238D02*
X195425426Y-141887000D01*
X195425426Y-141887000D02*
X195330188Y-141791761D01*
X195330188Y-141791761D02*
X195234950Y-141601285D01*
X195234950Y-141601285D02*
X195234950Y-141029857D01*
X195234950Y-141029857D02*
X195330188Y-140839380D01*
X195330188Y-140839380D02*
X195425426Y-140744142D01*
X195425426Y-140744142D02*
X195615902Y-140648904D01*
X195615902Y-140648904D02*
X195901617Y-140648904D01*
X195901617Y-140648904D02*
X196092093Y-140744142D01*
X196092093Y-140744142D02*
X196187331Y-140839380D01*
X196187331Y-140839380D02*
X196282569Y-141029857D01*
X196282569Y-141029857D02*
X196282569Y-141601285D01*
X196282569Y-141601285D02*
X196187331Y-141791761D01*
X196187331Y-141791761D02*
X196092093Y-141887000D01*
X196092093Y-141887000D02*
X195901617Y-141982238D01*
X195901617Y-141982238D02*
X195615902Y-141982238D01*
X197139712Y-141982238D02*
X197139712Y-140648904D01*
X197139712Y-141029857D02*
X197234950Y-140839380D01*
X197234950Y-140839380D02*
X197330188Y-140744142D01*
X197330188Y-140744142D02*
X197520664Y-140648904D01*
X197520664Y-140648904D02*
X197711141Y-140648904D01*
X199139712Y-141887000D02*
X198949236Y-141982238D01*
X198949236Y-141982238D02*
X198568283Y-141982238D01*
X198568283Y-141982238D02*
X198377807Y-141887000D01*
X198377807Y-141887000D02*
X198282569Y-141696523D01*
X198282569Y-141696523D02*
X198282569Y-140934619D01*
X198282569Y-140934619D02*
X198377807Y-140744142D01*
X198377807Y-140744142D02*
X198568283Y-140648904D01*
X198568283Y-140648904D02*
X198949236Y-140648904D01*
X198949236Y-140648904D02*
X199139712Y-140744142D01*
X199139712Y-140744142D02*
X199234950Y-140934619D01*
X199234950Y-140934619D02*
X199234950Y-141125095D01*
X199234950Y-141125095D02*
X198282569Y-141315571D01*
X200092093Y-141982238D02*
X200092093Y-140648904D01*
X200092093Y-141029857D02*
X200187331Y-140839380D01*
X200187331Y-140839380D02*
X200282569Y-140744142D01*
X200282569Y-140744142D02*
X200473045Y-140648904D01*
X200473045Y-140648904D02*
X200663522Y-140648904D01*
X201234950Y-141887000D02*
X201425426Y-141982238D01*
X201425426Y-141982238D02*
X201806378Y-141982238D01*
X201806378Y-141982238D02*
X201996855Y-141887000D01*
X201996855Y-141887000D02*
X202092093Y-141696523D01*
X202092093Y-141696523D02*
X202092093Y-141601285D01*
X202092093Y-141601285D02*
X201996855Y-141410809D01*
X201996855Y-141410809D02*
X201806378Y-141315571D01*
X201806378Y-141315571D02*
X201520664Y-141315571D01*
X201520664Y-141315571D02*
X201330188Y-141220333D01*
X201330188Y-141220333D02*
X201234950Y-141029857D01*
X201234950Y-141029857D02*
X201234950Y-140934619D01*
X201234950Y-140934619D02*
X201330188Y-140744142D01*
X201330188Y-140744142D02*
X201520664Y-140648904D01*
X201520664Y-140648904D02*
X201806378Y-140648904D01*
X201806378Y-140648904D02*
X201996855Y-140744142D01*
X204377808Y-140172714D02*
X204473046Y-140077476D01*
X204473046Y-140077476D02*
X204663522Y-139982238D01*
X204663522Y-139982238D02*
X205139713Y-139982238D01*
X205139713Y-139982238D02*
X205330189Y-140077476D01*
X205330189Y-140077476D02*
X205425427Y-140172714D01*
X205425427Y-140172714D02*
X205520665Y-140363190D01*
X205520665Y-140363190D02*
X205520665Y-140553666D01*
X205520665Y-140553666D02*
X205425427Y-140839380D01*
X205425427Y-140839380D02*
X204282570Y-141982238D01*
X204282570Y-141982238D02*
X205520665Y-141982238D01*
X206758760Y-139982238D02*
X206949237Y-139982238D01*
X206949237Y-139982238D02*
X207139713Y-140077476D01*
X207139713Y-140077476D02*
X207234951Y-140172714D01*
X207234951Y-140172714D02*
X207330189Y-140363190D01*
X207330189Y-140363190D02*
X207425427Y-140744142D01*
X207425427Y-140744142D02*
X207425427Y-141220333D01*
X207425427Y-141220333D02*
X207330189Y-141601285D01*
X207330189Y-141601285D02*
X207234951Y-141791761D01*
X207234951Y-141791761D02*
X207139713Y-141887000D01*
X207139713Y-141887000D02*
X206949237Y-141982238D01*
X206949237Y-141982238D02*
X206758760Y-141982238D01*
X206758760Y-141982238D02*
X206568284Y-141887000D01*
X206568284Y-141887000D02*
X206473046Y-141791761D01*
X206473046Y-141791761D02*
X206377808Y-141601285D01*
X206377808Y-141601285D02*
X206282570Y-141220333D01*
X206282570Y-141220333D02*
X206282570Y-140744142D01*
X206282570Y-140744142D02*
X206377808Y-140363190D01*
X206377808Y-140363190D02*
X206473046Y-140172714D01*
X206473046Y-140172714D02*
X206568284Y-140077476D01*
X206568284Y-140077476D02*
X206758760Y-139982238D01*
X208187332Y-140172714D02*
X208282570Y-140077476D01*
X208282570Y-140077476D02*
X208473046Y-139982238D01*
X208473046Y-139982238D02*
X208949237Y-139982238D01*
X208949237Y-139982238D02*
X209139713Y-140077476D01*
X209139713Y-140077476D02*
X209234951Y-140172714D01*
X209234951Y-140172714D02*
X209330189Y-140363190D01*
X209330189Y-140363190D02*
X209330189Y-140553666D01*
X209330189Y-140553666D02*
X209234951Y-140839380D01*
X209234951Y-140839380D02*
X208092094Y-141982238D01*
X208092094Y-141982238D02*
X209330189Y-141982238D01*
X211044475Y-139982238D02*
X210663522Y-139982238D01*
X210663522Y-139982238D02*
X210473046Y-140077476D01*
X210473046Y-140077476D02*
X210377808Y-140172714D01*
X210377808Y-140172714D02*
X210187332Y-140458428D01*
X210187332Y-140458428D02*
X210092094Y-140839380D01*
X210092094Y-140839380D02*
X210092094Y-141601285D01*
X210092094Y-141601285D02*
X210187332Y-141791761D01*
X210187332Y-141791761D02*
X210282570Y-141887000D01*
X210282570Y-141887000D02*
X210473046Y-141982238D01*
X210473046Y-141982238D02*
X210853999Y-141982238D01*
X210853999Y-141982238D02*
X211044475Y-141887000D01*
X211044475Y-141887000D02*
X211139713Y-141791761D01*
X211139713Y-141791761D02*
X211234951Y-141601285D01*
X211234951Y-141601285D02*
X211234951Y-141125095D01*
X211234951Y-141125095D02*
X211139713Y-140934619D01*
X211139713Y-140934619D02*
X211044475Y-140839380D01*
X211044475Y-140839380D02*
X210853999Y-140744142D01*
X210853999Y-140744142D02*
X210473046Y-140744142D01*
X210473046Y-140744142D02*
X210282570Y-140839380D01*
X210282570Y-140839380D02*
X210187332Y-140934619D01*
X210187332Y-140934619D02*
X210092094Y-141125095D01*
D12*
X183183884Y-144652419D02*
X183183884Y-143652419D01*
X183183884Y-143652419D02*
X183564836Y-143652419D01*
X183564836Y-143652419D02*
X183660074Y-143700038D01*
X183660074Y-143700038D02*
X183707693Y-143747657D01*
X183707693Y-143747657D02*
X183755312Y-143842895D01*
X183755312Y-143842895D02*
X183755312Y-143985752D01*
X183755312Y-143985752D02*
X183707693Y-144080990D01*
X183707693Y-144080990D02*
X183660074Y-144128609D01*
X183660074Y-144128609D02*
X183564836Y-144176228D01*
X183564836Y-144176228D02*
X183183884Y-144176228D01*
X184755312Y-144557180D02*
X184707693Y-144604800D01*
X184707693Y-144604800D02*
X184564836Y-144652419D01*
X184564836Y-144652419D02*
X184469598Y-144652419D01*
X184469598Y-144652419D02*
X184326741Y-144604800D01*
X184326741Y-144604800D02*
X184231503Y-144509561D01*
X184231503Y-144509561D02*
X184183884Y-144414323D01*
X184183884Y-144414323D02*
X184136265Y-144223847D01*
X184136265Y-144223847D02*
X184136265Y-144080990D01*
X184136265Y-144080990D02*
X184183884Y-143890514D01*
X184183884Y-143890514D02*
X184231503Y-143795276D01*
X184231503Y-143795276D02*
X184326741Y-143700038D01*
X184326741Y-143700038D02*
X184469598Y-143652419D01*
X184469598Y-143652419D02*
X184564836Y-143652419D01*
X184564836Y-143652419D02*
X184707693Y-143700038D01*
X184707693Y-143700038D02*
X184755312Y-143747657D01*
X185517217Y-144128609D02*
X185660074Y-144176228D01*
X185660074Y-144176228D02*
X185707693Y-144223847D01*
X185707693Y-144223847D02*
X185755312Y-144319085D01*
X185755312Y-144319085D02*
X185755312Y-144461942D01*
X185755312Y-144461942D02*
X185707693Y-144557180D01*
X185707693Y-144557180D02*
X185660074Y-144604800D01*
X185660074Y-144604800D02*
X185564836Y-144652419D01*
X185564836Y-144652419D02*
X185183884Y-144652419D01*
X185183884Y-144652419D02*
X185183884Y-143652419D01*
X185183884Y-143652419D02*
X185517217Y-143652419D01*
X185517217Y-143652419D02*
X185612455Y-143700038D01*
X185612455Y-143700038D02*
X185660074Y-143747657D01*
X185660074Y-143747657D02*
X185707693Y-143842895D01*
X185707693Y-143842895D02*
X185707693Y-143938133D01*
X185707693Y-143938133D02*
X185660074Y-144033371D01*
X185660074Y-144033371D02*
X185612455Y-144080990D01*
X185612455Y-144080990D02*
X185517217Y-144128609D01*
X185517217Y-144128609D02*
X185183884Y-144128609D01*
X187374360Y-144652419D02*
X187374360Y-143652419D01*
X187374360Y-144604800D02*
X187279122Y-144652419D01*
X187279122Y-144652419D02*
X187088646Y-144652419D01*
X187088646Y-144652419D02*
X186993408Y-144604800D01*
X186993408Y-144604800D02*
X186945789Y-144557180D01*
X186945789Y-144557180D02*
X186898170Y-144461942D01*
X186898170Y-144461942D02*
X186898170Y-144176228D01*
X186898170Y-144176228D02*
X186945789Y-144080990D01*
X186945789Y-144080990D02*
X186993408Y-144033371D01*
X186993408Y-144033371D02*
X187088646Y-143985752D01*
X187088646Y-143985752D02*
X187279122Y-143985752D01*
X187279122Y-143985752D02*
X187374360Y-144033371D01*
X188231503Y-144604800D02*
X188136265Y-144652419D01*
X188136265Y-144652419D02*
X187945789Y-144652419D01*
X187945789Y-144652419D02*
X187850551Y-144604800D01*
X187850551Y-144604800D02*
X187802932Y-144509561D01*
X187802932Y-144509561D02*
X187802932Y-144128609D01*
X187802932Y-144128609D02*
X187850551Y-144033371D01*
X187850551Y-144033371D02*
X187945789Y-143985752D01*
X187945789Y-143985752D02*
X188136265Y-143985752D01*
X188136265Y-143985752D02*
X188231503Y-144033371D01*
X188231503Y-144033371D02*
X188279122Y-144128609D01*
X188279122Y-144128609D02*
X188279122Y-144223847D01*
X188279122Y-144223847D02*
X187802932Y-144319085D01*
X188660075Y-144604800D02*
X188755313Y-144652419D01*
X188755313Y-144652419D02*
X188945789Y-144652419D01*
X188945789Y-144652419D02*
X189041027Y-144604800D01*
X189041027Y-144604800D02*
X189088646Y-144509561D01*
X189088646Y-144509561D02*
X189088646Y-144461942D01*
X189088646Y-144461942D02*
X189041027Y-144366704D01*
X189041027Y-144366704D02*
X188945789Y-144319085D01*
X188945789Y-144319085D02*
X188802932Y-144319085D01*
X188802932Y-144319085D02*
X188707694Y-144271466D01*
X188707694Y-144271466D02*
X188660075Y-144176228D01*
X188660075Y-144176228D02*
X188660075Y-144128609D01*
X188660075Y-144128609D02*
X188707694Y-144033371D01*
X188707694Y-144033371D02*
X188802932Y-143985752D01*
X188802932Y-143985752D02*
X188945789Y-143985752D01*
X188945789Y-143985752D02*
X189041027Y-144033371D01*
X189517218Y-144652419D02*
X189517218Y-143985752D01*
X189517218Y-143652419D02*
X189469599Y-143700038D01*
X189469599Y-143700038D02*
X189517218Y-143747657D01*
X189517218Y-143747657D02*
X189564837Y-143700038D01*
X189564837Y-143700038D02*
X189517218Y-143652419D01*
X189517218Y-143652419D02*
X189517218Y-143747657D01*
X190421979Y-143985752D02*
X190421979Y-144795276D01*
X190421979Y-144795276D02*
X190374360Y-144890514D01*
X190374360Y-144890514D02*
X190326741Y-144938133D01*
X190326741Y-144938133D02*
X190231503Y-144985752D01*
X190231503Y-144985752D02*
X190088646Y-144985752D01*
X190088646Y-144985752D02*
X189993408Y-144938133D01*
X190421979Y-144604800D02*
X190326741Y-144652419D01*
X190326741Y-144652419D02*
X190136265Y-144652419D01*
X190136265Y-144652419D02*
X190041027Y-144604800D01*
X190041027Y-144604800D02*
X189993408Y-144557180D01*
X189993408Y-144557180D02*
X189945789Y-144461942D01*
X189945789Y-144461942D02*
X189945789Y-144176228D01*
X189945789Y-144176228D02*
X189993408Y-144080990D01*
X189993408Y-144080990D02*
X190041027Y-144033371D01*
X190041027Y-144033371D02*
X190136265Y-143985752D01*
X190136265Y-143985752D02*
X190326741Y-143985752D01*
X190326741Y-143985752D02*
X190421979Y-144033371D01*
X190898170Y-143985752D02*
X190898170Y-144652419D01*
X190898170Y-144080990D02*
X190945789Y-144033371D01*
X190945789Y-144033371D02*
X191041027Y-143985752D01*
X191041027Y-143985752D02*
X191183884Y-143985752D01*
X191183884Y-143985752D02*
X191279122Y-144033371D01*
X191279122Y-144033371D02*
X191326741Y-144128609D01*
X191326741Y-144128609D02*
X191326741Y-144652419D01*
X192564837Y-144652419D02*
X192564837Y-143652419D01*
X192564837Y-144033371D02*
X192660075Y-143985752D01*
X192660075Y-143985752D02*
X192850551Y-143985752D01*
X192850551Y-143985752D02*
X192945789Y-144033371D01*
X192945789Y-144033371D02*
X192993408Y-144080990D01*
X192993408Y-144080990D02*
X193041027Y-144176228D01*
X193041027Y-144176228D02*
X193041027Y-144461942D01*
X193041027Y-144461942D02*
X192993408Y-144557180D01*
X192993408Y-144557180D02*
X192945789Y-144604800D01*
X192945789Y-144604800D02*
X192850551Y-144652419D01*
X192850551Y-144652419D02*
X192660075Y-144652419D01*
X192660075Y-144652419D02*
X192564837Y-144604800D01*
X193374361Y-143985752D02*
X193612456Y-144652419D01*
X193850551Y-143985752D02*
X193612456Y-144652419D01*
X193612456Y-144652419D02*
X193517218Y-144890514D01*
X193517218Y-144890514D02*
X193469599Y-144938133D01*
X193469599Y-144938133D02*
X193374361Y-144985752D01*
X194993409Y-144652419D02*
X194993409Y-143652419D01*
X194993409Y-144128609D02*
X195564837Y-144128609D01*
X195564837Y-144652419D02*
X195564837Y-143652419D01*
X196469599Y-144652419D02*
X196469599Y-144128609D01*
X196469599Y-144128609D02*
X196421980Y-144033371D01*
X196421980Y-144033371D02*
X196326742Y-143985752D01*
X196326742Y-143985752D02*
X196136266Y-143985752D01*
X196136266Y-143985752D02*
X196041028Y-144033371D01*
X196469599Y-144604800D02*
X196374361Y-144652419D01*
X196374361Y-144652419D02*
X196136266Y-144652419D01*
X196136266Y-144652419D02*
X196041028Y-144604800D01*
X196041028Y-144604800D02*
X195993409Y-144509561D01*
X195993409Y-144509561D02*
X195993409Y-144414323D01*
X195993409Y-144414323D02*
X196041028Y-144319085D01*
X196041028Y-144319085D02*
X196136266Y-144271466D01*
X196136266Y-144271466D02*
X196374361Y-144271466D01*
X196374361Y-144271466D02*
X196469599Y-144223847D01*
X196945790Y-144652419D02*
X196945790Y-143985752D01*
X196945790Y-144080990D02*
X196993409Y-144033371D01*
X196993409Y-144033371D02*
X197088647Y-143985752D01*
X197088647Y-143985752D02*
X197231504Y-143985752D01*
X197231504Y-143985752D02*
X197326742Y-144033371D01*
X197326742Y-144033371D02*
X197374361Y-144128609D01*
X197374361Y-144128609D02*
X197374361Y-144652419D01*
X197374361Y-144128609D02*
X197421980Y-144033371D01*
X197421980Y-144033371D02*
X197517218Y-143985752D01*
X197517218Y-143985752D02*
X197660075Y-143985752D01*
X197660075Y-143985752D02*
X197755314Y-144033371D01*
X197755314Y-144033371D02*
X197802933Y-144128609D01*
X197802933Y-144128609D02*
X197802933Y-144652419D01*
X198183885Y-143985752D02*
X198707694Y-143985752D01*
X198707694Y-143985752D02*
X198183885Y-144652419D01*
X198183885Y-144652419D02*
X198707694Y-144652419D01*
X199517218Y-144652419D02*
X199517218Y-144128609D01*
X199517218Y-144128609D02*
X199469599Y-144033371D01*
X199469599Y-144033371D02*
X199374361Y-143985752D01*
X199374361Y-143985752D02*
X199183885Y-143985752D01*
X199183885Y-143985752D02*
X199088647Y-144033371D01*
X199517218Y-144604800D02*
X199421980Y-144652419D01*
X199421980Y-144652419D02*
X199183885Y-144652419D01*
X199183885Y-144652419D02*
X199088647Y-144604800D01*
X199088647Y-144604800D02*
X199041028Y-144509561D01*
X199041028Y-144509561D02*
X199041028Y-144414323D01*
X199041028Y-144414323D02*
X199088647Y-144319085D01*
X199088647Y-144319085D02*
X199183885Y-144271466D01*
X199183885Y-144271466D02*
X199421980Y-144271466D01*
X199421980Y-144271466D02*
X199517218Y-144223847D01*
X199993409Y-144652419D02*
X199993409Y-143652419D01*
X200421980Y-144652419D02*
X200421980Y-144128609D01*
X200421980Y-144128609D02*
X200374361Y-144033371D01*
X200374361Y-144033371D02*
X200279123Y-143985752D01*
X200279123Y-143985752D02*
X200136266Y-143985752D01*
X200136266Y-143985752D02*
X200041028Y-144033371D01*
X200041028Y-144033371D02*
X199993409Y-144080990D01*
X201612457Y-144366704D02*
X202088647Y-144366704D01*
X201517219Y-144652419D02*
X201850552Y-143652419D01*
X201850552Y-143652419D02*
X202183885Y-144652419D01*
X202517219Y-144652419D02*
X202517219Y-143652419D01*
X202945790Y-144652419D02*
X202945790Y-144128609D01*
X202945790Y-144128609D02*
X202898171Y-144033371D01*
X202898171Y-144033371D02*
X202802933Y-143985752D01*
X202802933Y-143985752D02*
X202660076Y-143985752D01*
X202660076Y-143985752D02*
X202564838Y-144033371D01*
X202564838Y-144033371D02*
X202517219Y-144080990D01*
X203421981Y-144652419D02*
X203421981Y-143985752D01*
X203421981Y-144080990D02*
X203469600Y-144033371D01*
X203469600Y-144033371D02*
X203564838Y-143985752D01*
X203564838Y-143985752D02*
X203707695Y-143985752D01*
X203707695Y-143985752D02*
X203802933Y-144033371D01*
X203802933Y-144033371D02*
X203850552Y-144128609D01*
X203850552Y-144128609D02*
X203850552Y-144652419D01*
X203850552Y-144128609D02*
X203898171Y-144033371D01*
X203898171Y-144033371D02*
X203993409Y-143985752D01*
X203993409Y-143985752D02*
X204136266Y-143985752D01*
X204136266Y-143985752D02*
X204231505Y-144033371D01*
X204231505Y-144033371D02*
X204279124Y-144128609D01*
X204279124Y-144128609D02*
X204279124Y-144652419D01*
X205136266Y-144604800D02*
X205041028Y-144652419D01*
X205041028Y-144652419D02*
X204850552Y-144652419D01*
X204850552Y-144652419D02*
X204755314Y-144604800D01*
X204755314Y-144604800D02*
X204707695Y-144509561D01*
X204707695Y-144509561D02*
X204707695Y-144128609D01*
X204707695Y-144128609D02*
X204755314Y-144033371D01*
X204755314Y-144033371D02*
X204850552Y-143985752D01*
X204850552Y-143985752D02*
X205041028Y-143985752D01*
X205041028Y-143985752D02*
X205136266Y-144033371D01*
X205136266Y-144033371D02*
X205183885Y-144128609D01*
X205183885Y-144128609D02*
X205183885Y-144223847D01*
X205183885Y-144223847D02*
X204707695Y-144319085D01*
X206041028Y-144652419D02*
X206041028Y-143652419D01*
X206041028Y-144604800D02*
X205945790Y-144652419D01*
X205945790Y-144652419D02*
X205755314Y-144652419D01*
X205755314Y-144652419D02*
X205660076Y-144604800D01*
X205660076Y-144604800D02*
X205612457Y-144557180D01*
X205612457Y-144557180D02*
X205564838Y-144461942D01*
X205564838Y-144461942D02*
X205564838Y-144176228D01*
X205564838Y-144176228D02*
X205612457Y-144080990D01*
X205612457Y-144080990D02*
X205660076Y-144033371D01*
X205660076Y-144033371D02*
X205755314Y-143985752D01*
X205755314Y-143985752D02*
X205945790Y-143985752D01*
X205945790Y-143985752D02*
X206041028Y-144033371D01*
D13*
X108666666Y-146304819D02*
X108333333Y-145828628D01*
X108095238Y-146304819D02*
X108095238Y-145304819D01*
X108095238Y-145304819D02*
X108476190Y-145304819D01*
X108476190Y-145304819D02*
X108571428Y-145352438D01*
X108571428Y-145352438D02*
X108619047Y-145400057D01*
X108619047Y-145400057D02*
X108666666Y-145495295D01*
X108666666Y-145495295D02*
X108666666Y-145638152D01*
X108666666Y-145638152D02*
X108619047Y-145733390D01*
X108619047Y-145733390D02*
X108571428Y-145781009D01*
X108571428Y-145781009D02*
X108476190Y-145828628D01*
X108476190Y-145828628D02*
X108095238Y-145828628D01*
X109095238Y-145781009D02*
X109428571Y-145781009D01*
X109571428Y-146304819D02*
X109095238Y-146304819D01*
X109095238Y-146304819D02*
X109095238Y-145304819D01*
X109095238Y-145304819D02*
X109571428Y-145304819D01*
X110333333Y-145781009D02*
X110000000Y-145781009D01*
X110000000Y-146304819D02*
X110000000Y-145304819D01*
X110000000Y-145304819D02*
X110476190Y-145304819D01*
X111000000Y-145304819D02*
X111000000Y-145542914D01*
X110761905Y-145447676D02*
X111000000Y-145542914D01*
X111000000Y-145542914D02*
X111238095Y-145447676D01*
X110857143Y-145733390D02*
X111000000Y-145542914D01*
X111000000Y-145542914D02*
X111142857Y-145733390D01*
X111761905Y-145304819D02*
X111761905Y-145542914D01*
X111523810Y-145447676D02*
X111761905Y-145542914D01*
X111761905Y-145542914D02*
X112000000Y-145447676D01*
X111619048Y-145733390D02*
X111761905Y-145542914D01*
X111761905Y-145542914D02*
X111904762Y-145733390D01*
X108666666Y-31304819D02*
X108333333Y-30828628D01*
X108095238Y-31304819D02*
X108095238Y-30304819D01*
X108095238Y-30304819D02*
X108476190Y-30304819D01*
X108476190Y-30304819D02*
X108571428Y-30352438D01*
X108571428Y-30352438D02*
X108619047Y-30400057D01*
X108619047Y-30400057D02*
X108666666Y-30495295D01*
X108666666Y-30495295D02*
X108666666Y-30638152D01*
X108666666Y-30638152D02*
X108619047Y-30733390D01*
X108619047Y-30733390D02*
X108571428Y-30781009D01*
X108571428Y-30781009D02*
X108476190Y-30828628D01*
X108476190Y-30828628D02*
X108095238Y-30828628D01*
X109095238Y-30781009D02*
X109428571Y-30781009D01*
X109571428Y-31304819D02*
X109095238Y-31304819D01*
X109095238Y-31304819D02*
X109095238Y-30304819D01*
X109095238Y-30304819D02*
X109571428Y-30304819D01*
X110333333Y-30781009D02*
X110000000Y-30781009D01*
X110000000Y-31304819D02*
X110000000Y-30304819D01*
X110000000Y-30304819D02*
X110476190Y-30304819D01*
X111000000Y-30304819D02*
X111000000Y-30542914D01*
X110761905Y-30447676D02*
X111000000Y-30542914D01*
X111000000Y-30542914D02*
X111238095Y-30447676D01*
X110857143Y-30733390D02*
X111000000Y-30542914D01*
X111000000Y-30542914D02*
X111142857Y-30733390D01*
X111761905Y-30304819D02*
X111761905Y-30542914D01*
X111523810Y-30447676D02*
X111761905Y-30542914D01*
X111761905Y-30542914D02*
X112000000Y-30447676D01*
X111619048Y-30733390D02*
X111761905Y-30542914D01*
X111761905Y-30542914D02*
X111904762Y-30733390D01*
X213666666Y-31304819D02*
X213333333Y-30828628D01*
X213095238Y-31304819D02*
X213095238Y-30304819D01*
X213095238Y-30304819D02*
X213476190Y-30304819D01*
X213476190Y-30304819D02*
X213571428Y-30352438D01*
X213571428Y-30352438D02*
X213619047Y-30400057D01*
X213619047Y-30400057D02*
X213666666Y-30495295D01*
X213666666Y-30495295D02*
X213666666Y-30638152D01*
X213666666Y-30638152D02*
X213619047Y-30733390D01*
X213619047Y-30733390D02*
X213571428Y-30781009D01*
X213571428Y-30781009D02*
X213476190Y-30828628D01*
X213476190Y-30828628D02*
X213095238Y-30828628D01*
X214095238Y-30781009D02*
X214428571Y-30781009D01*
X214571428Y-31304819D02*
X214095238Y-31304819D01*
X214095238Y-31304819D02*
X214095238Y-30304819D01*
X214095238Y-30304819D02*
X214571428Y-30304819D01*
X215333333Y-30781009D02*
X215000000Y-30781009D01*
X215000000Y-31304819D02*
X215000000Y-30304819D01*
X215000000Y-30304819D02*
X215476190Y-30304819D01*
X216000000Y-30304819D02*
X216000000Y-30542914D01*
X215761905Y-30447676D02*
X216000000Y-30542914D01*
X216000000Y-30542914D02*
X216238095Y-30447676D01*
X215857143Y-30733390D02*
X216000000Y-30542914D01*
X216000000Y-30542914D02*
X216142857Y-30733390D01*
X216761905Y-30304819D02*
X216761905Y-30542914D01*
X216523810Y-30447676D02*
X216761905Y-30542914D01*
X216761905Y-30542914D02*
X217000000Y-30447676D01*
X216619048Y-30733390D02*
X216761905Y-30542914D01*
X216761905Y-30542914D02*
X216904762Y-30733390D01*
X213666666Y-146304819D02*
X213333333Y-145828628D01*
X213095238Y-146304819D02*
X213095238Y-145304819D01*
X213095238Y-145304819D02*
X213476190Y-145304819D01*
X213476190Y-145304819D02*
X213571428Y-145352438D01*
X213571428Y-145352438D02*
X213619047Y-145400057D01*
X213619047Y-145400057D02*
X213666666Y-145495295D01*
X213666666Y-145495295D02*
X213666666Y-145638152D01*
X213666666Y-145638152D02*
X213619047Y-145733390D01*
X213619047Y-145733390D02*
X213571428Y-145781009D01*
X213571428Y-145781009D02*
X213476190Y-145828628D01*
X213476190Y-145828628D02*
X213095238Y-145828628D01*
X214095238Y-145781009D02*
X214428571Y-145781009D01*
X214571428Y-146304819D02*
X214095238Y-146304819D01*
X214095238Y-146304819D02*
X214095238Y-145304819D01*
X214095238Y-145304819D02*
X214571428Y-145304819D01*
X215333333Y-145781009D02*
X215000000Y-145781009D01*
X215000000Y-146304819D02*
X215000000Y-145304819D01*
X215000000Y-145304819D02*
X215476190Y-145304819D01*
X216000000Y-145304819D02*
X216000000Y-145542914D01*
X215761905Y-145447676D02*
X216000000Y-145542914D01*
X216000000Y-145542914D02*
X216238095Y-145447676D01*
X215857143Y-145733390D02*
X216000000Y-145542914D01*
X216000000Y-145542914D02*
X216142857Y-145733390D01*
X216761905Y-145304819D02*
X216761905Y-145542914D01*
X216523810Y-145447676D02*
X216761905Y-145542914D01*
X216761905Y-145542914D02*
X217000000Y-145447676D01*
X216619048Y-145733390D02*
X216761905Y-145542914D01*
X216761905Y-145542914D02*
X216904762Y-145733390D01*
X174596660Y-92621604D02*
X175072850Y-92621604D01*
X174501422Y-92907319D02*
X174834755Y-91907319D01*
X174834755Y-91907319D02*
X175168088Y-92907319D01*
X176025231Y-92907319D02*
X175453803Y-92907319D01*
X175739517Y-92907319D02*
X175739517Y-91907319D01*
X175739517Y-91907319D02*
X175644279Y-92050176D01*
X175644279Y-92050176D02*
X175549041Y-92145414D01*
X175549041Y-92145414D02*
X175453803Y-92193033D01*
X110679580Y-127956666D02*
X110727200Y-128004285D01*
X110727200Y-128004285D02*
X110774819Y-128147142D01*
X110774819Y-128147142D02*
X110774819Y-128242380D01*
X110774819Y-128242380D02*
X110727200Y-128385237D01*
X110727200Y-128385237D02*
X110631961Y-128480475D01*
X110631961Y-128480475D02*
X110536723Y-128528094D01*
X110536723Y-128528094D02*
X110346247Y-128575713D01*
X110346247Y-128575713D02*
X110203390Y-128575713D01*
X110203390Y-128575713D02*
X110012914Y-128528094D01*
X110012914Y-128528094D02*
X109917676Y-128480475D01*
X109917676Y-128480475D02*
X109822438Y-128385237D01*
X109822438Y-128385237D02*
X109774819Y-128242380D01*
X109774819Y-128242380D02*
X109774819Y-128147142D01*
X109774819Y-128147142D02*
X109822438Y-128004285D01*
X109822438Y-128004285D02*
X109870057Y-127956666D01*
X110774819Y-127004285D02*
X110774819Y-127575713D01*
X110774819Y-127289999D02*
X109774819Y-127289999D01*
X109774819Y-127289999D02*
X109917676Y-127385237D01*
X109917676Y-127385237D02*
X110012914Y-127480475D01*
X110012914Y-127480475D02*
X110060533Y-127575713D01*
X113700476Y-145544819D02*
X113700476Y-146259104D01*
X113700476Y-146259104D02*
X113652857Y-146401961D01*
X113652857Y-146401961D02*
X113557619Y-146497200D01*
X113557619Y-146497200D02*
X113414762Y-146544819D01*
X113414762Y-146544819D02*
X113319524Y-146544819D01*
X114700476Y-146544819D02*
X114129048Y-146544819D01*
X114414762Y-146544819D02*
X114414762Y-145544819D01*
X114414762Y-145544819D02*
X114319524Y-145687676D01*
X114319524Y-145687676D02*
X114224286Y-145782914D01*
X114224286Y-145782914D02*
X114129048Y-145830533D01*
X115081429Y-145640057D02*
X115129048Y-145592438D01*
X115129048Y-145592438D02*
X115224286Y-145544819D01*
X115224286Y-145544819D02*
X115462381Y-145544819D01*
X115462381Y-145544819D02*
X115557619Y-145592438D01*
X115557619Y-145592438D02*
X115605238Y-145640057D01*
X115605238Y-145640057D02*
X115652857Y-145735295D01*
X115652857Y-145735295D02*
X115652857Y-145830533D01*
X115652857Y-145830533D02*
X115605238Y-145973390D01*
X115605238Y-145973390D02*
X115033810Y-146544819D01*
X115033810Y-146544819D02*
X115652857Y-146544819D01*
X182546666Y-64384819D02*
X182546666Y-65099104D01*
X182546666Y-65099104D02*
X182499047Y-65241961D01*
X182499047Y-65241961D02*
X182403809Y-65337200D01*
X182403809Y-65337200D02*
X182260952Y-65384819D01*
X182260952Y-65384819D02*
X182165714Y-65384819D01*
X182927619Y-64384819D02*
X183594285Y-64384819D01*
X183594285Y-64384819D02*
X183165714Y-65384819D01*
X121494819Y-121203333D02*
X122209104Y-121203333D01*
X122209104Y-121203333D02*
X122351961Y-121250952D01*
X122351961Y-121250952D02*
X122447200Y-121346190D01*
X122447200Y-121346190D02*
X122494819Y-121489047D01*
X122494819Y-121489047D02*
X122494819Y-121584285D01*
X121494819Y-120298571D02*
X121494819Y-120489047D01*
X121494819Y-120489047D02*
X121542438Y-120584285D01*
X121542438Y-120584285D02*
X121590057Y-120631904D01*
X121590057Y-120631904D02*
X121732914Y-120727142D01*
X121732914Y-120727142D02*
X121923390Y-120774761D01*
X121923390Y-120774761D02*
X122304342Y-120774761D01*
X122304342Y-120774761D02*
X122399580Y-120727142D01*
X122399580Y-120727142D02*
X122447200Y-120679523D01*
X122447200Y-120679523D02*
X122494819Y-120584285D01*
X122494819Y-120584285D02*
X122494819Y-120393809D01*
X122494819Y-120393809D02*
X122447200Y-120298571D01*
X122447200Y-120298571D02*
X122399580Y-120250952D01*
X122399580Y-120250952D02*
X122304342Y-120203333D01*
X122304342Y-120203333D02*
X122066247Y-120203333D01*
X122066247Y-120203333D02*
X121971009Y-120250952D01*
X121971009Y-120250952D02*
X121923390Y-120298571D01*
X121923390Y-120298571D02*
X121875771Y-120393809D01*
X121875771Y-120393809D02*
X121875771Y-120584285D01*
X121875771Y-120584285D02*
X121923390Y-120679523D01*
X121923390Y-120679523D02*
X121971009Y-120727142D01*
X121971009Y-120727142D02*
X122066247Y-120774761D01*
X145883333Y-77419580D02*
X145835714Y-77467200D01*
X145835714Y-77467200D02*
X145692857Y-77514819D01*
X145692857Y-77514819D02*
X145597619Y-77514819D01*
X145597619Y-77514819D02*
X145454762Y-77467200D01*
X145454762Y-77467200D02*
X145359524Y-77371961D01*
X145359524Y-77371961D02*
X145311905Y-77276723D01*
X145311905Y-77276723D02*
X145264286Y-77086247D01*
X145264286Y-77086247D02*
X145264286Y-76943390D01*
X145264286Y-76943390D02*
X145311905Y-76752914D01*
X145311905Y-76752914D02*
X145359524Y-76657676D01*
X145359524Y-76657676D02*
X145454762Y-76562438D01*
X145454762Y-76562438D02*
X145597619Y-76514819D01*
X145597619Y-76514819D02*
X145692857Y-76514819D01*
X145692857Y-76514819D02*
X145835714Y-76562438D01*
X145835714Y-76562438D02*
X145883333Y-76610057D01*
X146264286Y-76610057D02*
X146311905Y-76562438D01*
X146311905Y-76562438D02*
X146407143Y-76514819D01*
X146407143Y-76514819D02*
X146645238Y-76514819D01*
X146645238Y-76514819D02*
X146740476Y-76562438D01*
X146740476Y-76562438D02*
X146788095Y-76610057D01*
X146788095Y-76610057D02*
X146835714Y-76705295D01*
X146835714Y-76705295D02*
X146835714Y-76800533D01*
X146835714Y-76800533D02*
X146788095Y-76943390D01*
X146788095Y-76943390D02*
X146216667Y-77514819D01*
X146216667Y-77514819D02*
X146835714Y-77514819D01*
X145883333Y-41409580D02*
X145835714Y-41457200D01*
X145835714Y-41457200D02*
X145692857Y-41504819D01*
X145692857Y-41504819D02*
X145597619Y-41504819D01*
X145597619Y-41504819D02*
X145454762Y-41457200D01*
X145454762Y-41457200D02*
X145359524Y-41361961D01*
X145359524Y-41361961D02*
X145311905Y-41266723D01*
X145311905Y-41266723D02*
X145264286Y-41076247D01*
X145264286Y-41076247D02*
X145264286Y-40933390D01*
X145264286Y-40933390D02*
X145311905Y-40742914D01*
X145311905Y-40742914D02*
X145359524Y-40647676D01*
X145359524Y-40647676D02*
X145454762Y-40552438D01*
X145454762Y-40552438D02*
X145597619Y-40504819D01*
X145597619Y-40504819D02*
X145692857Y-40504819D01*
X145692857Y-40504819D02*
X145835714Y-40552438D01*
X145835714Y-40552438D02*
X145883333Y-40600057D01*
X146216667Y-40504819D02*
X146835714Y-40504819D01*
X146835714Y-40504819D02*
X146502381Y-40885771D01*
X146502381Y-40885771D02*
X146645238Y-40885771D01*
X146645238Y-40885771D02*
X146740476Y-40933390D01*
X146740476Y-40933390D02*
X146788095Y-40981009D01*
X146788095Y-40981009D02*
X146835714Y-41076247D01*
X146835714Y-41076247D02*
X146835714Y-41314342D01*
X146835714Y-41314342D02*
X146788095Y-41409580D01*
X146788095Y-41409580D02*
X146740476Y-41457200D01*
X146740476Y-41457200D02*
X146645238Y-41504819D01*
X146645238Y-41504819D02*
X146359524Y-41504819D01*
X146359524Y-41504819D02*
X146264286Y-41457200D01*
X146264286Y-41457200D02*
X146216667Y-41409580D01*
X197214819Y-98599523D02*
X197929104Y-98599523D01*
X197929104Y-98599523D02*
X198071961Y-98647142D01*
X198071961Y-98647142D02*
X198167200Y-98742380D01*
X198167200Y-98742380D02*
X198214819Y-98885237D01*
X198214819Y-98885237D02*
X198214819Y-98980475D01*
X198214819Y-97599523D02*
X198214819Y-98170951D01*
X198214819Y-97885237D02*
X197214819Y-97885237D01*
X197214819Y-97885237D02*
X197357676Y-97980475D01*
X197357676Y-97980475D02*
X197452914Y-98075713D01*
X197452914Y-98075713D02*
X197500533Y-98170951D01*
X198214819Y-96647142D02*
X198214819Y-97218570D01*
X198214819Y-96932856D02*
X197214819Y-96932856D01*
X197214819Y-96932856D02*
X197357676Y-97028094D01*
X197357676Y-97028094D02*
X197452914Y-97123332D01*
X197452914Y-97123332D02*
X197500533Y-97218570D01*
X188468095Y-40134819D02*
X188468095Y-40944342D01*
X188468095Y-40944342D02*
X188515714Y-41039580D01*
X188515714Y-41039580D02*
X188563333Y-41087200D01*
X188563333Y-41087200D02*
X188658571Y-41134819D01*
X188658571Y-41134819D02*
X188849047Y-41134819D01*
X188849047Y-41134819D02*
X188944285Y-41087200D01*
X188944285Y-41087200D02*
X188991904Y-41039580D01*
X188991904Y-41039580D02*
X189039523Y-40944342D01*
X189039523Y-40944342D02*
X189039523Y-40134819D01*
X189420476Y-40134819D02*
X190039523Y-40134819D01*
X190039523Y-40134819D02*
X189706190Y-40515771D01*
X189706190Y-40515771D02*
X189849047Y-40515771D01*
X189849047Y-40515771D02*
X189944285Y-40563390D01*
X189944285Y-40563390D02*
X189991904Y-40611009D01*
X189991904Y-40611009D02*
X190039523Y-40706247D01*
X190039523Y-40706247D02*
X190039523Y-40944342D01*
X190039523Y-40944342D02*
X189991904Y-41039580D01*
X189991904Y-41039580D02*
X189944285Y-41087200D01*
X189944285Y-41087200D02*
X189849047Y-41134819D01*
X189849047Y-41134819D02*
X189563333Y-41134819D01*
X189563333Y-41134819D02*
X189468095Y-41087200D01*
X189468095Y-41087200D02*
X189420476Y-41039580D01*
X123209200Y-145134332D02*
X123256819Y-144991475D01*
X123256819Y-144991475D02*
X123256819Y-144753380D01*
X123256819Y-144753380D02*
X123209200Y-144658142D01*
X123209200Y-144658142D02*
X123161580Y-144610523D01*
X123161580Y-144610523D02*
X123066342Y-144562904D01*
X123066342Y-144562904D02*
X122971104Y-144562904D01*
X122971104Y-144562904D02*
X122875866Y-144610523D01*
X122875866Y-144610523D02*
X122828247Y-144658142D01*
X122828247Y-144658142D02*
X122780628Y-144753380D01*
X122780628Y-144753380D02*
X122733009Y-144943856D01*
X122733009Y-144943856D02*
X122685390Y-145039094D01*
X122685390Y-145039094D02*
X122637771Y-145086713D01*
X122637771Y-145086713D02*
X122542533Y-145134332D01*
X122542533Y-145134332D02*
X122447295Y-145134332D01*
X122447295Y-145134332D02*
X122352057Y-145086713D01*
X122352057Y-145086713D02*
X122304438Y-145039094D01*
X122304438Y-145039094D02*
X122256819Y-144943856D01*
X122256819Y-144943856D02*
X122256819Y-144705761D01*
X122256819Y-144705761D02*
X122304438Y-144562904D01*
X122256819Y-144229570D02*
X123256819Y-143991475D01*
X123256819Y-143991475D02*
X122542533Y-143800999D01*
X122542533Y-143800999D02*
X123256819Y-143610523D01*
X123256819Y-143610523D02*
X122256819Y-143372428D01*
X123256819Y-142467666D02*
X123256819Y-143039094D01*
X123256819Y-142753380D02*
X122256819Y-142753380D01*
X122256819Y-142753380D02*
X122399676Y-142848618D01*
X122399676Y-142848618D02*
X122494914Y-142943856D01*
X122494914Y-142943856D02*
X122542533Y-143039094D01*
X179416819Y-107941904D02*
X179416819Y-107370476D01*
X180416819Y-107656190D02*
X179416819Y-107656190D01*
X180416819Y-107037142D02*
X179416819Y-107037142D01*
X179416819Y-107037142D02*
X179416819Y-106656190D01*
X179416819Y-106656190D02*
X179464438Y-106560952D01*
X179464438Y-106560952D02*
X179512057Y-106513333D01*
X179512057Y-106513333D02*
X179607295Y-106465714D01*
X179607295Y-106465714D02*
X179750152Y-106465714D01*
X179750152Y-106465714D02*
X179845390Y-106513333D01*
X179845390Y-106513333D02*
X179893009Y-106560952D01*
X179893009Y-106560952D02*
X179940628Y-106656190D01*
X179940628Y-106656190D02*
X179940628Y-107037142D01*
X180416819Y-105513333D02*
X180416819Y-106084761D01*
X180416819Y-105799047D02*
X179416819Y-105799047D01*
X179416819Y-105799047D02*
X179559676Y-105894285D01*
X179559676Y-105894285D02*
X179654914Y-105989523D01*
X179654914Y-105989523D02*
X179702533Y-106084761D01*
X135826666Y-99424819D02*
X135826666Y-100139104D01*
X135826666Y-100139104D02*
X135779047Y-100281961D01*
X135779047Y-100281961D02*
X135683809Y-100377200D01*
X135683809Y-100377200D02*
X135540952Y-100424819D01*
X135540952Y-100424819D02*
X135445714Y-100424819D01*
X136779047Y-99424819D02*
X136302857Y-99424819D01*
X136302857Y-99424819D02*
X136255238Y-99901009D01*
X136255238Y-99901009D02*
X136302857Y-99853390D01*
X136302857Y-99853390D02*
X136398095Y-99805771D01*
X136398095Y-99805771D02*
X136636190Y-99805771D01*
X136636190Y-99805771D02*
X136731428Y-99853390D01*
X136731428Y-99853390D02*
X136779047Y-99901009D01*
X136779047Y-99901009D02*
X136826666Y-99996247D01*
X136826666Y-99996247D02*
X136826666Y-100234342D01*
X136826666Y-100234342D02*
X136779047Y-100329580D01*
X136779047Y-100329580D02*
X136731428Y-100377200D01*
X136731428Y-100377200D02*
X136636190Y-100424819D01*
X136636190Y-100424819D02*
X136398095Y-100424819D01*
X136398095Y-100424819D02*
X136302857Y-100377200D01*
X136302857Y-100377200D02*
X136255238Y-100329580D01*
X184496819Y-107941904D02*
X184496819Y-107370476D01*
X185496819Y-107656190D02*
X184496819Y-107656190D01*
X185496819Y-107037142D02*
X184496819Y-107037142D01*
X184496819Y-107037142D02*
X184496819Y-106656190D01*
X184496819Y-106656190D02*
X184544438Y-106560952D01*
X184544438Y-106560952D02*
X184592057Y-106513333D01*
X184592057Y-106513333D02*
X184687295Y-106465714D01*
X184687295Y-106465714D02*
X184830152Y-106465714D01*
X184830152Y-106465714D02*
X184925390Y-106513333D01*
X184925390Y-106513333D02*
X184973009Y-106560952D01*
X184973009Y-106560952D02*
X185020628Y-106656190D01*
X185020628Y-106656190D02*
X185020628Y-107037142D01*
X184592057Y-106084761D02*
X184544438Y-106037142D01*
X184544438Y-106037142D02*
X184496819Y-105941904D01*
X184496819Y-105941904D02*
X184496819Y-105703809D01*
X184496819Y-105703809D02*
X184544438Y-105608571D01*
X184544438Y-105608571D02*
X184592057Y-105560952D01*
X184592057Y-105560952D02*
X184687295Y-105513333D01*
X184687295Y-105513333D02*
X184782533Y-105513333D01*
X184782533Y-105513333D02*
X184925390Y-105560952D01*
X184925390Y-105560952D02*
X185496819Y-106132380D01*
X185496819Y-106132380D02*
X185496819Y-105513333D01*
X195840476Y-64384819D02*
X195840476Y-65099104D01*
X195840476Y-65099104D02*
X195792857Y-65241961D01*
X195792857Y-65241961D02*
X195697619Y-65337200D01*
X195697619Y-65337200D02*
X195554762Y-65384819D01*
X195554762Y-65384819D02*
X195459524Y-65384819D01*
X196840476Y-65384819D02*
X196269048Y-65384819D01*
X196554762Y-65384819D02*
X196554762Y-64384819D01*
X196554762Y-64384819D02*
X196459524Y-64527676D01*
X196459524Y-64527676D02*
X196364286Y-64622914D01*
X196364286Y-64622914D02*
X196269048Y-64670533D01*
X197459524Y-64384819D02*
X197554762Y-64384819D01*
X197554762Y-64384819D02*
X197650000Y-64432438D01*
X197650000Y-64432438D02*
X197697619Y-64480057D01*
X197697619Y-64480057D02*
X197745238Y-64575295D01*
X197745238Y-64575295D02*
X197792857Y-64765771D01*
X197792857Y-64765771D02*
X197792857Y-65003866D01*
X197792857Y-65003866D02*
X197745238Y-65194342D01*
X197745238Y-65194342D02*
X197697619Y-65289580D01*
X197697619Y-65289580D02*
X197650000Y-65337200D01*
X197650000Y-65337200D02*
X197554762Y-65384819D01*
X197554762Y-65384819D02*
X197459524Y-65384819D01*
X197459524Y-65384819D02*
X197364286Y-65337200D01*
X197364286Y-65337200D02*
X197316667Y-65289580D01*
X197316667Y-65289580D02*
X197269048Y-65194342D01*
X197269048Y-65194342D02*
X197221429Y-65003866D01*
X197221429Y-65003866D02*
X197221429Y-64765771D01*
X197221429Y-64765771D02*
X197269048Y-64575295D01*
X197269048Y-64575295D02*
X197316667Y-64480057D01*
X197316667Y-64480057D02*
X197364286Y-64432438D01*
X197364286Y-64432438D02*
X197459524Y-64384819D01*
X180173333Y-59639580D02*
X180125714Y-59687200D01*
X180125714Y-59687200D02*
X179982857Y-59734819D01*
X179982857Y-59734819D02*
X179887619Y-59734819D01*
X179887619Y-59734819D02*
X179744762Y-59687200D01*
X179744762Y-59687200D02*
X179649524Y-59591961D01*
X179649524Y-59591961D02*
X179601905Y-59496723D01*
X179601905Y-59496723D02*
X179554286Y-59306247D01*
X179554286Y-59306247D02*
X179554286Y-59163390D01*
X179554286Y-59163390D02*
X179601905Y-58972914D01*
X179601905Y-58972914D02*
X179649524Y-58877676D01*
X179649524Y-58877676D02*
X179744762Y-58782438D01*
X179744762Y-58782438D02*
X179887619Y-58734819D01*
X179887619Y-58734819D02*
X179982857Y-58734819D01*
X179982857Y-58734819D02*
X180125714Y-58782438D01*
X180125714Y-58782438D02*
X180173333Y-58830057D01*
X181030476Y-59068152D02*
X181030476Y-59734819D01*
X180792381Y-58687200D02*
X180554286Y-59401485D01*
X180554286Y-59401485D02*
X181173333Y-59401485D01*
X136398095Y-97204819D02*
X136398095Y-98014342D01*
X136398095Y-98014342D02*
X136445714Y-98109580D01*
X136445714Y-98109580D02*
X136493333Y-98157200D01*
X136493333Y-98157200D02*
X136588571Y-98204819D01*
X136588571Y-98204819D02*
X136779047Y-98204819D01*
X136779047Y-98204819D02*
X136874285Y-98157200D01*
X136874285Y-98157200D02*
X136921904Y-98109580D01*
X136921904Y-98109580D02*
X136969523Y-98014342D01*
X136969523Y-98014342D02*
X136969523Y-97204819D01*
X137969523Y-98204819D02*
X137398095Y-98204819D01*
X137683809Y-98204819D02*
X137683809Y-97204819D01*
X137683809Y-97204819D02*
X137588571Y-97347676D01*
X137588571Y-97347676D02*
X137493333Y-97442914D01*
X137493333Y-97442914D02*
X137398095Y-97490533D01*
X162316666Y-101341009D02*
X161983333Y-101341009D01*
X161983333Y-101864819D02*
X161983333Y-100864819D01*
X161983333Y-100864819D02*
X162459523Y-100864819D01*
X163364285Y-101864819D02*
X162792857Y-101864819D01*
X163078571Y-101864819D02*
X163078571Y-100864819D01*
X163078571Y-100864819D02*
X162983333Y-101007676D01*
X162983333Y-101007676D02*
X162888095Y-101102914D01*
X162888095Y-101102914D02*
X162792857Y-101150533D01*
X189316819Y-107941904D02*
X189316819Y-107370476D01*
X190316819Y-107656190D02*
X189316819Y-107656190D01*
X190316819Y-107037142D02*
X189316819Y-107037142D01*
X189316819Y-107037142D02*
X189316819Y-106656190D01*
X189316819Y-106656190D02*
X189364438Y-106560952D01*
X189364438Y-106560952D02*
X189412057Y-106513333D01*
X189412057Y-106513333D02*
X189507295Y-106465714D01*
X189507295Y-106465714D02*
X189650152Y-106465714D01*
X189650152Y-106465714D02*
X189745390Y-106513333D01*
X189745390Y-106513333D02*
X189793009Y-106560952D01*
X189793009Y-106560952D02*
X189840628Y-106656190D01*
X189840628Y-106656190D02*
X189840628Y-107037142D01*
X189316819Y-106132380D02*
X189316819Y-105513333D01*
X189316819Y-105513333D02*
X189697771Y-105846666D01*
X189697771Y-105846666D02*
X189697771Y-105703809D01*
X189697771Y-105703809D02*
X189745390Y-105608571D01*
X189745390Y-105608571D02*
X189793009Y-105560952D01*
X189793009Y-105560952D02*
X189888247Y-105513333D01*
X189888247Y-105513333D02*
X190126342Y-105513333D01*
X190126342Y-105513333D02*
X190221580Y-105560952D01*
X190221580Y-105560952D02*
X190269200Y-105608571D01*
X190269200Y-105608571D02*
X190316819Y-105703809D01*
X190316819Y-105703809D02*
X190316819Y-105989523D01*
X190316819Y-105989523D02*
X190269200Y-106084761D01*
X190269200Y-106084761D02*
X190221580Y-106132380D01*
X194656819Y-107941904D02*
X194656819Y-107370476D01*
X195656819Y-107656190D02*
X194656819Y-107656190D01*
X195656819Y-107037142D02*
X194656819Y-107037142D01*
X194656819Y-107037142D02*
X194656819Y-106656190D01*
X194656819Y-106656190D02*
X194704438Y-106560952D01*
X194704438Y-106560952D02*
X194752057Y-106513333D01*
X194752057Y-106513333D02*
X194847295Y-106465714D01*
X194847295Y-106465714D02*
X194990152Y-106465714D01*
X194990152Y-106465714D02*
X195085390Y-106513333D01*
X195085390Y-106513333D02*
X195133009Y-106560952D01*
X195133009Y-106560952D02*
X195180628Y-106656190D01*
X195180628Y-106656190D02*
X195180628Y-107037142D01*
X194990152Y-105608571D02*
X195656819Y-105608571D01*
X194609200Y-105846666D02*
X195323485Y-106084761D01*
X195323485Y-106084761D02*
X195323485Y-105465714D01*
X191726666Y-64384819D02*
X191726666Y-65099104D01*
X191726666Y-65099104D02*
X191679047Y-65241961D01*
X191679047Y-65241961D02*
X191583809Y-65337200D01*
X191583809Y-65337200D02*
X191440952Y-65384819D01*
X191440952Y-65384819D02*
X191345714Y-65384819D01*
X192250476Y-65384819D02*
X192440952Y-65384819D01*
X192440952Y-65384819D02*
X192536190Y-65337200D01*
X192536190Y-65337200D02*
X192583809Y-65289580D01*
X192583809Y-65289580D02*
X192679047Y-65146723D01*
X192679047Y-65146723D02*
X192726666Y-64956247D01*
X192726666Y-64956247D02*
X192726666Y-64575295D01*
X192726666Y-64575295D02*
X192679047Y-64480057D01*
X192679047Y-64480057D02*
X192631428Y-64432438D01*
X192631428Y-64432438D02*
X192536190Y-64384819D01*
X192536190Y-64384819D02*
X192345714Y-64384819D01*
X192345714Y-64384819D02*
X192250476Y-64432438D01*
X192250476Y-64432438D02*
X192202857Y-64480057D01*
X192202857Y-64480057D02*
X192155238Y-64575295D01*
X192155238Y-64575295D02*
X192155238Y-64813390D01*
X192155238Y-64813390D02*
X192202857Y-64908628D01*
X192202857Y-64908628D02*
X192250476Y-64956247D01*
X192250476Y-64956247D02*
X192345714Y-65003866D01*
X192345714Y-65003866D02*
X192536190Y-65003866D01*
X192536190Y-65003866D02*
X192631428Y-64956247D01*
X192631428Y-64956247D02*
X192679047Y-64908628D01*
X192679047Y-64908628D02*
X192726666Y-64813390D01*
X187136666Y-64384819D02*
X187136666Y-65099104D01*
X187136666Y-65099104D02*
X187089047Y-65241961D01*
X187089047Y-65241961D02*
X186993809Y-65337200D01*
X186993809Y-65337200D02*
X186850952Y-65384819D01*
X186850952Y-65384819D02*
X186755714Y-65384819D01*
X187755714Y-64813390D02*
X187660476Y-64765771D01*
X187660476Y-64765771D02*
X187612857Y-64718152D01*
X187612857Y-64718152D02*
X187565238Y-64622914D01*
X187565238Y-64622914D02*
X187565238Y-64575295D01*
X187565238Y-64575295D02*
X187612857Y-64480057D01*
X187612857Y-64480057D02*
X187660476Y-64432438D01*
X187660476Y-64432438D02*
X187755714Y-64384819D01*
X187755714Y-64384819D02*
X187946190Y-64384819D01*
X187946190Y-64384819D02*
X188041428Y-64432438D01*
X188041428Y-64432438D02*
X188089047Y-64480057D01*
X188089047Y-64480057D02*
X188136666Y-64575295D01*
X188136666Y-64575295D02*
X188136666Y-64622914D01*
X188136666Y-64622914D02*
X188089047Y-64718152D01*
X188089047Y-64718152D02*
X188041428Y-64765771D01*
X188041428Y-64765771D02*
X187946190Y-64813390D01*
X187946190Y-64813390D02*
X187755714Y-64813390D01*
X187755714Y-64813390D02*
X187660476Y-64861009D01*
X187660476Y-64861009D02*
X187612857Y-64908628D01*
X187612857Y-64908628D02*
X187565238Y-65003866D01*
X187565238Y-65003866D02*
X187565238Y-65194342D01*
X187565238Y-65194342D02*
X187612857Y-65289580D01*
X187612857Y-65289580D02*
X187660476Y-65337200D01*
X187660476Y-65337200D02*
X187755714Y-65384819D01*
X187755714Y-65384819D02*
X187946190Y-65384819D01*
X187946190Y-65384819D02*
X188041428Y-65337200D01*
X188041428Y-65337200D02*
X188089047Y-65289580D01*
X188089047Y-65289580D02*
X188136666Y-65194342D01*
X188136666Y-65194342D02*
X188136666Y-65003866D01*
X188136666Y-65003866D02*
X188089047Y-64908628D01*
X188089047Y-64908628D02*
X188041428Y-64861009D01*
X188041428Y-64861009D02*
X187946190Y-64813390D01*
X136398095Y-57834819D02*
X136398095Y-58644342D01*
X136398095Y-58644342D02*
X136445714Y-58739580D01*
X136445714Y-58739580D02*
X136493333Y-58787200D01*
X136493333Y-58787200D02*
X136588571Y-58834819D01*
X136588571Y-58834819D02*
X136779047Y-58834819D01*
X136779047Y-58834819D02*
X136874285Y-58787200D01*
X136874285Y-58787200D02*
X136921904Y-58739580D01*
X136921904Y-58739580D02*
X136969523Y-58644342D01*
X136969523Y-58644342D02*
X136969523Y-57834819D01*
X137398095Y-57930057D02*
X137445714Y-57882438D01*
X137445714Y-57882438D02*
X137540952Y-57834819D01*
X137540952Y-57834819D02*
X137779047Y-57834819D01*
X137779047Y-57834819D02*
X137874285Y-57882438D01*
X137874285Y-57882438D02*
X137921904Y-57930057D01*
X137921904Y-57930057D02*
X137969523Y-58025295D01*
X137969523Y-58025295D02*
X137969523Y-58120533D01*
X137969523Y-58120533D02*
X137921904Y-58263390D01*
X137921904Y-58263390D02*
X137350476Y-58834819D01*
X137350476Y-58834819D02*
X137969523Y-58834819D01*
D14*
%TO.C,A1*%
X151950000Y-44617500D02*
X151470000Y-44617500D01*
X151950000Y-44617500D02*
X151950000Y-45037500D01*
X151950000Y-47157500D02*
X151950000Y-47577500D01*
X151950000Y-49697500D02*
X151950000Y-50117500D01*
X151950000Y-52237500D02*
X151950000Y-52657500D01*
X151950000Y-54777500D02*
X151950000Y-55197500D01*
X151950000Y-57317500D02*
X151950000Y-57737500D01*
X151950000Y-59857500D02*
X151950000Y-60277500D01*
X151950000Y-62397500D02*
X151950000Y-62817500D01*
X151950000Y-64937500D02*
X151950000Y-65357500D01*
X151950000Y-67477500D02*
X151950000Y-67897500D01*
X151950000Y-70017500D02*
X151950000Y-70437500D01*
X151950000Y-72557500D02*
X151950000Y-72977500D01*
X151950000Y-75097500D02*
X151950000Y-75517500D01*
X151950000Y-77637500D02*
X151950000Y-78057500D01*
X151950000Y-80177500D02*
X151950000Y-80597500D01*
X151950000Y-82717500D02*
X151950000Y-83137500D01*
X151950000Y-85257500D02*
X151950000Y-85677500D01*
X151950000Y-87797500D02*
X151950000Y-88217500D01*
X151950000Y-90337500D02*
X151950000Y-90757500D01*
X151980324Y-42497500D02*
X151470000Y-42497500D01*
X152290000Y-42497563D02*
X152290000Y-42140500D01*
X152290000Y-44617500D02*
X152290000Y-45037500D01*
X152290000Y-47157500D02*
X152290000Y-47577500D01*
X152290000Y-49697500D02*
X152290000Y-50117500D01*
X152290000Y-52237500D02*
X152290000Y-52657500D01*
X152290000Y-54777500D02*
X152290000Y-55197500D01*
X152290000Y-57317500D02*
X152290000Y-57737500D01*
X152290000Y-59857500D02*
X152290000Y-60277500D01*
X152290000Y-62397500D02*
X152290000Y-62817500D01*
X152290000Y-64937500D02*
X152290000Y-65357500D01*
X152290000Y-67477500D02*
X152290000Y-67897500D01*
X152290000Y-70017500D02*
X152290000Y-70437500D01*
X152290000Y-72557500D02*
X152290000Y-72977500D01*
X152290000Y-75097500D02*
X152290000Y-75517500D01*
X152290000Y-77637500D02*
X152290000Y-78057500D01*
X152290000Y-80177500D02*
X152290000Y-80597500D01*
X152290000Y-82717500D02*
X152290000Y-83137500D01*
X152290000Y-85257500D02*
X152290000Y-85677500D01*
X152290000Y-87797500D02*
X152290000Y-88217500D01*
X152290000Y-90337500D02*
X152290000Y-90757500D01*
X152290000Y-92877437D02*
X152290000Y-93234500D01*
X152560000Y-42077500D02*
X155050000Y-42077500D01*
X152560000Y-93297500D02*
X156397939Y-93297500D01*
X155050000Y-42077500D02*
X155050000Y-42991020D01*
X155050000Y-42077500D02*
X156397940Y-42077500D01*
X155050000Y-45383980D02*
X155050000Y-89991020D01*
X155050000Y-92383980D02*
X155050000Y-93297500D01*
X157322061Y-42077500D02*
X158325000Y-42077500D01*
X158325000Y-42077500D02*
X166795000Y-42077500D01*
X158660000Y-42077500D02*
X158660000Y-42993500D01*
X158660000Y-45381500D02*
X158660000Y-46597500D01*
X158660000Y-46597500D02*
X158956090Y-46597500D01*
X158960000Y-93297500D02*
X157322061Y-93297500D01*
X161313910Y-46597500D02*
X163806090Y-46597500D01*
X166160000Y-93297500D02*
X158960000Y-93297500D01*
X166163910Y-46597500D02*
X166460000Y-46597500D01*
X166460000Y-42077500D02*
X166460000Y-42993500D01*
X166460000Y-45381500D02*
X166460000Y-46597500D01*
X166795000Y-42077500D02*
X167797939Y-42077500D01*
X167797939Y-93297500D02*
X166160000Y-93297500D01*
X168722061Y-42077500D02*
X170070000Y-42077500D01*
X168722061Y-93297500D02*
X172560000Y-93297500D01*
X170070000Y-42077500D02*
X170070000Y-42991020D01*
X170070000Y-45383980D02*
X170070000Y-89991020D01*
X170070000Y-92383980D02*
X170070000Y-93297500D01*
X172560000Y-42077500D02*
X170070000Y-42077500D01*
X172830000Y-42497563D02*
X172830000Y-42140500D01*
X172830000Y-44617500D02*
X172830000Y-45037500D01*
X172830000Y-47157500D02*
X172830000Y-47577500D01*
X172830000Y-49697500D02*
X172830000Y-50117500D01*
X172830000Y-52237500D02*
X172830000Y-52657500D01*
X172830000Y-54777500D02*
X172830000Y-55197500D01*
X172830000Y-57317500D02*
X172830000Y-57737500D01*
X172830000Y-59857500D02*
X172830000Y-60277500D01*
X172830000Y-62397500D02*
X172830000Y-62817500D01*
X172830000Y-64937500D02*
X172830000Y-65357500D01*
X172830000Y-67477500D02*
X172830000Y-67897500D01*
X172830000Y-70017500D02*
X172830000Y-70437500D01*
X172830000Y-72557500D02*
X172830000Y-72977500D01*
X172830000Y-75097500D02*
X172830000Y-75517500D01*
X172830000Y-77637500D02*
X172830000Y-78057500D01*
X172830000Y-80177500D02*
X172830000Y-80597500D01*
X172830000Y-82717500D02*
X172830000Y-83137500D01*
X172830000Y-85257500D02*
X172830000Y-85677500D01*
X172830000Y-87797500D02*
X172830000Y-88217500D01*
X172830000Y-90337500D02*
X172830000Y-90757500D01*
X172830000Y-92877437D02*
X172830000Y-93234500D01*
X173170000Y-44617500D02*
X173170000Y-45037500D01*
X173170000Y-47157500D02*
X173170000Y-47577500D01*
X173170000Y-49697500D02*
X173170000Y-50117500D01*
X173170000Y-52237500D02*
X173170000Y-52657500D01*
X173170000Y-54777500D02*
X173170000Y-55197500D01*
X173170000Y-57317500D02*
X173170000Y-57737500D01*
X173170000Y-59857500D02*
X173170000Y-60277500D01*
X173170000Y-62397500D02*
X173170000Y-62817500D01*
X173170000Y-64937500D02*
X173170000Y-65357500D01*
X173170000Y-67477500D02*
X173170000Y-67897500D01*
X173170000Y-70017500D02*
X173170000Y-70437500D01*
X173170000Y-72557500D02*
X173170000Y-72977500D01*
X173170000Y-75097500D02*
X173170000Y-75517500D01*
X173170000Y-77637500D02*
X173170000Y-78057500D01*
X173170000Y-80177500D02*
X173170000Y-80597500D01*
X173170000Y-82717500D02*
X173170000Y-83137500D01*
X173170000Y-85257500D02*
X173170000Y-85677500D01*
X173170000Y-87797500D02*
X173170000Y-88217500D01*
X173170000Y-90337500D02*
X173170000Y-90757500D01*
X151980324Y-42497500D02*
G75*
G02*
X152560000Y-42077500I579692J-190051D01*
G01*
X152560000Y-93297500D02*
G75*
G02*
X151980324Y-92877437I1J610002D01*
G01*
X172560000Y-42077500D02*
G75*
G02*
X173139676Y-42497563I0J-610000D01*
G01*
X173139676Y-92877437D02*
G75*
G02*
X172560000Y-93297569I-579676J189837D01*
G01*
%TO.C,C1*%
X111490000Y-127750000D02*
X119650000Y-127750000D01*
X111490000Y-127790000D02*
X119650000Y-127790000D01*
X111491000Y-127710000D02*
X119649000Y-127710000D01*
X111492000Y-127670000D02*
X119648000Y-127670000D01*
X111493000Y-127630000D02*
X119647000Y-127630000D01*
X111495000Y-127590000D02*
X119645000Y-127590000D01*
X111497000Y-127550000D02*
X119643000Y-127550000D01*
X111500000Y-127510000D02*
X119640000Y-127510000D01*
X111502000Y-127470000D02*
X119638000Y-127470000D01*
X111506000Y-127430000D02*
X119634000Y-127430000D01*
X111509000Y-127390000D02*
X119631000Y-127390000D01*
X111514000Y-127350000D02*
X119626000Y-127350000D01*
X111518000Y-127310000D02*
X119622000Y-127310000D01*
X111523000Y-127270000D02*
X119617000Y-127270000D01*
X111528000Y-127230000D02*
X119612000Y-127230000D01*
X111534000Y-127190000D02*
X119606000Y-127190000D01*
X111540000Y-127150000D02*
X119600000Y-127150000D01*
X111547000Y-127110000D02*
X119593000Y-127110000D01*
X111553000Y-127070000D02*
X114530000Y-127070000D01*
X111561000Y-127030000D02*
X114530000Y-127030000D01*
X111568000Y-126990000D02*
X114530000Y-126990000D01*
X111577000Y-126950000D02*
X114530000Y-126950000D01*
X111585000Y-126910000D02*
X114530000Y-126910000D01*
X111594000Y-126870000D02*
X114530000Y-126870000D01*
X111603000Y-126830000D02*
X114530000Y-126830000D01*
X111613000Y-126790000D02*
X114530000Y-126790000D01*
X111623000Y-126750000D02*
X114530000Y-126750000D01*
X111634000Y-126710000D02*
X114530000Y-126710000D01*
X111645000Y-126670000D02*
X114530000Y-126670000D01*
X111657000Y-126630000D02*
X114530000Y-126630000D01*
X111669000Y-126590000D02*
X114530000Y-126590000D01*
X111681000Y-126550000D02*
X114530000Y-126550000D01*
X111694000Y-126510000D02*
X114530000Y-126510000D01*
X111707000Y-126470000D02*
X114530000Y-126470000D01*
X111721000Y-126430000D02*
X114530000Y-126430000D01*
X111735000Y-126390000D02*
X114530000Y-126390000D01*
X111750000Y-126350000D02*
X114530000Y-126350000D01*
X111765000Y-126310000D02*
X114530000Y-126310000D01*
X111781000Y-126270000D02*
X114530000Y-126270000D01*
X111797000Y-126230000D02*
X114530000Y-126230000D01*
X111813000Y-126190000D02*
X114530000Y-126190000D01*
X111830000Y-126150000D02*
X114530000Y-126150000D01*
X111848000Y-126110000D02*
X114530000Y-126110000D01*
X111866000Y-126070000D02*
X114530000Y-126070000D01*
X111885000Y-126030000D02*
X114530000Y-126030000D01*
X111904000Y-125990000D02*
X114530000Y-125990000D01*
X111924000Y-125950000D02*
X114530000Y-125950000D01*
X111944000Y-125910000D02*
X114530000Y-125910000D01*
X111965000Y-125870000D02*
X114530000Y-125870000D01*
X111986000Y-125830000D02*
X114530000Y-125830000D01*
X112008000Y-125790000D02*
X114530000Y-125790000D01*
X112031000Y-125750000D02*
X114530000Y-125750000D01*
X112054000Y-125710000D02*
X114530000Y-125710000D01*
X112077000Y-125670000D02*
X114530000Y-125670000D01*
X112102000Y-125630000D02*
X114530000Y-125630000D01*
X112127000Y-125590000D02*
X114530000Y-125590000D01*
X112152000Y-125550000D02*
X114530000Y-125550000D01*
X112178000Y-125510000D02*
X114530000Y-125510000D01*
X112205000Y-125470000D02*
X114530000Y-125470000D01*
X112233000Y-125430000D02*
X114530000Y-125430000D01*
X112261000Y-125390000D02*
X114530000Y-125390000D01*
X112290000Y-125350000D02*
X114530000Y-125350000D01*
X112320000Y-125310000D02*
X114530000Y-125310000D01*
X112351000Y-125270000D02*
X114530000Y-125270000D01*
X112382000Y-125230000D02*
X114530000Y-125230000D01*
X112414000Y-125190000D02*
X114530000Y-125190000D01*
X112447000Y-125150000D02*
X114530000Y-125150000D01*
X112481000Y-125110000D02*
X114530000Y-125110000D01*
X112515000Y-125070000D02*
X114530000Y-125070000D01*
X112551000Y-125030000D02*
X114530000Y-125030000D01*
X112588000Y-124990000D02*
X118552000Y-124990000D01*
X112625000Y-124950000D02*
X118515000Y-124950000D01*
X112664000Y-124910000D02*
X118476000Y-124910000D01*
X112703000Y-124870000D02*
X118437000Y-124870000D01*
X112744000Y-124830000D02*
X118396000Y-124830000D01*
X112786000Y-124790000D02*
X118354000Y-124790000D01*
X112829000Y-124750000D02*
X118311000Y-124750000D01*
X112855000Y-131799698D02*
X113655000Y-131799698D01*
X112874000Y-124710000D02*
X118266000Y-124710000D01*
X112919000Y-124670000D02*
X118221000Y-124670000D01*
X112966000Y-124630000D02*
X118174000Y-124630000D01*
X113015000Y-124590000D02*
X118125000Y-124590000D01*
X113065000Y-124550000D02*
X118075000Y-124550000D01*
X113117000Y-124510000D02*
X118023000Y-124510000D01*
X113170000Y-124470000D02*
X117970000Y-124470000D01*
X113226000Y-124430000D02*
X117914000Y-124430000D01*
X113255000Y-132199698D02*
X113255000Y-131399698D01*
X113283000Y-124390000D02*
X117857000Y-124390000D01*
X113343000Y-124350000D02*
X117797000Y-124350000D01*
X113405000Y-124310000D02*
X117735000Y-124310000D01*
X113469000Y-124270000D02*
X117671000Y-124270000D01*
X113536000Y-124230000D02*
X117604000Y-124230000D01*
X113606000Y-124190000D02*
X117534000Y-124190000D01*
X113680000Y-124150000D02*
X117460000Y-124150000D01*
X113757000Y-124110000D02*
X117383000Y-124110000D01*
X113839000Y-124070000D02*
X117301000Y-124070000D01*
X113926000Y-124030000D02*
X117214000Y-124030000D01*
X114018000Y-123990000D02*
X117122000Y-123990000D01*
X114117000Y-123950000D02*
X117023000Y-123950000D01*
X114224000Y-123910000D02*
X116916000Y-123910000D01*
X114342000Y-123870000D02*
X116798000Y-123870000D01*
X114473000Y-123830000D02*
X116667000Y-123830000D01*
X114623000Y-123790000D02*
X116517000Y-123790000D01*
X114802000Y-123750000D02*
X116338000Y-123750000D01*
X115037000Y-123710000D02*
X116103000Y-123710000D01*
X116610000Y-125030000D02*
X118589000Y-125030000D01*
X116610000Y-125070000D02*
X118625000Y-125070000D01*
X116610000Y-125110000D02*
X118659000Y-125110000D01*
X116610000Y-125150000D02*
X118693000Y-125150000D01*
X116610000Y-125190000D02*
X118726000Y-125190000D01*
X116610000Y-125230000D02*
X118758000Y-125230000D01*
X116610000Y-125270000D02*
X118789000Y-125270000D01*
X116610000Y-125310000D02*
X118820000Y-125310000D01*
X116610000Y-125350000D02*
X118850000Y-125350000D01*
X116610000Y-125390000D02*
X118879000Y-125390000D01*
X116610000Y-125430000D02*
X118907000Y-125430000D01*
X116610000Y-125470000D02*
X118935000Y-125470000D01*
X116610000Y-125510000D02*
X118962000Y-125510000D01*
X116610000Y-125550000D02*
X118988000Y-125550000D01*
X116610000Y-125590000D02*
X119013000Y-125590000D01*
X116610000Y-125630000D02*
X119038000Y-125630000D01*
X116610000Y-125670000D02*
X119063000Y-125670000D01*
X116610000Y-125710000D02*
X119086000Y-125710000D01*
X116610000Y-125750000D02*
X119109000Y-125750000D01*
X116610000Y-125790000D02*
X119132000Y-125790000D01*
X116610000Y-125830000D02*
X119154000Y-125830000D01*
X116610000Y-125870000D02*
X119175000Y-125870000D01*
X116610000Y-125910000D02*
X119196000Y-125910000D01*
X116610000Y-125950000D02*
X119216000Y-125950000D01*
X116610000Y-125990000D02*
X119236000Y-125990000D01*
X116610000Y-126030000D02*
X119255000Y-126030000D01*
X116610000Y-126070000D02*
X119274000Y-126070000D01*
X116610000Y-126110000D02*
X119292000Y-126110000D01*
X116610000Y-126150000D02*
X119310000Y-126150000D01*
X116610000Y-126190000D02*
X119327000Y-126190000D01*
X116610000Y-126230000D02*
X119343000Y-126230000D01*
X116610000Y-126270000D02*
X119359000Y-126270000D01*
X116610000Y-126310000D02*
X119375000Y-126310000D01*
X116610000Y-126350000D02*
X119390000Y-126350000D01*
X116610000Y-126390000D02*
X119405000Y-126390000D01*
X116610000Y-126430000D02*
X119419000Y-126430000D01*
X116610000Y-126470000D02*
X119433000Y-126470000D01*
X116610000Y-126510000D02*
X119446000Y-126510000D01*
X116610000Y-126550000D02*
X119459000Y-126550000D01*
X116610000Y-126590000D02*
X119471000Y-126590000D01*
X116610000Y-126630000D02*
X119483000Y-126630000D01*
X116610000Y-126670000D02*
X119495000Y-126670000D01*
X116610000Y-126710000D02*
X119506000Y-126710000D01*
X116610000Y-126750000D02*
X119517000Y-126750000D01*
X116610000Y-126790000D02*
X119527000Y-126790000D01*
X116610000Y-126830000D02*
X119537000Y-126830000D01*
X116610000Y-126870000D02*
X119546000Y-126870000D01*
X116610000Y-126910000D02*
X119555000Y-126910000D01*
X116610000Y-126950000D02*
X119563000Y-126950000D01*
X116610000Y-126990000D02*
X119572000Y-126990000D01*
X116610000Y-127030000D02*
X119579000Y-127030000D01*
X116610000Y-127070000D02*
X119587000Y-127070000D01*
X119690000Y-127790000D02*
G75*
G02*
X111450000Y-127790000I-4120000J0D01*
G01*
X111450000Y-127790000D02*
G75*
G02*
X119690000Y-127790000I4120000J0D01*
G01*
%TO.C,J12*%
X119880000Y-145090000D02*
X109140000Y-145090000D01*
X119880000Y-141470000D02*
X118640000Y-141470000D01*
X119880000Y-140470000D02*
X118640000Y-140470000D01*
X119880000Y-139170000D02*
X118640000Y-139170000D01*
X119880000Y-137050000D02*
X119880000Y-145090000D01*
X117060000Y-137050000D02*
X119880000Y-137050000D01*
X114880000Y-141470000D02*
X113572000Y-141470000D01*
X114880000Y-140470000D02*
X113572000Y-140470000D01*
X114880000Y-139170000D02*
X112303000Y-139170000D01*
X111217000Y-139170000D02*
X109140000Y-139170000D01*
X109948000Y-141470000D02*
X109140000Y-141470000D01*
X109948000Y-140470000D02*
X109140000Y-140470000D01*
X109140000Y-145090000D02*
X109140000Y-137050000D01*
X109140000Y-137050000D02*
X116460000Y-137050000D01*
X116760000Y-137050000D02*
X116320000Y-136440000D01*
X117200000Y-136440000D01*
X116760000Y-137050000D01*
G36*
X116760000Y-137050000D02*
G01*
X116320000Y-136440000D01*
X117200000Y-136440000D01*
X116760000Y-137050000D01*
G37*
%TO.C,J7*%
X181500000Y-65930000D02*
X182880000Y-65930000D01*
X181500000Y-67310000D02*
X181500000Y-65930000D01*
X181500000Y-68580000D02*
X181500000Y-91550000D01*
X181500000Y-68580000D02*
X184260000Y-68580000D01*
X181500000Y-91550000D02*
X184260000Y-91550000D01*
X184260000Y-68580000D02*
X184260000Y-91550000D01*
%TO.C,J6*%
X127400000Y-114910000D02*
X146530000Y-114910000D01*
X127400000Y-119030000D02*
X146530000Y-119030000D01*
X127400000Y-122710000D02*
X146530000Y-122710000D01*
X127400000Y-126830000D02*
X146530000Y-126830000D01*
%TO.C,C2*%
X145788748Y-78005000D02*
X146311252Y-78005000D01*
X145788748Y-79475000D02*
X146311252Y-79475000D01*
%TO.C,C3*%
X146311252Y-38635000D02*
X145788748Y-38635000D01*
X146311252Y-40105000D02*
X145788748Y-40105000D01*
%TO.C,J11*%
X183840000Y-96410000D02*
X183840000Y-99170000D01*
X194110000Y-96410000D02*
X183840000Y-96410000D01*
X194110000Y-96410000D02*
X194110000Y-99170000D01*
X194110000Y-99170000D02*
X183840000Y-99170000D01*
X195380000Y-96410000D02*
X196760000Y-96410000D01*
X196760000Y-96410000D02*
X196760000Y-97790000D01*
%TO.C,U3*%
X178840000Y-41680000D02*
X178840000Y-57379999D01*
X178840000Y-57379999D02*
X199620000Y-57380000D01*
X185766667Y-41680000D02*
X178840000Y-41680000D01*
X185766667Y-42040000D02*
X185766667Y-41680000D01*
X192693333Y-41680000D02*
X192693333Y-42040000D01*
X192693333Y-42040000D02*
X185766667Y-42040000D01*
X199620000Y-41680001D02*
X192693333Y-41680000D01*
X199620000Y-57380000D02*
X199620000Y-41680001D01*
%TO.C,SW1*%
X128162000Y-137841000D02*
X147292000Y-137841000D01*
X128162000Y-141961000D02*
X147292000Y-141961000D01*
X128162000Y-145641000D02*
X147292000Y-145641000D01*
X128162000Y-149761000D02*
X147292000Y-149761000D01*
%TO.C,TP1*%
X180660000Y-105730000D02*
X182560000Y-105730000D01*
X180660000Y-107630000D02*
X180660000Y-105730000D01*
X182560000Y-105730000D02*
X182560000Y-107630000D01*
X182560000Y-107630000D02*
X180660000Y-107630000D01*
%TO.C,J5*%
X128800000Y-100760000D02*
X128800000Y-102010000D01*
X129100000Y-101060000D02*
X129100000Y-105780000D01*
X129100000Y-102370000D02*
X129710000Y-102370000D01*
X129100000Y-103670000D02*
X129710000Y-103670000D01*
X129100000Y-105780000D02*
X143220000Y-105780000D01*
X129710000Y-101670000D02*
X129710000Y-105170000D01*
X129710000Y-105170000D02*
X142610000Y-105170000D01*
X130050000Y-100760000D02*
X128800000Y-100760000D01*
X130560000Y-100860000D02*
X130560000Y-101060000D01*
X130860000Y-100860000D02*
X130560000Y-100860000D01*
X130860000Y-100960000D02*
X130560000Y-100960000D01*
X130860000Y-101060000D02*
X130860000Y-100860000D01*
X131660000Y-101060000D02*
X131660000Y-101670000D01*
X131660000Y-101670000D02*
X129710000Y-101670000D01*
X132060000Y-104670000D02*
X132260000Y-104670000D01*
X132060000Y-105170000D02*
X132060000Y-104670000D01*
X132160000Y-105170000D02*
X132160000Y-104670000D01*
X132260000Y-104670000D02*
X132260000Y-105170000D01*
X134060000Y-104670000D02*
X134260000Y-104670000D01*
X134060000Y-105170000D02*
X134060000Y-104670000D01*
X134160000Y-105170000D02*
X134160000Y-104670000D01*
X134260000Y-104670000D02*
X134260000Y-105170000D01*
X136060000Y-104670000D02*
X136260000Y-104670000D01*
X136060000Y-105170000D02*
X136060000Y-104670000D01*
X136160000Y-105170000D02*
X136160000Y-104670000D01*
X136260000Y-104670000D02*
X136260000Y-105170000D01*
X138060000Y-104670000D02*
X138260000Y-104670000D01*
X138060000Y-105170000D02*
X138060000Y-104670000D01*
X138160000Y-105170000D02*
X138160000Y-104670000D01*
X138260000Y-104670000D02*
X138260000Y-105170000D01*
X140060000Y-104670000D02*
X140260000Y-104670000D01*
X140060000Y-105170000D02*
X140060000Y-104670000D01*
X140160000Y-105170000D02*
X140160000Y-104670000D01*
X140260000Y-104670000D02*
X140260000Y-105170000D01*
X140660000Y-101670000D02*
X140660000Y-101060000D01*
X142610000Y-101670000D02*
X140660000Y-101670000D01*
X142610000Y-105170000D02*
X142610000Y-101670000D01*
X143220000Y-101060000D02*
X129100000Y-101060000D01*
X143220000Y-102370000D02*
X142610000Y-102370000D01*
X143220000Y-103670000D02*
X142610000Y-103670000D01*
X143220000Y-105780000D02*
X143220000Y-101060000D01*
%TO.C,TP2*%
X185740000Y-105730000D02*
X187640000Y-105730000D01*
X185740000Y-107630000D02*
X185740000Y-105730000D01*
X187640000Y-105730000D02*
X187640000Y-107630000D01*
X187640000Y-107630000D02*
X185740000Y-107630000D01*
%TO.C,J10*%
X195270000Y-65930000D02*
X196650000Y-65930000D01*
X195270000Y-67310000D02*
X195270000Y-65930000D01*
X195270000Y-68580000D02*
X195270000Y-91550000D01*
X195270000Y-68580000D02*
X198030000Y-68580000D01*
X195270000Y-91550000D02*
X198030000Y-91550000D01*
X198030000Y-68580000D02*
X198030000Y-91550000D01*
%TO.C,C4*%
X180078748Y-60225000D02*
X180601252Y-60225000D01*
X180078748Y-61695000D02*
X180601252Y-61695000D01*
%TO.C,U1*%
X126770000Y-81050000D02*
X126770000Y-96749999D01*
X126770000Y-96749999D02*
X133696667Y-96750000D01*
X133696667Y-96390000D02*
X140623333Y-96390000D01*
X133696667Y-96750000D02*
X133696667Y-96390000D01*
X140623333Y-96390000D02*
X140623333Y-96750000D01*
X140623333Y-96750000D02*
X147550000Y-96750000D01*
X147550000Y-81050001D02*
X126770000Y-81050000D01*
X147550000Y-96750000D02*
X147550000Y-81050001D01*
%TO.C,F1*%
X152450000Y-102440000D02*
X152450000Y-104010000D01*
X152450000Y-108380000D02*
X152450000Y-106810000D01*
X156950000Y-102440000D02*
X152450000Y-102440000D01*
X156950000Y-102440000D02*
X156950000Y-104010000D01*
X156950000Y-108380000D02*
X152450000Y-108380000D01*
X156950000Y-108380000D02*
X156950000Y-106810000D01*
X168350000Y-102440000D02*
X168350000Y-104010000D01*
X168350000Y-102910000D02*
X156950000Y-102910000D01*
X168350000Y-107910000D02*
X156950000Y-107910000D01*
X168350000Y-108380000D02*
X168350000Y-106810000D01*
X168350000Y-108380000D02*
X172850000Y-108380000D01*
X172850000Y-102440000D02*
X168350000Y-102440000D01*
X172850000Y-104010000D02*
X172850000Y-102440000D01*
X172850000Y-106810000D02*
X172850000Y-108380000D01*
%TO.C,TP3*%
X190560000Y-105730000D02*
X192460000Y-105730000D01*
X190560000Y-107630000D02*
X190560000Y-105730000D01*
X192460000Y-105730000D02*
X192460000Y-107630000D01*
X192460000Y-107630000D02*
X190560000Y-107630000D01*
%TO.C,TP4*%
X195900000Y-105730000D02*
X197800000Y-105730000D01*
X195900000Y-107630000D02*
X195900000Y-105730000D01*
X197800000Y-105730000D02*
X197800000Y-107630000D01*
X197800000Y-107630000D02*
X195900000Y-107630000D01*
%TO.C,J9*%
X190680000Y-65930000D02*
X192060000Y-65930000D01*
X190680000Y-67310000D02*
X190680000Y-65930000D01*
X190680000Y-68580000D02*
X190680000Y-91550000D01*
X190680000Y-68580000D02*
X193440000Y-68580000D01*
X190680000Y-91550000D02*
X193440000Y-91550000D01*
X193440000Y-68580000D02*
X193440000Y-91550000D01*
%TO.C,J8*%
X186090000Y-65930000D02*
X187470000Y-65930000D01*
X186090000Y-67310000D02*
X186090000Y-65930000D01*
X186090000Y-68580000D02*
X186090000Y-91550000D01*
X186090000Y-68580000D02*
X188850000Y-68580000D01*
X186090000Y-91550000D02*
X188850000Y-91550000D01*
X188850000Y-68580000D02*
X188850000Y-91550000D01*
%TO.C,U2*%
X126770000Y-41680000D02*
X126770000Y-57379999D01*
X126770000Y-57379999D02*
X133696667Y-57380000D01*
X133696667Y-57020000D02*
X140623333Y-57020000D01*
X133696667Y-57380000D02*
X133696667Y-57020000D01*
X140623333Y-57020000D02*
X140623333Y-57380000D01*
X140623333Y-57380000D02*
X147550000Y-57380000D01*
X147550000Y-41680001D02*
X126770000Y-41680000D01*
X147550000Y-57380000D02*
X147550000Y-41680001D01*
%TD*%
M02*
