M48
; DRILL file {KiCad 9.0.5} date 2026-03-06T11:48:34+1100
; FORMAT={-:-/ absolute / metric / decimal}
; #@! TF.CreationDate,2026-03-06T11:48:34+11:00
; #@! TF.GenerationSoftware,Kicad,Pcbnew,9.0.5
; #@! TF.FileFunction,Plated,1,2,PTH
FMAT,2
METRIC
; #@! TA.AperFunction,Plated,PTH,ViaDrill
T1C0.300
; #@! TA.AperFunction,Plated,PTH,ComponentDrill
T2C0.750
; #@! TA.AperFunction,Plated,PTH,ComponentDrill
T3C0.800
; #@! TA.AperFunction,Plated,PTH,ComponentDrill
T4C1.000
; #@! TA.AperFunction,Plated,PTH,ComponentDrill
T5C1.190
; #@! TA.AperFunction,Plated,PTH,ComponentDrill
T6C1.300
; #@! TA.AperFunction,Plated,PTH,ComponentDrill
T7C2.500
%
G90
G05
T1
X130.33Y-99.959
X148.59Y-48.26
X155.717Y-54.935
X163.83Y-68.58
X168.011Y-99.959
X171.45Y-110.49
X176.53Y-54.61
X176.53Y-92.71
X177.8Y-53.34
X180.34Y-92.71
X187.96Y-102.87
T2
X115.57Y-43.18
X115.57Y-45.18
X115.57Y-47.18
X115.57Y-49.18
X115.57Y-51.18
X115.57Y-53.18
X116.29Y-83.9
X116.29Y-85.9
X116.29Y-87.9
X116.29Y-89.9
X116.29Y-91.9
X116.29Y-93.9
X131.16Y-102.87
X133.16Y-102.87
X135.16Y-102.87
X137.16Y-102.87
X139.16Y-102.87
X141.16Y-102.87
X212.09Y-43.34
X212.09Y-45.34
X212.09Y-47.34
X212.09Y-49.34
X212.09Y-51.34
X212.09Y-53.34
X213.36Y-82.55
X213.36Y-84.55
X213.36Y-86.55
X213.36Y-88.55
X213.36Y-90.55
X213.36Y-92.55
T3
X115.57Y-126.04
X115.57Y-129.54
T4
X153.67Y-43.557
X153.67Y-46.097
X153.67Y-48.637
X153.67Y-51.177
X153.67Y-53.717
X153.67Y-56.258
X153.67Y-58.797
X153.67Y-61.337
X153.67Y-63.877
X153.67Y-66.418
X153.67Y-68.957
X153.67Y-71.498
X153.67Y-74.037
X153.67Y-76.578
X153.67Y-79.117
X153.67Y-81.657
X153.67Y-84.197
X153.67Y-86.737
X153.67Y-89.277
X153.67Y-91.817
X171.45Y-43.557
X171.45Y-46.097
X171.45Y-48.637
X171.45Y-51.177
X171.45Y-53.717
X171.45Y-56.258
X171.45Y-58.797
X171.45Y-61.337
X171.45Y-63.877
X171.45Y-66.418
X171.45Y-68.957
X171.45Y-71.498
X171.45Y-74.037
X171.45Y-76.578
X171.45Y-79.117
X171.45Y-81.657
X171.45Y-84.197
X171.45Y-86.737
X171.45Y-89.277
X171.45Y-91.817
X182.88Y-67.31
X182.88Y-69.85
X182.88Y-72.39
X182.88Y-74.93
X182.88Y-77.47
X182.88Y-80.01
X182.88Y-82.55
X182.88Y-85.09
X182.88Y-87.63
X182.88Y-90.17
X185.22Y-97.79
X187.47Y-67.31
X187.47Y-69.85
X187.47Y-72.39
X187.47Y-74.93
X187.47Y-77.47
X187.47Y-80.01
X187.47Y-82.55
X187.47Y-85.09
X187.47Y-87.63
X187.47Y-90.17
X187.76Y-97.79
X190.3Y-97.79
X192.06Y-67.31
X192.06Y-69.85
X192.06Y-72.39
X192.06Y-74.93
X192.06Y-77.47
X192.06Y-80.01
X192.06Y-82.55
X192.06Y-85.09
X192.06Y-87.63
X192.06Y-90.17
X192.84Y-97.79
X195.38Y-97.79
X196.65Y-67.31
X196.65Y-69.85
X196.65Y-72.39
X196.65Y-74.93
X196.65Y-77.47
X196.65Y-80.01
X196.65Y-82.55
X196.65Y-85.09
X196.65Y-87.63
X196.65Y-90.17
T5
X128.27Y-43.18
X128.27Y-45.72
X128.27Y-48.26
X128.27Y-50.8
X128.27Y-53.34
X128.27Y-55.88
X128.27Y-82.55
X128.27Y-85.09
X128.27Y-87.63
X128.27Y-90.17
X128.27Y-92.71
X128.27Y-95.25
X146.05Y-43.18
X146.05Y-45.72
X146.05Y-48.26
X146.05Y-50.8
X146.05Y-53.34
X146.05Y-55.88
X146.05Y-82.55
X146.05Y-85.09
X146.05Y-87.63
X146.05Y-90.17
X146.05Y-92.71
X146.05Y-95.25
X180.34Y-43.18
X180.34Y-45.72
X180.34Y-48.26
X180.34Y-50.8
X180.34Y-53.34
X180.34Y-55.88
X198.12Y-43.18
X198.12Y-45.72
X198.12Y-48.26
X198.12Y-50.8
X198.12Y-53.34
X198.12Y-55.88
T6
X111.76Y-140.97
X116.76Y-140.97
X152.4Y-105.41
X157.0Y-105.41
X168.3Y-105.41
X172.9Y-105.41
T7
X125.19Y-116.97
X125.19Y-124.77
X125.952Y-139.901
X125.952Y-147.701
M30
