G04 #@! TF.GenerationSoftware,KiCad,Pcbnew,9.0.5*
G04 #@! TF.CreationDate,2026-03-09T10:46:01+11:00*
G04 #@! TF.ProjectId,motor-controller-pcb,6d6f746f-722d-4636-9f6e-74726f6c6c65,rev?*
G04 #@! TF.SameCoordinates,Original*
G04 #@! TF.FileFunction,Copper,L1,Top*
G04 #@! TF.FilePolarity,Positive*
%FSLAX46Y46*%
G04 Gerber Fmt 4.6, Leading zero omitted, Abs format (unit mm)*
G04 Created by KiCad (PCBNEW 9.0.5) date 2026-03-09 10:46:01*
%MOMM*%
%LPD*%
G01*
G04 APERTURE LIST*
G04 Aperture macros list*
%AMRoundRect*
0 Rectangle with rounded corners*
0 $1 Rounding radius*
0 $2 $3 $4 $5 $6 $7 $8 $9 X,Y pos of 4 corners*
0 Add a 4 corners polygon primitive as box body*
4,1,4,$2,$3,$4,$5,$6,$7,$8,$9,$2,$3,0*
0 Add four circle primitives for the rounded corners*
1,1,$1+$1,$2,$3*
1,1,$1+$1,$4,$5*
1,1,$1+$1,$6,$7*
1,1,$1+$1,$8,$9*
0 Add four rect primitives between the rounded corners*
20,1,$1+$1,$2,$3,$4,$5,0*
20,1,$1+$1,$4,$5,$6,$7,0*
20,1,$1+$1,$6,$7,$8,$9,0*
20,1,$1+$1,$8,$9,$2,$3,0*%
%AMFreePoly0*
4,1,37,0.800000,0.796148,0.878414,0.796148,1.032228,0.765552,1.177117,0.705537,1.307515,0.618408,1.418408,0.507515,1.505537,0.377117,1.565552,0.232228,1.596148,0.078414,1.596148,-0.078414,1.565552,-0.232228,1.505537,-0.377117,1.418408,-0.507515,1.307515,-0.618408,1.177117,-0.705537,1.032228,-0.765552,0.878414,-0.796148,0.800000,-0.796148,0.800000,-0.800000,-1.400000,-0.800000,
-1.403843,-0.796157,-1.439018,-0.796157,-1.511114,-0.766294,-1.566294,-0.711114,-1.596157,-0.639018,-1.596157,-0.603843,-1.600000,-0.600000,-1.600000,0.600000,-1.596157,0.603843,-1.596157,0.639018,-1.566294,0.711114,-1.511114,0.766294,-1.439018,0.796157,-1.403843,0.796157,-1.400000,0.800000,0.800000,0.800000,0.800000,0.796148,0.800000,0.796148,$1*%
%AMFreePoly1*
4,1,37,1.403843,0.796157,1.439018,0.796157,1.511114,0.766294,1.566294,0.711114,1.596157,0.639018,1.596157,0.603843,1.600000,0.600000,1.600000,-0.600000,1.596157,-0.603843,1.596157,-0.639018,1.566294,-0.711114,1.511114,-0.766294,1.439018,-0.796157,1.403843,-0.796157,1.400000,-0.800000,-0.800000,-0.800000,-0.800000,-0.796148,-0.878414,-0.796148,-1.032228,-0.765552,-1.177117,-0.705537,
-1.307515,-0.618408,-1.418408,-0.507515,-1.505537,-0.377117,-1.565552,-0.232228,-1.596148,-0.078414,-1.596148,0.078414,-1.565552,0.232228,-1.505537,0.377117,-1.418408,0.507515,-1.307515,0.618408,-1.177117,0.705537,-1.032228,0.765552,-0.878414,0.796148,-0.800000,0.796148,-0.800000,0.800000,1.400000,0.800000,1.403843,0.796157,1.403843,0.796157,$1*%
%AMFreePoly2*
4,1,37,0.603843,0.796157,0.639018,0.796157,0.711114,0.766294,0.766294,0.711114,0.796157,0.639018,0.796157,0.603843,0.800000,0.600000,0.800000,-0.600000,0.796157,-0.603843,0.796157,-0.639018,0.766294,-0.711114,0.711114,-0.766294,0.639018,-0.796157,0.603843,-0.796157,0.600000,-0.800000,0.000000,-0.800000,0.000000,-0.796148,-0.078414,-0.796148,-0.232228,-0.765552,-0.377117,-0.705537,
-0.507515,-0.618408,-0.618408,-0.507515,-0.705537,-0.377117,-0.765552,-0.232228,-0.796148,-0.078414,-0.796148,0.078414,-0.765552,0.232228,-0.705537,0.377117,-0.618408,0.507515,-0.507515,0.618408,-0.377117,0.705537,-0.232228,0.765552,-0.078414,0.796148,0.000000,0.796148,0.000000,0.800000,0.600000,0.800000,0.603843,0.796157,0.603843,0.796157,$1*%
%AMFreePoly3*
4,1,37,0.000000,0.796148,0.078414,0.796148,0.232228,0.765552,0.377117,0.705537,0.507515,0.618408,0.618408,0.507515,0.705537,0.377117,0.765552,0.232228,0.796148,0.078414,0.796148,-0.078414,0.765552,-0.232228,0.705537,-0.377117,0.618408,-0.507515,0.507515,-0.618408,0.377117,-0.705537,0.232228,-0.765552,0.078414,-0.796148,0.000000,-0.796148,0.000000,-0.800000,-0.600000,-0.800000,
-0.603843,-0.796157,-0.639018,-0.796157,-0.711114,-0.766294,-0.766294,-0.711114,-0.796157,-0.639018,-0.796157,-0.603843,-0.800000,-0.600000,-0.800000,0.600000,-0.796157,0.603843,-0.796157,0.639018,-0.766294,0.711114,-0.711114,0.766294,-0.639018,0.796157,-0.603843,0.796157,-0.600000,0.800000,0.000000,0.800000,0.000000,0.796148,0.000000,0.796148,$1*%
G04 Aperture macros list end*
G04 #@! TA.AperFunction,ComponentPad*
%ADD10R,1.700000X1.700000*%
G04 #@! TD*
G04 #@! TA.AperFunction,ComponentPad*
%ADD11C,1.700000*%
G04 #@! TD*
G04 #@! TA.AperFunction,ComponentPad*
%ADD12RoundRect,0.250002X2.749998X-2.749998X2.749998X2.749998X-2.749998X2.749998X-2.749998X-2.749998X0*%
G04 #@! TD*
G04 #@! TA.AperFunction,ComponentPad*
%ADD13C,6.000000*%
G04 #@! TD*
G04 #@! TA.AperFunction,SMDPad,CuDef*
%ADD14RoundRect,0.250000X-0.250000X-0.475000X0.250000X-0.475000X0.250000X0.475000X-0.250000X0.475000X0*%
G04 #@! TD*
G04 #@! TA.AperFunction,SMDPad,CuDef*
%ADD15RoundRect,0.250000X0.250000X0.475000X-0.250000X0.475000X-0.250000X-0.475000X0.250000X-0.475000X0*%
G04 #@! TD*
G04 #@! TA.AperFunction,ComponentPad*
%ADD16C,2.000000*%
G04 #@! TD*
G04 #@! TA.AperFunction,SMDPad,CuDef*
%ADD17R,1.500000X1.500000*%
G04 #@! TD*
G04 #@! TA.AperFunction,ComponentPad*
%ADD18RoundRect,0.250001X1.149999X1.149999X-1.149999X1.149999X-1.149999X-1.149999X1.149999X-1.149999X0*%
G04 #@! TD*
G04 #@! TA.AperFunction,ComponentPad*
%ADD19C,2.800000*%
G04 #@! TD*
G04 #@! TA.AperFunction,SMDPad,CuDef*
%ADD20FreePoly0,0.000000*%
G04 #@! TD*
G04 #@! TA.AperFunction,ComponentPad*
%ADD21RoundRect,0.200000X-0.600000X-0.600000X0.600000X-0.600000X0.600000X0.600000X-0.600000X0.600000X0*%
G04 #@! TD*
G04 #@! TA.AperFunction,SMDPad,CuDef*
%ADD22RoundRect,0.800000X-0.800000X-0.000010X0.800000X-0.000010X0.800000X0.000010X-0.800000X0.000010X0*%
G04 #@! TD*
G04 #@! TA.AperFunction,ComponentPad*
%ADD23C,1.600000*%
G04 #@! TD*
G04 #@! TA.AperFunction,SMDPad,CuDef*
%ADD24FreePoly1,0.000000*%
G04 #@! TD*
G04 #@! TA.AperFunction,ComponentPad*
%ADD25FreePoly2,0.000000*%
G04 #@! TD*
G04 #@! TA.AperFunction,ComponentPad*
%ADD26FreePoly3,0.000000*%
G04 #@! TD*
G04 #@! TA.AperFunction,ComponentPad*
%ADD27RoundRect,0.575000X-0.575000X-0.575000X0.575000X-0.575000X0.575000X0.575000X-0.575000X0.575000X0*%
G04 #@! TD*
G04 #@! TA.AperFunction,ComponentPad*
%ADD28C,2.300000*%
G04 #@! TD*
G04 #@! TA.AperFunction,ComponentPad*
%ADD29RoundRect,0.250000X0.550000X-0.550000X0.550000X0.550000X-0.550000X0.550000X-0.550000X-0.550000X0*%
G04 #@! TD*
G04 #@! TA.AperFunction,ComponentPad*
%ADD30RoundRect,0.250000X-0.625000X0.350000X-0.625000X-0.350000X0.625000X-0.350000X0.625000X0.350000X0*%
G04 #@! TD*
G04 #@! TA.AperFunction,ComponentPad*
%ADD31O,1.750000X1.200000*%
G04 #@! TD*
G04 #@! TA.AperFunction,ComponentPad*
%ADD32RoundRect,0.250000X0.350000X0.625000X-0.350000X0.625000X-0.350000X-0.625000X0.350000X-0.625000X0*%
G04 #@! TD*
G04 #@! TA.AperFunction,ComponentPad*
%ADD33O,1.200000X1.750000*%
G04 #@! TD*
G04 #@! TA.AperFunction,ComponentPad*
%ADD34RoundRect,0.250000X0.625000X-0.350000X0.625000X0.350000X-0.625000X0.350000X-0.625000X-0.350000X0*%
G04 #@! TD*
G04 #@! TA.AperFunction,ViaPad*
%ADD35C,0.600000*%
G04 #@! TD*
G04 #@! TA.AperFunction,Conductor*
%ADD36C,0.250000*%
G04 #@! TD*
G04 #@! TA.AperFunction,Conductor*
%ADD37C,3.000000*%
G04 #@! TD*
G04 #@! TA.AperFunction,Conductor*
%ADD38C,7.500000*%
G04 #@! TD*
G04 #@! TA.AperFunction,Conductor*
%ADD39C,0.200000*%
G04 #@! TD*
G04 APERTURE END LIST*
D10*
G04 #@! TO.P,J7,1,Pin_1*
G04 #@! TO.N,GND*
X182880000Y-67310000D03*
D11*
G04 #@! TO.P,J7,2,Pin_2*
X182880000Y-69850000D03*
G04 #@! TO.P,J7,3,Pin_3*
X182880000Y-72390000D03*
G04 #@! TO.P,J7,4,Pin_4*
X182880000Y-74930000D03*
G04 #@! TO.P,J7,5,Pin_5*
X182880000Y-77470000D03*
G04 #@! TO.P,J7,6,Pin_6*
X182880000Y-80010000D03*
G04 #@! TO.P,J7,7,Pin_7*
X182880000Y-82550000D03*
G04 #@! TO.P,J7,8,Pin_8*
X182880000Y-85090000D03*
G04 #@! TO.P,J7,9,Pin_9*
X182880000Y-87630000D03*
G04 #@! TO.P,J7,10,Pin_10*
X182880000Y-90170000D03*
G04 #@! TD*
D12*
G04 #@! TO.P,J6,1,Pin_1*
G04 #@! TO.N,Net-(J6-Pin_1)*
X125925000Y-130810000D03*
D13*
G04 #@! TO.P,J6,2,Pin_2*
G04 #@! TO.N,GND*
X125925000Y-118810000D03*
G04 #@! TD*
D14*
G04 #@! TO.P,C2,1*
G04 #@! TO.N,+5V*
X145100000Y-78740000D03*
G04 #@! TO.P,C2,2*
G04 #@! TO.N,GND*
X147000000Y-78740000D03*
G04 #@! TD*
D15*
G04 #@! TO.P,C3,1*
G04 #@! TO.N,+5V*
X147000000Y-39370000D03*
G04 #@! TO.P,C3,2*
G04 #@! TO.N,GND*
X145100000Y-39370000D03*
G04 #@! TD*
D10*
G04 #@! TO.P,J11,1,Pin_1*
G04 #@! TO.N,/GPIO18*
X195380000Y-97790000D03*
D11*
G04 #@! TO.P,J11,2,Pin_2*
G04 #@! TO.N,/GPIO17*
X192840000Y-97790000D03*
G04 #@! TO.P,J11,3,Pin_3*
G04 #@! TO.N,/GPIO16*
X190300000Y-97790000D03*
G04 #@! TO.P,J11,4,Pin_4*
G04 #@! TO.N,/GPIO15*
X187760000Y-97790000D03*
G04 #@! TO.P,J11,5,Pin_5*
G04 #@! TO.N,/GPIO10*
X185220000Y-97790000D03*
G04 #@! TD*
D16*
G04 #@! TO.P,U3,1,DIR1*
G04 #@! TO.N,/DIR3*
X180340000Y-43180000D03*
G04 #@! TO.P,U3,2,PWM1*
G04 #@! TO.N,/PWM3*
X180340000Y-45720000D03*
G04 #@! TO.P,U3,3,PWM2*
G04 #@! TO.N,/PWM4*
X180340000Y-48260000D03*
G04 #@! TO.P,U3,4,DIR2*
G04 #@! TO.N,/DIR4*
X180340000Y-50800000D03*
G04 #@! TO.P,U3,5,GND*
G04 #@! TO.N,GND*
X180340000Y-53340000D03*
X198120000Y-53340000D03*
G04 #@! TO.P,U3,6,VCC*
G04 #@! TO.N,+5V*
X180340000Y-55880000D03*
G04 #@! TO.P,U3,7,M1+*
G04 #@! TO.N,Net-(J3-Pin_1)*
X198120000Y-43180000D03*
G04 #@! TO.P,U3,8,M1-*
G04 #@! TO.N,Net-(J3-Pin_6)*
X198120000Y-45720000D03*
G04 #@! TO.P,U3,9,M2+*
G04 #@! TO.N,Net-(J4-Pin_1)*
X198120000Y-48260000D03*
G04 #@! TO.P,U3,10,M2-*
G04 #@! TO.N,Net-(J4-Pin_6)*
X198120000Y-50800000D03*
G04 #@! TO.P,U3,11,VM*
G04 #@! TO.N,+BATT*
X198120000Y-55880000D03*
G04 #@! TD*
D12*
G04 #@! TO.P,SW1,1,A*
G04 #@! TO.N,Net-(SW1-A)*
X125925000Y-151130000D03*
D13*
G04 #@! TO.P,SW1,2,B*
G04 #@! TO.N,+BATT*
X125925000Y-139130000D03*
G04 #@! TD*
D17*
G04 #@! TO.P,TP1,1,1*
G04 #@! TO.N,+5V*
X181610000Y-106680000D03*
G04 #@! TD*
D18*
G04 #@! TO.P,J12,1,Pin_1*
G04 #@! TO.N,+BATT*
X116760000Y-140970000D03*
D19*
G04 #@! TO.P,J12,2,Pin_2*
G04 #@! TO.N,GND*
X111760000Y-140970000D03*
G04 #@! TD*
D20*
G04 #@! TO.P,A1,1,GPIO0*
G04 #@! TO.N,/DIR_DRIB*
X152870000Y-43557500D03*
D21*
X153670000Y-43557500D03*
D22*
G04 #@! TO.P,A1,2,GPIO1*
G04 #@! TO.N,/PWM_DRIB*
X152870000Y-46097500D03*
D23*
X153670000Y-46097500D03*
D24*
G04 #@! TO.P,A1,3,GND*
G04 #@! TO.N,GND*
X152870000Y-48637500D03*
D25*
X153670000Y-48637500D03*
D22*
G04 #@! TO.P,A1,4,GPIO2*
G04 #@! TO.N,/DIR1*
X152870000Y-51177500D03*
D23*
X153670000Y-51177500D03*
D22*
G04 #@! TO.P,A1,5,GPIO3*
G04 #@! TO.N,/PWM1*
X152870000Y-53717500D03*
D23*
X153670000Y-53717500D03*
D22*
G04 #@! TO.P,A1,6,GPIO4*
G04 #@! TO.N,/PWM2*
X152870000Y-56257500D03*
D23*
X153670000Y-56257500D03*
D22*
G04 #@! TO.P,A1,7,GPIO5*
G04 #@! TO.N,/DIR2*
X152870000Y-58797500D03*
D23*
X153670000Y-58797500D03*
D24*
G04 #@! TO.P,A1,8,GND*
G04 #@! TO.N,GND*
X152870000Y-61337500D03*
D25*
X153670000Y-61337500D03*
D22*
G04 #@! TO.P,A1,9,GPIO6*
G04 #@! TO.N,/DIR3*
X152870000Y-63877500D03*
D23*
X153670000Y-63877500D03*
D22*
G04 #@! TO.P,A1,10,GPIO7*
G04 #@! TO.N,/PWM3*
X152870000Y-66417500D03*
D23*
X153670000Y-66417500D03*
D22*
G04 #@! TO.P,A1,11,GPIO8*
G04 #@! TO.N,/PWM4*
X152870000Y-68957500D03*
D23*
X153670000Y-68957500D03*
D22*
G04 #@! TO.P,A1,12,GPIO9*
G04 #@! TO.N,/DIR4*
X152870000Y-71497500D03*
D23*
X153670000Y-71497500D03*
D24*
G04 #@! TO.P,A1,13,GND*
G04 #@! TO.N,GND*
X152870000Y-74037500D03*
D25*
X153670000Y-74037500D03*
D22*
G04 #@! TO.P,A1,14,GPIO10*
G04 #@! TO.N,/GPIO10*
X152870000Y-76577500D03*
D23*
X153670000Y-76577500D03*
D22*
G04 #@! TO.P,A1,15,GPIO11*
G04 #@! TO.N,/Encoder 1A*
X152870000Y-79117500D03*
D23*
X153670000Y-79117500D03*
D22*
G04 #@! TO.P,A1,16,GPIO12*
G04 #@! TO.N,/Encoder 1B*
X152870000Y-81657500D03*
D23*
X153670000Y-81657500D03*
D22*
G04 #@! TO.P,A1,17,GPIO13*
G04 #@! TO.N,/Encoder 3A*
X152870000Y-84197500D03*
D23*
X153670000Y-84197500D03*
D24*
G04 #@! TO.P,A1,18,GND*
G04 #@! TO.N,GND*
X152870000Y-86737500D03*
D25*
X153670000Y-86737500D03*
D22*
G04 #@! TO.P,A1,19,GPIO14*
G04 #@! TO.N,/Encoder 3B*
X152870000Y-89277500D03*
D23*
X153670000Y-89277500D03*
D22*
G04 #@! TO.P,A1,20,GPIO15*
G04 #@! TO.N,/GPIO15*
X152870000Y-91817500D03*
D23*
X153670000Y-91817500D03*
G04 #@! TO.P,A1,21,GPIO16*
G04 #@! TO.N,/GPIO16*
X171450000Y-91817500D03*
D22*
X172250000Y-91817500D03*
D23*
G04 #@! TO.P,A1,22,GPIO17*
G04 #@! TO.N,/GPIO17*
X171450000Y-89277500D03*
D22*
X172250000Y-89277500D03*
D26*
G04 #@! TO.P,A1,23,GND*
G04 #@! TO.N,GND*
X171450000Y-86737500D03*
D20*
X172250000Y-86737500D03*
D23*
G04 #@! TO.P,A1,24,GPIO18*
G04 #@! TO.N,/GPIO18*
X171450000Y-84197500D03*
D22*
X172250000Y-84197500D03*
D23*
G04 #@! TO.P,A1,25,GPIO19*
G04 #@! TO.N,/Encoder 2A*
X171450000Y-81657500D03*
D22*
X172250000Y-81657500D03*
D23*
G04 #@! TO.P,A1,26,GPIO20*
G04 #@! TO.N,/Encoder 2B*
X171450000Y-79117500D03*
D22*
X172250000Y-79117500D03*
D23*
G04 #@! TO.P,A1,27,GPIO21*
G04 #@! TO.N,/Encoder 4A*
X171450000Y-76577500D03*
D22*
X172250000Y-76577500D03*
D26*
G04 #@! TO.P,A1,28,GND*
G04 #@! TO.N,GND*
X171450000Y-74037500D03*
D20*
X172250000Y-74037500D03*
D23*
G04 #@! TO.P,A1,29,GPIO22*
G04 #@! TO.N,/Encoder 4B*
X171450000Y-71497500D03*
D22*
X172250000Y-71497500D03*
D23*
G04 #@! TO.P,A1,30,RUN*
G04 #@! TO.N,unconnected-(A1-RUN-Pad30)_1*
X171450000Y-68957500D03*
D22*
G04 #@! TO.N,unconnected-(A1-RUN-Pad30)*
X172250000Y-68957500D03*
D23*
G04 #@! TO.P,A1,31,GPIO26_ADC0*
G04 #@! TO.N,unconnected-(A1-GPIO26_ADC0-Pad31)*
X171450000Y-66417500D03*
D22*
G04 #@! TO.N,unconnected-(A1-GPIO26_ADC0-Pad31)_1*
X172250000Y-66417500D03*
D23*
G04 #@! TO.P,A1,32,GPIO27_ADC1*
G04 #@! TO.N,unconnected-(A1-GPIO27_ADC1-Pad32)_1*
X171450000Y-63877500D03*
D22*
G04 #@! TO.N,unconnected-(A1-GPIO27_ADC1-Pad32)*
X172250000Y-63877500D03*
D26*
G04 #@! TO.P,A1,33,AGND*
G04 #@! TO.N,unconnected-(A1-AGND-Pad33)_1*
X171450000Y-61337500D03*
D20*
G04 #@! TO.N,unconnected-(A1-AGND-Pad33)*
X172250000Y-61337500D03*
D23*
G04 #@! TO.P,A1,34,GPIO28_ADC2*
G04 #@! TO.N,unconnected-(A1-GPIO28_ADC2-Pad34)*
X171450000Y-58797500D03*
D22*
G04 #@! TO.N,unconnected-(A1-GPIO28_ADC2-Pad34)_1*
X172250000Y-58797500D03*
D23*
G04 #@! TO.P,A1,35,ADC_VREF*
G04 #@! TO.N,unconnected-(A1-ADC_VREF-Pad35)*
X171450000Y-56257500D03*
D22*
G04 #@! TO.N,unconnected-(A1-ADC_VREF-Pad35)_1*
X172250000Y-56257500D03*
D23*
G04 #@! TO.P,A1,36,3V3*
G04 #@! TO.N,+3V3*
X171450000Y-53717500D03*
D22*
X172250000Y-53717500D03*
D23*
G04 #@! TO.P,A1,37,3V3_EN*
G04 #@! TO.N,unconnected-(A1-3V3_EN-Pad37)*
X171450000Y-51177500D03*
D22*
G04 #@! TO.N,unconnected-(A1-3V3_EN-Pad37)_1*
X172250000Y-51177500D03*
D26*
G04 #@! TO.P,A1,38,GND*
G04 #@! TO.N,GND*
X171450000Y-48637500D03*
D20*
X172250000Y-48637500D03*
D23*
G04 #@! TO.P,A1,39,VSYS*
G04 #@! TO.N,unconnected-(A1-VSYS-Pad39)_1*
X171450000Y-46097500D03*
D22*
G04 #@! TO.N,unconnected-(A1-VSYS-Pad39)*
X172250000Y-46097500D03*
D23*
G04 #@! TO.P,A1,40,VBUS*
G04 #@! TO.N,+5V*
X171450000Y-43557500D03*
D22*
X172250000Y-43557500D03*
G04 #@! TD*
D17*
G04 #@! TO.P,TP2,1,1*
G04 #@! TO.N,GND*
X186690000Y-106680000D03*
G04 #@! TD*
D10*
G04 #@! TO.P,J10,1,Pin_1*
G04 #@! TO.N,+3V3*
X196650000Y-67310000D03*
D11*
G04 #@! TO.P,J10,2,Pin_2*
X196650000Y-69850000D03*
G04 #@! TO.P,J10,3,Pin_3*
X196650000Y-72390000D03*
G04 #@! TO.P,J10,4,Pin_4*
X196650000Y-74930000D03*
G04 #@! TO.P,J10,5,Pin_5*
X196650000Y-77470000D03*
G04 #@! TO.P,J10,6,Pin_6*
X196650000Y-80010000D03*
G04 #@! TO.P,J10,7,Pin_7*
X196650000Y-82550000D03*
G04 #@! TO.P,J10,8,Pin_8*
X196650000Y-85090000D03*
G04 #@! TO.P,J10,9,Pin_9*
X196650000Y-87630000D03*
G04 #@! TO.P,J10,10,Pin_10*
X196650000Y-90170000D03*
G04 #@! TD*
D14*
G04 #@! TO.P,C4,1*
G04 #@! TO.N,+5V*
X179390000Y-60960000D03*
G04 #@! TO.P,C4,2*
G04 #@! TO.N,GND*
X181290000Y-60960000D03*
G04 #@! TD*
D16*
G04 #@! TO.P,U1,1,DIR1*
G04 #@! TO.N,/DIR_DRIB*
X146050000Y-95250000D03*
G04 #@! TO.P,U1,2,PWM1*
G04 #@! TO.N,/PWM_DRIB*
X146050000Y-92710000D03*
G04 #@! TO.P,U1,3,PWM2*
G04 #@! TO.N,unconnected-(U1-PWM2-Pad3)*
X146050000Y-90170000D03*
G04 #@! TO.P,U1,4,DIR2*
G04 #@! TO.N,unconnected-(U1-DIR2-Pad4)*
X146050000Y-87630000D03*
G04 #@! TO.P,U1,5,GND*
G04 #@! TO.N,GND*
X146050000Y-85090000D03*
X128270000Y-85090000D03*
G04 #@! TO.P,U1,6,VCC*
G04 #@! TO.N,+5V*
X146050000Y-82550000D03*
G04 #@! TO.P,U1,7,M1+*
G04 #@! TO.N,Net-(J5-Pin_1)*
X128270000Y-95250000D03*
G04 #@! TO.P,U1,8,M1-*
G04 #@! TO.N,Net-(J5-Pin_6)*
X128270000Y-92710000D03*
G04 #@! TO.P,U1,9,M2+*
G04 #@! TO.N,unconnected-(U1-M2+-Pad9)*
X128270000Y-90170000D03*
G04 #@! TO.P,U1,10,M2-*
G04 #@! TO.N,unconnected-(U1-M2--Pad10)*
X128270000Y-87630000D03*
G04 #@! TO.P,U1,11,VM*
G04 #@! TO.N,+BATT*
X128270000Y-82550000D03*
G04 #@! TD*
D27*
G04 #@! TO.P,F1,1*
G04 #@! TO.N,Net-(SW1-A)*
X152400000Y-105410000D03*
X157000000Y-105410000D03*
D28*
G04 #@! TO.P,F1,2*
G04 #@! TO.N,Net-(J6-Pin_1)*
X168300000Y-105410000D03*
X172900000Y-105410000D03*
G04 #@! TD*
D17*
G04 #@! TO.P,TP3,1,1*
G04 #@! TO.N,+BATT*
X191510000Y-106680000D03*
G04 #@! TD*
G04 #@! TO.P,TP4,1,1*
G04 #@! TO.N,+3V3*
X196850000Y-106680000D03*
G04 #@! TD*
D10*
G04 #@! TO.P,J9,1,Pin_1*
G04 #@! TO.N,+BATT*
X192060000Y-67310000D03*
D11*
G04 #@! TO.P,J9,2,Pin_2*
X192060000Y-69850000D03*
G04 #@! TO.P,J9,3,Pin_3*
X192060000Y-72390000D03*
G04 #@! TO.P,J9,4,Pin_4*
X192060000Y-74930000D03*
G04 #@! TO.P,J9,5,Pin_5*
X192060000Y-77470000D03*
G04 #@! TO.P,J9,6,Pin_6*
X192060000Y-80010000D03*
G04 #@! TO.P,J9,7,Pin_7*
X192060000Y-82550000D03*
G04 #@! TO.P,J9,8,Pin_8*
X192060000Y-85090000D03*
G04 #@! TO.P,J9,9,Pin_9*
X192060000Y-87630000D03*
G04 #@! TO.P,J9,10,Pin_10*
X192060000Y-90170000D03*
G04 #@! TD*
D29*
G04 #@! TO.P,C1,1*
G04 #@! TO.N,+BATT*
X115570000Y-129540000D03*
D23*
G04 #@! TO.P,C1,2*
G04 #@! TO.N,GND*
X115570000Y-126040000D03*
G04 #@! TD*
D10*
G04 #@! TO.P,J8,1,Pin_1*
G04 #@! TO.N,+5V*
X187470000Y-67310000D03*
D11*
G04 #@! TO.P,J8,2,Pin_2*
X187470000Y-69850000D03*
G04 #@! TO.P,J8,3,Pin_3*
X187470000Y-72390000D03*
G04 #@! TO.P,J8,4,Pin_4*
X187470000Y-74930000D03*
G04 #@! TO.P,J8,5,Pin_5*
X187470000Y-77470000D03*
G04 #@! TO.P,J8,6,Pin_6*
X187470000Y-80010000D03*
G04 #@! TO.P,J8,7,Pin_7*
X187470000Y-82550000D03*
G04 #@! TO.P,J8,8,Pin_8*
X187470000Y-85090000D03*
G04 #@! TO.P,J8,9,Pin_9*
X187470000Y-87630000D03*
G04 #@! TO.P,J8,10,Pin_10*
X187470000Y-90170000D03*
G04 #@! TD*
D16*
G04 #@! TO.P,U2,1,DIR1*
G04 #@! TO.N,/DIR1*
X146050000Y-55880000D03*
G04 #@! TO.P,U2,2,PWM1*
G04 #@! TO.N,/PWM1*
X146050000Y-53340000D03*
G04 #@! TO.P,U2,3,PWM2*
G04 #@! TO.N,/PWM2*
X146050000Y-50800000D03*
G04 #@! TO.P,U2,4,DIR2*
G04 #@! TO.N,/DIR2*
X146050000Y-48260000D03*
G04 #@! TO.P,U2,5,GND*
G04 #@! TO.N,GND*
X146050000Y-45720000D03*
X128270000Y-45720000D03*
G04 #@! TO.P,U2,6,VCC*
G04 #@! TO.N,+5V*
X146050000Y-43180000D03*
G04 #@! TO.P,U2,7,M1+*
G04 #@! TO.N,Net-(J1-Pin_1)*
X128270000Y-55880000D03*
G04 #@! TO.P,U2,8,M1-*
G04 #@! TO.N,Net-(J1-Pin_6)*
X128270000Y-53340000D03*
G04 #@! TO.P,U2,9,M2+*
G04 #@! TO.N,Net-(J2-Pin_1)*
X128270000Y-50800000D03*
G04 #@! TO.P,U2,10,M2-*
G04 #@! TO.N,Net-(J2-Pin_6)*
X128270000Y-48260000D03*
G04 #@! TO.P,U2,11,VM*
G04 #@! TO.N,+BATT*
X128270000Y-43180000D03*
G04 #@! TD*
D30*
G04 #@! TO.P,J3,1,Pin_1*
G04 #@! TO.N,Net-(J3-Pin_1)*
X212090000Y-43340000D03*
D31*
G04 #@! TO.P,J3,2,Pin_2*
G04 #@! TO.N,GND*
X212090000Y-45340000D03*
G04 #@! TO.P,J3,3,Pin_3*
G04 #@! TO.N,/Encoder 3A*
X212090000Y-47340000D03*
G04 #@! TO.P,J3,4,Pin_4*
G04 #@! TO.N,/Encoder 3B*
X212090000Y-49340000D03*
G04 #@! TO.P,J3,5,Pin_5*
G04 #@! TO.N,+5V*
X212090000Y-51340000D03*
G04 #@! TO.P,J3,6,Pin_6*
G04 #@! TO.N,Net-(J3-Pin_6)*
X212090000Y-53340000D03*
G04 #@! TD*
D32*
G04 #@! TO.P,J5,1,Pin_1*
G04 #@! TO.N,Net-(J5-Pin_1)*
X140716000Y-103124000D03*
D33*
G04 #@! TO.P,J5,2,Pin_2*
G04 #@! TO.N,unconnected-(J5-Pin_2-Pad2)*
X138716000Y-103124000D03*
G04 #@! TO.P,J5,3,Pin_3*
G04 #@! TO.N,unconnected-(J5-Pin_3-Pad3)*
X136716000Y-103124000D03*
G04 #@! TO.P,J5,4,Pin_4*
G04 #@! TO.N,unconnected-(J5-Pin_4-Pad4)*
X134716000Y-103124000D03*
G04 #@! TO.P,J5,5,Pin_5*
G04 #@! TO.N,unconnected-(J5-Pin_5-Pad5)*
X132716000Y-103124000D03*
G04 #@! TO.P,J5,6,Pin_6*
G04 #@! TO.N,Net-(J5-Pin_6)*
X130716000Y-103124000D03*
G04 #@! TD*
D34*
G04 #@! TO.P,J2,1,Pin_1*
G04 #@! TO.N,Net-(J2-Pin_1)*
X115570000Y-53180000D03*
D31*
G04 #@! TO.P,J2,2,Pin_2*
G04 #@! TO.N,GND*
X115570000Y-51180000D03*
G04 #@! TO.P,J2,3,Pin_3*
G04 #@! TO.N,/Encoder 2A*
X115570000Y-49180000D03*
G04 #@! TO.P,J2,4,Pin_4*
G04 #@! TO.N,/Encoder 2B*
X115570000Y-47180000D03*
G04 #@! TO.P,J2,5,Pin_5*
G04 #@! TO.N,+5V*
X115570000Y-45180000D03*
G04 #@! TO.P,J2,6,Pin_6*
G04 #@! TO.N,Net-(J2-Pin_6)*
X115570000Y-43180000D03*
G04 #@! TD*
D30*
G04 #@! TO.P,J4,1,Pin_1*
G04 #@! TO.N,Net-(J4-Pin_1)*
X213360000Y-82550000D03*
D31*
G04 #@! TO.P,J4,2,Pin_2*
G04 #@! TO.N,GND*
X213360000Y-84550000D03*
G04 #@! TO.P,J4,3,Pin_3*
G04 #@! TO.N,/Encoder 4A*
X213360000Y-86550000D03*
G04 #@! TO.P,J4,4,Pin_4*
G04 #@! TO.N,/Encoder 4B*
X213360000Y-88550000D03*
G04 #@! TO.P,J4,5,Pin_5*
G04 #@! TO.N,+5V*
X213360000Y-90550000D03*
G04 #@! TO.P,J4,6,Pin_6*
G04 #@! TO.N,Net-(J4-Pin_6)*
X213360000Y-92550000D03*
G04 #@! TD*
D34*
G04 #@! TO.P,J1,1,Pin_1*
G04 #@! TO.N,Net-(J1-Pin_1)*
X116290000Y-93900000D03*
D31*
G04 #@! TO.P,J1,2,Pin_2*
G04 #@! TO.N,GND*
X116290000Y-91900000D03*
G04 #@! TO.P,J1,3,Pin_3*
G04 #@! TO.N,/Encoder 1A*
X116290000Y-89900000D03*
G04 #@! TO.P,J1,4,Pin_4*
G04 #@! TO.N,/Encoder 1B*
X116290000Y-87900000D03*
G04 #@! TO.P,J1,5,Pin_5*
G04 #@! TO.N,+5V*
X116290000Y-85900000D03*
G04 #@! TO.P,J1,6,Pin_6*
G04 #@! TO.N,Net-(J1-Pin_6)*
X116290000Y-83900000D03*
G04 #@! TD*
D35*
G04 #@! TO.N,GND*
X148590000Y-48260000D03*
X187960000Y-102870000D03*
X155716798Y-54935491D03*
X177800000Y-53340000D03*
G04 #@! TO.N,/GPIO16*
X171450000Y-110490000D03*
G04 #@! TO.N,+5V*
X176530000Y-54610000D03*
G04 #@! TO.N,/Encoder 2B*
X163830000Y-68580000D03*
G04 #@! TO.N,/GPIO18*
X176530000Y-92710000D03*
G04 #@! TO.N,+BATT*
X130329942Y-99959000D03*
X168011000Y-99959000D03*
X180340000Y-92710000D03*
G04 #@! TD*
D36*
G04 #@! TO.N,/DIR_DRIB*
X164907000Y-69026108D02*
X164907000Y-68133892D01*
X146050000Y-95250000D02*
X147826000Y-93474000D01*
X163383892Y-69657000D02*
X164276108Y-69657000D01*
X161270392Y-67543500D02*
X163383892Y-69657000D01*
X151603594Y-67543500D02*
X161270392Y-67543500D01*
X157480000Y-47367500D02*
X153670000Y-43557500D01*
X147826000Y-93474000D02*
X147826000Y-71321094D01*
X157480000Y-60706892D02*
X157480000Y-47367500D01*
X164907000Y-68133892D02*
X157480000Y-60706892D01*
X164276108Y-69657000D02*
X164907000Y-69026108D01*
X147826000Y-71321094D02*
X151603594Y-67543500D01*
G04 #@! TO.N,GND*
X144600062Y-39869938D02*
X144600062Y-44270062D01*
X178321500Y-83071500D02*
X182880000Y-87630000D01*
X170324000Y-85611500D02*
X171450000Y-86737500D01*
X122810000Y-51180000D02*
X128270000Y-45720000D01*
X186690000Y-104140000D02*
X187960000Y-102870000D01*
X154796000Y-89743906D02*
X154136405Y-90403500D01*
X154136405Y-90403500D02*
X151603594Y-90403500D01*
X172250000Y-86737500D02*
X170324000Y-84811500D01*
X146050000Y-85090000D02*
X147376000Y-83764000D01*
X155716798Y-59290702D02*
X155716798Y-54935491D01*
X170324000Y-83731095D02*
X170324000Y-85611500D01*
X181290000Y-60960000D02*
X181290000Y-65720000D01*
X145100000Y-39370000D02*
X144600062Y-39869938D01*
X175260000Y-51642500D02*
X175260000Y-54225298D01*
X154796000Y-87863500D02*
X154796000Y-89743906D01*
X170324000Y-83731094D02*
X170983595Y-83071500D01*
X181290000Y-65720000D02*
X182880000Y-67310000D01*
X147376000Y-83764000D02*
X147376000Y-80066000D01*
X176789298Y-55236000D02*
X177800000Y-54225298D01*
X150488000Y-76414500D02*
X152865000Y-74037500D01*
X170983594Y-83071500D02*
X170324000Y-83731095D01*
X153670000Y-86737500D02*
X154796000Y-87863500D01*
X186690000Y-106680000D02*
X186690000Y-104140000D01*
X170324000Y-84811500D02*
X170324000Y-83731094D01*
X171450000Y-74037500D02*
X172342500Y-74930000D01*
X171450000Y-48637500D02*
X172255000Y-48637500D01*
X146050000Y-45720000D02*
X148590000Y-48260000D01*
X176270702Y-55236000D02*
X176789298Y-55236000D01*
X175260000Y-54225298D02*
X176270702Y-55236000D01*
X182358500Y-83071500D02*
X170983594Y-83071500D01*
X152865000Y-74037500D02*
X153670000Y-74037500D01*
X115570000Y-51180000D02*
X122810000Y-51180000D01*
X153670000Y-61337500D02*
X155716798Y-59290702D01*
X147000000Y-79690000D02*
X147000000Y-78740000D01*
X172255000Y-48637500D02*
X175260000Y-51642500D01*
X170983595Y-83071500D02*
X178321500Y-83071500D01*
X144600062Y-44270062D02*
X146050000Y-45720000D01*
X151603594Y-90403500D02*
X150488000Y-89287906D01*
X182880000Y-82550000D02*
X182358500Y-83071500D01*
X177800000Y-54225298D02*
X177800000Y-53340000D01*
X172342500Y-74930000D02*
X182880000Y-74930000D01*
X147376000Y-80066000D02*
X147000000Y-79690000D01*
X150488000Y-89287906D02*
X150488000Y-76414500D01*
G04 #@! TO.N,/GPIO16*
X165100000Y-104297380D02*
X165100000Y-98167500D01*
X171450000Y-110490000D02*
X171292620Y-110490000D01*
X165100000Y-98167500D02*
X171450000Y-91817500D01*
X171292620Y-110490000D02*
X165100000Y-104297380D01*
G04 #@! TO.N,+5V*
X182686000Y-107756000D02*
X181610000Y-106680000D01*
X212090000Y-51340000D02*
X213291000Y-52541000D01*
X197926000Y-107756000D02*
X182686000Y-107756000D01*
D37*
X187470000Y-90170000D02*
X187470000Y-67310000D01*
D36*
X212159000Y-93523000D02*
X197926000Y-107756000D01*
X212090000Y-89280000D02*
X213360000Y-90550000D01*
X171450000Y-43557500D02*
X170072500Y-42180000D01*
X145595514Y-38319000D02*
X146050000Y-38773486D01*
X179390000Y-60960000D02*
X179390000Y-56830000D01*
X145100000Y-81600000D02*
X146050000Y-82550000D01*
X150939000Y-51638906D02*
X150939000Y-48069000D01*
X156341798Y-60206500D02*
X156341798Y-54508893D01*
X156341798Y-54508893D02*
X154136405Y-52303500D01*
X154136405Y-52303500D02*
X151603594Y-52303500D01*
X145100000Y-78740000D02*
X145100000Y-81600000D01*
X163570702Y-69206000D02*
X164089298Y-69206000D01*
X122431000Y-38319000D02*
X145595514Y-38319000D01*
X164456000Y-68320702D02*
X156341798Y-60206500D01*
X213291000Y-53723562D02*
X212090000Y-54924562D01*
X151603594Y-52303500D02*
X150939000Y-51638906D01*
X164089298Y-69206000D02*
X164456000Y-68839298D01*
X147050000Y-42180000D02*
X146050000Y-43180000D01*
X213291000Y-52541000D02*
X213291000Y-53723562D01*
X213360000Y-90550000D02*
X212159000Y-91751000D01*
X170072500Y-42180000D02*
X147050000Y-42180000D01*
X146050000Y-70557094D02*
X151603594Y-65003500D01*
X172581370Y-43557500D02*
X176530000Y-47506130D01*
X164456000Y-68839298D02*
X164456000Y-68320702D01*
X212159000Y-91751000D02*
X212159000Y-93523000D01*
X150939000Y-48069000D02*
X146050000Y-43180000D01*
X146050000Y-82550000D02*
X146050000Y-70557094D01*
X176530000Y-47506130D02*
X176530000Y-54610000D01*
X147000000Y-39370000D02*
X146050000Y-39370000D01*
X146050000Y-38773486D02*
X146050000Y-39370000D01*
X146050000Y-39370000D02*
X146050000Y-43180000D01*
X115570000Y-45180000D02*
X122431000Y-38319000D01*
D37*
X181610000Y-96030000D02*
X187470000Y-90170000D01*
D36*
X159368202Y-65003500D02*
X163570702Y-69206000D01*
X171450000Y-43557500D02*
X172581370Y-43557500D01*
X212090000Y-54924562D02*
X212090000Y-89280000D01*
X151603594Y-65003500D02*
X159368202Y-65003500D01*
D37*
X181610000Y-106680000D02*
X181610000Y-96030000D01*
D36*
X179390000Y-56830000D02*
X180340000Y-55880000D01*
G04 #@! TO.N,/Encoder 3B*
X212748562Y-44414000D02*
X209801810Y-44414000D01*
X213291000Y-48139000D02*
X213291000Y-44956438D01*
X157885068Y-83071500D02*
X151603594Y-83071500D01*
X178564000Y-65323906D02*
X173516406Y-70371500D01*
X167106019Y-73850549D02*
X157885068Y-83071500D01*
X212090000Y-49340000D02*
X213291000Y-48139000D01*
X213291000Y-44956438D02*
X212748562Y-44414000D01*
X169658833Y-70371500D02*
X167106019Y-72924314D01*
X167106019Y-72924314D02*
X167106019Y-73850549D01*
X209801810Y-44414000D02*
X206790810Y-41403000D01*
X206790810Y-41403000D02*
X180241752Y-41403000D01*
X150939000Y-87346500D02*
X152870000Y-89277500D01*
X173516406Y-70371500D02*
X169658833Y-70371500D01*
X178564000Y-43080752D02*
X178564000Y-65323906D01*
X180241752Y-41403000D02*
X178564000Y-43080752D01*
X150939000Y-83736094D02*
X150939000Y-87346500D01*
X151603594Y-83071500D02*
X150939000Y-83736094D01*
D37*
G04 #@! TO.N,+3V3*
X196650000Y-90170000D02*
X196650000Y-67310000D01*
D36*
X196850000Y-90370000D02*
X196650000Y-90170000D01*
X196850000Y-106680000D02*
X196850000Y-90370000D01*
G04 #@! TO.N,/PWM2*
X144724000Y-56429248D02*
X148218252Y-59923500D01*
X154796000Y-57383500D02*
X153670000Y-56257500D01*
X154796000Y-59263905D02*
X154796000Y-57383500D01*
X144724000Y-52126000D02*
X144724000Y-56429248D01*
X148218252Y-59923500D02*
X154136406Y-59923500D01*
X146050000Y-50800000D02*
X144724000Y-52126000D01*
X154136406Y-59923500D02*
X154796000Y-59263905D01*
G04 #@! TO.N,/DIR2*
X147376000Y-49586000D02*
X147376000Y-53634870D01*
X147376000Y-53634870D02*
X152538630Y-58797500D01*
X146050000Y-48260000D02*
X147376000Y-49586000D01*
X152538630Y-58797500D02*
X153670000Y-58797500D01*
G04 #@! TO.N,/Encoder 2B*
X149716748Y-62751500D02*
X158001500Y-62751500D01*
X115570000Y-47180000D02*
X120896000Y-41854000D01*
X158001500Y-62751500D02*
X163830000Y-68580000D01*
X120896000Y-41854000D02*
X128819248Y-41854000D01*
X128819248Y-41854000D02*
X149716748Y-62751500D01*
G04 #@! TO.N,/GPIO18*
X176530000Y-92710000D02*
X176530000Y-88477500D01*
X176530000Y-88477500D02*
X172250000Y-84197500D01*
G04 #@! TO.N,Net-(J1-Pin_6)*
X116290000Y-83900000D02*
X116290000Y-65320000D01*
X116290000Y-65320000D02*
X128270000Y-53340000D01*
D37*
G04 #@! TO.N,+BATT*
X173091000Y-99959000D02*
X168011000Y-99959000D01*
D36*
X191510000Y-106680000D02*
X191510000Y-90720000D01*
X191510000Y-90720000D02*
X192060000Y-90170000D01*
D37*
X116335000Y-129540000D02*
X125925000Y-139130000D01*
D36*
X128270000Y-43180000D02*
X129596000Y-44506000D01*
D38*
X118951000Y-139130000D02*
X117111000Y-140970000D01*
D37*
X115570000Y-129540000D02*
X116335000Y-129540000D01*
D38*
X125925000Y-139130000D02*
X118951000Y-139130000D01*
D36*
X198120000Y-57150000D02*
X192060000Y-63210000D01*
X198120000Y-55880000D02*
X198120000Y-57150000D01*
X128270000Y-82550000D02*
X130329942Y-84609942D01*
X129596000Y-81224000D02*
X128270000Y-82550000D01*
X129596000Y-44506000D02*
X129596000Y-81224000D01*
X130329942Y-84609942D02*
X130329942Y-99959000D01*
D37*
X180340000Y-92710000D02*
X173091000Y-99959000D01*
D36*
X192060000Y-63210000D02*
X192060000Y-67310000D01*
D37*
X192060000Y-90170000D02*
X192060000Y-67310000D01*
D36*
G04 #@! TO.N,/Encoder 3A*
X212090000Y-47340000D02*
X206604000Y-41854000D01*
X180216000Y-65923906D02*
X173516406Y-72623500D01*
X173516406Y-72623500D02*
X170569023Y-72623500D01*
X180216000Y-59208752D02*
X180216000Y-65923906D01*
X206604000Y-41854000D02*
X197570752Y-41854000D01*
X197570752Y-41854000D02*
X180216000Y-59208752D01*
X170569023Y-72623500D02*
X158995023Y-84197500D01*
X158995023Y-84197500D02*
X153670000Y-84197500D01*
D38*
G04 #@! TO.N,Net-(SW1-A)*
X152400000Y-105410000D02*
X152400000Y-124214000D01*
X152400000Y-124214000D02*
X125925000Y-150689000D01*
D39*
G04 #@! TO.N,Net-(J5-Pin_6)*
X129728942Y-102136942D02*
X129728942Y-94168942D01*
X129728942Y-94168942D02*
X128270000Y-92710000D01*
X130716000Y-103124000D02*
X129728942Y-102136942D01*
G04 #@! TO.N,Net-(J5-Pin_1)*
X140716000Y-103124000D02*
X139540000Y-104300000D01*
X139540000Y-104300000D02*
X129192000Y-104300000D01*
X128270000Y-103378000D02*
X128270000Y-95250000D01*
X129192000Y-104300000D02*
X128270000Y-103378000D01*
G04 #@! TD*
M02*
